<svg width="86" height="21" viewBox="0 0 86 21" fill="none" xmlns="http://www.w3.org/2000/svg">
<path d="M75.1118 0.648193C73.3763 0.648193 71.969 1.98212 71.969 3.62713C71.969 5.27231 73.3763 6.60605 75.1118 6.60605C76.8474 6.60605 78.2543 5.27231 78.2543 3.62713C78.2543 1.98212 76.8474 0.648193 75.1118 0.648193ZM82.3858 7.66922C80.6503 7.66922 79.2433 9.00315 79.2433 10.6482C79.2433 12.2935 80.6503 13.6271 82.3858 13.6271C84.1214 13.6271 85.5285 12.2935 85.5285 10.6482C85.5285 9.00315 84.1214 7.66922 82.3858 7.66922ZM67.8378 7.66922C66.1023 7.66922 64.695 9.00315 64.695 10.6482C64.695 12.2935 66.1023 13.6271 67.8378 13.6271C69.5734 13.6271 70.9803 12.2935 70.9803 10.6482C70.9803 9.00315 69.5734 7.66922 67.8378 7.66922ZM75.1118 7.66922C73.3763 7.66922 71.969 9.00315 71.969 10.6482C71.969 12.2935 73.3763 13.6271 75.1118 13.6271C76.8474 13.6271 78.2543 12.2935 78.2543 10.6482C78.2543 9.00315 76.8474 7.66922 75.1118 7.66922ZM75.1118 14.6904C73.3763 14.6904 71.969 16.0243 71.969 17.6692C71.969 19.3145 73.3763 20.6481 75.1118 20.6481C76.8474 20.6481 78.2543 19.3145 78.2543 17.6692C78.2543 16.0243 76.8474 14.6904 75.1118 14.6904Z" fill="white"/>
<path d="M35.4127 9.05419V5.0054H43.2718L44.9258 0.648259H28.9282V20.6482H35.4127V13.4249H40.0806L41.74 9.05419H35.4127ZM49.9268 14.1181L52.4318 5.78678L55.0239 14.1181H49.9268ZM49.1634 0.648259L41.5729 20.6482H47.9577L48.7688 17.9615H56.0961L56.9435 20.6482H63.492L55.9052 0.648259H49.1634ZM17.9822 20.6482H24.4663V0.648259H17.9817L17.9822 20.6482ZM0 20.6482H6.48456V13.4249H11.1526L12.8119 9.05419H6.48456V5.0054H14.3436L15.9979 0.648259H0V20.6482ZM58.5053 1.28992C58.5446 1.19629 58.5978 1.11532 58.6652 1.04717C58.7327 0.97885 58.8114 0.92607 58.9017 0.888293C58.9919 0.850878 59.0891 0.831899 59.1927 0.831899C59.2965 0.831899 59.3937 0.850878 59.4839 0.888293C59.574 0.92607 59.6529 0.97885 59.7203 1.04717C59.7878 1.11532 59.841 1.19629 59.8801 1.28992C59.9194 1.38355 59.9392 1.48531 59.9392 1.59557C59.9392 1.70582 59.9194 1.80777 59.8801 1.90121C59.841 1.99484 59.7878 2.07581 59.7203 2.14396C59.6529 2.21228 59.574 2.26524 59.4839 2.30284C59.3937 2.34043 59.2965 2.35923 59.1927 2.35923C59.0891 2.35923 58.9919 2.34043 58.9017 2.30284C58.8114 2.26524 58.7327 2.21228 58.6652 2.14396C58.5978 2.07581 58.5446 1.99484 58.5053 1.90121C58.466 1.80777 58.4464 1.70582 58.4464 1.59557C58.4464 1.48531 58.466 1.38355 58.5053 1.28992ZM58.4957 2.2647C58.5849 2.35055 58.6893 2.41833 58.8086 2.46805C58.9281 2.51793 59.056 2.54288 59.1927 2.54288C59.3294 2.54288 59.4575 2.51793 59.5768 2.46805C59.696 2.41833 59.8005 2.35055 59.8897 2.2647C59.9793 2.17903 60.0499 2.07889 60.1015 1.96429C60.1538 1.8497 60.1795 1.72679 60.1795 1.59557C60.1795 1.46434 60.1538 1.34143 60.1015 1.22684C60.0499 1.11224 59.9793 1.01211 59.8897 0.92625C59.8005 0.840757 59.696 0.772794 59.5768 0.722908C59.4575 0.673201 59.3294 0.648259 59.1927 0.648259C59.056 0.648259 58.9281 0.673201 58.8086 0.722908C58.6893 0.772794 58.5849 0.840757 58.4957 0.92625C58.4065 1.01211 58.3358 1.11224 58.2839 1.22684C58.2319 1.34143 58.2058 1.46434 58.2058 1.59557C58.2058 1.72679 58.2319 1.8497 58.2839 1.96429C58.3358 2.07889 58.4065 2.17903 58.4957 2.2647ZM59.0204 1.20713H59.2063C59.2338 1.20713 59.2608 1.20894 59.287 1.21238C59.3134 1.21599 59.3376 1.22286 59.3596 1.23334C59.3814 1.24401 59.3992 1.25883 59.4129 1.27799C59.4266 1.29733 59.4333 1.32263 59.4333 1.35409C59.4333 1.39078 59.427 1.4197 59.4141 1.44066C59.4014 1.46181 59.3846 1.47736 59.3636 1.48802C59.3427 1.4985 59.3185 1.50537 59.2913 1.50899C59.2637 1.51242 59.2345 1.51423 59.2037 1.51423H59.0204V1.20713ZM59.0204 1.66642H59.1464L59.436 2.12823H59.6494L59.3486 1.65847C59.4415 1.64979 59.5134 1.62268 59.5647 1.57713C59.6155 1.53176 59.6411 1.46253 59.6411 1.36981C59.6411 1.2563 59.6059 1.17532 59.5359 1.12706C59.4655 1.07899 59.3632 1.05494 59.2283 1.05494H58.8129V2.12823H59.0204V1.66642Z" fill="white"/>
</svg>
