<svg width="124" height="31" viewBox="0 0 124 31" fill="none" xmlns="http://www.w3.org/2000/svg">
<g clip-path="url(#clip0_156451_5328)">
<path d="M108.841 0.041748C106.326 0.041748 104.287 2.05521 104.287 4.53822C104.287 7.0215 106.326 9.03467 108.841 9.03467C111.356 9.03467 113.394 7.0215 113.394 4.53822C113.394 2.05521 111.356 0.041748 108.841 0.041748ZM119.381 10.6395C116.866 10.6395 114.827 12.6529 114.827 15.1359C114.827 17.6195 116.866 19.6324 119.381 19.6324C121.896 19.6324 123.935 17.6195 123.935 15.1359C123.935 12.6529 121.896 10.6395 119.381 10.6395ZM98.3001 10.6395C95.7853 10.6395 93.7461 12.6529 93.7461 15.1359C93.7461 17.6195 95.7853 19.6324 98.3001 19.6324C100.815 19.6324 102.854 17.6195 102.854 15.1359C102.854 12.6529 100.815 10.6395 98.3001 10.6395ZM108.841 10.6395C106.326 10.6395 104.287 12.6529 104.287 15.1359C104.287 17.6195 106.326 19.6324 108.841 19.6324C111.356 19.6324 113.394 17.6195 113.394 15.1359C113.394 12.6529 111.356 10.6395 108.841 10.6395ZM108.841 21.2374C106.326 21.2374 104.287 23.2508 104.287 25.7337C104.287 28.2172 106.326 30.23 108.841 30.23C111.356 30.23 113.394 28.2172 113.394 25.7337C113.394 23.2508 111.356 21.2374 108.841 21.2374Z" fill="#8D1B3D"/>
<path d="M51.3147 12.73V6.61864H62.7029L65.0996 0.0418701H41.9183V30.2302H51.3147V19.3272H58.0787L60.4832 12.73H51.3147ZM72.3462 20.3735L75.9762 7.79807L79.7322 20.3735H72.3462ZM71.2401 0.0418701L60.2411 30.2302H69.493L70.6683 26.1749H81.2859L82.5138 30.2302H92.0029L81.0092 0.0418701H71.2401ZM26.057 30.2302H35.4527V0.0418701H26.0564L26.057 30.2302ZM0 30.2302H9.39644V19.3272H16.1607L18.5651 12.73H9.39644V6.61864H20.7845L23.1817 0.0418701H0V30.2302ZM84.7769 1.01041C84.8338 0.86908 84.9109 0.746856 85.0086 0.644C85.1064 0.540871 85.2205 0.461204 85.3513 0.404183C85.482 0.347707 85.6228 0.31906 85.773 0.31906C85.9234 0.31906 86.0642 0.347707 86.1949 0.404183C86.3255 0.461204 86.4399 0.540871 86.5375 0.644C86.6353 0.746856 86.7124 0.86908 86.7691 1.01041C86.826 1.15173 86.8546 1.30533 86.8546 1.47176C86.8546 1.63818 86.826 1.79206 86.7691 1.93311C86.7124 2.07443 86.6353 2.19665 86.5375 2.29951C86.4399 2.40264 86.3255 2.48259 86.1949 2.53933C86.0642 2.59607 85.9234 2.62445 85.773 2.62445C85.6228 2.62445 85.482 2.59607 85.3513 2.53933C85.2205 2.48259 85.1064 2.40264 85.0086 2.29951C84.9109 2.19665 84.8338 2.07443 84.7769 1.93311C84.72 1.79206 84.6916 1.63818 84.6916 1.47176C84.6916 1.30533 84.72 1.15173 84.7769 1.01041ZM84.763 2.48177C84.8923 2.61135 85.0435 2.71366 85.2164 2.7887C85.3896 2.864 85.5749 2.90165 85.773 2.90165C85.9711 2.90165 86.1567 2.864 86.3296 2.7887C86.5023 2.71366 86.6537 2.61135 86.783 2.48177C86.9127 2.35245 87.0151 2.20129 87.0899 2.02832C87.1657 1.85535 87.2029 1.66983 87.2029 1.47176C87.2029 1.27368 87.1657 1.08816 87.0899 0.915189C87.0151 0.742218 86.9127 0.591071 86.783 0.461476C86.6537 0.33243 86.5023 0.229847 86.3296 0.154546C86.1567 0.0795187 85.9711 0.0418701 85.773 0.0418701C85.5749 0.0418701 85.3896 0.0795187 85.2164 0.154546C85.0435 0.229847 84.8923 0.33243 84.763 0.461476C84.6337 0.591071 84.5314 0.742218 84.4561 0.915189C84.3808 1.08816 84.3429 1.27368 84.3429 1.47176C84.3429 1.66983 84.3808 1.85535 84.4561 2.02832C84.5314 2.20129 84.6337 2.35245 84.763 2.48177ZM85.5234 0.88545H85.7927C85.8326 0.88545 85.8716 0.888182 85.9097 0.893365C85.948 0.898822 85.983 0.909188 86.0149 0.925011C86.0464 0.941109 86.0722 0.96348 86.092 0.992399C86.1119 1.02159 86.1217 1.05979 86.1217 1.10726C86.1217 1.16265 86.1125 1.20629 86.0939 1.23794C86.0754 1.26986 86.0511 1.29333 86.0206 1.30943C85.9903 1.32525 85.9553 1.33561 85.9158 1.34107C85.8759 1.34626 85.8336 1.34898 85.789 1.34898H85.5234V0.88545ZM85.5234 1.5787H85.7059L86.1256 2.27578H86.4348L85.9989 1.5667C86.1336 1.55361 86.2377 1.51268 86.312 1.44393C86.3856 1.37545 86.4227 1.27096 86.4227 1.131C86.4227 0.95966 86.3717 0.837436 86.2702 0.764591C86.1683 0.692018 86.02 0.655731 85.8246 0.655731H85.2226V2.27578H85.5234V1.5787Z" fill="#8D1B3D"/>
</g>
<defs>
<clipPath id="clip0_156451_5328">
<rect width="124" height="30.3673" fill="white"/>
</clipPath>
</defs>
</svg>
