<svg width="350" height="420" viewBox="0 0 350 420" fill="none" xmlns="http://www.w3.org/2000/svg">
<path d="M169.93 144.655C160.271 128.448 151.35 113.445 145.626 99.0377C143.728 93.1951 142.237 87.4415 141.315 81.9281C138.069 66.1465 139.425 56.8773 145.455 44.1042C145.583 43.837 145.719 43.5621 145.858 43.2872C148.728 41.6495 152.683 40.124 157.215 39.6787C167.312 38.6836 184.459 41.2429 191.016 59.6805C197.934 79.1597 183.165 117.138 169.93 144.655ZM232.294 34.8079C231.635 33.5418 229.191 28.9615 228.351 27.3934C228.192 27.103 228.087 26.9133 228.064 26.8707C217.397 7.29089 217.037 11.0001 210.379 9.82306C210.131 9.78047 209.875 9.71465 209.627 9.6527C202.044 7.90651 189.01 2.96993 182.643 0.631345C176.062 -1.77693 158.745 3.40357 147.566 4.50317C144.723 4.77807 142.519 5.30078 140.761 5.98609C135.621 7.98008 134.343 11.3679 132.22 14.144C130.981 15.7702 130.113 16.2619 128.963 16.5329C128.94 16.5368 128.909 16.5368 128.893 16.5445C120.198 19.6614 99.6541 44.9947 104.093 79.9534C104.411 83.3839 105.131 86.7253 106.057 89.9969C114.551 123.546 142.977 168.541 149.956 181.31C144.812 193.142 133.836 217.438 130.334 240.321C130.191 241.095 129.343 246.353 129.288 250.767C128.824 262.398 131.004 273.041 137.751 280.684C137.794 280.731 139.076 282.105 139.134 282.167C142.585 285.567 146.652 287.727 150.746 289.024C156.541 291.518 160.948 290.124 165.213 289.4C167.115 290.554 169.105 291.444 171.131 292.137C183.324 296.35 196.966 292.97 203.357 289.4C211.928 286.616 215.836 281.586 218.284 273.789C220.751 266.444 224.528 251.456 215.98 229.274C212.141 219.695 204.418 204.704 192.519 182.913L192.442 182.785C201.982 164.739 227.526 120.085 232.073 107.037C232.321 106.348 232.534 105.682 232.747 105.016C240.47 85.2617 245.513 59.1307 232.294 34.8079" fill="white"/>
<path d="M162.681 205.167C159.927 199.858 153.9 188.293 152.614 185.544C138.608 212.825 135.153 243.122 134.933 251.927C135.08 258.695 134.933 268.959 144.507 273.33C157.212 256.035 134.933 230.194 162.681 205.167Z" fill="#ACA9A6"/>
<path d="M194.834 114.186C198.111 97.9206 206.279 84.0517 195.907 61.4441C187.362 42.8323 172.656 36.1727 157.209 39.6806H157.213C167.318 38.6855 184.469 41.2371 191.019 59.6824C197.936 79.1616 183.168 117.14 169.933 144.657C169.631 145.304 169.301 145.951 168.991 146.593C175.425 157.756 180.689 167.362 186.971 178.706C186.971 178.706 195.438 165.046 198.955 158.859C191.743 142.156 192.789 124.319 194.834 114.186Z" fill="#ACA9A6"/>
<path d="M234.965 61.1375C234.957 60.5761 234.957 60.0031 234.945 59.4649V59.372C234.941 59.128 234.93 58.9112 234.93 58.6712C234.841 56.2358 234.67 54.1295 234.438 52.3872C234.19 50.672 233.892 49.3943 233.617 48.4805C232.393 44.8139 229.457 40.431 226.095 36.2146C219.518 27.9637 211.307 20.3827 211.051 20.1426C210.532 20.3711 210.002 20.646 209.452 20.9634C202.437 25.1605 202.6 30.8598 178.241 19.1979C174.561 17.4362 168.809 18.5513 165.591 18.7643C190.221 37.0509 217.252 36.2688 234.965 61.1375Z" fill="#BCBAB7"/>
<path d="M216.067 129.965C217.008 128.544 217.861 127.224 218.624 126.023C219.534 124.533 220.397 123.007 221.215 121.462C221.587 120.762 221.947 120.053 222.299 119.341C232.3 99.2187 235.104 75.7399 234.961 61.1354C222.427 24.7325 185.883 40.9671 174.178 18.2704C173.984 18.2821 165.219 18.7931 165.033 18.8125C165.606 19.5443 166.199 20.2644 166.823 20.9846C171.463 26.2813 182.331 37.0294 194.021 39.7707C205.718 42.5158 215.525 44.2194 225.394 58.913C235.263 73.6182 224.767 94.3363 215.525 114.683C211.838 122.798 211.47 130.952 210.931 139.002C212.434 136.926 212.759 134.51 214.541 132.118C215.06 131.413 215.568 130.693 216.067 129.965Z" fill="#CCC9C6"/>
<path d="M225.395 58.9173C215.523 44.216 205.719 42.5124 194.022 39.7711C182.329 37.0338 171.464 26.2778 166.824 20.9812C166.201 20.2688 165.608 19.5409 165.035 18.8168C156.971 19.6028 150.502 26.061 146.137 35.3069C144.638 38.4857 143.383 41.9897 142.396 45.6989C145.626 42.9035 151.091 40.2784 157.215 39.6821C172.653 36.1703 187.368 42.8299 195.908 61.4495C206.285 84.0493 198.112 97.926 194.832 114.184C192.787 124.316 191.745 142.154 198.953 158.857C201.459 154.447 204.166 148.349 210.933 139.006C211.471 130.949 211.835 122.795 215.523 114.687C224.768 94.3368 235.261 73.6148 225.395 58.9173Z" fill="#BBB8B5"/>
<path d="M165.597 18.759C165.404 18.7707 165.218 18.7979 165.028 18.8056C156.964 19.6032 150.503 26.0497 146.13 35.3034C144.635 38.486 143.376 41.9861 142.396 45.703C143.369 44.8628 144.527 44.0421 145.851 43.2871C148.729 41.6532 152.684 40.1238 157.216 39.6786C167.313 38.6874 184.468 41.2427 191.014 59.6765C197.935 79.1595 183.166 117.138 169.931 144.655C176.357 155.818 180.296 162.896 187.578 174.778C187.578 174.778 219.064 126.791 219.42 126.078C229.417 105.956 234.987 81.2776 233.495 61.5041C231.117 29.7939 211.306 20.3815 211.05 20.1453C210.531 20.3698 209.996 20.6486 209.45 20.9622C202.44 25.1632 202.258 31.8653 177.899 20.2072C175.292 18.9527 171.818 18.6506 168.874 18.6506C167.662 18.6506 166.535 18.6971 165.597 18.759" fill="url(#paint0_linear_156451_5041)"/>
<path d="M155.412 182.692C144.509 197.893 127.773 279.132 152.104 276.286C190.303 270.939 160.475 193.053 155.412 182.692Z" fill="#9A9794"/>
<path d="M165.597 18.7591C165.404 18.7707 165.218 18.7979 165.028 18.8056C156.964 19.6032 150.503 26.0498 146.13 35.3034C144.635 38.4861 143.376 41.9861 142.396 45.7031C143.369 44.8629 144.527 44.0422 145.851 43.2872C148.729 41.6533 152.684 40.1239 157.216 39.6786C167.313 38.6874 184.468 41.2428 191.014 59.6765C197.935 79.1595 183.166 117.138 169.931 144.655C176.357 155.818 181.892 167.217 188.186 178.557C188.186 178.557 221.949 120.058 222.298 119.341C232.302 99.2157 236.598 75.6556 234.967 61.1362C233.302 46.3807 230.416 41.0995 226.791 35.6596C225.524 33.7546 211.306 20.3815 211.05 20.1453C210.531 20.3699 209.996 20.6487 209.45 20.9623C202.44 25.1632 202.258 31.8653 177.899 20.2072C175.292 18.9528 171.818 18.6506 168.874 18.6506C167.662 18.6506 166.535 18.6971 165.597 18.7591" fill="url(#paint1_linear_156451_5041)"/>
<g opacity="0.279999">
<path d="M180.909 28.648C170.525 28.7564 162.929 32.1365 162.681 34.5486C211.19 36.1361 215.082 70.0609 167.662 155.787C149.683 188.291 142.54 218.174 142.451 238.249V239.004C142.505 251.661 145.422 260.284 150.202 262.998C151.84 263.927 153.595 264.365 155.33 264.392H155.628C163.13 264.287 170.075 256.412 165.207 246.349C159.149 233.835 164.265 208.022 179.762 179.823C195.255 151.613 249.415 74.0684 216.066 42.5633C204.977 32.0862 192.195 28.7525 181.92 28.648H180.909Z" fill="url(#paint2_linear_156451_5041)"/>
</g>
<g opacity="0.330002">
<path d="M158.376 33.5103C161.106 32.6237 163.957 32.132 166.808 31.8339C169.67 31.528 172.56 31.4776 175.433 31.6674C181.185 32.0507 186.953 33.4561 192.108 36.2516C197.271 39.0161 201.648 43.2248 204.804 48.2C206.361 50.7012 207.64 53.3651 208.701 56.1102C209.677 58.8747 210.514 61.6856 211.095 64.5663C213.461 76.1198 212.377 88.0837 209.975 99.4708C207.535 110.9 203.774 121.974 199.386 132.676C195.032 143.404 189.958 153.762 184.803 164.002L176.96 179.261L169.267 194.501C164.317 204.692 159.534 214.952 156.226 225.63C155.389 228.298 154.7 230.993 154.158 233.722C153.577 236.433 153.162 239.186 153.015 241.942C152.678 247.46 153.29 253.085 155.506 258.336L154.839 258.688C151.617 253.813 150.029 247.862 149.665 241.954C149.266 236.03 149.982 230.098 151.171 224.349C152.314 218.576 154.076 212.985 155.978 207.487C157.88 201.981 160.111 196.623 162.412 191.318C171.707 170.155 182.649 150.056 192.352 129.582C194.746 124.448 197.124 119.318 199.227 114.087C201.369 108.868 203.333 103.583 204.917 98.1969C208.108 87.4642 209.917 76.1508 208.279 65.0696C207.918 62.3051 207.167 59.5948 206.361 56.9271C205.463 54.2904 204.355 51.7273 202.988 49.3035C200.195 44.4947 196.233 40.3596 191.391 37.5061C186.569 34.6332 181.015 33.0225 175.372 32.4224C172.544 32.1242 169.689 32.0584 166.843 32.2404C164 32.4301 161.153 32.8018 158.395 33.5762L158.376 33.5103Z" fill="#797775"/>
</g>
<g opacity="0.550003">
<path d="M129.728 245.435C129.728 262.107 137.462 271.857 143.629 275.814C145.6 277.08 148.927 277.966 152.456 278.04H153.389C154.83 278.009 156.286 277.843 157.685 277.502C167.19 275.187 174.386 265.654 174.553 247.917V246.639C174.487 239.554 173.329 231.206 170.8 221.546C169.955 218.313 163.208 203.685 161.868 201.095C159.114 195.791 152.777 183.308 151.487 180.559C140.468 205.459 129.948 236.615 129.728 245.435" fill="url(#paint3_linear_156451_5041)"/>
</g>
<g opacity="0.440002">
<path d="M146.13 35.3036C144.635 38.4862 143.384 41.9863 142.396 45.7032C143.361 44.863 144.531 44.0424 145.855 43.2874C148.729 41.6534 152.684 40.124 157.208 39.6788C167.313 38.6876 184.46 41.2429 191.017 59.6767C197.935 79.1597 183.166 117.138 169.931 144.655C176.357 155.818 182.307 166.168 188.585 177.508C188.585 177.508 221.949 120.058 222.298 119.342C232.302 99.2198 241.66 61.5042 226.098 36.2134C220.567 27.2269 212.63 20.4861 212.367 20.2499C211.329 20.4048 209.996 20.6488 209.45 20.9624C202.44 25.1634 204.876 28.5743 180.052 17.9423C178.023 17.0711 175.885 16.6839 173.716 16.6839C162.251 16.6839 149.806 27.529 146.13 35.3036" fill="url(#paint4_linear_156451_5041)"/>
</g>
<g opacity="0.440002">
<path d="M173.763 18.4497C165.687 18.5077 156.643 25.1017 153.277 28.8767C149.365 33.2712 143.385 41.9865 142.397 45.7034C145.627 42.9119 151.089 40.2791 157.209 39.679C167.314 38.6878 184.461 41.2431 191.018 59.6769C197.936 79.1599 183.167 117.139 169.932 144.656C169.622 145.302 169.305 145.953 168.991 146.592C167.662 148.95 152.038 178.987 151.488 180.559C141.836 208.39 132.497 236.906 132.276 245.722C132.276 260.818 137.629 277.761 152.642 277.998H153.277C154.668 277.978 156.132 277.816 157.685 277.502C171.969 274.587 175.521 251.259 173.375 239.241C173.375 239.241 168.766 219.711 168.549 219.305C168.549 219.305 196.909 162.458 198.954 158.858C201.449 154.448 221.95 120.058 222.299 119.342C232.303 99.22 235.925 75.7102 234.964 61.1366C234.627 56.0065 229.456 40.4339 226.098 36.2136C219.518 27.9628 209.997 20.649 209.451 20.9627C202.44 25.1636 203.544 28.6289 178.248 19.1971C176.896 18.6938 175.475 18.4613 174.018 18.4497H173.763Z" fill="url(#paint5_linear_156451_5041)"/>
</g>
<path d="M156.945 36.9531C155.632 37.0886 151.046 37.983 148.257 38.9084L146.75 41.2158L145.852 43.2873C148.729 41.6534 152.684 40.124 157.216 39.6788C167.313 38.6876 184.468 41.2429 191.014 59.6767C197.935 79.1597 183.166 117.138 169.932 144.655C169.645 145.256 169.351 145.848 169.064 146.444C171.194 148.233 172.871 149.592 172.871 149.592C173.27 148.934 173.514 148.392 173.871 147.714C187.497 119.326 200.836 79.121 193.601 58.7669C190.785 50.8567 185.92 44.9329 179.138 41.1695C178.712 40.9372 176.137 39.6943 175.242 39.3536C174.808 39.1755 174.374 39.0129 173.937 38.858C173.088 38.5638 170.451 37.8434 170.017 37.7466C168.367 37.3672 166.655 37.0962 164.92 36.9413C163.626 36.8174 162.305 36.7633 161 36.7633C159.633 36.7633 158.261 36.8215 156.945 36.9531" fill="url(#paint6_linear_156451_5041)"/>
<path d="M187.581 174.778C186.52 173 185.888 172.025 185.884 172.021C185.485 171.347 185.11 170.708 184.722 170.062C170.035 143.664 154.221 120.677 145.622 99.0408C143.728 93.1982 142.237 87.4408 141.311 81.9351C138.069 66.1457 139.425 56.8766 145.455 44.1073C151.254 31.8181 168.788 16.4818 178.599 21.1784C199.755 31.3032 202.57 26.4169 207.671 22.2586C207.83 22.1386 208.229 21.8443 208.392 21.6933C208.504 21.6081 209.151 21.19 209.26 21.1125C264.725 63.7297 205.266 146.099 187.581 174.778ZM153.74 274.647C152.28 274.876 150.882 274.915 149.546 274.775C147.334 274.481 145.118 273.614 143 272.154C140.033 270.11 137.829 267.09 136.694 263.671C133.251 253.36 133.971 232.847 152.392 186.397C154.31 190.571 156.115 194.497 156.909 196.107C167.568 217.67 170.128 237.447 170.14 249.256C168.989 264.12 161.824 273.134 153.74 274.647M232.294 34.8072C231.635 33.545 229.195 28.9685 228.351 27.3926C228.192 27.0984 228.087 26.9087 228.064 26.8661C217.397 7.29013 217.037 11.0071 210.371 9.83004C210.135 9.78745 209.875 9.7139 209.627 9.65582C202.044 7.9135 189.002 2.96917 182.635 0.638327C176.062 -1.77382 158.745 3.40282 147.566 4.49854C144.716 4.78119 142.519 5.29999 140.761 5.98144C135.621 7.9793 134.343 11.3672 132.22 14.1433C130.981 15.7655 130.106 16.265 128.959 16.5283C128.94 16.536 128.909 16.536 128.893 16.5477C120.198 19.6606 99.6541 44.9978 104.093 79.9488C104.403 83.3792 105.131 86.7245 106.053 90.0001C114.551 123.546 142.976 168.548 149.956 181.309C144.812 193.145 133.836 217.437 130.334 240.316C130.191 241.09 129.343 246.36 129.288 250.758V250.766C128.82 262.397 130.997 273.048 137.751 280.687C137.794 280.73 139.076 282.108 139.138 282.17C142.581 285.562 146.652 287.73 150.75 289.031C156.541 291.521 160.948 290.123 165.205 289.395C167.115 290.557 169.105 291.44 171.135 292.136C183.324 296.353 196.966 292.965 203.357 289.395C211.928 286.615 215.829 281.586 218.284 273.792C220.751 266.451 224.528 251.455 215.983 229.277C212.137 219.695 204.418 204.699 192.519 182.912L192.442 182.784C201.978 164.738 227.522 120.088 232.077 107.036C232.321 106.351 232.534 105.685 232.747 105.023C240.47 85.2648 245.513 59.1261 232.294 34.8072" fill="#EFECE8"/>
<path d="M209.316 140.389C208.514 141.682 206.469 144.741 203.924 148.512C197.58 159.241 191.549 168.339 187.587 174.767C188.877 176.846 191.751 181.527 192.978 183.757C192.82 183.474 192.672 183.2 192.521 182.913L192.44 182.785C193.052 181.631 193.734 180.361 194.47 178.995C194.497 171.739 206.845 146.026 209.316 140.389Z" fill="#DAD7D3"/>
<path d="M182.555 5.43026C177.872 2.92132 171.895 3.12265 166.198 4.11771C164.459 4.42359 160.303 5.22118 160.303 5.22118C160.303 5.22118 168.704 7.28487 175.412 9.65442C179.735 11.3077 186.986 14.107 195.724 9.49955L195.886 9.12398C191.858 8.69421 187.005 7.81531 182.555 5.43026Z" fill="#BBB8B5"/>
<path d="M155.217 7.41464C153.296 8.17739 151.615 8.84713 150.422 9.50534C134.658 18.244 130.18 26.8937 129.433 27.5945C128.983 30.6378 128.294 32.9726 127.953 36.6741C130.87 38.1763 145.011 35.4234 154.411 28.0244C155.577 27.0487 156.805 26.1156 158.083 25.229C158.579 24.8456 159.032 24.6132 159.412 24.3267C159.474 24.3035 159.528 24.1836 159.586 24.1603C164.962 19.3593 171.287 7.58895 177.202 10.4967C177.674 10.729 178.143 10.9419 178.6 11.1355C177.903 10.7328 177.202 10.3341 176.493 9.9508C172.255 7.67803 167.77 6.02084 162.898 6.02084C160.446 6.02084 157.89 6.44281 155.217 7.41464Z" fill="url(#paint7_linear_156451_5041)"/>
<path d="M131.907 17.1806C131.206 18.9268 130.625 20.611 130.23 22.7715C129.955 24.2544 129.691 25.8728 129.436 27.6035C139.374 15.2756 149.391 10.0022 150.429 9.51048C151.591 8.93745 154.782 6.74987 156.2 6.28137C145.417 9.2046 139.398 13.5991 132.956 15.5467C132.67 15.8061 132.073 16.7701 131.907 17.1806Z" fill="#F6F2EE"/>
<path d="M184.712 21.4537C168.236 12.2194 159.742 23.9626 159.738 23.9665C159.687 23.982 159.637 24.1446 159.59 24.164C153.734 29.3987 147.874 36.6932 145.449 44.1077C151.255 31.8147 168.789 16.4784 178.6 21.1788C201.801 32.2793 202.967 25.3604 209.261 21.113C204.664 23.8891 200.86 30.4983 184.712 21.4537Z" fill="#EBE7E3"/>
<path d="M207.64 21.9307C196.826 26.453 189.525 17.5904 178.602 11.1399C178.141 10.9386 177.676 10.7334 177.204 10.4933C169.616 6.71444 156.846 26.7511 156.877 26.7356C159.317 24.9391 168.237 12.2202 184.714 21.4545C200.858 30.4991 203.263 25.3611 207.651 22.2714C207.872 22.1204 209.263 21.1138 209.263 21.1138C209.263 21.1138 207.861 21.7604 207.651 21.923L207.64 21.9307Z" fill="#FFFBF7"/>
<path d="M154.411 28.0241C145.003 35.1753 130.869 38.1721 127.956 36.6776C126.674 50.8059 123.599 69.0731 126.729 89.7138C128.096 98.7275 129.924 108.322 131.442 117.816C127.585 87.4914 126.767 51.0885 154.411 28.0241Z" fill="#EFECE8"/>
<path d="M140.761 5.9847C135.621 7.98256 134.343 11.3665 132.22 14.1426C130.973 15.7688 130.105 16.2683 128.959 16.5316C129.745 16.3651 130.675 16.1444 131.732 15.885C134.602 15.1648 137.035 14.1 139.882 12.8456C142.496 11.6918 145.455 10.3831 149.255 8.83437C151.366 7.97482 155.828 6.35253 158.179 5.71755C160.561 5.07095 166.75 4.01781 167.087 3.95199C167.087 3.95199 169.465 3.64612 170.236 3.52996C170.015 3.54545 144.045 5.02836 140.761 5.9847Z" fill="#EFECE8"/>
<path d="M169.587 3.57024C169.037 3.60896 144.042 5.02977 140.762 5.98611C135.626 7.98397 134.344 11.3719 132.221 14.1402C130.974 15.7703 130.106 16.2697 128.964 16.533C129.746 16.3665 130.676 16.1498 131.726 15.8826C134.599 15.1663 137.036 14.0977 139.883 12.8393C142.493 11.6894 145.456 10.3885 149.26 8.83586C151.363 7.97632 155.825 6.34625 158.172 5.71127C160.562 5.07242 166.511 4.03863 167.084 3.95733C167.875 3.84504 169.466 3.64367 170.237 3.53526C170.016 3.54301 169.8 3.55088 169.587 3.57024" fill="url(#paint8_linear_156451_5041)"/>
<path d="M207.009 283.044C206.753 283.582 206.552 284.051 206.288 284.515C205.386 286.285 204.406 287.927 203.356 289.398C211.978 286.595 215.836 281.666 218.284 273.787C209.151 283.373 207.009 283.044 207.009 283.044Z" fill="#D2CFCB"/>
<path d="M186.973 285.673C180.106 282.664 174.587 288.565 171.136 292.143C183.329 296.351 196.966 292.967 203.361 289.394C204.403 287.926 205.387 286.288 206.289 284.519C202.683 290.513 193.616 288.584 186.973 285.673Z" fill="#DEDBD7"/>
<path d="M165.868 275.451C169.346 268.606 171.19 256.205 170.14 249.259C168.974 264.076 161.809 273.132 153.744 274.646C152.284 274.878 150.878 274.913 149.55 274.774C147.334 274.48 145.123 273.616 142.996 272.156C142.644 271.913 142.307 271.649 141.974 271.382C135.819 269.551 130.865 264.339 129.409 257.958C129.397 257.893 129.37 257.838 129.358 257.777C129.42 258.814 129.517 259.848 129.641 260.866L129.664 261.087C130.044 264.169 130.683 267.127 131.636 269.911C138.418 282.188 157.935 291.063 165.868 275.451Z" fill="#EBE7E3"/>
<path d="M153.741 274.647C152.281 274.879 150.883 274.914 149.546 274.774C147.339 274.48 145.119 273.617 143 272.157C141.378 271.034 139.979 269.625 138.856 268.006C133.29 262.245 130.223 251.969 129.731 244.992L129.711 244.737V244.741V244.737V244.748C129.502 246.599 129.312 248.771 129.289 250.765V250.773C129.119 254.997 129.301 259.09 129.921 262.961C129.944 263.031 129.955 263.105 129.967 263.186C136.129 274.898 153.23 286.58 164.613 266.853C161.654 271.216 157.812 273.884 153.741 274.647Z" fill="#F2EFEA"/>
<path d="M228.067 26.868C217.4 7.28815 217.04 11.0012 210.374 9.82807C201.349 10.312 191.263 16.6076 178.602 11.1406C196.422 21.8036 211.431 -1.19889 228.311 27.321C228.323 27.3442 228.52 27.7159 228.536 27.7391C228.462 27.6114 228.408 27.4952 228.346 27.3945C228.195 27.1003 228.09 26.9106 228.067 26.868Z" fill="#E7E4E0"/>
<path d="M209.26 21.1093C209.361 21.0474 209.473 20.9816 209.578 20.9158C213.579 18.2829 221.387 16.8929 228.352 27.3895C218.122 10.0747 208.59 11.6659 198.702 13.265C192.245 14.3104 185.637 15.352 178.6 11.1356C188.511 17.5202 199.782 26.9868 209.26 21.1093" fill="url(#paint9_linear_156451_5041)"/>
<path d="M150.75 289.028C155.231 286.228 159.054 282.314 162.095 277.772C153.624 285.555 135.284 283.03 129.896 262.815C130.977 269.649 133.425 275.786 137.751 280.684C137.794 280.734 139.076 282.109 139.138 282.167C142.581 285.566 146.652 287.727 150.75 289.028Z" fill="#CCC9C6"/>
<path d="M182.638 0.63569C176.062 -1.77646 158.748 3.40792 147.566 4.49977C144.719 4.77854 142.515 5.30511 140.765 5.98268C147.376 4.54623 147.833 5.97494 167.203 3.81059C167.3 3.7951 169.744 3.55892 170.368 3.52407C174.721 3.24143 179.013 3.53569 182.553 5.43288C187.004 7.81405 191.202 8.82073 195.234 9.25437C200.25 9.78869 205.006 9.42473 209.623 9.65704C202.047 7.91085 189.006 2.96653 182.638 0.63569Z" fill="#F2EFEA"/>
<path d="M177.554 0.00776292C169.401 0.131661 156.522 3.62409 147.567 4.50299C144.716 4.77789 142.516 5.30444 140.762 5.98589C147.447 4.64623 148.121 5.97059 167.208 3.81011C167.297 3.79462 169.749 3.5584 170.361 3.51968C174.722 3.24091 179.006 3.53509 182.55 5.42841C187.001 7.81733 191.203 8.81635 195.231 9.24612C198.256 9.57523 201.181 9.57526 204.047 9.56751C205.933 9.56751 207.788 9.56741 209.628 9.65259C202.04 7.91027 189.003 2.97377 182.643 0.635186C181.512 0.224772 180.083 0.0348657 178.414 0.00776292H177.554Z" fill="url(#paint10_linear_156451_5041)"/>
<path d="M195.23 9.2505L194.703 9.51766C187.484 13.4127 180.814 11.6046 176.495 9.9513C177.2 10.3307 177.909 10.7257 178.598 11.1438C191.26 16.6108 201.346 10.3075 210.371 9.82353C210.134 9.78094 209.875 9.71512 209.627 9.65317C205.01 9.42086 200.254 9.78868 195.23 9.2505Z" fill="#EBE7E3"/>
<path d="M209.315 230.192C201.116 194.025 183.276 170.477 167.562 151.184C154.222 134.821 146.968 117.174 143.629 101.206C143.958 104.869 144.26 108.71 144.508 112.62C147.549 134.802 155.822 161.15 180.161 190.963C202.278 218.046 206.96 221.74 209.315 230.192Z" fill="#FFFBF7"/>
<path d="M228.761 28.1587C228.761 28.1665 229.017 28.7511 229.017 28.7511C229.079 28.8905 230.551 32.3635 230.605 32.4991C234.714 42.1399 230.465 50.081 229.652 51.4478C235.582 72.4214 229.365 96.419 219.736 118.233C215.542 127.789 215.697 136.353 214.48 142.393C214.492 142.362 214.511 142.331 214.523 142.308C222.521 127.521 229.834 113.459 232.077 107.039C232.321 106.35 232.534 105.684 232.747 105.018C240.466 85.2643 245.513 59.1295 232.297 34.8105C231.72 33.7109 229.807 30.1179 228.761 28.1587Z" fill="#EBE7E3"/>
<path d="M209.262 21.114C215.103 25.6053 219.158 30.902 222.636 36.1638C221.455 27.82 219.348 19.5382 212.364 20.2467C211.485 20.3435 210.668 20.5023 209.831 20.8507C209.804 20.8585 209.73 20.7462 209.262 21.114Z" fill="#DEDBD7"/>
<path d="M230.785 32.3214C230.731 32.1859 226.633 26.2426 224.302 23.8692C221.738 21.0931 218.019 19.4398 214.766 19.525C211.768 19.6024 210.59 20.4039 209.661 20.8608C209.514 20.9266 209.343 21.0621 209.266 21.1163C219.259 18.2473 221.164 27.9075 222.64 36.1584C225.851 41.0175 228.155 46.1438 229.654 51.4714C230.224 50.4028 234.473 41.8112 230.785 32.3214Z" fill="#CCC9C6"/>
<path d="M171.134 292.138C175.476 288.592 179.051 284.724 183.625 284.875C180.333 284.735 168.051 287.372 165.204 289.397C167.117 290.551 169.108 291.441 171.134 292.138Z" fill="#D2CFCB"/>
<path d="M213.111 254.729C212.983 251.353 212.603 248.012 211.98 244.782C210.736 238.347 208.478 232.358 205.004 227.456C192.195 209.398 161.496 176.104 153.532 150.167C155.845 166.424 151.902 185.973 158.416 195.575C160.632 198.429 162.774 201.244 164.819 204C180.444 222.639 198.629 233.45 198.055 259.89C197.749 273.899 193.036 278.897 186.145 285.355C186.412 285.444 186.687 285.549 186.974 285.673C193.624 288.569 202.684 290.509 206.286 284.519C210.938 275.424 213.587 267.003 213.111 254.729Z" fill="#EFECE8"/>
<path d="M199.251 262.132C203.383 228.125 183.742 209.908 165.031 188.474C162.865 186.066 156.614 183.324 159.066 188.97C169.628 205.568 176.674 221.671 178.347 228.369C188.212 267.905 177.375 280.411 165.209 289.401C168.052 287.372 180.338 284.735 183.622 284.879C184.428 284.902 185.264 285.053 186.144 285.355C191.748 280.097 195.656 277.332 197.864 268.962C198.178 267.8 198.457 266.507 198.739 265.078C198.922 264.157 199.123 263.181 199.251 262.132Z" fill="#E7E4E0"/>
<path d="M184.821 237.278C180.254 218.996 169.428 190.456 150.217 165.537C149.923 166.428 148.226 171.806 146.82 175.805C148.098 178.009 149.168 179.867 149.954 181.307C150.941 183.22 151.577 184.548 152.39 186.399C154.307 190.573 156.116 194.499 156.906 196.109C167.569 217.672 170.126 237.445 170.137 249.258C170.931 264.064 163.518 281.053 150.748 289.025C156.542 291.523 160.95 290.125 165.211 289.397C175.606 285.614 194.686 276.818 184.821 237.278Z" fill="#F2EFEA"/>
<path d="M119.924 27.5097C107.034 45.1226 103.846 73.6813 108.997 88.8395C115.578 108.218 118.522 117.801 134.778 143.726C136.273 146.108 126.353 106.476 124.184 96.8348C122.201 88.0148 116.182 51.9757 128.91 23.5682C130.091 20.9314 131.439 18.0276 132.957 15.5497C127.849 18.229 123.51 22.6157 119.924 27.5097" fill="url(#paint11_linear_156451_5041)"/>
<path d="M160.606 18.813C154.695 21.6587 149.587 25.8868 145.287 30.6762C140.976 35.4812 137.634 41.0643 135.294 47.0153C130.631 58.9831 130.275 72.2132 132.316 84.8818C134.237 97.6433 138.846 109.979 141.472 122.984C142.805 129.466 143.548 136.129 143.335 142.762C143.107 149.39 141.941 155.965 139.904 162.202C141.178 155.763 141.852 149.243 141.588 142.762C141.395 136.28 140.299 129.88 138.769 123.581C137.2 117.289 135.283 111.051 133.396 104.756C131.568 98.4448 129.86 92.0253 128.822 85.4316C127.823 78.8456 127.424 72.128 127.962 65.4375C128.284 62.1 128.745 58.7702 129.566 55.5101C130.344 52.2462 131.386 49.0287 132.761 45.9661C135.442 39.8021 139.288 34.1686 144.044 29.4914C148.824 24.8801 154.374 20.9541 160.606 18.813Z" fill="#CCC9C6"/>
<path d="M147.208 175.29C148.521 171.794 149.362 168.162 149.761 164.476C150.082 160.782 150.163 157.073 149.888 153.368C149.497 145.953 148.362 138.581 147.251 131.209C146.178 123.829 144.938 116.465 143.943 109.066C142.893 101.675 142.545 94.2564 141.836 86.8225L148.583 131.008C149.695 138.391 150.729 145.814 150.981 153.321C151.128 157.073 150.907 160.836 150.458 164.561C149.823 168.27 148.819 171.914 147.208 175.29Z" fill="#CCC9C6"/>
<path d="M128.649 24.1629C127.208 28.8633 125.906 33.5985 124.954 38.3996C123.931 43.1929 123.18 48.0327 122.707 52.8957C121.727 62.6179 121.727 72.4368 122.738 82.1474C123.687 91.8695 125.957 101.414 128.381 110.915C129.578 115.677 130.876 120.416 131.964 125.225C132.983 130.03 133.955 134.92 133.808 139.857C133.583 134.936 132.46 130.146 131.178 125.415C129.908 120.68 128.49 115.979 127.134 111.256C124.392 101.816 122.157 92.1599 121.049 82.3255C120.542 77.4044 120.321 72.4601 120.383 67.5196C120.449 62.5792 120.705 57.6387 121.352 52.7447C121.995 47.843 122.916 42.9916 124.102 38.206C125.345 33.4398 126.824 28.7355 128.649 24.1629Z" fill="#CCC9C6"/>
<path d="M119.437 28.2092C117.276 32.2939 115.812 36.6923 114.619 41.1372C113.438 45.5859 112.613 50.1198 111.958 54.6653C110.726 63.7757 110.583 73.0178 111.532 82.1282C112.477 91.2386 114.658 100.229 118.303 108.604C120.166 112.754 122.269 116.897 124.341 120.978C126.378 125.094 128.729 129.047 130.922 133.143C129.45 131.347 128.059 129.5 126.708 127.607C125.394 125.702 124.12 123.75 122.923 121.76C121.757 119.747 120.634 117.714 119.588 115.647C118.527 113.602 117.52 111.488 116.591 109.339C112.923 100.744 110.785 91.5522 109.894 82.2947C108.972 73.0217 109.475 63.6673 110.897 54.5066C111.637 49.9301 112.659 45.3885 114.026 40.963C115.398 36.5452 117.04 32.1623 119.437 28.2092Z" fill="#DEDBD7"/>
<path d="M129.433 27.6015C133.658 21.182 139.495 15.9318 145.844 11.5644C149.043 9.39618 152.498 7.5648 156.205 6.27936C157.541 5.8341 158.896 5.44691 160.306 5.22235C160.856 5.12942 161.437 5.08296 161.999 5.04424C163.006 4.99778 164.025 4.97842 165.039 5.14879C166.07 5.27268 167.054 5.60179 167.956 5.91153C175.342 8.5405 181.741 12.9544 188.213 16.9385C191.455 18.9247 194.763 20.8336 198.353 21.9757C200.135 22.5488 202.01 22.9011 203.884 22.7733C205.759 22.6572 207.614 22.0919 209.264 21.1162C207.711 22.239 205.864 22.9824 203.927 23.2186C201.986 23.478 200.015 23.2302 198.129 22.7578C194.348 21.755 190.913 19.9043 187.559 18.0497C180.881 14.2902 174.548 9.89564 167.406 7.5106C166.496 7.22408 165.659 6.93757 164.788 6.81367C163.916 6.65492 163.006 6.66267 162.1 6.6859C160.287 6.78657 158.463 7.20085 156.696 7.76614C153.141 8.91607 149.798 10.7281 146.568 12.6911C143.345 14.6773 140.293 16.9579 137.423 19.4474C134.518 21.9022 131.807 24.6008 129.433 27.6015Z" fill="#CCC9C6"/>
<path d="M209.262 21.114C210.788 19.8634 212.74 19.0348 214.8 18.8916C216.849 18.7445 218.945 19.2284 220.777 20.1615C224.034 21.8109 226.443 24.1534 228.341 27.3941C228.396 27.487 228.597 27.851 228.775 28.1917C228.891 28.4085 229 28.6215 229.062 28.7376C231.107 32.5204 232.42 36.1832 232.579 40.2021C232.784 44.2056 231.874 48.1936 229.658 51.4769C231.417 48.0503 232.033 44.1049 231.684 40.2641C231.301 36.4193 230.038 32.6869 228.082 29.3726C226.149 26.0699 223.492 23.1351 220.196 21.2728C218.546 20.359 216.71 19.7976 214.824 19.7395C212.93 19.6853 211.009 20.1693 209.262 21.114Z" fill="#BBB8B5"/>
<path d="M151.528 164.752C153.353 173.236 156.172 181.467 160.142 189.122C162.083 192.974 164.287 196.683 166.711 200.245L170.422 205.577L172.273 208.272C172.885 209.17 173.435 210.123 174.02 211.036C176.371 214.711 178.378 218.586 180.291 222.512C182.096 226.485 183.641 230.577 184.846 234.778C185.996 238.983 186.852 243.273 187.236 247.613C187.654 251.95 187.72 253.777 187.561 258.102C187.457 253.77 187.263 251.958 186.659 247.679C186.089 243.393 185.199 239.161 183.94 235.042C182.658 230.922 180.996 226.934 179.214 223.016C177.293 219.159 175.283 215.338 172.92 211.722C172.335 210.816 171.778 209.89 171.173 209L169.318 206.344C168.098 204.578 166.82 202.797 165.619 200.985C163.206 197.349 161.01 193.563 159.093 189.648C155.282 181.792 152.702 173.352 151.528 164.752Z" fill="#CCC9C6"/>
<path d="M149.116 141.375C149.771 147.233 151.301 152.952 153.055 158.562C154.818 164.168 156.932 169.666 159.411 174.982C164.385 185.611 170.733 195.662 178.944 204.013C181.009 206.054 183.166 208.176 185.095 210.429C187.035 212.686 188.802 215.091 190.417 217.596C193.639 222.598 196.107 228.092 197.702 233.823C200.383 243.44 200.735 253.596 199.07 263.361C198.744 265.239 198.338 267.112 197.865 268.963C199.019 263.175 199.592 257.294 199.387 251.428C199.232 245.566 198.353 239.723 196.668 234.128C194.964 228.541 192.574 223.156 189.363 218.273C187.764 215.838 186.009 213.492 184.092 211.296C182.174 209.074 180.083 207.095 177.98 204.954C169.726 196.394 163.269 186.226 158.482 175.416C156.096 169.999 154.062 164.424 152.432 158.744C151.63 155.898 150.929 153.033 150.336 150.137C149.755 147.245 149.252 144.321 149.116 141.375Z" fill="#D2CFCB"/>
<path d="M219.412 126.082C222.484 120.12 225.005 113.936 227.213 107.664C229.424 101.396 231.257 94.9955 232.732 88.5179C234.185 82.0442 235.211 75.4698 235.622 68.849C235.784 65.5425 235.792 62.2088 235.432 58.9217L235.176 56.4437L234.661 54.0083L234.413 52.7848C234.309 52.3783 234.138 51.9988 234.014 51.6039L233.216 49.2227C236.354 55.2086 237.109 62.1856 237.094 68.8877C237.094 72.2678 236.853 75.6402 236.42 78.9932C236.013 82.3385 235.44 85.6644 234.704 88.9593C233.282 95.5491 231.291 102.007 228.809 108.268C226.307 114.509 223.239 120.565 219.412 126.082Z" fill="#FFFBF7"/>
<path d="M146.309 123.705C146.073 122.571 145.926 121.936 145.926 121.936C145.926 121.936 146.053 122.563 146.309 123.705ZM145.441 173.427C146.08 174.527 146.603 175.39 147.153 176.373C147.409 176.83 147.692 177.307 147.951 177.76C169.773 215.893 203.982 243.712 184.759 273.82C183.043 276.511 181.288 279.271 178.283 281.954C181.757 279.093 184.476 279.434 186.905 279.782C189.461 280.146 191.707 280.514 194.202 277.126C194.907 276.17 195.848 274.625 196.654 272.627C197.087 271.578 197.475 270.42 197.866 268.961C197.866 268.961 208.355 283.112 218.603 272.832C222.054 261.349 223.429 244.049 208.111 225.251C190.681 203.864 179.817 201.703 165.737 177.597C154.602 158.54 147.928 130.911 146.309 123.705C147.944 131.499 153.839 162.83 145.441 173.427" fill="url(#paint12_linear_156451_5041)"/>
<path d="M125.052 36.2677C121.919 50.0669 119.951 70.2816 123.092 90.9223C124.46 99.9475 131.145 119.651 132.659 129.149C128.813 98.8285 114.385 40.8093 160.609 18.8057C149.601 21.5354 127.965 37.7545 125.052 36.2677" fill="url(#paint13_linear_156451_5041)"/>
<path d="M177.554 0.0078734C169.401 0.131772 156.522 3.6242 147.567 4.5031C144.717 4.778 142.517 5.30456 140.762 5.986C135.626 7.98386 134.344 11.3718 132.221 14.1401C130.974 15.7702 130.107 16.2696 128.964 16.5328C128.937 16.5367 128.91 16.5368 128.89 16.5484C120.195 19.6653 99.6552 45.0024 104.09 79.9534C104.408 83.3838 105.132 86.7252 106.058 89.9968C114.544 123.546 142.978 168.541 149.957 181.31C144.813 193.142 133.837 217.438 130.335 240.317C130.188 241.095 129.344 246.353 129.289 250.755C128.817 262.402 131.001 273.041 137.756 280.684C137.795 280.735 139.077 282.113 139.135 282.171C142.579 285.567 146.653 287.727 150.743 289.028H150.747C156.542 291.514 160.957 290.124 165.206 289.4C167.116 290.554 169.106 291.444 171.132 292.137C183.325 296.35 196.963 292.97 203.358 289.4C211.929 286.616 215.837 281.579 218.285 273.789C220.752 266.448 224.529 251.456 215.984 229.278C212.134 219.695 204.419 204.704 192.513 182.917L192.439 182.785C201.975 164.739 227.523 120.093 232.074 107.037C232.318 106.348 232.535 105.682 232.748 105.016C240.467 85.2617 245.514 59.123 232.295 34.8118C231.636 33.5379 229.196 28.9731 228.352 27.3895C228.197 27.103 228.092 26.9134 228.065 26.8708C217.398 7.2871 217.038 11.0001 210.372 9.82308C210.132 9.78824 209.876 9.71465 209.628 9.6527C202.041 7.91038 189.003 2.97388 182.644 0.635296C181.513 0.224883 180.083 0.0349762 178.414 0.0078734H177.554ZM185.882 172.018C185.486 171.344 185.107 170.709 184.723 170.059C170.036 143.668 154.222 120.677 145.627 99.0454C143.725 93.199 142.238 87.4416 141.312 81.932C138.07 66.1505 139.422 56.8736 145.456 44.112C151.255 31.819 168.789 16.4827 178.6 21.1753C189.387 26.3403 195.321 27.5599 199.237 27.0837C202.997 26.6191 204.864 24.5709 207.363 22.5266C207.882 22.0736 209.152 21.1946 209.261 21.1094C215.121 25.62 219.161 30.8858 222.646 36.1515C252.207 80.7897 203.404 149.128 187.578 174.778C186.513 172.997 185.889 172.022 185.882 172.018ZM149.543 274.772C147.331 274.482 145.119 273.611 142.993 272.159C140.034 270.11 137.826 267.086 136.687 263.675C133.252 253.353 133.972 232.844 152.39 186.402C154.315 190.568 156.123 194.497 156.906 196.108C167.565 217.67 170.125 237.444 170.141 249.261C168.99 264.117 161.821 273.134 153.737 274.648C152.85 274.788 151.983 274.853 151.135 274.853C150.596 274.853 150.066 274.822 149.543 274.772" fill="url(#paint14_linear_156451_5041)"/>
<path d="M177.965 0.00390871C169.839 0.0116524 156.669 3.60853 147.567 4.50292C144.717 4.77782 142.517 5.30437 140.762 5.98581C135.626 7.98367 134.344 11.3716 132.221 14.1399C130.974 15.77 130.107 16.2694 128.964 16.5327C128.937 16.5365 128.91 16.5366 128.89 16.5483C120.195 19.6651 99.6552 45.0022 104.09 79.9532C104.408 83.3836 105.132 86.725 106.058 89.9967C114.544 123.546 142.978 168.541 149.957 181.31C144.813 193.142 133.837 217.438 130.335 240.317C130.188 241.095 129.344 246.353 129.289 250.763C128.817 262.401 131.001 273.041 137.756 280.684C137.795 280.734 139.077 282.113 139.135 282.171C142.579 285.567 146.653 287.727 150.743 289.028H150.747C156.542 291.514 160.957 290.124 165.206 289.4C167.116 290.554 169.106 291.444 171.132 292.137C175.273 293.566 179.576 294.12 183.709 294.096C191.746 294.038 199.14 291.754 203.358 289.4C211.929 286.616 215.837 281.579 218.285 273.789C220.752 266.448 224.529 251.456 215.984 229.278C212.134 219.695 204.419 204.703 192.513 182.917L192.439 182.785C201.975 164.739 227.523 120.092 232.074 107.037C232.318 106.347 232.535 105.682 232.748 105.016C240.467 85.2616 245.514 59.1228 232.295 34.8116C231.636 33.5455 229.196 28.9729 228.352 27.3893C228.197 27.1028 228.092 26.9132 228.065 26.8706C217.398 7.28691 217.038 10.9999 210.372 9.8229C210.132 9.78805 209.876 9.71446 209.628 9.65251C202.041 7.91019 189.003 2.9737 182.644 0.635113C181.435 0.193725 179.866 0.00390871 178.046 0.00390871H177.965ZM185.882 172.018C185.486 171.344 185.107 170.709 184.723 170.058C170.036 143.668 154.222 120.677 145.627 99.0453C143.725 93.1988 142.238 87.4415 141.312 81.9319C138.07 66.1503 139.422 56.8734 145.456 44.1119C151.255 31.8188 168.789 16.4825 178.6 21.1751C189.387 26.3401 195.321 27.5598 199.237 27.0835C202.997 26.6189 204.864 24.5707 207.363 22.5264C207.882 22.0734 209.152 21.1944 209.261 21.1092C215.121 25.6199 219.161 30.8856 222.646 36.1513C252.207 80.7895 203.404 149.127 187.578 174.778C186.513 172.997 185.889 172.021 185.882 172.018ZM149.543 274.772C147.331 274.482 145.119 273.61 142.993 272.158C140.034 270.11 137.826 267.086 136.687 263.675C133.252 253.353 133.972 232.844 152.39 186.401C154.315 190.568 156.123 194.497 156.906 196.108C167.565 217.67 170.125 237.444 170.141 249.26C168.99 264.117 161.821 273.134 153.737 274.648C152.85 274.787 151.983 274.853 151.135 274.853C150.596 274.853 150.066 274.822 149.543 274.772" fill="url(#paint15_linear_156451_5041)"/>
<path d="M175.502 253.525C175.777 239.935 173.205 226.531 168.944 213.784C164.661 201.015 158.665 188.885 151.728 177.343C148.281 171.543 144.682 165.739 141.309 159.858C137.935 153.961 134.623 148.037 131.478 142.012C125.188 129.983 119.274 117.709 114.835 104.862C117.581 111.073 120.513 117.155 123.701 123.137C126.819 129.143 130.072 135.074 133.396 140.975C140.027 152.784 147.01 164.341 154.067 175.945C161.031 187.657 167.004 200.051 170.935 213.153C172.914 219.689 174.386 226.383 175.207 233.155C176.001 239.923 176.149 246.776 175.502 253.525Z" fill="#E1DEDA"/>
<g opacity="0.429993">
<path d="M123.697 123.136C126.815 129.137 130.076 135.077 133.392 140.974C134.759 143.405 136.138 145.829 137.536 148.245C141.541 154.622 146.022 161.188 150.938 167.558C173.484 196.805 187.652 226.599 177.438 255.351C175.583 260.586 176.517 263.041 178.868 263.141H179.177C185.661 262.878 201.484 246.554 201.739 221.98V220.78C201.565 203.898 194.016 183.262 171.272 161.32C135.917 134.477 114.839 104.869 114.839 104.869C117.581 111.075 120.509 117.158 123.697 123.136" fill="url(#paint16_linear_156451_5041)"/>
</g>
<path d="M152.39 186.399C151.577 184.549 150.942 183.22 149.954 181.308C144.814 193.144 133.837 217.44 130.332 240.318C130.193 241.093 129.344 246.362 129.29 250.768C129.368 251.554 129.484 252.294 129.635 252.971C132.726 266.306 137.536 268.575 139.539 268.916C138.288 267.367 137.327 265.59 136.692 263.673C133.252 253.359 133.969 232.842 152.39 186.399Z" fill="#F2EFEA"/>
<path d="M215.985 229.274C212.139 219.699 204.423 204.704 192.517 182.909L192.443 182.789C192.443 182.789 184.728 170.063 184.72 170.059C170.036 143.668 154.226 120.681 145.623 99.0379C143.729 93.1992 142.234 87.4418 141.312 81.9322C141.304 81.9089 141.304 81.8896 141.301 81.8663C141.293 81.8276 141.289 81.7966 141.277 81.7657C142.114 87.1243 141.897 92.6726 143.625 101.21C146.971 117.177 154.226 134.821 167.557 151.188C183.279 170.473 201.119 194.029 209.319 230.192C210.372 234.842 211.949 245.211 212.572 254.829C213.324 266.425 211.155 274.521 207.014 283.058C207.115 283.201 209.605 286.516 216.821 276.445C217.402 275.566 217.863 274.675 218.285 273.789C220.753 266.448 224.533 251.46 215.985 229.274Z" fill="#FFFBF7"/>
<path d="M114.16 54.2253C114.16 60.2111 119.013 65.0547 125.001 65.0547C130.993 65.0547 135.847 60.2111 135.847 54.2253C135.847 48.2394 130.993 43.384 125.001 43.384C119.013 43.384 114.16 48.2394 114.16 54.2253ZM126.45 49.0988C125.354 48.6768 124.664 47.6314 124.657 46.5164C124.769 46.5086 124.881 46.4854 125.001 46.4854C126.779 46.4854 128.398 47.1011 129.704 48.1155C129.181 48.8473 128.329 49.2808 127.442 49.2808C127.108 49.2808 126.775 49.2227 126.45 49.0988M117.789 51.4414C118.452 49.734 119.707 48.3401 121.291 47.4689C121.535 47.8755 121.682 48.3593 121.682 48.8587C121.682 50.4075 120.431 51.6581 118.886 51.6581C118.494 51.6581 118.134 51.5886 117.789 51.4414ZM123.336 56.9703L121.942 54.3453C121.787 54.0472 121.841 53.6832 122.065 53.4393L124.142 51.302C124.374 51.0581 124.738 50.9884 125.036 51.1394L127.713 52.4479C128.019 52.5951 128.189 52.9164 128.139 53.2533L127.724 56.1997C127.678 56.5365 127.418 56.8 127.093 56.8581L124.161 57.369C124.118 57.3767 124.068 57.3768 124.025 57.3768C123.739 57.3768 123.475 57.2259 123.336 56.9703M130.246 54.7712C130.246 53.447 131.171 52.3513 132.395 52.0493C132.605 52.7462 132.744 53.4625 132.744 54.2253C132.744 55.3481 132.496 56.4127 132.055 57.3768C131.001 56.9819 130.246 55.9637 130.246 54.7712M117.499 56.0527C117.724 55.9946 117.96 55.9558 118.208 55.9558C119.745 55.9558 121.004 57.2027 121.004 58.7515C121.004 59.3942 120.787 59.9671 120.423 60.4395C118.982 59.3747 117.933 57.8415 117.499 56.0527ZM124.308 61.8952C124.482 60.5207 125.644 59.4599 127.066 59.4599C127.999 59.4599 128.824 59.9285 129.336 60.637C128.104 61.4733 126.613 61.9611 125.001 61.9611C124.761 61.9611 124.533 61.9184 124.308 61.8952" fill="url(#paint17_linear_156451_5041)"/>
<path d="M126.288 34.5715L128.79 38.9081L133.128 36.4067L130.626 32.0703L126.288 34.5715Z" fill="url(#paint18_linear_156451_5041)"/>
<path d="M120.129 73.4446L123.739 76.9254L127.221 73.3324L123.615 69.8398L120.129 73.4446Z" fill="url(#paint19_linear_156451_5041)"/>
<path d="M192.88 255.51C192.493 256.017 192.284 256.865 192.191 257.953C192.098 259.056 192.136 260.044 192.218 260.984C191.811 260.539 191.005 260.392 190.576 260.721C190.688 261.159 190.835 261.557 190.893 262.026C190.94 262.351 190.94 262.711 190.943 263.06C190.188 263.613 189.317 264.365 189.197 265.766C189.177 265.991 189.185 266.196 189.185 266.409C188.902 265.518 188.41 264.608 188.166 263.834C187.946 263.145 187.55 262.483 187.163 262.134C187.051 262.022 186.904 261.987 186.768 261.906C186.683 262.134 186.617 262.378 186.532 262.587C186.497 262.692 186.481 262.8 186.439 263.009C186.179 262.742 185.97 262.498 185.711 262.309C185.517 262.169 185.285 262.107 185.048 262.061C184.553 261.948 184.467 262.069 184.467 262.793C184.467 263.029 184.456 263.28 184.448 263.59C183.367 263.176 182.767 264.051 182.79 264.074C183.019 264.287 183.22 264.419 183.271 264.748C183.321 265.058 183.197 265.545 183.042 265.967C182.732 266.804 182.937 268.225 183.538 268.778C183.968 269.177 184.766 269.104 185.327 268.558C185.978 267.954 186.179 266.087 185.815 265.507C185.594 265.158 185.44 265.154 185.01 265.449C185.122 265.692 185.347 265.929 185.316 266.204C185.285 266.513 185.068 266.943 184.847 267.187C184.545 267.512 184.204 267.543 183.96 267.276C183.534 266.8 183.526 265.975 183.921 265.201C184.034 264.988 184.312 264.589 184.456 264.481C185.068 264.035 185.792 263.908 186.237 264.225C186.733 264.577 187.035 265.147 187.097 265.991C187.214 267.462 186.45 269.754 186.52 271.218C186.571 272.573 187.539 273.107 188.666 273.328C189.162 273.425 190.444 273.572 190.707 273.669C192.047 274.149 193.209 274.075 193.922 272.84C194.654 271.574 195.053 269.185 195.835 267.927C196.289 267.21 196.811 266.846 197.416 266.746C197.966 266.672 198.547 267.098 198.888 267.78C198.973 267.942 199.027 268.418 199.035 268.666C199.019 269.533 198.628 270.265 198.035 270.486C197.683 270.614 197.392 270.443 197.28 270.01C197.199 269.696 197.207 269.216 197.327 268.918C197.423 268.666 197.726 268.566 197.939 268.395C197.695 267.934 197.555 267.861 197.199 268.074C196.606 268.43 195.986 270.145 196.289 270.974C196.525 271.713 197.207 272.139 197.768 271.98C198.57 271.756 199.333 270.633 199.457 269.731C199.511 269.297 199.635 268.809 199.813 268.55C200.011 268.275 200.247 268.252 200.561 268.174C200.584 268.167 200.603 268.112 200.646 268.047C200.472 267.098 199.821 267.253 199.31 266.997C199.441 266.707 199.546 266.49 199.662 266.269C199.999 265.627 199.976 265.48 199.48 265.367C199.252 265.305 199.019 265.243 198.775 265.286C198.465 265.329 198.159 265.464 197.807 265.58C197.861 265.375 197.896 265.271 197.915 265.17C197.946 264.938 197.997 264.686 198.028 264.45C197.966 264.457 197.911 264.457 197.857 264.45C197.757 264.45 197.66 264.442 197.555 264.473C197.059 264.612 196.726 264.922 196.095 265.294C195.506 265.642 194.747 266.521 194.131 267.404C194.205 267.098 194.29 266.8 194.402 266.525C194.801 265.507 194.728 264.88 194.333 264.392L193.883 263.664C193.93 263.555 193.98 263.431 194.027 263.288C194.236 262.607 194.557 262.076 194.809 261.403C194.697 260.973 193.93 260.574 193.422 260.752C193.709 259.831 193.907 258.828 193.914 257.659C193.907 256.59 193.655 255.932 193.368 255.424C193.326 255.351 193.264 255.32 193.202 255.32C193.093 255.32 192.973 255.401 192.88 255.51M173.188 268.167C173.014 267.559 172.836 266.943 172.646 266.281C171.841 266.44 171.36 267.055 171.012 267.714C170.671 268.368 170.493 269.096 170.229 269.766C169.904 269.487 169.579 269.193 169.245 268.899C168.207 270.126 168.037 271.411 168.978 272.914C169.749 274.137 170.659 275.26 171.531 276.371C172.522 277.645 173.529 278.861 173.599 280.526C173.673 282.082 172.836 283.441 171.511 284.552C170.462 285.439 169.296 285.768 167.832 285.776C167.785 285.776 167.661 286.209 167.638 286.291C167.77 286.898 168.862 286.624 169.412 286.484C173.545 285.439 176.213 282.303 174.974 279.128C174.498 277.866 172.886 275.86 172.271 274.637C171.755 273.634 171.294 272.619 171.515 271.434C171.79 270.037 173.154 268.674 174.885 268.96C175.869 269.119 176.647 269.932 176.64 270.92C176.632 271.554 176.09 272.395 175.462 272.67C175.055 272.84 174.633 272.898 174.319 272.604C174.033 272.317 174.033 271.961 174.223 271.574C174.254 271.512 174.261 271.442 174.277 271.369C173.642 271.419 172.844 272.286 172.933 272.964C173.099 274.149 175.764 275.093 176.988 274.288C178.111 273.56 178.716 271.856 178.313 270.486C177.922 269.162 177.325 268.469 176.066 268.062C175.931 268.008 175.815 267.954 175.714 267.899C175.966 267.264 176.171 266.715 176.384 266.111C176.306 266.107 176.225 266.107 176.144 266.107C174.757 266.107 173.979 266.978 173.188 268.167M182.662 273.041C181.857 273.386 180.888 274.35 180.706 275.016C181.102 274.911 181.469 274.78 181.81 274.722C182.55 274.629 183.05 274.993 183.181 275.682C183.29 276.266 182.864 277.293 182.271 277.792C181.311 278.609 180.296 279.329 179.3 280.084C178.142 280.94 177.623 281.954 177.709 283.108C177.813 284.649 179.111 285.749 179.339 285.969C177.329 288.521 174.943 290.65 172.518 292.586C173.185 292.78 173.855 292.966 174.521 293.113C176.705 291.254 178.836 289.28 180.896 287.022C182.647 287.793 184.789 287.963 186.47 286.67C187.551 285.834 188.05 284.819 188.484 283.755C188.813 282.949 189.065 282.132 189.344 281.312C189.731 280.196 190.541 279.298 191.389 278.965C192.167 278.663 192.632 279.047 192.702 280.061C192.706 280.196 192.714 280.32 192.729 280.545C193.264 279.867 193.461 279.182 193.608 278.543C193.868 277.323 193.581 276.576 193.07 276.088C192.462 275.519 191.439 275.477 190.397 276.266C189.991 276.557 189.472 277.145 189.096 277.718C188.6 278.477 188.197 279.244 187.818 280.018C186.586 281.648 185.587 282.709 184.905 283.344C185.66 282.214 186.237 281.013 186.741 279.802C187.179 278.756 187.539 277.695 187.887 276.627C187.934 276.495 187.953 276.356 188.008 276.112C187.822 276.29 187.717 276.355 187.636 276.46C186.187 278.214 184.553 279.805 182.93 281.362C182.767 281.513 182.643 281.683 182.492 281.85C182.562 281.013 183.174 279.929 183.813 278.988C184.053 278.744 184.278 278.501 184.491 278.237C185.157 277.451 185.734 276.503 186.098 275.585C186.563 274.381 186.164 273.61 185.467 273.142C185.06 272.863 184.607 272.708 184.092 272.708C183.669 272.708 183.189 272.817 182.662 273.041M166.116 276.015C165.411 275.972 163.997 275.918 163.982 275.972C167.94 277.974 169.106 280.727 169.749 284.095C170.601 283.681 171.442 281.141 171.294 279.805C171.097 277.951 170.067 276.6 168.374 275.314C168.328 275.57 168.297 275.717 168.25 275.91C167.328 275.488 166.751 274.594 165.578 274.404C165.767 274.985 165.938 275.488 166.116 276.015M201.789 280.866C201.723 280.831 201.622 280.793 201.514 280.734C200.751 280.305 197.888 279.662 196.42 281.238C195.409 282.357 194.201 285.168 196.052 286.38C196.505 286.666 196.835 286.945 197.555 286.593C198.155 286.287 198.554 285.729 198.833 285.09C198.888 284.974 198.895 284.846 198.938 284.664C198.822 284.753 198.76 284.788 198.702 284.854C198.105 285.505 197.757 285.675 197.466 285.478C197.176 285.3 196.947 284.227 197.276 283.635C198.155 282.059 199.813 281.528 200.634 282.032C201.285 282.434 201.432 283.302 200.909 284.591C200.297 286.097 199.271 287.305 198.035 287.816C196.908 288.281 195.801 288.459 194.693 288.606C194.003 288.687 193.322 288.525 192.605 288.37C191.703 288.165 190.761 287.963 189.747 288.246C187.008 289.028 183.813 291.545 181.996 294.069C182.36 294.089 182.721 294.096 183.085 294.096C183.611 293.477 184.239 292.869 184.975 292.311C187.082 290.685 189.17 289.849 191.137 289.938C192.69 290.019 194.069 290.314 195.51 290.376C196.393 290.418 197.257 290.472 198.175 290.31C199.465 290.077 200.716 289.094 201.804 287.305C201.455 287.231 201.134 287.166 200.774 287.077C202.284 285.721 203.489 284.138 203.884 282.039C203.26 282.473 202.683 282.833 202.079 283.185C202.478 282.345 202.869 281.548 203.113 280.769C203.373 279.945 203.342 279.279 203.047 278.826C202.633 279.515 202.249 280.15 201.789 280.866M171.744 286.728C170.88 287.433 170.903 288.606 171.616 289.531C171.856 289.845 172.131 290.116 172.317 290.333C173.065 289.717 173.707 289.086 174.432 288.532C176.035 287.297 176.5 285.865 176.268 284.382C176.213 284.018 176.109 283.665 176.012 283.205C174.563 284.498 173.099 285.609 171.744 286.728ZM164.648 287.189C163.877 287.158 163.145 287.119 162.405 287.03C162.398 287.092 163.226 287.89 163.715 288.258C163.362 288.556 163.033 288.827 162.7 289.094C166.232 288.954 168.858 290.588 171.488 292.226C171.151 290.108 168.149 287.255 164.509 286.736C164.551 286.883 164.594 287.023 164.648 287.189M178.747 291.719C178.185 292.366 177.403 292.97 176.736 293.554C177.991 293.771 179.227 293.91 180.462 293.988C180.606 293.922 180.749 293.845 180.881 293.744C181.566 293.252 182.128 292.59 182.697 291.967C183.112 291.506 183.425 290.979 183.824 290.488C184.196 290.019 184.618 289.57 185.029 289.082C182.484 289.156 180.354 289.864 178.747 291.719M191.951 291.626C189.766 291.812 187.361 292.811 185.048 294.061C188.697 293.926 192.183 293.341 195.262 292.528C194.565 291.92 193.686 291.603 192.535 291.603C192.349 291.603 192.152 291.615 191.951 291.626" fill="url(#paint20_linear_156451_5041)"/>
<path d="M170.435 179.425C170.318 179.44 170.222 179.502 170.214 179.618V179.657C170.253 180.296 170.427 181.035 171.054 181.992C171.748 183.049 172.507 183.835 173.312 184.497C172.759 184.644 172.305 185.449 172.472 185.906C173.088 186.359 173.692 186.653 174.277 187.141C175.505 188.148 176.136 187.61 176.233 187.157C176.26 186.994 176.07 186.7 175.787 186.359C176.047 186.595 176.341 186.754 176.647 186.75C177.186 186.63 177.55 186.382 177.143 185.538C176.926 185.109 176.535 184.617 176.322 184.168C176.097 183.695 175.993 183.258 175.83 182.801C175.253 182.755 174.618 183.355 174.529 183.997C174.041 183.099 173.491 182.185 172.751 181.252C172.03 180.327 171.333 179.684 170.694 179.456C170.648 179.44 170.597 179.429 170.551 179.425H170.435ZM180.769 183.417C180.916 184.454 182 186.181 183.085 187.517C182.616 186.413 182.806 185.786 183.232 185.24C183.395 185.039 183.352 184.276 182.759 183.552C182.531 183.269 182.004 182.739 181.659 182.642C181.547 182.607 181.439 182.592 181.349 182.592C180.881 182.592 180.71 183.002 180.769 183.417M188.081 184.392C187.829 184.594 187.38 184.961 187.128 186.351C186.919 186.077 186.334 185.558 186.055 185.314C185.951 185.492 185.808 185.623 185.749 185.833C185.556 186.468 185.66 187.23 186.106 188.059C186.865 189.495 187.698 190.909 188.538 192.314C190.088 194.908 191.575 197.398 190.731 199.674C190.909 199.663 190.967 199.667 190.998 199.663C191.056 199.643 191.087 199.57 191.133 199.543C192.291 198.734 193.151 197.367 192.307 195.725C191.439 194.029 189.111 191.9 188.302 190.161C187.829 189.166 187.806 188.33 188.135 187.614C188.438 186.971 189.321 186.646 190.297 186.754C190.529 186.785 191.098 187.068 191.358 187.23C192.307 187.873 192.834 188.814 192.648 189.611C192.543 190.072 192.144 190.27 191.598 190.08C191.195 189.94 190.672 189.592 190.436 189.263C190.227 188.976 190.332 188.574 190.301 188.221C189.627 188.156 189.448 188.256 189.429 188.791C189.386 189.685 190.471 190.974 191.59 191.242C192.566 191.509 193.527 191.075 193.752 190.355C194.077 189.337 193.728 188.303 192.838 187.536C192.396 187.172 191.947 186.692 191.8 186.305C191.648 185.914 191.788 185.631 191.908 185.233C191.923 185.198 191.877 185.143 191.842 185.054C190.68 184.566 190.382 185.376 189.739 185.747C189.53 185.395 189.363 185.124 189.197 184.841C188.922 184.354 188.759 184.14 188.554 184.14C188.426 184.14 188.279 184.23 188.081 184.392M179.002 185.852C178.809 186.034 178.685 186.413 178.886 186.777C179.277 187.517 180.071 188.252 180.947 188.674C182.616 189.48 184.13 190.692 185.254 192.241C185.447 192.515 185.633 192.794 185.815 193.077C184.851 192.12 183.728 191.245 182.709 190.355C181.613 189.414 180.555 188.976 179.661 189.019C179.397 189.035 179.211 189.275 179.223 189.538C179.266 190.459 179.889 191.404 180.823 192.535C181.613 193.491 182.403 194.591 183.263 195.628C183.081 195.473 182.891 195.33 182.709 195.175C181.388 194.111 180.242 192.825 179.32 191.342C178.859 190.599 176.829 188.109 175.95 189.356C175.633 189.805 176.121 190.703 177.062 191.427C177.898 192.062 178.754 192.597 179.599 193.208C179.614 194.231 180.005 194.889 181.226 195.775C181.93 196.275 182.635 196.658 183.336 197.146C183.546 197.293 183.848 197.568 183.921 197.766C184.278 198.765 184.936 199.291 185.653 199.608C186.47 199.968 187.206 199.984 187.733 199.969C188.213 199.949 188.709 199.69 189.042 199.241C189.534 198.586 189.836 196.867 189.1 195.501C188.856 195.051 188.399 194.533 187.977 194.176C187.636 193.874 187.431 193.681 187.233 193.259C186.838 192.395 186.334 191.536 185.749 190.707C184.913 189.546 184.181 189.17 183.375 189.259C182.67 188.384 182.031 187.571 181.288 186.824C180.614 186.154 179.82 185.743 179.335 185.743C179.196 185.743 179.08 185.778 179.002 185.852M173.309 193.235C173.312 194.412 175.071 194.579 175.505 194.413C176.039 194.207 176.38 193.797 176.907 193.607C177.267 193.491 177.817 193.63 178.472 193.669C177.325 192.949 175.59 192.097 174.455 192.097C173.773 192.097 173.305 192.403 173.309 193.235M175.822 195.369C175.617 195.415 175.474 195.547 175.292 195.636C175.543 195.934 175.927 196.523 176.256 196.774C175.78 196.879 175.358 196.918 174.982 197.065C174.68 197.173 174.463 197.386 174.234 197.599C173.758 198.052 173.831 198.234 174.61 198.745C174.885 198.923 175.137 199.105 175.485 199.341C174.265 200.209 174.796 201.483 174.835 201.475C175.23 201.37 175.516 201.25 175.908 201.428C176.279 201.606 176.733 202.087 177.07 202.543C177.782 203.488 178.789 203.899 179.827 203.643C180.567 203.465 181.047 202.539 180.846 201.541C180.645 200.414 179.436 199.241 178.545 199.229C178.007 199.218 177.891 199.388 177.91 200.058C178.266 200.12 178.665 200.034 178.94 200.259C179.258 200.518 179.576 201.061 179.688 201.475C179.839 202.036 179.622 202.412 179.153 202.485C178.344 202.621 177.434 202.036 176.86 201.053C176.705 200.778 176.469 200.201 176.454 199.961C176.403 198.977 176.779 198.118 177.445 197.862C178.185 197.58 179.014 197.661 179.974 198.188C181.659 199.121 183.635 201.572 185.277 202.543C186.861 203.488 188.283 202.725 189.162 201.622C189.193 201.579 189.266 201.548 189.29 201.494C189.294 201.467 189.29 201.401 189.317 201.223C186.993 201.924 184.603 200.278 182.109 198.571C180.768 197.642 179.405 196.716 178.026 195.864C177.426 195.497 176.853 195.307 176.33 195.307C176.155 195.307 175.985 195.33 175.822 195.369ZM195.328 196.573C194.085 197.216 193.535 198.958 194.681 201.192C194.964 201.727 195.305 202.292 195.696 202.783C197.214 204.704 198.919 206.26 200.603 207.852C201.626 208.835 202.587 209.9 203.559 210.976C206.061 213.76 205.6 217.063 205.67 217.218C206.785 215.402 207.761 213.532 206.843 210.635C206.258 208.827 205.031 207.596 203.764 206.497C202.803 205.653 201.796 204.936 200.797 204.158C199.438 203.101 198.57 201.556 198.516 200.236C198.465 199.032 199.213 198.575 200.65 198.973C200.836 199.024 200.944 199.051 201.27 199.144C200.743 198.168 199.798 197.506 198.973 197.003C198.086 196.465 197.327 196.252 196.664 196.252C196.165 196.252 195.723 196.375 195.328 196.573M193.264 204.181C195.003 207 196.432 209.997 197.819 212.966C198.52 214.438 199.523 215.793 200.441 217.086C200.782 217.558 201.494 217.69 202.033 217.794C202.408 217.868 202.672 217.976 202.912 218.429C206.014 224.113 208.451 230.053 210.403 235.779C210.461 235.973 210.507 236.267 210.434 236.434C209.578 238.149 210.097 239.376 210.988 240.491C211.693 241.382 212.99 243.186 213.497 243.143C213.602 242.071 213.722 241.014 213.703 239.961C213.699 239.012 213.66 238.013 213.385 237.126C213.222 236.588 212.63 236.275 212.231 235.849C211.944 235.547 211.526 235.314 211.394 234.939C209.33 229.344 206.859 223.513 203.741 217.976C203.431 217.403 203.357 217.009 203.551 216.451C203.876 215.479 203.57 214.399 202.997 213.385C201.521 210.81 199.534 208.82 197.466 206.992C196.223 205.896 194.929 204.905 193.616 203.914C193.453 203.786 193.275 203.701 192.965 203.507C193.116 203.84 193.167 204.026 193.264 204.181M187.644 205.563C186.571 206.357 186.048 207.542 186.179 209.354C186.28 210.616 187.148 212.405 187.984 212.97C188.031 212.386 188.019 211.816 188.104 211.329C188.325 210.275 189.065 209.753 190.072 209.9C190.94 210.039 192.152 211.112 192.559 212.161C193.24 213.857 193.771 215.591 194.329 217.314C194.972 219.304 196.122 220.532 197.764 220.938C199.101 221.271 200.394 221.016 201.7 220.431C201.146 220.094 200.716 219.82 200.266 219.564C198.849 218.739 197.912 217.299 197.191 215.595C196.293 213.474 195.452 211.301 194.24 209.335C193.461 208.041 192.427 206.802 191.323 205.869C190.579 205.246 189.886 204.99 189.251 204.99C188.658 204.99 188.116 205.215 187.644 205.563M176.733 219.204C175.853 219.057 174.959 218.917 173.99 218.762C173.723 219.866 174.219 220.849 174.854 221.693C175.485 222.514 176.31 223.165 177.015 223.896C176.458 224.148 175.884 224.384 175.323 224.624C176.268 226.665 177.817 227.664 180.296 227.377C182.318 227.137 184.289 226.649 186.245 226.208C188.472 225.716 190.622 225.17 192.795 226.08C194.84 226.924 196.072 228.791 196.707 231.129C197.207 232.991 196.932 234.668 196.072 236.519C196.045 236.573 196.459 236.972 196.622 237.072C196.873 236.321 197.648 235.16 197.807 234.381C198.946 228.535 195.022 224.446 190.211 224.113C188.317 223.958 186.396 224.187 184.46 224.237C182.872 224.288 181.291 224.26 179.924 223.277C178.297 222.085 177.364 219.548 178.762 217.531C179.564 216.381 181.067 215.893 182.314 216.482C183.135 216.873 183.886 218.062 183.855 219.022C183.84 219.649 183.662 220.214 183.092 220.431C182.55 220.629 182.101 220.419 181.714 219.935C181.652 219.866 181.566 219.815 181.493 219.754C181.167 220.582 181.807 222.1 182.732 222.394C184.336 222.901 185.951 220.838 185.653 218.813C185.393 216.958 184.529 215.402 182.899 214.674C181.109 213.88 179.591 214.163 178.321 215.495C178.17 215.642 178.03 215.75 177.902 215.859C177.232 215.158 176.651 214.565 176.012 213.93C174.959 215.812 175.621 217.403 176.733 219.204M185.823 222.255C187.647 222.197 189.545 219.858 188.685 217.779C188.066 216.226 186.195 214.949 184.742 214.058C186.993 216.633 187.903 219.428 185.823 222.255ZM209.125 225.496C209.768 226.576 210.194 227.826 210.678 229.003C212.428 227.939 213.668 225.825 212.948 223.537C212.58 222.367 211.944 221.287 211.352 220.222C210.899 219.425 210.329 218.735 209.841 217.965C209.361 217.225 208.943 216.439 208.458 215.646C207.347 219.165 207.32 222.41 209.125 225.496M202.381 229.902C202.951 231.423 204.585 231.958 206.208 231.423C206.75 231.238 207.265 230.993 207.649 230.842C207.149 229.522 206.58 228.353 206.158 227.094C205.216 224.307 203.454 222.987 201.285 222.595C200.754 222.506 200.204 222.476 199.531 222.39C200.642 224.988 201.475 227.509 202.381 229.902M183.116 229.662C183.449 229.855 183.635 229.956 183.883 230.111C182.872 231.179 181.353 231.536 180.524 233.049C181.427 233.065 182.209 233.073 183.011 233.08C182.628 234.021 181.884 235.938 181.946 235.988C186.594 231.512 190.955 231.226 195.921 231.965C195.754 230.599 192.632 228.229 190.715 227.795C190.103 227.656 189.507 227.586 188.922 227.586C186.954 227.586 185.103 228.349 183.116 229.662ZM212.521 231.098C213.765 230.61 215 230.157 216.22 229.902C216.139 229.693 216.065 229.48 215.984 229.275C215.775 228.752 215.546 228.206 215.318 227.648C214.102 228.632 213.075 229.89 212.521 231.098ZM212.765 234.176C212.696 234.199 212.645 234.3 212.521 234.486C214.388 234.819 215.082 236.461 215.43 238.362C216.511 238.098 216.999 237.169 217.471 236.329C217.878 236.701 218.258 237.142 218.692 237.459C218.316 236.093 217.894 234.691 217.417 233.259C217.169 233.232 216.918 233.212 216.674 233.212C215.357 233.212 214.059 233.615 212.765 234.176M196.533 240.723C196.757 240.731 196.982 240.735 197.234 240.739C196.823 241.773 196.416 242.768 195.948 243.732C196.021 243.778 197.532 243.023 198.272 242.528C198.516 243.163 198.729 243.736 198.942 244.316C200.433 239.411 203.931 236.608 207.444 233.785C207.184 233.739 206.909 233.719 206.622 233.719C203.47 233.719 198.779 236.391 196.533 240.723M207.947 237.401C206.731 238.447 205.6 239.6 204.988 241.18C204.388 242.698 204.577 243.914 205.55 244.948C206.77 243.836 207.68 242.717 207.324 241.308C208.176 241.262 208.989 241.203 210.019 241.13C209.256 239.453 208.784 237.971 209.826 236.182C209.768 236.135 209.717 236.085 209.655 236.046C209.109 236.507 208.509 236.929 207.947 237.401M215.14 239.562C215.767 240.631 216.213 241.571 216.844 242.35C217.282 242.926 218.002 243.306 218.893 242.927C219.203 242.803 219.621 242.477 219.834 242.156C219.749 241.742 219.656 241.327 219.559 240.902C218.932 240.975 218.448 240.607 218.049 240.317C217.382 239.841 216.67 239.535 215.682 239.535C215.512 239.535 215.33 239.543 215.14 239.562M208.702 244.622C208.451 245.451 208.102 246.132 206.994 246.369C207.436 247.011 208.11 247.131 208.888 247.042C209.62 246.953 210.132 246.434 210.449 245.865C210.933 245.002 210.988 243.964 210.871 243.07C210.809 242.578 210.713 241.997 210.554 241.676C209.547 242.597 209.036 243.585 208.702 244.622M216.333 246.032C217.196 246.524 218.459 245.954 219.152 244.533C218.002 244.851 217.588 244.127 216.999 243.531C216.48 243.012 215.814 242.671 215.148 242.203C214.803 243.647 215.395 245.513 216.333 246.032M211.499 245.799C211.526 246.582 211.538 247.286 210.736 248.01C211.499 248.235 212.165 248.045 212.824 247.522C213.416 247.065 213.594 246.5 213.563 245.861C213.505 244.75 212.692 243.422 211.646 242.93C211.623 243.98 211.456 244.932 211.499 245.799M215.047 249.071C215.148 249.226 215.275 249.311 215.434 249.327H215.55C215.686 249.315 215.845 249.265 216.031 249.172C216.561 248.905 216.739 248.603 216.658 248.192C216.441 247.035 215.593 246.314 214.659 245.621C214.481 246.938 214.431 248.122 215.047 249.071" fill="url(#paint21_linear_156451_5041)"/>
<path d="M136.823 170.021L138.403 169.119L134.1 161.619L132.52 162.521L134.174 165.414L126.357 169.901L127.341 171.62L135.161 167.129L136.823 170.021ZM143.876 178.644L136.137 179.871L141.072 173.761L139.538 171.101L130.145 176.495L131.125 178.21L138.314 174.087L138.341 174.133L132.671 180.897L133.476 182.299L142.176 180.824L142.203 180.858L135.022 184.986L136.006 186.701L145.402 181.311L143.876 178.644Z" fill="#BCBAB7"/>
<path d="M150.199 400.222C148.047 400.222 147.127 397.352 147.127 389.457C147.127 385.358 149.122 384.335 154.811 384.335C156.306 384.335 157.499 384.346 158.644 384.366C156.829 389.949 154.395 400.222 150.199 400.222ZM138.662 394.838C138.662 396.928 138.862 398.711 139.225 400.222H109.136C105.135 400.222 102.577 399.296 102.577 395.606V385.358H112.054C112.828 383.055 113.338 380.948 113.594 378.7H102.58C102.625 375.539 102.856 372.715 103.087 369.474C99.4988 370.754 96.6821 372.239 94.3719 374.805V378.7H89.5011C89.0931 381.468 89.0931 383.564 88.9918 385.358H94.3719V396.12C94.3719 403.653 98.936 406.882 105.188 406.882H146.097C151.108 406.882 154.958 402.776 158.658 393.482V406.882H166.858V378.7C163.169 378.391 159.783 378.183 156.094 378.183C145.945 378.183 138.662 382.388 138.662 394.838ZM181.726 391.713V388.948C181.726 385.358 181.467 382.284 180.958 378.7H173.012C173.268 382.284 173.524 385.358 173.524 388.948V406.882H181.726C181.726 396.835 184.954 385.409 193.514 386.641C193.514 384.847 193.257 380.745 192.748 378.183C186.499 378.726 183.437 384.231 181.726 391.713ZM68.7402 400.222C66.5876 400.222 65.6647 397.352 65.6647 389.457C65.6647 385.358 67.6653 384.335 73.3522 384.335C74.8464 384.335 76.0395 384.346 77.1903 384.366C75.3698 389.949 72.9414 400.222 68.7402 400.222ZM57.2089 394.838C57.2089 403.347 60.2817 407.394 64.3843 407.394C69.4099 407.394 73.4225 402.947 77.2016 393.468V406.882H85.4041V378.7C81.7122 378.391 78.33 378.183 74.6353 378.183C64.4856 378.183 57.2089 382.388 57.2089 394.838M324.491 381.772C324.491 374.754 319.621 370.498 310.906 370.498C306.089 370.498 302.554 371.522 300.399 372.552C299.169 374.29 298.606 376.293 297.835 379.463C301.116 378.183 304.293 377.162 309.114 377.162C312.957 377.162 316.036 378.802 316.036 383.311C316.036 388.174 313.011 391.713 296.552 401.243C296.552 402.269 296.606 404.317 297.067 406.882H324.233C325.006 404.576 325.516 402.528 325.772 400.222H302.65C314.201 396.272 324.491 392.149 324.491 381.772M37.8916 399.012L37.4695 398.784C32.5509 396.174 25.9354 392.18 25.9354 384.9C25.9354 378.234 30.2463 375.108 35.421 375.108C41.1642 375.108 44.6478 379.156 44.6478 386.233C44.6478 391.105 41.9633 395.403 37.8916 399.012M53.6184 407.394L40.1146 400.196C47.7571 397.42 53.3624 391.943 53.3624 384.18C53.3624 373.725 45.5172 368.45 35.421 368.45C26.1436 368.45 17.2236 374.394 17.2236 385.873C17.2236 395.558 24.6045 401.347 32.7028 405.6L58.7425 419.18C58.7425 413.186 58.0278 409.749 53.6184 407.394M245.545 404.317C243.243 404.317 236.062 399.653 236.062 387.156C236.062 381.001 239.653 377.162 245.545 377.162C251.44 377.162 255.033 381.001 255.033 387.156C255.033 399.653 247.855 404.317 245.545 404.317M245.545 370.498C235.297 370.498 227.604 376.647 227.604 386.641C227.604 399.707 240.165 407.394 245.545 407.394C250.931 407.394 263.486 399.707 263.486 386.641C263.486 376.647 255.802 370.498 245.545 370.498ZM245.66 384.47C243.868 385.747 242.329 387.24 240.973 388.948C242.329 390.655 243.868 392.143 245.66 393.426C247.453 392.143 248.986 390.655 250.354 388.948C248.986 387.24 247.453 385.747 245.66 384.47ZM292.711 381.772C292.711 374.754 287.838 370.498 279.12 370.498C274.306 370.498 270.769 371.522 268.613 372.552C267.386 374.29 266.821 376.293 266.05 379.463C269.334 378.183 272.513 377.162 277.331 377.162C281.174 377.162 284.253 378.802 284.253 383.311C284.253 388.174 281.228 391.713 264.772 401.243C264.772 402.269 264.823 404.317 265.284 406.882H292.455C293.221 404.576 293.736 402.528 293.992 400.222H270.867C282.421 396.272 292.711 392.149 292.711 381.772M223.501 381.772C223.501 374.754 218.636 370.498 209.921 370.498C205.101 370.498 201.564 371.522 199.414 372.552C198.182 374.29 197.616 376.293 196.851 379.463C200.129 378.183 203.309 377.162 208.129 377.162C211.97 377.162 215.045 378.802 215.045 383.311C215.045 388.174 212.02 391.713 195.568 401.243C195.568 402.269 195.618 404.317 196.083 406.882H223.251C224.022 404.576 224.531 402.528 224.784 400.222H201.663C213.211 396.272 223.501 392.149 223.501 381.772Z" fill="white"/>
<path d="M293.465 358.427C292.303 358.719 291.025 358.995 289.638 359.256C288.24 359.518 286.515 359.644 284.452 359.644C282.42 359.644 280.364 359.372 278.287 358.82C276.21 358.272 274.339 357.386 272.673 356.165C271.005 354.947 269.637 353.341 268.579 351.355C267.513 349.369 266.986 346.933 266.986 344.061C266.986 341.423 267.425 339.105 268.295 337.119C269.164 335.131 270.38 333.479 271.93 332.152C273.484 330.832 275.329 329.848 277.462 329.195C279.595 328.54 281.911 328.217 284.407 328.217C285.977 328.217 287.5 328.366 288.98 328.672C290.463 328.973 291.943 329.344 293.42 329.78L292.773 336.357C291.464 335.628 290.164 335.091 288.876 334.745C287.578 334.396 286.236 334.222 284.846 334.222C283.391 334.222 282.088 334.467 280.926 334.965C279.764 335.454 278.771 336.138 277.941 337.007C277.111 337.881 276.472 338.919 276.022 340.123C275.571 341.324 275.352 342.638 275.352 344.061C275.352 345.541 275.602 346.877 276.115 348.07C276.618 349.257 277.316 350.264 278.202 351.093C279.089 351.918 280.155 352.55 281.402 352.986C282.651 353.42 284.013 353.639 285.499 353.639C286.833 353.639 288.155 353.487 289.461 353.181C290.769 352.88 291.971 352.508 293.074 352.072L293.465 358.427Z" fill="white"/>
<path d="M322.645 347.586C322.645 349.679 322.325 351.474 321.686 352.987C321.047 354.495 320.144 355.744 318.968 356.728C317.789 357.718 316.382 358.45 314.741 358.928C313.101 359.412 311.291 359.645 309.316 359.645C307.343 359.645 305.537 359.412 303.894 358.928C302.256 358.45 300.849 357.718 299.67 356.728C298.494 355.744 297.59 354.495 296.952 352.987C296.313 351.474 295.992 349.679 295.992 347.586V328.735H304.093V346.239C304.093 347.254 304.172 348.202 304.333 349.088C304.49 349.977 304.772 350.756 305.16 351.44C305.551 352.121 306.083 352.658 306.75 353.049C307.414 353.443 308.275 353.64 309.316 353.64C310.363 353.64 311.221 353.443 311.891 353.049C312.56 352.658 313.087 352.121 313.48 351.44C313.869 350.756 314.147 349.977 314.308 349.088C314.463 348.202 314.547 347.254 314.547 346.239V328.735H322.645V347.586Z" fill="white"/>
<path d="M334.799 342.755H336.887C337.585 342.755 338.238 342.687 338.848 342.56C339.456 342.425 339.988 342.195 340.436 341.863C340.886 341.531 341.243 341.092 341.505 340.555C341.764 340.02 341.896 339.359 341.896 338.577C341.896 337.79 341.764 337.137 341.505 336.62C341.243 336.097 340.886 335.675 340.436 335.354C339.988 335.036 339.456 334.808 338.848 334.682C338.238 334.547 337.585 334.482 336.887 334.482H334.799V342.755ZM326.695 328.735H336.364C341.04 328.735 344.482 329.543 346.691 331.152C348.894 332.766 350 335.281 350 338.707C350 341.784 348.939 344.186 346.82 345.911C344.696 347.64 341.736 348.501 337.931 348.501H334.799V359.122H326.695V328.735Z" fill="white"/>
<path d="M98.0518 328.735H106.327L110.25 352.073H110.337L114.426 328.735H124.705L128.974 352.073H129.064L133.026 328.735H140.91L134.112 359.125H123.706L119.395 335.79H119.305L115.301 359.125H104.802L98.0518 328.735Z" fill="white"/>
<path d="M149.576 343.93C149.576 345.182 149.705 346.391 149.97 347.567C150.228 348.74 150.631 349.778 151.185 350.678C151.737 351.578 152.449 352.295 153.324 352.833C154.193 353.37 155.234 353.64 156.458 353.64C157.674 353.64 158.726 353.37 159.596 352.833C160.465 352.295 161.174 351.578 161.723 350.678C162.278 349.778 162.686 348.74 162.947 347.567C163.206 346.391 163.338 345.182 163.338 343.93C163.338 342.628 163.206 341.384 162.947 340.211C162.686 339.036 162.278 338.003 161.723 337.115C161.174 336.234 160.465 335.528 159.596 335.005C158.726 334.482 157.674 334.226 156.458 334.226C155.234 334.226 154.193 334.482 153.324 335.005C152.449 335.528 151.737 336.234 151.185 337.115C150.631 338.003 150.228 339.036 149.97 340.211C149.705 341.384 149.576 342.628 149.576 343.93ZM141.21 343.93C141.21 341.491 141.539 339.3 142.192 337.356C142.842 335.413 143.81 333.764 145.087 332.417C146.365 331.067 147.958 330.026 149.854 329.303C151.756 328.578 153.957 328.212 156.458 328.212C158.952 328.212 161.152 328.578 163.054 329.303C164.956 330.026 166.546 331.067 167.824 332.417C169.101 333.764 170.066 335.413 170.722 337.356C171.375 339.3 171.698 341.491 171.698 343.93C171.698 346.338 171.375 348.515 170.722 350.461C170.066 352.408 169.09 354.062 167.801 355.423C166.51 356.788 164.914 357.834 163.009 358.557C161.113 359.285 158.921 359.648 156.458 359.648C153.957 359.648 151.768 359.285 149.877 358.557C147.997 357.834 146.404 356.788 145.11 355.423C143.818 354.062 142.842 352.408 142.192 350.461C141.539 348.515 141.21 346.338 141.21 343.93Z" fill="white"/>
<path d="M182.85 341.362H184.98C185.622 341.362 186.297 341.34 187.006 341.295C187.721 341.253 188.36 341.115 188.925 340.884C189.491 340.648 189.964 340.302 190.338 339.838C190.718 339.371 190.904 338.707 190.904 337.832C190.904 337.138 190.74 336.567 190.403 336.117C190.071 335.666 189.637 335.323 189.1 335.093C188.563 334.862 187.938 334.704 187.223 334.614C186.514 334.524 185.768 334.482 184.98 334.482H182.85V341.362ZM174.752 328.736H189.21C190.541 328.736 191.81 328.89 192.997 329.191C194.187 329.498 195.234 329.973 196.135 330.612C197.029 331.25 197.736 332.044 198.245 333C198.754 333.962 199.008 335.093 199.008 336.398C199.008 338.429 198.529 340.1 197.567 341.407C196.613 342.71 195.144 343.596 193.172 344.063V344.147C193.81 344.319 194.325 344.594 194.719 344.977C195.11 345.354 195.451 345.824 195.741 346.389C196.033 346.957 196.298 347.61 196.545 348.35C196.796 349.089 197.105 349.925 197.488 350.856L200.446 359.123H192.001L190.254 353.641C189.846 352.333 189.46 351.258 189.1 350.417C188.737 349.579 188.34 348.909 187.924 348.417C187.502 347.919 187.023 347.582 186.483 347.393C185.946 347.202 185.304 347.109 184.55 347.109H182.85V359.123H174.752V328.736Z" fill="white"/>
<path d="M203.931 328.735H212.029V353.117H224.573V359.125H203.931V328.735Z" fill="white"/>
<path d="M235.506 353.116H238.641C241.688 353.116 244.027 352.348 245.65 350.806C247.277 349.27 248.093 346.981 248.093 343.929C248.093 340.883 247.26 338.59 245.605 337.051C243.951 335.513 241.632 334.742 238.641 334.742H235.506V353.116ZM227.402 328.734H238.464C241.109 328.734 243.534 328.97 245.738 329.431C247.947 329.896 249.837 330.703 251.424 331.851C253.003 332.995 254.241 334.542 255.125 336.486C256.011 338.427 256.456 340.868 256.456 343.799C256.456 346.646 256.003 349.04 255.102 350.983C254.202 352.93 252.955 354.502 251.357 355.706C249.761 356.91 247.859 357.779 245.65 358.317C243.444 358.854 241.05 359.124 238.464 359.124H227.402V328.734Z" fill="white"/>
<path fill-rule="evenodd" clip-rule="evenodd" d="M0 328.735V359.125H9.46028V348.149H16.2727L18.6955 341.508H9.46028V335.354H20.9297L23.344 328.735H0Z" fill="white"/>
<path fill-rule="evenodd" clip-rule="evenodd" d="M26.2402 359.122H35.7005V328.732H26.2402V359.122Z" fill="white"/>
<path fill-rule="evenodd" clip-rule="evenodd" d="M42.2119 328.735V359.125H51.6778V348.149H58.4846L60.9074 341.508H51.6778V335.354H63.1416L65.5587 328.735H42.2119Z" fill="white"/>
<path fill-rule="evenodd" clip-rule="evenodd" d="M80.2938 349.202L76.5092 336.544L72.8567 349.202H80.2938ZM92.6496 359.125H83.0937L81.8584 355.041H71.1656L69.981 359.125H60.667L71.7424 328.735H81.5798L92.6496 359.125Z" fill="white"/>
<defs>
<linearGradient id="paint0_linear_156451_5041" x1="148.912" y1="163.399" x2="177.442" y2="93.9597" gradientUnits="userSpaceOnUse">
<stop stop-color="#858380"/>
<stop offset="1" stop-color="#A19F9C"/>
</linearGradient>
<linearGradient id="paint1_linear_156451_5041" x1="164.134" y1="-1.98479" x2="202.774" y2="100.138" gradientUnits="userSpaceOnUse">
<stop stop-color="#9D9B98"/>
<stop offset="1" stop-color="#797775"/>
</linearGradient>
<linearGradient id="paint2_linear_156451_5041" x1="203.634" y1="78.0998" x2="90.7813" y2="272.947" gradientUnits="userSpaceOnUse">
<stop stop-color="#797775"/>
<stop offset="0.842522" stop-color="#F2EFEA"/>
<stop offset="1" stop-color="#F2EFEA"/>
</linearGradient>
<linearGradient id="paint3_linear_156451_5041" x1="152.142" y1="265.17" x2="152.142" y2="39.7745" gradientUnits="userSpaceOnUse">
<stop stop-color="#9D9B98"/>
<stop offset="1" stop-color="#F2EFEA"/>
</linearGradient>
<linearGradient id="paint4_linear_156451_5041" x1="229.379" y1="176.057" x2="170.611" y2="12.6015" gradientUnits="userSpaceOnUse">
<stop stop-color="#9D9B98"/>
<stop offset="1" stop-color="#F2EFEA"/>
</linearGradient>
<linearGradient id="paint5_linear_156451_5041" x1="225.629" y1="273.307" x2="136.322" y2="24.9131" gradientUnits="userSpaceOnUse">
<stop stop-color="#44433E"/>
<stop offset="1" stop-color="#F2EFEA"/>
</linearGradient>
<linearGradient id="paint6_linear_156451_5041" x1="170.744" y1="34.5147" x2="170.744" y2="145.388" gradientUnits="userSpaceOnUse">
<stop stop-color="#F2EFEA"/>
<stop offset="1" stop-color="#F2EFEA"/>
</linearGradient>
<linearGradient id="paint7_linear_156451_5041" x1="136.027" y1="29.3464" x2="172.295" y2="5.8432" gradientUnits="userSpaceOnUse">
<stop stop-color="#FAF6F2"/>
<stop offset="1" stop-color="#FFFBF7"/>
</linearGradient>
<linearGradient id="paint8_linear_156451_5041" x1="128.963" y1="10.0302" x2="170.235" y2="10.0302" gradientUnits="userSpaceOnUse">
<stop stop-color="#B0AEAB"/>
<stop offset="1" stop-color="#FAF6F2"/>
</linearGradient>
<linearGradient id="paint9_linear_156451_5041" x1="234.91" y1="33.7451" x2="178.433" y2="3.09216" gradientUnits="userSpaceOnUse">
<stop stop-color="#FFFBF7"/>
<stop offset="0.527027" stop-color="#FFFBF7"/>
<stop offset="1" stop-color="#B4B2AF"/>
</linearGradient>
<linearGradient id="paint10_linear_156451_5041" x1="140.761" y1="4.82925" x2="209.626" y2="4.82925" gradientUnits="userSpaceOnUse">
<stop stop-color="#CCC9C6"/>
<stop offset="1" stop-color="#FAF6F2"/>
</linearGradient>
<linearGradient id="paint11_linear_156451_5041" x1="126.079" y1="15.1506" x2="118.712" y2="142.894" gradientUnits="userSpaceOnUse">
<stop stop-color="#FFFBF7"/>
<stop offset="1" stop-color="#FFFBF7"/>
</linearGradient>
<linearGradient id="paint12_linear_156451_5041" x1="145.445" y1="201.945" x2="220.843" y2="201.945" gradientUnits="userSpaceOnUse">
<stop stop-color="#DAD7D3"/>
<stop offset="1" stop-color="#FAF6F2"/>
</linearGradient>
<linearGradient id="paint13_linear_156451_5041" x1="143.597" y1="94.1287" x2="141.073" y2="46.4037" gradientUnits="userSpaceOnUse">
<stop stop-color="#BBB8B5"/>
<stop offset="1" stop-color="#FAF6F2"/>
</linearGradient>
<linearGradient id="paint14_linear_156451_5041" x1="171.968" y1="24.9336" x2="171.968" y2="281.516" gradientUnits="userSpaceOnUse">
<stop stop-color="#DAD7D3"/>
<stop offset="0.512418" stop-color="#FFFBF7"/>
<stop offset="1" stop-color="#EEEBE7"/>
</linearGradient>
<linearGradient id="paint15_linear_156451_5041" x1="171.968" y1="9.88112" x2="171.968" y2="266.463" gradientUnits="userSpaceOnUse">
<stop stop-color="#DAD7D3"/>
<stop offset="0.512418" stop-color="#FFFBF7"/>
<stop offset="1" stop-color="#EEEBE7"/>
</linearGradient>
<linearGradient id="paint16_linear_156451_5041" x1="184.841" y1="268.67" x2="148.884" y2="120.745" gradientUnits="userSpaceOnUse">
<stop stop-color="#FAF6F2"/>
<stop offset="0.512418" stop-color="#FFFBF7"/>
<stop offset="0.677314" stop-color="#FFFBF7"/>
<stop offset="0.90099" stop-color="#EBE7E3"/>
<stop offset="1" stop-color="#CCC9C6"/>
</linearGradient>
<linearGradient id="paint17_linear_156451_5041" x1="136.076" y1="35.114" x2="111.812" y2="77.0067" gradientUnits="userSpaceOnUse">
<stop stop-color="#791426"/>
<stop offset="0.534653" stop-color="#AF1C3B"/>
<stop offset="1" stop-color="#791426"/>
</linearGradient>
<linearGradient id="paint18_linear_156451_5041" x1="131.472" y1="32.4465" x2="107.206" y2="74.3424" gradientUnits="userSpaceOnUse">
<stop stop-color="#791426"/>
<stop offset="0.534653" stop-color="#AF1C3B"/>
<stop offset="1" stop-color="#791426"/>
</linearGradient>
<linearGradient id="paint19_linear_156451_5041" x1="143.401" y1="39.3567" x2="119.138" y2="81.2484" gradientUnits="userSpaceOnUse">
<stop stop-color="#791426"/>
<stop offset="0.534653" stop-color="#AF1C3B"/>
<stop offset="1" stop-color="#791426"/>
</linearGradient>
<linearGradient id="paint20_linear_156451_5041" x1="144.001" y1="374.026" x2="235.549" y2="156.519" gradientUnits="userSpaceOnUse">
<stop stop-color="#791426"/>
<stop offset="0.534653" stop-color="#AF1C3B"/>
<stop offset="1" stop-color="#791426"/>
</linearGradient>
<linearGradient id="paint21_linear_156451_5041" x1="142.714" y1="108.445" x2="249.437" y2="347.39" gradientUnits="userSpaceOnUse">
<stop stop-color="#791426"/>
<stop offset="0.534653" stop-color="#AF1C3B"/>
<stop offset="1" stop-color="#791426"/>
</linearGradient>
</defs>
</svg>
