<svg width="28" height="20" viewBox="0 0 28 20" fill="none" xmlns="http://www.w3.org/2000/svg">
<path d="M0 1.42857C0 0.639593 0.470101 0 1.05 0H26.95C27.5299 0 28 0.639593 28 1.42857C28 2.21755 27.5299 2.85714 26.95 2.85714H1.05C0.470102 2.85714 0 2.21755 0 1.42857Z" fill="#8D1B3D"/>
<path d="M0 10C0 9.21102 0.470101 8.57143 1.05 8.57143H26.95C27.5299 8.57143 28 9.21102 28 10C28 10.789 27.5299 11.4286 26.95 11.4286H1.05C0.470102 11.4286 0 10.789 0 10Z" fill="#8D1B3D"/>
<path d="M0 18.5714C0 17.7824 0.470101 17.1429 1.05 17.1429H26.95C27.5299 17.1429 28 17.7824 28 18.5714C28 19.3604 27.5299 20 26.95 20H1.05C0.470102 20 0 19.3604 0 18.5714Z" fill="#8D1B3D"/>
</svg>
