<svg width="136" height="20" viewBox="0 0 136 20" fill="none" xmlns="http://www.w3.org/2000/svg">
<path d="M0 7.80379C0 6.43627 0.208068 5.26199 0.624204 4.28094C1.04034 3.29989 1.61253 2.49721 2.34077 1.87291C3.08634 1.23374 3.9793 0.765515 5.01964 0.468228C6.05998 0.156076 7.20436 0 8.45277 0C9.80521 0 10.9929 0.178373 12.0159 0.535118C13.0563 0.876998 13.9232 1.36009 14.6168 1.98439C15.3103 2.6087 15.8305 3.34448 16.1773 4.19175C16.5414 5.03902 16.7235 5.96804 16.7235 6.97882C16.7235 8.91119 16.186 10.4942 15.1109 11.728C14.0533 12.9469 12.6228 13.8164 10.8195 14.3367L14.4347 15.8528C15.2323 16.1947 15.7612 16.6927 16.0212 17.3467C16.2813 18.0007 16.1253 18.8852 15.5531 20L6.05998 15.9197C4.74222 15.3698 3.68454 14.7975 2.88694 14.2029C2.10669 13.6083 1.49982 12.9766 1.06635 12.3077C0.632874 11.6388 0.34678 10.9327 0.208068 10.1895C0.069356 9.4463 0 8.65106 0 7.80379ZM7.88058 13.1104L8.99894 13.6009C9.51911 13.1996 9.9786 12.8056 10.3774 12.4192C10.7935 12.0327 11.1403 11.6239 11.4177 11.1929C11.6952 10.7469 11.9032 10.2564 12.0419 9.72129C12.198 9.17131 12.276 8.53214 12.276 7.80379C12.276 6.18357 11.9379 4.98699 11.2617 4.21405C10.5855 3.4411 9.62315 3.05463 8.37474 3.05463C7.12633 3.05463 6.15535 3.4411 5.46179 4.21405C4.78557 4.98699 4.44746 6.18357 4.44746 7.80379C4.44746 8.54701 4.51681 9.18618 4.65552 9.72129C4.79424 10.2564 5.0023 10.7246 5.27973 11.126C5.57449 11.5273 5.92994 11.8841 6.34608 12.1962C6.77955 12.5084 7.29105 12.8131 7.88058 13.1104Z" fill="white"/>
<path d="M17.666 10.6577C17.666 9.42401 17.8567 8.3835 18.2382 7.53623C18.637 6.68896 19.1832 6.0052 19.8767 5.48495C20.5703 4.9647 21.3939 4.59309 22.3475 4.37012C23.3012 4.13229 24.3415 4.01338 25.4686 4.01338C26.2661 4.01338 27.0551 4.03567 27.8353 4.08027C28.6329 4.12486 29.4392 4.17689 30.2541 4.23634V15.3846H26.0928V12.3077C25.8153 12.932 25.5119 13.4597 25.1825 13.8907C24.8704 14.3069 24.5322 14.6488 24.1681 14.9164C23.804 15.1691 23.4139 15.3475 22.9977 15.4515C22.5816 15.5556 22.1481 15.6076 21.6973 15.6076C21.0558 15.6076 20.4836 15.4887 19.9808 15.2508C19.4779 15.013 19.0531 14.6786 18.7063 14.2475C18.3596 13.8164 18.0995 13.2962 17.9261 12.6867C17.7527 12.0773 17.666 11.401 17.666 10.6577ZM23.3879 12.8874C23.804 12.8874 24.1681 12.7462 24.4802 12.4638C24.8097 12.1813 25.0958 11.78 25.3385 11.2598C25.5813 10.7246 25.798 10.0855 25.9887 9.34225C26.1794 8.59903 26.3528 7.76663 26.5089 6.84504C26.2661 6.81531 26.0061 6.79301 25.7286 6.77815C25.4686 6.74842 25.2085 6.73356 24.9484 6.73356C23.752 6.73356 22.911 6.96395 22.4256 7.42475C21.9574 7.87068 21.7233 8.51728 21.7233 9.36455C21.7233 9.84021 21.758 10.2936 21.8274 10.7246C21.8967 11.1408 22.0008 11.5124 22.1395 11.8395C22.2955 12.1665 22.4776 12.4266 22.6856 12.6198C22.8937 12.7982 23.1278 12.8874 23.3879 12.8874Z" fill="white"/>
<path d="M31.8629 6.95652C31.8629 6.76329 31.8629 6.54775 31.8629 6.30992C31.8803 6.05723 31.8976 5.81197 31.915 5.57414C31.9323 5.32144 31.9583 5.08361 31.993 4.86065C32.0277 4.62282 32.0623 4.41472 32.097 4.23634H33.9436V2.65329C34.1864 2.43032 34.4725 2.21479 34.8019 2.00669C35.1487 1.79859 35.5041 1.60535 35.8683 1.42698C36.2497 1.24861 36.6312 1.09253 37.0126 0.958752C37.4114 0.824973 37.7755 0.728355 38.105 0.668897V4.5039C38.9373 4.39985 39.7002 4.33296 40.3937 4.30323C41.0873 4.25864 41.8242 4.23634 42.6045 4.23634C42.6045 4.5039 42.5871 4.74916 42.5524 4.97213C42.5351 5.1951 42.5004 5.41063 42.4484 5.61873C42.3964 5.82683 42.3357 6.04236 42.2663 6.26533C42.197 6.47343 42.119 6.70383 42.0323 6.95652C41.4254 6.95652 40.8185 6.94909 40.2117 6.93423C39.6221 6.91936 38.9199 6.8822 38.105 6.82274V10.9922C38.105 11.7354 38.3217 12.2408 38.7552 12.5084C39.206 12.7611 39.7262 12.8874 40.3157 12.8874C41.0439 12.8874 53.4116 13.0212 54.2092 12.8874C54.2092 13.0658 54.7753 13.4356 54.7406 13.6735C54.7233 13.8964 53.9423 13.6397 53.8903 13.8776C53.8383 14.1005 55.3241 14.0245 55.2721 14.2475C55.2201 14.4556 56.7372 15.4589 56.6852 15.6076C56.3211 15.7265 41.4541 15.6076 40.71 15.6076C40.0723 15.6076 39.6395 15.6076 39.1193 15.6076C37.4374 15.6076 36.1543 15.288 35.2701 14.6488C34.3858 13.9948 33.9436 12.9469 33.9436 11.505V6.95652H31.8629Z" fill="white"/>
<path d="M52.6539 10.6577C52.6539 9.42401 52.8446 8.3835 53.2261 7.53623C53.6249 6.68896 54.171 6.0052 54.8646 5.48495C55.5582 4.9647 56.3818 4.59309 57.3354 4.37012C58.2891 4.13229 59.3294 4.01338 60.4564 4.01338C61.254 4.01338 62.0429 4.03567 62.8232 4.08027C63.6208 4.12486 64.4271 4.17689 65.242 4.23634V15.3846H61.0806V12.3077C60.8032 12.932 60.4998 13.4597 60.1703 13.8907C59.8582 14.3069 59.5201 14.6488 59.156 14.9164C58.7919 15.1691 58.4018 15.3475 57.9856 15.4515C57.5695 15.5556 57.136 15.6076 56.6852 15.6076C56.0436 15.6076 55.4715 15.4887 54.9686 15.2508C54.4658 15.013 54.041 14.6786 53.6942 14.2475C53.3474 13.8164 53.0874 13.2962 52.914 12.6867C52.7406 12.0773 52.6539 11.401 52.6539 10.6577ZM58.3758 12.8874C58.7919 12.8874 59.156 12.7462 59.4681 12.4638C59.7975 12.1813 60.0836 11.78 60.3264 11.2598C60.5691 10.7246 60.7859 10.0855 60.9766 9.34225C61.1673 8.59903 61.3407 7.76663 61.4968 6.84504C61.254 6.81531 60.9939 6.79301 60.7165 6.77815C60.4564 6.74842 60.1963 6.73356 59.9363 6.73356C58.7399 6.73356 57.8989 6.96395 57.4134 7.42475C56.9453 7.87068 56.7112 8.51728 56.7112 9.36455C56.7112 9.84021 56.7459 10.2936 56.8152 10.7246C56.8846 11.1408 56.9886 11.5124 57.1273 11.8395C57.2834 12.1665 57.4655 12.4266 57.6735 12.6198C57.8816 12.7982 58.1157 12.8874 58.3758 12.8874Z" fill="white"/>
<path d="M71.1242 4.23634C71.2455 4.99443 71.3322 5.67075 71.3842 6.26533C71.4536 6.84504 71.4883 7.44705 71.4883 8.07135C72.1472 6.71869 72.9274 5.70792 73.829 5.03902C74.748 4.35526 75.6843 4.01338 76.638 4.01338C76.742 4.51877 76.82 5.09104 76.872 5.73021C76.9241 6.35451 76.9501 6.96395 76.9501 7.55853C75.8924 7.55853 75.0168 7.64771 74.3232 7.82609C73.647 8.00446 73.1008 8.32404 72.6847 8.78484C72.2859 9.23077 71.9911 9.84764 71.8004 10.6355C71.627 11.4233 71.523 12.434 71.4883 13.6678V15.3846H67.3269V8.24972C67.3269 7.46191 67.2922 6.76328 67.2229 6.15385C67.1709 5.54441 67.1188 4.90524 67.0668 4.23634H71.1242Z" fill="white"/>
<path d="M77.9865 12.4861C79.4777 11.5199 80.7348 10.68 81.7578 9.96656C82.7808 9.25307 83.6044 8.6139 84.2286 8.04905C84.8528 7.48421 85.2949 6.96395 85.555 6.48829C85.8324 6.01263 85.9712 5.53698 85.9712 5.06132C85.9712 4.37756 85.7197 3.87217 85.2169 3.54515C84.7141 3.21813 84.0725 3.05463 83.2923 3.05463C82.6334 3.05463 81.9052 3.12895 81.1076 3.27759C80.3273 3.42624 79.5211 3.64177 78.6888 3.92419C78.6194 3.76068 78.5501 3.55258 78.4807 3.29989C78.4287 3.03233 78.3767 2.75734 78.3247 2.47492C78.2726 2.17763 78.2293 1.88777 78.1946 1.60535C78.1773 1.32293 78.1686 1.07767 78.1686 0.869566C79.1396 0.572279 80.1366 0.356746 81.1596 0.222967C82.1826 0.0743222 83.1102 0 83.9425 0C85.0175 0 85.9538 0.118915 86.7514 0.356745C87.549 0.579711 88.2079 0.891862 88.7281 1.2932C89.2656 1.67967 89.6644 2.14047 89.9244 2.67559C90.1845 3.2107 90.3146 3.78298 90.3146 4.39242C90.3146 5.07618 90.1585 5.74508 89.8464 6.39911C89.5517 7.05314 89.0488 7.69974 88.3379 8.33891C87.6444 8.96321 86.7341 9.59495 85.607 10.2341C84.48 10.8733 83.0842 11.5199 81.4197 12.1739H90.6787V15.3846H77.9865V12.4861Z" fill="white"/>
<path d="M91.9027 7.78149C91.9027 6.53289 92.0761 5.42549 92.4229 4.45931C92.7697 3.49313 93.2639 2.68302 93.9054 2.02899C94.5643 1.36009 95.3532 0.854701 96.2722 0.512821C97.2085 0.17094 98.2575 0 99.4192 0C100.581 0 101.621 0.17094 102.54 0.512821C103.477 0.854701 104.265 1.36009 104.907 2.02899C105.566 2.68302 106.069 3.49313 106.415 4.45931C106.762 5.42549 106.936 6.53289 106.936 7.78149C106.936 9.04497 106.762 10.1672 106.415 11.1483C106.069 12.1145 105.566 12.932 104.907 13.6009C104.265 14.2549 103.635 14.6939 102.679 15.3061C101.754 15.8236 100.581 16.2245 99.4192 16.2245C98.2575 16.2245 97.2577 15.8163 96.301 15.3061C95.3444 14.7959 94.4643 14.1837 93.9054 13.6009C93.2639 12.932 92.7697 12.1145 92.4229 11.1483C92.0761 10.1672 91.9027 9.04497 91.9027 7.78149ZM99.4192 12.8571C99.9914 12.8571 100.468 12.6795 100.872 12.3469C101.319 11.9783 101.509 11.7786 101.812 11.2598C102.055 10.8436 102.228 10.3456 102.332 9.76589C102.436 9.17131 102.488 8.50985 102.488 7.78149C102.488 6.32479 102.254 5.1728 101.786 4.32553C101.335 3.47826 100.546 3.05463 99.4192 3.05463C98.2922 3.05463 97.4946 3.47826 97.0264 4.32553C96.5756 5.1728 96.3502 6.32479 96.3502 7.78149C96.3502 8.50985 96.4022 9.17131 96.5062 9.76589C96.6103 10.3456 96.7837 10.8436 97.0264 11.2598C97.2692 11.676 97.5765 12.0408 98.0017 12.3469C98.4269 12.6531 98.847 12.8571 99.4192 12.8571Z" fill="white"/>
<path d="M108.374 12.4861C109.865 11.5199 111.122 10.68 112.145 9.96656C113.168 9.25307 113.992 8.6139 114.616 8.04905C115.24 7.48421 115.682 6.96395 115.943 6.48829C116.22 6.01263 116.359 5.53698 116.359 5.06132C116.359 4.37756 116.107 3.87217 115.604 3.54515C115.102 3.21813 114.46 3.05463 113.68 3.05463C113.021 3.05463 112.293 3.12895 111.495 3.27759C110.715 3.42624 109.909 3.64177 109.076 3.92419C109.007 3.76068 108.938 3.55258 108.868 3.29989C108.816 3.03233 108.764 2.75734 108.712 2.47492C108.66 2.17763 108.617 1.88777 108.582 1.60535C108.565 1.32293 108.556 1.07767 108.556 0.869566C109.527 0.572279 110.524 0.356746 111.547 0.222967C112.57 0.0743222 113.498 0 114.33 0C115.405 0 116.341 0.118915 117.139 0.356745C117.937 0.579711 118.595 0.891862 119.116 1.2932C119.653 1.67967 120.052 2.14047 120.312 2.67559C120.572 3.2107 120.702 3.78298 120.702 4.39242C120.702 5.07618 120.546 5.74508 120.234 6.39911C119.939 7.05314 119.436 7.69974 118.726 8.33891C118.032 8.96321 117.122 9.59495 115.995 10.2341C114.868 10.8733 113.472 11.5199 111.807 12.1739H121.066V15.3846H108.374V12.4861Z" fill="white"/>
<path d="M122.725 12.4861C124.216 11.5199 125.473 10.68 126.496 9.96656C127.519 9.25307 128.342 8.6139 128.967 8.04905C129.591 7.48421 130.033 6.96395 130.293 6.48829C130.57 6.01263 130.709 5.53698 130.709 5.06132C130.709 4.37756 130.458 3.87217 129.955 3.54515C129.452 3.21813 128.811 3.05463 128.03 3.05463C127.371 3.05463 126.643 3.12895 125.846 3.27759C125.065 3.42624 124.259 3.64177 123.427 3.92419C123.357 3.76068 123.288 3.55258 123.219 3.29989C123.167 3.03233 123.115 2.75734 123.063 2.47492C123.011 2.17763 122.967 1.88777 122.933 1.60535C122.915 1.32293 122.907 1.07767 122.907 0.869566C123.878 0.572279 124.875 0.356746 125.898 0.222967C126.921 0.0743222 127.848 0 128.68 0C129.755 0 130.692 0.118915 131.489 0.356745C132.287 0.579711 132.946 0.891862 133.466 1.2932C134.004 1.67967 134.402 2.14047 134.662 2.67559C134.923 3.2107 135.053 3.78298 135.053 4.39242C135.053 5.07618 134.896 5.74508 134.584 6.39911C134.29 7.05314 133.787 7.69974 133.076 8.33891C132.382 8.96321 131.472 9.59495 130.345 10.2341C129.218 10.8733 127.822 11.5199 126.158 12.1739H135.417V15.3846H122.725V12.4861Z" fill="white"/>
<path d="M98.6917 7.7053C99.25 7.16934 100.155 7.16934 100.713 7.7053C101.272 8.24126 101.272 9.11023 100.713 9.6462L100.607 9.74824C100.049 10.2842 99.1437 10.2842 98.5854 9.74824C98.0271 9.21228 98.0271 8.34331 98.5854 7.80734L98.6917 7.7053Z" fill="white"/>
</svg>
