<svg width="124" height="92" viewBox="0 0 124 92" fill="none" xmlns="http://www.w3.org/2000/svg">
<g clip-path="url(#clip0_156451_3457)">
<path d="M0 45.9999H124V91.9999H0V45.9999Z" fill="#00AB39"/>
<path d="M0 0H124V46H0V0Z" fill="white"/>
<path d="M81.1806 13.5699H81.1612H81.1806ZM81.1612 13.5699C73.4868 17.6556 66.2322 22.4699 59.4999 27.9449C56.2062 30.8007 57.1362 33.0624 57.0006 35.6116C57.1168 37.3366 56.6324 38.9466 55.5668 39.9049L48.243 41.3616L47.5455 39.3682C47.7587 38.3332 48.6112 37.8349 50.4324 38.4674C50.568 37.1641 49.483 36.6274 48.243 36.1674C47.7974 35.8224 47.2743 35.5924 47.3324 34.4424C47.1387 31.8549 51.3237 34.6341 51.3624 34.6341C51.4012 34.6341 51.2074 32.0082 49.2893 31.4907C48.243 31.1266 47.7974 30.0341 48.2043 29.2291C49.0374 27.5616 50.6262 29.3441 51.8274 29.4207C51.7887 28.3282 51.4787 27.5616 50.5293 26.6991C50.0255 26.3732 48.7855 26.1432 48.7468 25.6257C48.7274 24.9357 49.9093 24.6291 51.5562 24.8207C51.2074 23.8432 50.103 23.2107 48.5918 22.7507L47.7005 21.1982C47.2743 20.4316 47.0805 20.3932 48.0687 18.9366C48.9405 18.3616 50.1224 17.5566 51.0137 17.0007L50.0449 16.8857C50.1612 15.8316 50.1805 15.4674 50.4324 13.7232C49.4637 15.0074 48.3012 14.7774 47.2162 15.2949C47.2162 15.2949 44.1937 15.8316 43.2055 17.1157L35.5718 16.7324C33.9443 16.9432 32.5687 17.4032 32.2974 18.9557C28.5968 19.3391 24.7218 19.0132 21.893 22.5016C23.8305 22.4249 25.4968 21.9649 27.6668 22.2332C27.6668 22.2332 29.5074 22.2716 29.8755 24.2074C29.9143 24.2841 30.5149 24.2841 30.5149 24.2841L31.2124 24.8207L31.4837 24.0924L32.1037 24.5141L32.2974 23.7091L32.9174 24.1307L32.9562 23.1724L33.7699 23.7474V22.4632C33.7699 22.4632 36.7924 22.4632 37.7224 24.3799C37.7612 24.3991 29.2555 25.9132 21.0405 25.2041L23.4043 24.0541C20.4205 23.4407 17.5918 22.9041 14.9568 20.8532C15.9449 24.5716 21.0987 28.9224 22.1643 28.9032L21.1568 27.1015L30.0693 27.4849C30.3987 28.4624 30.263 29.5549 31.038 30.4174C31.038 30.4174 30.5537 32.0274 31.658 32.6791C31.6968 32.7557 32.9562 29.4207 32.9562 29.4207C32.9562 29.4207 33.3437 30.3216 33.7312 30.9157C34.3124 28.0407 37.4899 27.5616 37.4899 27.5616L38.1487 29.0949C37.1605 29.2482 35.9205 31.2416 36.5987 32.3532C35.9205 32.3532 34.7387 34.289 35.1068 35.3432C34.5449 35.899 33.1693 36.6274 33.4987 38.9466C32.4137 39.1766 31.7549 41.1507 32.1037 43.2591C30.3987 44.8116 30.8249 47.6674 32.3362 48.8366C31.7162 49.4116 31.3287 49.8141 31.3287 50.5041C30.728 50.2932 30.1662 50.4657 29.9143 50.849C29.178 50.1015 28.1318 49.4691 27.3955 50.1591C27.2018 49.2774 26.0393 48.3191 24.7799 48.4341C24.8317 47.8822 24.6853 47.33 24.3664 46.8743C24.0475 46.4187 23.5765 46.0887 23.0362 45.9424C23.0362 45.9424 22.7455 41.6107 21.428 40.1924C21.2924 39.4257 21.5055 38.8891 22.5905 38.2374C23.6949 37.6624 23.9274 37.2216 23.8305 35.5732C24.2762 34.4807 24.6055 33.3691 23.2493 32.6216C23.288 33.9249 22.9005 34.5382 22.358 35.1132C21.7187 35.0366 21.5055 35.7649 21.0793 36.0716C20.4787 35.2857 22.3387 34.0399 20.963 32.2574C20.8855 32.1807 19.9943 29.9574 17.8049 29.9957C18.8318 30.5899 19.2774 31.6057 19.2774 32.6599C18.4699 34.4264 18.3458 36.4247 18.9287 38.2757C18.018 36.9341 17.4949 34.3657 16.7393 33.9249C16.0805 33.7907 15.7705 32.2574 13.1937 32.6982C14.298 32.9857 14.6662 33.829 14.9374 34.5765C14.2787 34.9215 14.608 35.8416 15.1118 36.4741C15.0149 37.9499 15.9062 38.8124 17.243 39.3491L16.5843 45.4249C16.0612 45.3674 15.228 47.4182 14.918 47.4757C14.3949 47.8016 13.4843 48.6641 14.5305 48.9132C14.2205 50.0057 13.9299 50.6766 12.2637 50.9066C12.2637 50.9066 14.0074 51.9415 15.4799 50.1782C17.0299 50.1399 16.5262 48.2999 17.2818 47.4949C17.2818 47.4374 17.7274 47.1691 18.3474 45.5399C18.6187 46.9966 20.1299 51.4432 23.5205 53.6474C26.4849 56.7907 28.9455 59.7615 28.9068 63.9399C30.0451 62.7016 30.8629 61.2086 31.2899 59.589C33.2229 59.0154 35.2428 58.7818 37.2574 58.899C36.9087 59.6465 36.5018 60.3557 37.0055 60.8157C35.5718 61.314 35.2618 62.349 35.843 63.3649C34.3318 64.3807 34.2349 65.0324 34.2155 66.719C31.4062 70.2649 29.6818 70.1499 26.9112 69.2107C26.0199 68.6932 24.5862 67.9457 23.9468 68.3482C22.7649 67.5432 21.0405 67.4282 20.7499 69.2299C21.6605 68.4824 22.1837 68.6357 22.9005 69.3449C22.7649 69.7091 22.6487 70.054 23.1718 70.2649L22.4743 71.0315C21.1955 70.8399 19.4518 70.8399 19.0062 72.6991C19.6649 72.1432 21.1374 72.0282 22.2999 72.5457L22.978 72.7757L23.0555 73.6574C23.0555 73.6574 21.3118 73.389 20.8468 76.2065C22.4743 74.4815 23.6368 74.9224 23.6368 74.9224C24.2762 75.8424 26.6012 75.7082 28.2868 74.194C30.6312 72.8907 31.3287 74.7691 32.8399 73.5424C34.0993 72.6224 35.5912 73.2357 36.618 74.3091C37.7999 74.7499 39.0399 75.1141 40.0087 74.3091C40.0087 74.3091 41.2099 73.5615 42.3918 74.769C42.3918 73.4274 41.423 72.6799 40.1055 72.6607L39.718 72.2774C38.4587 72.009 37.0637 72.124 35.9593 71.5107C36.3876 69.5758 37.3307 67.7891 38.6912 66.3357C40.493 64.419 41.8299 63.5374 44.1162 60.6049C44.0193 62.2724 45.298 64.1124 45.9762 65.7799C45.9762 65.7799 47.3324 63.6524 47.5262 61.889C47.5843 61.889 49.2505 61.0457 49.948 60.2982C51.4593 61.2374 53.9005 59.5699 55.4893 58.1899C56.458 58.5732 57.2137 58.5349 58.3374 58.1899C57.4268 60.0299 58.8605 61.7357 61.1468 62.4449C61.3405 64.0549 63.0068 64.3999 65.5062 64.3999C65.6224 65.3582 67.1143 65.4924 67.1143 65.4924C66.1456 65.9141 65.6806 66.3549 65.6999 67.3324C64.7312 67.3324 64.0143 67.5816 63.7624 68.6741C62.4256 68.7124 61.0693 68.8082 59.9262 69.4407C58.7055 69.2682 57.2137 68.7699 56.2643 67.7924C55.7799 67.3899 55.6443 66.7957 54.7918 66.5657C54.2493 65.9332 53.5905 66.0674 53.3774 66.6807C52.8155 66.2399 50.7037 66.0482 50.3355 68.0224C51.343 67.3132 52.2149 67.0449 52.8543 67.9265C52.5055 68.5207 53.6681 68.8849 54.6756 69.1149C55.3924 69.1532 56.6518 69.8049 57.0393 70.8782C56.4959 71.0338 55.9246 71.0699 55.3657 70.9838C54.8067 70.8977 54.2735 70.6916 53.8037 70.3799C53.4551 70.0923 53.0227 69.9224 52.5697 69.8948C52.1167 69.8672 51.6665 69.9834 51.2849 70.2265C50.4324 69.6899 48.4368 70.7057 48.3593 72.3157C49.1924 71.5491 49.9674 71.1657 50.7424 71.664C50.3549 71.7407 50.4905 71.7791 50.5487 72.0091L52.4862 73.1207C51.5174 73.3699 50.6262 73.7532 51.0524 75.5166C51.0524 75.5166 51.8274 73.9832 53.5712 74.5582C53.6099 74.5007 53.823 75.0949 54.3268 74.6924C55.0824 73.8491 56.8068 73.4657 58.3374 73.3124C59.558 73.1782 60.7787 72.8141 61.8249 73.5041C62.7937 73.0249 63.8399 72.6991 64.9249 73.4657C66.2037 73.8491 67.1337 75.344 68.7418 74.6732C69.5555 74.0982 70.5437 74.0982 71.5512 75.2099C71.5512 73.7915 70.4856 73.3124 68.9743 73.0057L67.9281 72.3924C66.9593 72.2391 65.9906 72.4115 65.0024 71.9515C67.3191 71.4019 69.5014 70.3999 71.4212 69.0043C73.341 67.6088 74.9595 65.8478 76.1818 63.8249L78.6037 64.6682C79.1849 64.7065 79.2237 64.8982 80.4056 65.2432C80.4443 63.5374 79.6887 61.774 76.5693 61.6015L72.5006 60.0682C71.6093 59.1482 71.2218 57.2124 72.3262 56.0816C73.4112 55.1232 73.6049 55.2382 74.3218 54.0691C75.1937 53.9924 76.0074 54.874 76.8018 54.874C77.1893 56.0049 79.3981 56.9824 80.7931 56.6566C81.6649 57.4232 83.3118 57.8449 85.1524 57.2316C85.6768 57.7156 86.3379 58.03 87.0476 58.1327C87.7572 58.2354 88.4817 58.1217 89.1243 57.8066C89.5506 58.2282 90.4418 58.5732 91.4493 58.3432C91.5462 58.3432 91.9918 59.4549 93.0962 59.8574C92.6118 60.3174 92.9024 62.3491 93.4256 63.0966C93.0509 63.855 92.9884 64.7276 93.2512 65.5307C92.1274 66.2399 91.8949 66.7766 92.3987 67.9841C90.9262 70.3416 89.1631 70.6099 87.4968 69.9007L85.6949 68.7507L83.7962 66.9107C83.4668 66.604 82.7887 66.5274 82.6531 67.1791C82.6531 67.1791 80.2118 66.6424 79.9987 68.6932C81.0256 67.7157 82.4593 68.5782 82.4593 68.6166C82.4593 68.6549 82.1106 68.8849 82.3818 69.2682C82.4399 69.2107 84.1837 69.9007 85.7143 70.5524C86.5474 70.8782 86.7412 70.9741 87.1093 71.1657C86.6467 70.956 86.1817 70.7515 85.7143 70.5524C85.042 70.2457 84.3208 70.0576 83.5831 69.9966C82.7306 69.9199 81.8006 69.8049 81.3743 70.4565C80.4443 70.8399 78.9718 71.1657 79.0493 72.8907C79.6693 71.8557 80.5412 71.9132 81.6456 72.0091L81.5681 72.239C82.7693 72.7757 82.5368 72.0857 83.6606 71.9899C84.6696 71.9748 85.6733 72.137 86.6249 72.469C85.7531 72.7182 84.5518 72.6032 83.9899 73.2357C83.8737 73.4274 83.5056 73.3507 83.6799 73.8491C83.6799 73.8491 81.9362 73.8107 81.4906 76.1491C83.2343 75.0566 84.5712 75.0949 84.5906 75.0949L85.1524 75.2099L87.2837 73.8107C87.3418 73.8107 89.3374 72.9291 90.2481 73.9257C91.0618 74.3091 91.9143 74.3474 92.7668 73.8491C94.3943 73.1399 95.9249 73.0824 97.4168 74.0791L98.7924 74.8841L99.3737 74.5007C99.3737 74.5007 100.924 74.079 102.047 75.4399C101.582 73.0824 99.8774 73.0057 99.8774 73.0057L99.4899 72.6607L97.0874 71.7216C96.7193 70.8591 95.8474 70.1882 96.7193 69.1532C97.6299 64.7257 98.6956 61.4099 96.9518 56.9249C98.5793 57.6149 99.7999 59.7615 101.834 59.014C101.834 57.2124 95.1306 53.7815 90.0156 51.0407C98.4243 50.5999 108.499 44.4857 104.624 36.7041L106.446 31.0691C107.317 32.7941 109.061 34.0974 110.631 34.6532C109.332 32.2191 108.596 24.7632 109.332 19.6266C105.905 23.6969 102.209 27.5386 98.2693 31.1265C100.207 31.5865 101.931 31.2607 103.811 31.0307L102.222 34.289C97.068 31.2799 91.0231 33.5224 90.9843 37.5091C91.1587 42.1474 96.9518 42.8182 100.304 41.189C99.6449 45.4249 89.8024 43.8724 89.8024 43.8724C86.3149 42.684 83.0018 42.8757 79.3399 42.914C80.0956 40.5949 84.3193 38.5249 87.5549 39.4449C83.0406 34.4232 88.1943 28.1941 94.4137 26.2966C87.6324 24.0732 93.4643 18.9557 98.5406 15.2949C98.5406 15.2949 83.9512 21.3707 82.6143 21.3516C78.4681 21.0449 79.5918 16.1766 81.1806 13.5699H81.1612ZM35.3587 19.3966C35.7074 19.3966 36.0949 19.4349 36.4243 19.5116C37.083 19.6841 37.8774 19.7607 37.8774 19.9716C37.5674 20.4699 36.8118 21.0641 36.0755 21.0449C35.3393 21.0066 34.913 20.5657 34.6805 19.4732C34.758 19.4349 35.0293 19.3966 35.3587 19.3966V19.3966ZM96.7774 36.5316C97.7462 36.5316 98.8893 36.9149 99.9937 38.1032C99.4705 39.6366 94.8012 40.4032 94.4912 38.1416C94.3943 37.4516 95.3824 36.5507 96.7774 36.5316V36.5316Z" fill="#D21034" stroke="black" stroke-width="0.146398"/>
<path d="M40.1832 32.8129L40.9001 33.8288M40.8614 33.848C40.8614 33.848 40.8614 35.2279 41.152 35.2471M40.5126 35.9946L41.2489 37.2021M39.2145 37.5088C39.2532 37.5088 40.1251 38.5054 40.1251 38.5054M40.8807 37.7388C40.8807 37.7771 41.6945 39.2913 41.7526 39.2913M39.8151 38.7929C39.8151 38.7929 40.0864 40.6329 40.3382 40.5754M38.5945 42.1663L39.4082 43.4121M40.1251 40.8629C40.1251 40.8629 40.5707 42.6071 40.9195 42.4538M41.2876 39.8088C41.307 39.8471 42.1207 40.9779 42.3339 40.8246M42.1401 41.2654L42.9151 42.7988M40.8614 42.4538L41.5007 44.2554M39.3695 43.3738C39.3695 43.3738 39.9507 45.3096 40.4739 45.003M39.1564 45.9613C39.1564 45.9613 39.1951 46.9771 39.6989 47.0346M40.0476 45.4438C40.0476 45.4821 40.5707 46.1721 40.5707 46.1721M41.5395 44.2363L41.9464 44.9071M42.8957 42.9905L43.5351 43.7763M39.912 33.8671C39.9314 34.7296 41.307 33.5604 41.8495 32.8321M39.3307 36.8571C39.3307 36.8571 40.8226 35.8029 41.9851 34.2121M38.827 39.3679C39.8926 39.0804 41.8495 36.7421 42.237 35.4963M38.6139 41.6871C38.9045 41.8213 42.547 39.1955 42.6439 37.298M38.517 43.6996C38.517 43.6804 41.8495 42.8563 43.2251 39.2338M38.362 46.4405C38.362 46.4405 43.6901 43.2779 43.9807 40.9588M79.902 51.7496C79.902 51.7496 79.5532 54.4713 76.802 54.8929M80.7739 56.6179C80.7932 56.5796 83.4089 53.7429 82.7307 52.8804M86.8189 53.8771C86.8189 53.8771 86.7801 55.8513 85.1526 57.2121M90.0739 54.4521C90.0739 54.4521 90.132 56.8288 89.1051 57.7871M93.0576 55.8705C93.0576 55.8705 91.8951 58.1129 91.4883 58.3429M93.0189 59.838C93.0189 59.838 94.5301 60.2213 95.0145 59.2246M93.4064 63.0771C93.4064 63.0771 94.8014 63.3263 95.4601 62.0038M93.2514 65.588C93.2514 65.588 94.3945 66.5463 95.1695 65.2813M76.957 47.1879C76.957 47.1879 76.8214 52.0371 83.6995 53.0146C91.3914 55.123 95.0339 54.0113 95.4795 62.5404C95.1889 65.7988 94.782 69.4405 92.3795 68.0413M69.6332 51.6538C69.6332 51.6538 70.7376 53.5896 72.0551 53.4554C73.7989 52.9571 74.4382 54.0113 74.4382 54.0113M64.9445 53.5896C64.9445 53.5896 67.8507 54.9888 70.3114 52.7271M65.2739 51.5771C65.5257 54.9313 61.3795 56.8479 59.7326 56.5221M65.4676 64.3804C65.487 64.3804 67.7151 63.0771 67.2695 62.1571M61.0501 62.4446C61.1082 62.3679 64.7895 62.0229 65.4676 60.7196M59.3451 57.0779C59.3451 57.0779 64.557 57.1163 64.9057 58.0554M66.262 54.0304C66.262 54.0304 61.1857 62.6363 70.5632 62.6363M60.8757 53.9154C60.8757 53.9154 59.7907 57.1163 58.2407 58.2088M55.4895 52.8038C55.4895 52.8038 57.3689 56.4071 55.4895 58.1896M50.5682 53.8196C50.5876 53.8771 51.1689 58.9371 49.8901 60.3746M48.1076 53.973C48.1076 53.973 48.3014 57.1929 47.3326 58.3429C46.3639 59.4929 47.5651 61.8696 47.5651 61.8696M35.8432 63.4029C35.8432 63.4029 36.5407 64.6104 37.4901 64.1888M37.0057 60.7771C37.0057 60.7771 38.5557 61.4479 39.0789 61.1988M38.6914 55.3721C38.6914 55.3721 36.4051 56.0046 37.277 58.688C38.5945 59.7421 39.8732 59.5696 39.8732 59.5696M34.177 66.738C34.1576 66.738 34.4482 68.8463 35.9207 67.2554C36.9476 65.1088 40.1832 59.0905 40.9389 57.0205M42.4501 56.0429C42.4501 56.0429 40.8807 54.8354 40.9389 56.5221C40.9001 57.5763 41.4232 57.8255 41.4232 57.8255C41.4814 58.5921 42.1595 59.6655 42.702 58.688C42.9345 57.7296 42.547 57.308 42.547 57.308M43.4576 55.583C42.0432 55.5063 41.2682 58.5921 44.0001 56.6563M44.9301 54.548C44.9301 54.548 44.5814 55.0271 44.0195 54.5096C43.7289 54.0113 42.702 56.8096 44.5039 56.9054C44.8332 56.0813 45.8214 55.8513 45.8214 55.8513M46.6739 53.2063C46.6739 53.2063 45.8601 53.5896 45.5695 53.5321C44.6007 53.7429 44.7945 55.9854 46.0151 55.8513C46.4414 55.3721 46.887 54.7013 46.887 54.7013M39.0789 50.2929C39.0401 50.2929 35.882 55.2188 40.842 56.5221M79.2045 42.9138C79.2045 42.9138 77.267 44.5238 79.0689 47.1304C73.0626 47.0346 69.8657 49.7754 69.6139 51.6154C61.9801 51.0788 63.3751 53.3021 60.8951 54.0304C57.582 51.2896 52.7189 52.8229 53.0289 55.5638C50.8201 52.4779 47.4101 53.973 46.9839 54.7396C46.577 55.5063 46.732 50.9446 46.732 50.9446C46.732 50.9446 44.5039 51.9413 42.9732 53.7429V49.9288C41.1132 50.3121 39.3114 50.3121 37.3932 50.2738M32.3751 48.8746C32.3751 48.8746 35.1457 50.4079 38.5751 48.3379M32.162 43.3738C32.162 43.3738 34.2932 45.2905 38.362 44.6771M33.5182 38.9846C33.5182 38.9846 33.9832 40.5371 38.6139 40.6329M35.0682 35.3813C35.0682 35.3813 36.812 37.4896 39.1757 37.1638M36.5601 32.3721C36.5601 32.3721 37.2382 33.5221 39.8151 33.7138M38.0714 29.0179C38.0714 29.0179 39.4276 30.4746 40.9776 30.2254M46.112 17.1154C46.112 17.1154 46.7126 16.5404 47.7201 16.8279M45.6857 20.2396C45.6857 20.2396 43.8257 20.1821 43.942 19.4729C44.097 18.6296 45.9182 18.0354 45.9182 18.0354C45.9182 18.0354 48.3401 16.5021 48.7082 15.9654M37.742 24.3988L40.1057 28.8646L41.2295 27.1779L41.8107 28.3279L42.7795 26.6604L44.4457 27.7146L43.8257 25.6638L45.2207 25.5679C45.2207 25.5679 44.8332 24.5904 43.5932 24.3796C43.9226 24.1304 45.0851 23.3638 45.0851 23.3638C45.0851 23.3638 44.4264 22.5971 43.3801 22.5779C43.7289 22.2138 44.1939 21.3321 44.1551 21.3321L43.1282 21.1021C43.1282 21.1021 45.492 21.8688 47.3132 20.7954M42.8182 17.1921C42.8376 17.2113 42.6826 18.1121 42.1789 18.6296M33.712 19.6454C33.712 19.6454 35.1651 19.2621 36.2501 19.4729C37.3351 19.7029 38.7882 20.0863 38.7882 20.0863C38.7882 20.0863 40.532 19.8563 41.0939 19.4538M30.0889 20.6038C30.0889 20.6038 29.8951 21.2938 29.8176 21.7538C29.8176 22.0796 28.752 22.5204 28.752 22.5204M30.7476 19.1854C30.7476 19.1854 31.6776 20.3354 31.7164 21.0063C31.7357 21.6579 31.0189 22.1563 31.0189 22.1563M21.1182 27.0246L20.1495 25.4913L21.0214 25.1846M38.5557 48.3763C37.7807 47.3796 39.137 32.238 41.9851 28.2896C40.997 35.4196 44.3101 42.703 45.1432 42.6646M29.837 24.0729C29.837 24.0729 31.1545 24.5521 33.8476 22.4246M37.5095 27.5613L39.447 27.5804M97.6301 15.6971C97.6301 15.6971 65.332 30.6088 64.867 31.4138C70.3114 29.7654 93.4451 25.9513 94.007 26.2771C92.6508 26.6029 64.5764 32.9855 63.2589 34.5188C70.2726 34.2888 84.9395 36.7421 87.2451 39.1188C82.2464 38.0071 67.347 35.8413 62.7745 36.7996C66.107 37.5854 78.8945 45.7696 78.8945 47.073C76.957 45.2521 61.5926 38.9846 60.992 39.598C64.5182 41.6871 69.4976 49.4496 69.4976 51.3471C68.4707 49.7371 59.5776 40.2879 59.0545 40.9013C60.0039 42.1854 61.8639 53.3405 60.9145 53.858C60.9145 52.5163 57.4657 42.7413 57.1751 42.473C56.4776 42.6646 52.0795 54.3563 52.9514 55.4679C52.3701 51.5579 53.0482 43.393 54.1139 43.7188C52.1764 44.0063 46.0345 52.0371 46.6932 53.3021C46.887 51.2896 47.1582 49.9671 50.6457 43.3163C46.7707 43.5463 38.7882 48.5104 37.432 50.2929C38.517 47.1304 45.2789 41.7829 48.2432 41.3996M62.1932 29.7654C65.6032 27.8871 76.1432 24.0729 83.1957 21.2554M55.567 39.8471C55.567 39.8471 57.892 39.8088 60.217 33.5605C62.5032 25.0121 80.6964 15.4863 81.0645 13.7038M24.7995 48.453C24.7995 48.453 24.257 49.6029 23.5982 49.9096M27.4151 50.1779C27.4151 50.1779 26.6982 51.5579 26.5239 52.2096M29.9145 50.8679C29.9145 50.8679 30.4957 52.7463 30.0114 53.6279M22.9589 45.9421C21.1376 46.9579 24.0051 53.4171 32.6657 54.0304M31.2707 50.5421C31.2707 50.5421 31.0382 51.6921 32.6657 53.9921C32.2007 56.5605 34.642 58.5729 35.6107 58.8988M30.5732 27.4271L30.8445 26.7371L31.1351 27.5038L31.6195 27.4846L31.9295 26.7179L32.2007 27.4846H32.6657L32.9564 26.6413L33.402 27.4463H33.7895L34.0801 26.4879L34.6614 27.1779L34.8939 27.1013L35.0876 26.1046L35.6882 26.7946L35.882 26.6988L36.1532 25.7404L36.6376 26.4496L36.8895 26.3729L37.122 25.5488L37.587 26.3154M30.0307 27.5038L33.6732 27.4463C34.8357 27.4463 36.7345 25.8554 38.8464 26.3538M22.397 35.1704C22.397 35.1704 22.9976 36.4738 23.8307 35.7454M21.002 36.0329C21.002 36.0329 19.8395 39.1379 21.2345 39.8663M19.3357 32.6213C19.3357 32.6213 19.3357 33.3496 20.8857 32.2379M14.5889 48.8554C14.5889 48.8554 15.8095 49.2388 15.6157 50.1396M15.0345 34.6529C15.0345 34.6529 15.8095 35.0171 16.5457 33.8863M23.172 70.2455C24.3539 70.1688 24.6251 70.7054 25.6907 70.7054C26.9695 70.7438 28.1901 70.2455 29.7595 69.8046M40.0476 72.6796C40.0089 72.6796 39.4664 73.7913 39.9507 74.3471M22.9976 72.7755C22.9976 72.7755 24.8964 71.2421 25.9039 72.1813C26.8532 72.5071 27.3764 72.4496 27.3764 72.4496M23.9857 68.3671C23.9857 68.3671 24.4507 69.5555 22.9007 69.383M22.4357 71.108C22.4357 71.108 23.4239 71.7213 22.3001 72.5455M23.0364 73.6571C23.0364 73.6571 24.3926 73.8488 23.5982 74.9413M65.7195 67.2938C67.0951 68.3863 66.5332 69.038 70.8732 66.163M63.7432 68.6546C63.7432 68.6546 65.7776 70.8396 67.2695 68.1946M59.8489 69.4404L57.0782 70.8779M52.1182 72.8904C52.1182 72.8904 53.8039 71.4721 54.5789 72.2196C55.3732 72.9863 58.7057 71.5679 58.7057 71.5679M53.3776 66.6996C53.3776 66.6996 53.9589 67.8496 52.8351 67.9838M51.1882 70.2646C51.1882 70.2646 51.7695 71.338 50.6457 71.6063M52.4864 73.1588C52.4864 73.1588 54.2301 73.2546 53.6101 74.558M68.8001 72.9288C68.8001 72.9288 67.8314 73.7338 68.5482 74.6538M82.692 67.1788C82.692 67.1788 83.7964 67.7155 82.4789 68.6163M81.3745 70.5138C81.3745 70.5138 82.2076 71.3763 81.6457 72.0855M83.6995 73.8105C83.6995 73.8105 84.8426 74.1363 84.707 75.0755M99.7807 72.9671C99.7807 72.9671 98.812 73.6763 99.3351 74.5771M82.7307 45.2905C85.017 45.0221 88.3107 50.0821 89.9964 51.0596M100.052 38.1413C100.052 38.1413 101.214 39.1571 100.188 41.5913M102.203 34.2696C102.532 34.5188 103.772 35.1896 104.605 36.723M105.399 26.7179L103.791 31.0304M107.201 26.5071C107.201 26.5071 106.891 30.3404 106.426 31.1071M67.037 65.473C67.037 65.473 70.7182 65.8563 70.912 66.1246C71.3382 65.6838 74.632 63.0196 70.5826 62.6554C70.396 63.4501 69.9451 64.1597 69.3022 64.6706C68.6593 65.1815 67.8616 65.4641 67.037 65.473V65.473ZM99.9745 38.1029C99.4514 39.6363 94.782 40.4029 94.472 38.1413C94.2976 36.9913 97.2232 35.2088 99.9745 38.1029Z" stroke="black" stroke-width="0.146398" stroke-linejoin="round"/>
<path d="M35.3193 19.4157L37.1212 19.7416C37.1212 19.7416 35.8618 21.4282 35.3193 19.4157Z" fill="black" stroke="black" stroke-width="0.146398" stroke-linejoin="round"/>
</g>
<defs>
<clipPath id="clip0_156451_3457">
<rect width="124" height="92" fill="white"/>
</clipPath>
</defs>
</svg>
