<svg width="124" height="92" viewBox="0 0 124 92" fill="none" xmlns="http://www.w3.org/2000/svg">
<g clip-path="url(#clip0_156451_3455)">
<path d="M0 0H124V92H0V0Z" fill="#74ACDF"/>
<path d="M0 30.6667H124V61.3334H0V30.6667Z" fill="white"/>
<path d="M61.4053 46.2393L66.7063 57.6473C66.7063 57.6473 66.7993 57.8681 66.9481 57.8129C67.0969 57.7393 67.0039 57.5185 67.0039 57.5185L62.5957 45.7425M62.4655 50.1953C62.3911 51.9249 63.4699 52.8817 63.3397 54.4273C63.1909 55.9913 64.0465 56.8561 64.2697 57.4633C64.4557 58.0705 64.0465 58.4201 64.2139 58.5121C64.3999 58.6041 64.7719 58.1257 64.6603 57.2609C64.5301 56.4145 63.8791 56.1569 64.0279 54.2617C64.1767 52.3665 63.2467 51.9249 63.4699 50.2137" fill="#F6B40E"/>
<path d="M61.4053 46.2393L66.7063 57.6473C66.7063 57.6473 66.7993 57.8681 66.9481 57.8129C67.0969 57.7393 67.0039 57.5185 67.0039 57.5185L62.5957 45.7425M62.4655 50.1953C62.3911 51.9249 63.4699 52.8817 63.3397 54.4273C63.1909 55.9913 64.0465 56.8561 64.2697 57.4633C64.4557 58.0705 64.0465 58.4201 64.2139 58.5121C64.3999 58.6041 64.7719 58.1257 64.6603 57.2609C64.5301 56.4145 63.8791 56.1569 64.0279 54.2617C64.1767 52.3665 63.2467 51.9249 63.4699 50.2137" stroke="#85340A" stroke-width="0.109046"/>
<path d="M61.3576 45.9955L61.842 58.5419C61.842 58.5419 61.8425 58.7811 62.0013 58.7864C62.1673 58.7747 62.1668 58.5355 62.1668 58.5355L62.6496 45.9871M60.8068 50.0517C60.069 51.6215 60.6955 52.9138 59.9773 54.2925C59.2348 55.6811 59.6907 56.804 59.6621 57.4494C59.599 58.0808 59.0857 58.2489 59.2048 58.3973C59.341 58.5527 59.8698 58.2515 60.1012 57.4103C60.3084 56.5791 59.8066 56.0946 60.6772 54.4C61.5478 52.7054 60.8594 51.9454 61.7276 50.4489" fill="#F6B40E"/>
<path d="M61.3576 45.9955L61.842 58.5419C61.842 58.5419 61.8425 58.7811 62.0013 58.7864C62.1673 58.7747 62.1668 58.5355 62.1668 58.5355L62.6496 45.9871M60.8068 50.0517C60.069 51.6215 60.6955 52.9138 59.9773 54.2925C59.2348 55.6811 59.6907 56.804 59.6621 57.4494C59.599 58.0808 59.0857 58.2489 59.2048 58.3973C59.341 58.5527 59.8698 58.2515 60.1012 57.4103C60.3084 56.5791 59.8066 56.0946 60.6772 54.4C61.5478 52.7054 60.8594 51.9454 61.7276 50.4489" stroke="#85340A" stroke-width="0.109046"/>
<path d="M61.4086 45.753L57.0026 57.5277C57.0026 57.5277 56.9105 57.7489 57.0552 57.814C57.213 57.866 57.3051 57.6448 57.3051 57.6448L62.6054 46.2344M59.3305 49.2919C58.0416 50.4629 58.1205 51.8941 56.9237 52.8959C55.7005 53.8977 55.6874 55.1077 55.4112 55.6932C55.1087 56.2527 54.5694 56.2136 54.622 56.3958C54.6878 56.591 55.2928 56.5129 55.832 55.8233C56.345 55.1338 56.0688 54.4962 57.5287 53.2602C58.9886 52.0242 58.6466 51.0614 60.0276 50.0075" fill="#F6B40E"/>
<path d="M61.4086 45.753L57.0026 57.5277C57.0026 57.5277 56.9105 57.7489 57.0552 57.814C57.213 57.866 57.3051 57.6448 57.3051 57.6448L62.6054 46.2344M59.3305 49.2919C58.0416 50.4629 58.1205 51.8941 56.9237 52.8959C55.7005 53.8977 55.6874 55.1077 55.4112 55.6932C55.1087 56.2527 54.5694 56.2136 54.622 56.3958C54.6878 56.591 55.2928 56.5129 55.832 55.8233C56.345 55.1338 56.0688 54.4962 57.5287 53.2602C58.9886 52.0242 58.6466 51.0614 60.0276 50.0075" stroke="#85340A" stroke-width="0.109046"/>
<path d="M61.5497 45.547L52.9241 54.7575C52.9241 54.7575 52.7535 54.927 52.862 55.0419C52.9877 55.1497 53.1583 54.9802 53.1583 54.9802L62.4692 46.4449M58.2608 48.0299C56.617 48.6238 56.1363 49.9759 54.643 50.4484C53.1254 50.9109 52.6452 52.0238 52.1635 52.4602C51.6676 52.8625 51.1845 52.6223 51.1627 52.8105C51.1479 53.0157 51.7371 53.1727 52.502 52.7397C53.2427 52.2968 53.2341 51.6033 55.061 51.014C56.8879 50.4247 56.9445 49.4058 58.628 48.9549" fill="#F6B40E"/>
<path d="M61.5497 45.547L52.9241 54.7575C52.9241 54.7575 52.7535 54.927 52.862 55.0419C52.9877 55.1497 53.1583 54.9802 53.1583 54.9802L62.4692 46.4449M58.2608 48.0299C56.617 48.6238 56.1363 49.9759 54.643 50.4484C53.1254 50.9109 52.6452 52.0238 52.1635 52.4602C51.6676 52.8625 51.1845 52.6223 51.1627 52.8105C51.1479 53.0157 51.7371 53.1727 52.502 52.7397C53.2427 52.2968 53.2341 51.6033 55.061 51.014C56.8879 50.4247 56.9445 49.4058 58.628 48.9549" stroke="#85340A" stroke-width="0.109046"/>
<path d="M62.8005 50.4899C62.8935 52.1459 63.8421 52.8819 63.6561 54.4091C64.0653 53.2131 63.0795 52.2747 63.1353 50.5083M61.7031 46.1291L65.3301 53.9675L62.2983 45.8899" fill="#85340A"/>
<path d="M61.002 50.4502C60.4473 52.0153 61.0389 53.0544 60.2763 54.395C61.117 53.4449 60.5693 52.2047 61.3042 50.5939M61.675 46.0059L61.9937 54.6207L62.3175 46.0102" fill="#85340A"/>
<path d="M59.3571 49.734C58.2391 50.97 58.3838 52.154 57.1607 53.1038C58.3049 52.5443 58.2786 51.1912 59.5807 49.9812M61.6982 45.8828L58.66 53.9625L62.29 46.13" fill="#85340A"/>
<path d="M58.1132 48.4492C56.6022 49.1679 56.2778 50.3166 54.7804 50.731C56.0539 50.6473 56.5531 49.3872 58.2241 48.7623M61.7659 45.7775L55.8334 52.092L62.217 46.2299" fill="#85340A"/>
<path d="M61.7585 45.4116L50.2265 50.6556C50.2265 50.6556 50.0033 50.7476 50.0591 50.8948C50.1335 51.042 50.3567 50.95 50.3567 50.95L62.2607 46.5892M57.7595 46.4604C56.0111 46.3868 55.0439 47.454 53.4815 47.3252C51.9005 47.178 51.0263 48.0244 50.4125 48.2452C49.7987 48.4292 49.4453 48.0244 49.3523 48.19C49.2593 48.374 49.7429 48.742 50.6171 48.6316C51.4727 48.5028 51.7331 47.8588 53.6489 48.006C55.5647 48.1532 56.0111 47.2332 57.7409 47.454" fill="#F6B40E"/>
<path d="M61.7585 45.4116L50.2265 50.6556C50.2265 50.6556 50.0033 50.7476 50.0591 50.8948C50.1335 51.042 50.3567 50.95 50.3567 50.95L62.2607 46.5892M57.7595 46.4604C56.0111 46.3868 55.0439 47.454 53.4815 47.3252C51.9005 47.178 51.0263 48.0244 50.4125 48.2452C49.7987 48.4292 49.4453 48.0244 49.3523 48.19C49.2593 48.374 49.7429 48.742 50.6171 48.6316C51.4727 48.5028 51.7331 47.8588 53.6489 48.006C55.5647 48.1532 56.0111 47.2332 57.7409 47.454" stroke="#85340A" stroke-width="0.109046"/>
<path d="M62.0048 45.3648L49.322 45.844C49.322 45.844 49.0802 45.8445 49.0748 46.0016C49.0866 46.1658 49.3284 46.1653 49.3284 46.1653L62.0132 46.6429M57.9045 44.8199C56.3176 44.09 55.0112 44.7098 53.6176 43.9993C52.2139 43.2648 51.0788 43.7158 50.4263 43.6875C49.788 43.6251 49.6181 43.1173 49.4681 43.2351C49.311 43.3699 49.6155 43.893 50.4658 44.1219C51.3061 44.3268 51.7958 43.8304 53.5089 44.6917C55.2219 45.5529 55.9902 44.872 57.5029 45.7308" fill="#F6B40E"/>
<path d="M62.0048 45.3648L49.322 45.844C49.322 45.844 49.0802 45.8445 49.0748 46.0016C49.0866 46.1658 49.3284 46.1653 49.3284 46.1653L62.0132 46.6429M57.9045 44.8199C56.3176 44.09 55.0112 44.7098 53.6176 43.9993C52.2139 43.2648 51.0788 43.7158 50.4263 43.6875C49.788 43.6251 49.6181 43.1173 49.4681 43.2351C49.311 43.3699 49.6155 43.893 50.4658 44.1219C51.3061 44.3268 51.7958 43.8304 53.5089 44.6917C55.2219 45.5529 55.9902 44.872 57.5029 45.7308" stroke="#85340A" stroke-width="0.109046"/>
<path d="M62.2504 45.4149L50.3476 41.0563C50.3476 41.0563 50.124 40.9652 50.0583 41.1083C50.0057 41.2645 50.2293 41.3555 50.2293 41.3555L61.7637 46.5989M58.673 43.3592C57.4893 42.0841 56.0425 42.1622 55.0298 40.9782C54.0171 39.7682 52.7939 39.7552 52.2021 39.482C51.6365 39.1827 51.676 38.6493 51.4919 38.7013C51.2946 38.7664 51.3735 39.3649 52.0706 39.8983C52.7676 40.4057 53.4121 40.1325 54.6616 41.5767C55.911 43.0209 56.8843 42.6826 57.9496 44.0488" fill="#F6B40E"/>
<path d="M62.2504 45.4149L50.3476 41.0563C50.3476 41.0563 50.124 40.9652 50.0583 41.1083C50.0057 41.2645 50.2293 41.3555 50.2293 41.3555L61.7637 46.5989M58.673 43.3592C57.4893 42.0841 56.0425 42.1622 55.0298 40.9782C54.0171 39.7682 52.7939 39.7552 52.2021 39.482C51.6365 39.1827 51.676 38.6493 51.4919 38.7013C51.2946 38.7664 51.3735 39.3649 52.0706 39.8983C52.7676 40.4057 53.4121 40.1325 54.6616 41.5767C55.911 43.0209 56.8843 42.6826 57.9496 44.0488" stroke="#85340A" stroke-width="0.109046"/>
<path d="M62.4572 45.5539L53.1466 37.0211C53.1466 37.0211 52.9753 36.8523 52.8592 36.9596C52.7502 37.084 52.9215 37.2527 52.9215 37.2527L61.5496 46.4635M59.9474 42.3004C59.347 40.6743 57.9802 40.1987 57.5026 38.7215C57.0351 37.2202 55.91 36.7451 55.4689 36.2687C55.0622 35.7781 55.305 35.3002 55.1148 35.2786C54.9073 35.264 54.7487 35.8468 55.1864 36.6035C55.6341 37.3362 56.3352 37.3277 56.9309 39.135C57.5265 40.9423 58.5566 40.9982 59.0123 42.6636" fill="#F6B40E"/>
<path d="M62.4572 45.5539L53.1466 37.0211C53.1466 37.0211 52.9753 36.8523 52.8592 36.9596C52.7502 37.084 52.9215 37.2527 52.9215 37.2527L61.5496 46.4635M59.9474 42.3004C59.347 40.6743 57.9802 40.1987 57.5026 38.7215C57.0351 37.2202 55.91 36.7451 55.4689 36.2687C55.0622 35.7781 55.305 35.3002 55.1148 35.2786C54.9073 35.264 54.7487 35.8468 55.1864 36.6035C55.6341 37.3362 56.3352 37.3277 56.9309 39.135C57.5265 40.9423 58.5566 40.9982 59.0123 42.6636" stroke="#85340A" stroke-width="0.109046"/>
<path d="M57.4613 46.7916C55.7873 46.8836 55.0433 47.822 53.4995 47.638C54.7085 48.0428 55.6571 47.0676 57.4427 47.1228M61.8695 45.706L53.9459 49.294L62.1113 46.2948" fill="#85340A"/>
<path d="M57.5018 45.0133C55.9196 44.4646 54.8692 45.0499 53.5141 44.2955C54.4745 45.1271 55.7281 44.5853 57.3565 45.3122M61.9944 45.6791L53.2859 45.9944L61.99 46.3147" fill="#85340A"/>
<path d="M58.225 43.3845C56.9756 42.2786 55.7787 42.4217 54.8186 41.2117C55.3842 42.3436 56.752 42.3176 57.9751 43.6057M62.1181 45.7004L53.9506 42.6949L61.8682 46.2859" fill="#85340A"/>
<path d="M59.525 42.1549C58.7985 40.6602 57.6374 40.3393 57.2184 38.8579C57.303 40.1178 58.5768 40.6116 59.2086 42.2647M62.2258 45.7683L55.8427 39.8997L61.7685 46.2146" fill="#85340A"/>
<path d="M62.5957 45.7608L57.2947 34.3528C57.2947 34.3528 57.2017 34.132 57.0529 34.1872C56.9041 34.2608 56.9971 34.4816 56.9971 34.4816L61.4053 46.2576M61.5355 41.8048C61.6099 40.0752 60.5311 39.1184 60.6613 37.5728C60.8101 36.0088 59.9545 35.144 59.7313 34.5368C59.5453 33.9296 59.9545 33.58 59.7871 33.488C59.6011 33.396 59.2291 33.8744 59.3407 34.7392C59.4709 35.5856 60.1219 35.8432 59.9731 37.7384C59.8243 39.6336 60.7543 40.0752 60.5311 41.7864" fill="#F6B40E"/>
<path d="M62.5957 45.7608L57.2947 34.3528C57.2947 34.3528 57.2017 34.132 57.0529 34.1872C56.9041 34.2608 56.9971 34.4816 56.9971 34.4816L61.4053 46.2576M61.5355 41.8048C61.6099 40.0752 60.5311 39.1184 60.6613 37.5728C60.8101 36.0088 59.9545 35.144 59.7313 34.5368C59.5453 33.9296 59.9545 33.58 59.7871 33.488C59.6011 33.396 59.2291 33.8744 59.3407 34.7392C59.4709 35.5856 60.1219 35.8432 59.9731 37.7384C59.8243 39.6336 60.7543 40.0752 60.5311 41.7864" stroke="#85340A" stroke-width="0.109046"/>
<path d="M62.6424 46.005L62.158 33.4586C62.158 33.4586 62.1575 33.2194 61.9987 33.2141C61.8327 33.2258 61.8332 33.465 61.8332 33.465L61.3504 46.0134M63.1932 41.9488C63.931 40.379 63.3045 39.0867 64.0227 37.708C64.7652 36.3194 64.3093 35.1965 64.3379 34.551C64.401 33.9197 64.9143 33.7516 64.7952 33.6032C64.659 33.4478 64.1302 33.7489 63.8988 34.5902C63.6916 35.4214 64.1934 35.9059 63.3228 37.6005C62.4522 39.2951 63.1406 40.0551 62.2724 41.5516" fill="#F6B40E"/>
<path d="M62.6424 46.005L62.158 33.4586C62.158 33.4586 62.1575 33.2194 61.9987 33.2141C61.8327 33.2258 61.8332 33.465 61.8332 33.465L61.3504 46.0134M63.1932 41.9488C63.931 40.379 63.3045 39.0867 64.0227 37.708C64.7652 36.3194 64.3093 35.1965 64.3379 34.551C64.401 33.9197 64.9143 33.7516 64.7952 33.6032C64.659 33.4478 64.1302 33.7489 63.8988 34.5902C63.6916 35.4214 64.1934 35.9059 63.3228 37.6005C62.4522 39.2951 63.1406 40.0551 62.2724 41.5516" stroke="#85340A" stroke-width="0.109046"/>
<path d="M62.5914 46.2475L66.9974 34.4728C66.9974 34.4728 67.0895 34.2516 66.9448 34.1865C66.787 34.1345 66.6949 34.3557 66.6949 34.3557L61.3946 45.7661M64.6695 42.7086C65.9584 41.5376 65.8795 40.1064 67.0763 39.1046C68.2995 38.1028 68.3126 36.8928 68.5888 36.3073C68.8913 35.7478 69.4306 35.7868 69.378 35.6047C69.3122 35.4095 68.7072 35.4876 68.168 36.1772C67.655 36.8667 67.9312 37.5043 66.4713 38.7403C65.0114 39.9763 65.3534 40.9391 63.9724 41.993" fill="#F6B40E"/>
<path d="M62.5914 46.2475L66.9974 34.4728C66.9974 34.4728 67.0895 34.2516 66.9448 34.1865C66.787 34.1345 66.6949 34.3557 66.6949 34.3557L61.3946 45.7661M64.6695 42.7086C65.9584 41.5376 65.8795 40.1064 67.0763 39.1046C68.2995 38.1028 68.3126 36.8928 68.5888 36.3073C68.8913 35.7478 69.4306 35.7868 69.378 35.6047C69.3122 35.4095 68.7072 35.4876 68.168 36.1772C67.655 36.8667 67.9312 37.5043 66.4713 38.7403C65.0114 39.9763 65.3534 40.9391 63.9724 41.993" stroke="#85340A" stroke-width="0.109046"/>
<path d="M62.4513 46.4526L71.0768 37.2421C71.0768 37.2421 71.2475 37.0726 71.139 36.9578C71.0133 36.8499 70.8427 37.0194 70.8427 37.0194L61.5318 45.5548M65.7401 43.9697C67.3839 43.3758 67.8647 42.0237 69.358 41.5512C70.8756 41.0887 71.3558 39.9758 71.8375 39.5395C72.3333 39.1371 72.8164 39.3773 72.8383 39.1891C72.853 38.9839 72.2639 38.827 71.499 39.2599C70.7583 39.7028 70.7669 40.3964 68.9399 40.9856C67.113 41.5749 67.0565 42.5939 65.373 43.0447" fill="#F6B40E"/>
<path d="M62.4513 46.4526L71.0768 37.2421C71.0768 37.2421 71.2475 37.0726 71.139 36.9578C71.0133 36.8499 70.8427 37.0194 70.8427 37.0194L61.5318 45.5548M65.7401 43.9697C67.3839 43.3758 67.8647 42.0237 69.358 41.5512C70.8756 41.0887 71.3558 39.9758 71.8375 39.5395C72.3333 39.1371 72.8164 39.3773 72.8383 39.1891C72.853 38.9839 72.2639 38.827 71.499 39.2599C70.7583 39.7028 70.7669 40.3964 68.9399 40.9856C67.113 41.5749 67.0565 42.5939 65.373 43.0447" stroke="#85340A" stroke-width="0.109046"/>
<path d="M61.2005 41.511C61.1075 39.855 60.1589 39.119 60.3449 37.5918C59.9357 38.7878 60.9214 39.7262 60.8656 41.4926M62.2979 45.8718L58.6709 38.0334L61.7026 46.111" fill="#85340A"/>
<path d="M62.998 41.55C63.5527 39.9848 62.9611 38.9457 63.7237 37.6052C62.883 38.5553 63.4307 39.7954 62.6958 41.4062M62.325 45.9943L62.0063 37.3795L61.6825 45.9899" fill="#85340A"/>
<path d="M64.6439 42.2662C65.7618 41.0302 65.6172 39.8462 66.8403 38.8964C65.6961 39.4559 65.7224 40.809 64.4203 42.019M62.3028 46.1174L65.341 38.0377L61.711 45.8702" fill="#85340A"/>
<path d="M65.8868 43.5509C67.3978 42.8322 67.7222 41.6836 69.2196 41.2692C67.9461 41.3529 67.4469 42.6129 65.7759 43.2379M62.2341 46.2227L68.1666 39.9082L61.783 45.7703" fill="#85340A"/>
<path d="M62.2424 46.5885L73.7744 41.3445C73.7744 41.3445 73.9976 41.2525 73.9418 41.1053C73.8674 40.9581 73.6442 41.0501 73.6442 41.0501L61.7402 45.4109M66.2414 45.5397C67.9898 45.6133 68.957 44.5461 70.5194 44.6749C72.1004 44.8221 72.9746 43.9757 73.5884 43.7549C74.2022 43.5709 74.5556 43.9757 74.6486 43.8101C74.7416 43.6261 74.258 43.2581 73.3838 43.3685C72.5282 43.4973 72.2678 44.1413 70.352 43.9941C68.4362 43.8469 67.9898 44.7669 66.26 44.5461" fill="#F6B40E"/>
<path d="M62.2424 46.5885L73.7744 41.3445C73.7744 41.3445 73.9976 41.2525 73.9418 41.1053C73.8674 40.9581 73.6442 41.0501 73.6442 41.0501L61.7402 45.4109M66.2414 45.5397C67.9898 45.6133 68.957 44.5461 70.5194 44.6749C72.1004 44.8221 72.9746 43.9757 73.5884 43.7549C74.2022 43.5709 74.5556 43.9757 74.6486 43.8101C74.7416 43.6261 74.258 43.2581 73.3838 43.3685C72.5282 43.4973 72.2678 44.1413 70.352 43.9941C68.4362 43.8469 67.9898 44.7669 66.26 44.5461" stroke="#85340A" stroke-width="0.109046"/>
<path d="M61.9962 46.6361L74.679 46.1569C74.679 46.1569 74.9208 46.1564 74.9262 45.9993C74.9144 45.8351 74.6726 45.8356 74.6726 45.8356L61.9878 45.358M66.0965 47.181C67.6834 47.9109 68.9898 47.2911 70.3834 48.0016C71.7871 48.7361 72.9222 48.285 73.5747 48.3134C74.2129 48.3758 74.3829 48.8836 74.5328 48.7658C74.6899 48.631 74.3855 48.1079 73.5351 47.879C72.6948 47.6741 72.2051 48.1705 70.4921 47.3092C68.7791 46.448 68.0108 47.1289 66.4981 46.2701" fill="#F6B40E"/>
<path d="M61.9962 46.6361L74.679 46.1569C74.679 46.1569 74.9208 46.1564 74.9262 45.9993C74.9144 45.8351 74.6726 45.8356 74.6726 45.8356L61.9878 45.358M66.0965 47.181C67.6834 47.9109 68.9898 47.2911 70.3834 48.0016C71.7871 48.7361 72.9222 48.285 73.5747 48.3134C74.2129 48.3758 74.3829 48.8836 74.5328 48.7658C74.6899 48.631 74.3855 48.1079 73.5351 47.879C72.6948 47.6741 72.2051 48.1705 70.4921 47.3092C68.7791 46.448 68.0108 47.1289 66.4981 46.2701" stroke="#85340A" stroke-width="0.109046"/>
<path d="M61.7496 46.5863L73.6524 50.9449C73.6524 50.9449 73.876 51.036 73.9417 50.8929C73.9943 50.7368 73.7707 50.6457 73.7707 50.6457L62.2363 45.4023M65.327 48.642C66.5107 49.9171 67.9575 49.839 68.9702 51.023C69.9829 52.233 71.2061 52.246 71.7979 52.5192C72.3635 52.8185 72.324 53.3519 72.5081 53.2999C72.7054 53.2348 72.6265 52.6363 71.9294 52.1029C71.2324 51.5955 70.5879 51.8687 69.3385 50.4245C68.089 48.9803 67.1157 49.3186 66.0504 47.9524" fill="#F6B40E"/>
<path d="M61.7496 46.5863L73.6524 50.9449C73.6524 50.9449 73.876 51.036 73.9417 50.8929C73.9943 50.7368 73.7707 50.6457 73.7707 50.6457L62.2363 45.4023M65.327 48.642C66.5107 49.9171 67.9575 49.839 68.9702 51.023C69.9829 52.233 71.2061 52.246 71.7979 52.5192C72.3635 52.8185 72.324 53.3519 72.5081 53.2999C72.7054 53.2348 72.6265 52.6363 71.9294 52.1029C71.2324 51.5955 70.5879 51.8687 69.3385 50.4245C68.089 48.9803 67.1157 49.3186 66.0504 47.9524" stroke="#85340A" stroke-width="0.109046"/>
<path d="M61.5428 46.4465L70.8534 54.9794C70.8534 54.9794 71.0247 55.1482 71.1408 55.0408C71.2498 54.9165 71.0785 54.7477 71.0785 54.7477L62.4504 45.5369M64.0526 49.7001C64.653 51.3262 66.0198 51.8017 66.4974 53.279C66.9649 54.7802 68.09 55.2553 68.5311 55.7318C68.9378 56.2224 68.695 56.7003 68.8852 56.7219C69.0927 56.7365 69.2513 56.1537 68.8136 55.3969C68.3659 54.6643 67.6648 54.6727 67.0691 52.8654C66.4735 51.0582 65.4434 51.0023 64.9877 49.3368" fill="#F6B40E"/>
<path d="M61.5428 46.4465L70.8534 54.9794C70.8534 54.9794 71.0247 55.1482 71.1408 55.0408C71.2498 54.9165 71.0785 54.7477 71.0785 54.7477L62.4504 45.5369M64.0526 49.7001C64.653 51.3262 66.0198 51.8017 66.4974 53.279C66.9649 54.7802 68.09 55.2553 68.5311 55.7318C68.9378 56.2224 68.695 56.7003 68.8852 56.7219C69.0927 56.7365 69.2513 56.1537 68.8136 55.3969C68.3659 54.6643 67.6648 54.6727 67.0691 52.8654C66.4735 51.0582 65.4434 51.0023 64.9877 49.3368" stroke="#85340A" stroke-width="0.109046"/>
<path d="M66.5387 45.2086C68.2127 45.1166 68.9567 44.1782 70.5005 44.3622C69.2915 43.9574 68.3429 44.9326 66.5573 44.8774M62.1305 46.2942L70.0541 42.7062L61.8887 45.7054" fill="#85340A"/>
<path d="M66.4992 46.9868C68.0814 47.5356 69.1317 46.9503 70.4868 47.7047C69.5265 46.873 68.2728 47.4149 66.6445 46.6879M62.0066 46.321L70.715 46.0057L62.011 45.6855" fill="#85340A"/>
<path d="M65.775 48.6155C67.0244 49.7214 68.2213 49.5783 69.1814 50.7883C68.6158 49.6564 67.248 49.6824 66.0249 48.3944M61.8819 46.2996L70.0494 49.3051L62.1318 45.7141" fill="#85340A"/>
<path d="M64.476 49.8452C65.2025 51.3399 66.3636 51.6608 66.7825 53.1422C66.6979 51.8823 65.4242 51.3885 64.7924 49.7355M61.7752 46.2318L68.1583 52.1005L62.2325 45.7855" fill="#85340A"/>
<path d="M62.0003 51.1177C64.8573 51.1177 67.1734 48.8265 67.1734 46.0002C67.1734 43.1739 64.8573 40.8827 62.0003 40.8827C59.1432 40.8827 56.8271 43.1739 56.8271 46.0002C56.8271 48.8265 59.1432 51.1177 62.0003 51.1177Z" fill="#F6B40E" stroke="#85340A" stroke-width="0.144568"/>
<path d="M63.7439 44.9079C63.4146 44.9079 63.0658 45.0612 62.8721 45.3679C63.2596 45.7321 64.1508 45.7512 64.7514 45.3296C64.6245 45.1963 64.4714 45.0901 64.3015 45.0176C64.1315 44.9451 63.9484 44.9078 63.7633 44.9079H63.7439ZM63.7439 44.9846C64.0927 44.9846 64.4221 45.1379 64.4608 45.2912C64.0733 45.7321 63.4339 45.6746 63.0271 45.3679C63.2208 45.0996 63.4921 44.9846 63.7633 44.9846H63.7439Z" fill="#843511"/>
<path d="M63.8215 44.6588C63.2984 44.6588 63.1821 44.7738 62.9496 44.9846C62.7171 45.1763 62.5815 45.138 62.5621 45.1763C62.504 45.2146 62.5621 45.3296 62.6202 45.2913C62.7171 45.253 62.8721 45.1763 63.1046 44.9846C63.3371 44.793 63.589 44.793 63.8215 44.793C64.5384 44.793 64.9259 45.368 65.0034 45.3296C65.1002 45.2913 64.6159 44.6588 63.8215 44.6588Z" fill="#85340A"/>
<path d="M65.2549 44.9074C64.3443 44.1216 63.1818 43.9874 62.5424 44.5816C62.3951 44.7732 62.2956 44.9965 62.2518 45.2332C62.1743 45.6932 62.3099 46.1724 62.6586 46.6707L62.5036 46.7474C62.1936 46.1532 62.0774 45.5399 62.1936 44.9457L62.3099 44.5049C63.1818 43.7957 64.383 43.7382 65.2549 44.8882V44.9074Z" fill="#85340A"/>
<path d="M63.7413 45.6314C63.9328 45.6314 64.088 45.4779 64.088 45.2884C64.088 45.099 63.9328 44.9454 63.7413 44.9454C63.5498 44.9454 63.3945 45.099 63.3945 45.2884C63.3945 45.4779 63.5498 45.6314 63.7413 45.6314Z" fill="#85340A"/>
<path d="M64.7705 45.5208C64.0924 46.0383 63.4143 46 63.0268 45.77C62.6393 45.5208 62.6393 45.4442 62.7168 45.4442C62.7943 45.4442 62.8718 45.5208 63.1818 45.6933C63.5111 45.8467 63.9761 45.8467 64.7705 45.5208V45.5208Z" fill="#85340A"/>
<path d="M61.2251 46.7095C61.1713 46.7221 61.1212 46.7471 61.0791 46.7826C61.037 46.8181 61.0041 46.863 60.9829 46.9136C60.9618 46.9641 60.9532 47.019 60.9577 47.0735C60.9622 47.128 60.9798 47.1807 61.009 47.2272C61.0381 47.2737 61.0781 47.3127 61.1255 47.3409C61.1729 47.3691 61.2264 47.3857 61.2815 47.3895C61.3367 47.3932 61.392 47.3839 61.4428 47.3623C61.4937 47.3407 61.5386 47.3075 61.5739 47.2653C61.7017 47.3438 61.8498 47.3837 62.0001 47.3803H62.0389C62.1551 47.3803 62.3489 47.3612 62.4845 47.2653C62.5426 47.3612 62.6589 47.3995 62.7751 47.3995C62.8676 47.4071 62.9594 47.3781 63.0302 47.3188C63.1011 47.2595 63.1452 47.1748 63.1529 47.0833C63.1606 46.9918 63.1313 46.901 63.0713 46.8309C63.0114 46.7608 62.9257 46.7171 62.8332 46.7095C62.9301 46.7478 62.9882 46.8245 62.9882 46.9395C62.9882 47.0005 62.9637 47.059 62.9201 47.1021C62.8765 47.1453 62.8174 47.1695 62.7557 47.1695C62.6941 47.1695 62.6349 47.1453 62.5913 47.1021C62.5477 47.059 62.5232 47.0005 62.5232 46.9395C62.4773 47.0341 62.4061 47.1145 62.3173 47.1719C62.2285 47.2294 62.1255 47.2617 62.0195 47.2653C61.9168 47.2583 61.8179 47.2244 61.7328 47.1672C61.6477 47.1099 61.5795 47.0314 61.5351 46.9395C61.5351 47.0737 61.4189 47.1695 61.2832 47.1695C61.167 47.1695 61.0507 47.0545 61.0507 46.9395C61.0507 46.8245 61.1089 46.7478 61.2057 46.7095H61.2251ZM61.6126 47.7445C61.2057 47.7445 61.0314 48.1278 60.6826 48.3387C60.8764 48.262 61.0314 48.1087 61.322 47.9553C61.5932 47.802 61.8257 47.9937 62.0001 47.9937C62.1551 47.9937 62.3876 47.802 62.6782 47.9553C62.9495 48.1087 63.1239 48.262 63.3176 48.3387C62.9495 48.1087 62.7945 47.7637 62.3876 47.7637C62.3101 47.7637 62.1551 47.802 62.0001 47.8787L61.6126 47.7445Z" fill="#85340A"/>
<path d="M61.4576 48.2235C61.3026 48.2235 61.1088 48.2618 60.7988 48.3385C61.5157 48.1852 61.6707 48.4343 62.0001 48.4343C62.3101 48.4343 62.4845 48.1852 63.182 48.3385C62.407 48.1085 62.2326 48.2618 62.0001 48.2618C61.8451 48.2618 61.7288 48.2043 61.4576 48.2235Z" fill="#85340A"/>
<path d="M60.8376 48.3384H60.6826C61.5157 48.4343 61.1282 48.9134 62.0001 48.9134C62.872 48.9134 62.4845 48.4343 63.3176 48.3384C62.4457 48.2618 62.717 48.7793 62.0001 48.7793C61.322 48.7793 61.5351 48.3384 60.8376 48.3384Z" fill="#85340A"/>
<path d="M62.717 49.6228C62.717 49.4347 62.6414 49.2543 62.507 49.1213C62.3725 48.9883 62.1902 48.9136 62.0001 48.9136C61.81 48.9136 61.6276 48.9883 61.4932 49.1213C61.3587 49.2543 61.2832 49.4347 61.2832 49.6228C61.3211 49.4628 61.4125 49.3201 61.5426 49.2181C61.6728 49.116 61.834 49.0604 62.0001 49.0604C62.1662 49.0604 62.3274 49.116 62.4575 49.2181C62.5877 49.3201 62.6791 49.4628 62.717 49.6228Z" fill="#85340A"/>
<path d="M58.7842 44.9074C59.6948 44.1216 60.8573 43.9874 61.4967 44.5816C61.6439 44.7732 61.7435 44.9965 61.7873 45.2332C61.8648 45.6932 61.7292 46.1724 61.3804 46.6707L61.5354 46.7474C61.8454 46.1532 61.9617 45.5399 61.8454 44.9457L61.7292 44.5049C60.8573 43.7957 59.6561 43.7382 58.7842 44.8882V44.9074Z" fill="#85340A"/>
<path d="M60.2176 44.6588C60.7407 44.6588 60.857 44.7738 61.0895 44.9846C61.322 45.1763 61.4576 45.138 61.477 45.1763C61.5351 45.2146 61.477 45.3296 61.4188 45.2913C61.322 45.253 61.167 45.1763 60.9345 44.9846C60.702 44.793 60.4501 44.793 60.2176 44.793C59.5007 44.793 59.1132 45.368 59.0357 45.3296C58.9388 45.2913 59.4232 44.6588 60.2176 44.6588Z" fill="#85340A"/>
<path d="M60.1785 44.9079C59.8491 44.9079 59.5004 45.0612 59.3066 45.3679C59.6941 45.7321 60.5854 45.7512 61.186 45.3296C61.0591 45.1963 60.906 45.0901 60.736 45.0176C60.5661 44.9451 60.383 44.9078 60.1979 44.9079H60.1785ZM60.1785 44.9846C60.5273 44.9846 60.8566 45.1379 60.8954 45.2912C60.5079 45.7321 59.8685 45.6746 59.4616 45.3679C59.6554 45.0996 59.9266 44.9846 60.1979 44.9846H60.1785Z" fill="#843511"/>
<path d="M60.2344 45.6314C60.426 45.6314 60.5812 45.4779 60.5812 45.2884C60.5812 45.099 60.426 44.9454 60.2344 44.9454C60.0429 44.9454 59.8877 45.099 59.8877 45.2884C59.8877 45.4779 60.0429 45.6314 60.2344 45.6314Z" fill="#85340A"/>
<path d="M59.2686 45.5208C59.9467 46.0383 60.6248 46 61.0123 45.77C61.3998 45.5208 61.3998 45.4442 61.3223 45.4442C61.2448 45.4442 61.1673 45.5208 60.8573 45.6933C60.5279 45.8467 60.0629 45.8467 59.2686 45.5208V45.5208Z" fill="#85340A"/>
</g>
<defs>
<clipPath id="clip0_156451_3455">
<rect width="124" height="92" fill="white"/>
</clipPath>
</defs>
</svg>
