<svg width="124" height="92" viewBox="0 0 124 92" fill="none" xmlns="http://www.w3.org/2000/svg">
<g clip-path="url(#clip0_156451_3460)">
<path fill-rule="evenodd" clip-rule="evenodd" d="M0 0H124V92H0V0Z" fill="#FFE800"/>
<path fill-rule="evenodd" clip-rule="evenodd" d="M0 46.0001H124V92.0001H0V46.0001Z" fill="#00148E"/>
<path fill-rule="evenodd" clip-rule="evenodd" d="M0 68.9999H124V91.9999H0V68.9999Z" fill="#DA0010"/>
<path fill-rule="evenodd" clip-rule="evenodd" d="M52.2353 55.7362L38.169 70.3987L37.9365 70.092L51.964 55.4295L52.1965 55.7362H52.2353ZM62.0003 58.132L43.6328 77.2987L43.3228 76.992L61.6709 57.8254L62.0003 58.132Z" fill="black"/>
<path fill-rule="evenodd" clip-rule="evenodd" d="M43.6904 77.0746L41.9738 78.7728L40.0171 80.2335L41.4937 78.2978L43.2103 76.5997L43.6904 77.0746Z" fill="#808080" stroke="black" stroke-width="0.0613628"/>
<path fill-rule="evenodd" clip-rule="evenodd" d="M38.9619 69.5805L37.2453 71.2786L35.2886 72.7393L36.7652 70.8037L38.4818 69.1055L38.9619 69.5805Z" fill="#808080" stroke="black" stroke-width="0.0613628"/>
<path fill-rule="evenodd" clip-rule="evenodd" d="M40.2887 22.0015C40.2887 22.0015 38.7454 63.2911 44.9183 63.2911C51.0912 63.2911 54.1863 58.9487 54.1863 58.9487L54.1166 36.2553L40.2887 22.0015V22.0015Z" fill="#FFDF00" stroke="black" stroke-width="0.0905091"/>
<path fill-rule="evenodd" clip-rule="evenodd" d="M44.0627 25.8529C44.0627 28.0241 43.3739 58.9484 46.4603 58.9484C49.5468 58.9484 54.1851 56.7772 54.1851 56.7772L54.1154 36.2551L44.0627 25.8529V25.8529Z" fill="#0000C4" stroke="black" stroke-width="0.0905091"/>
<path fill-rule="evenodd" clip-rule="evenodd" d="M46.0693 27.9386C46.0693 30.1098 46.4617 54.6063 49.5568 54.6063H54.1865L54.1167 36.2554L46.0693 27.9386Z" fill="#E10000" stroke="black" stroke-width="0.0905091"/>
<path fill-rule="evenodd" clip-rule="evenodd" d="M39.9521 22.2328L53.9796 36.8953L54.2315 36.5886L40.204 21.9261L39.9521 22.2328V22.2328Z" fill="black"/>
<path fill-rule="evenodd" clip-rule="evenodd" d="M35.7068 30.4628C35.7068 30.4628 31.7287 70.4621 43.663 70.4621C53.6081 70.4621 53.6081 64.152 55.5972 64.152L53.6081 49.4167L35.6956 30.4628H35.7068Z" fill="#FFDF00" stroke="black" stroke-width="0.101136"/>
<path d="M45.5672 37.1126C45.6524 37.1063 48.671 30.6441 56.2157 26.5537" stroke="black" stroke-width="0.10956"/>
<path fill-rule="evenodd" clip-rule="evenodd" d="M44.3323 31.0211C45.3843 31.5068 46.0501 32.0657 46.6561 32.7173C45.4522 32.4678 44.831 32.367 43.7789 31.8813C42.7269 31.3956 41.9232 30.6527 41.2846 30.0516C42.0677 30.2874 43.2744 30.5327 44.3323 31.0211V31.0211Z" fill="#005B00" stroke="black" stroke-width="0.0495537"/>
<path fill-rule="evenodd" clip-rule="evenodd" d="M46.9664 34.9797C47.0435 35.1093 46.9772 35.2919 46.8142 35.3815C46.6513 35.471 46.4559 35.4365 46.377 35.3037C46.298 35.1709 46.3681 34.9948 46.5311 34.9052C46.694 34.8157 46.8894 34.8502 46.9664 34.9797Z" fill="#FF0000" stroke="black" stroke-width="0.0339879"/>
<path fill-rule="evenodd" clip-rule="evenodd" d="M50.2788 26.885C49.8229 28.0298 49.3199 28.7842 48.7402 29.488C49.0008 28.2144 49.1114 27.5606 49.5673 26.4158C50.0232 25.271 50.6885 24.3521 51.2264 23.6207C50.9943 24.4579 50.7372 25.7339 50.2788 26.885V26.885Z" fill="#005B00" stroke="black" stroke-width="0.0467173"/>
<path fill-rule="evenodd" clip-rule="evenodd" d="M48.7385 26.8252C48.6333 27.97 48.4027 28.8566 48.0997 29.7559C48.0204 28.6433 47.9613 28.0873 48.0665 26.9425C48.1717 25.7976 48.4945 24.6833 48.758 23.7909C48.7617 24.562 48.8443 25.674 48.7385 26.8252V26.8252Z" fill="#005B00" stroke="black" stroke-width="0.0403367"/>
<path fill-rule="evenodd" clip-rule="evenodd" d="M49.7454 28.1346C49.1492 28.8285 48.6478 29.1294 48.1208 29.3249C48.6519 28.3627 48.9121 27.851 49.5082 27.1571C50.1044 26.4633 50.7434 26.1375 51.2565 25.8845C50.8748 26.47 50.3449 27.437 49.7454 28.1346V28.1346Z" fill="#005B00" stroke="black" stroke-width="0.0438128"/>
<path fill-rule="evenodd" clip-rule="evenodd" d="M44.664 29.1041C45.3653 29.9367 45.7141 30.7387 45.9776 31.6249C45.0592 31.007 44.5748 30.7187 43.8735 29.8861C43.1721 29.0535 42.7768 28.0109 42.4668 27.1706C43.0365 27.6528 43.9587 28.2669 44.664 29.1041V29.1041Z" fill="#005B00" stroke="black" stroke-width="0.0501338"/>
<path fill-rule="evenodd" clip-rule="evenodd" d="M43.2529 35.5212C44.1296 36.2151 44.5923 36.9304 44.9612 37.7384C43.8457 37.2807 43.26 37.0753 42.3833 36.3814C41.5066 35.6876 40.973 34.7492 40.553 33.9917C41.2516 34.3701 42.3713 34.8236 43.2529 35.5212V35.5212Z" fill="#005B00" stroke="black" stroke-width="0.0532287"/>
<path fill-rule="evenodd" clip-rule="evenodd" d="M47.3583 35.1412C46.6569 36.2513 45.8982 36.9973 45.0286 37.7011C45.4479 36.4836 45.6293 35.8603 46.3306 34.7502C47.032 33.6401 48.0333 32.7277 48.8424 32.0009C48.4778 32.8055 48.0635 34.0249 47.3583 35.1412V35.1412Z" fill="#005B00" stroke="black" stroke-width="0.0546813"/>
<path fill-rule="evenodd" clip-rule="evenodd" d="M48.0901 35.0969C46.9679 35.8601 45.991 36.2572 44.9502 36.57C45.9096 35.5921 46.375 35.0781 47.4972 34.3149C48.6194 33.5517 49.871 33.0955 50.877 32.7367C50.175 33.3477 49.2185 34.3294 48.0901 35.0969V35.0969Z" fill="#005B00" stroke="black" stroke-width="0.0525492"/>
<path fill-rule="evenodd" clip-rule="evenodd" d="M55.6573 27.1193C55.1664 27.6743 54.7262 28.0032 54.2519 28.29C54.656 27.6276 54.8502 27.2833 55.3411 26.7283C55.8321 26.1732 56.3986 25.7822 56.8543 25.4725C56.5536 25.8968 56.151 26.5611 55.6573 27.1193V27.1193Z" fill="#005B00" stroke="black" stroke-width="0.0278286"/>
<path fill-rule="evenodd" clip-rule="evenodd" d="M54.5935 25.4821C54.313 26.0719 54.0131 26.515 53.6705 26.9581C53.8426 26.3684 53.9177 26.0719 54.1983 25.4821C54.4788 24.8923 54.8741 24.3384 55.1934 23.8953C55.0457 24.2993 54.8756 24.8891 54.5935 25.4821V25.4821Z" fill="#005B00" stroke="black" stroke-width="0.0231174"/>
<path fill-rule="evenodd" clip-rule="evenodd" d="M56.2366 26.5401C55.7457 26.8177 55.3768 26.9028 55.0079 26.9288C55.4988 26.501 55.7457 26.2703 56.2366 25.9927C56.7276 25.7152 57.1887 25.637 57.5576 25.5787C57.2213 25.8306 56.7303 26.2611 56.2366 26.5401V26.5401Z" fill="#005B00" stroke="black" stroke-width="0.0253398"/>
<path fill-rule="evenodd" clip-rule="evenodd" d="M49.4598 29.6494C48.583 30.1698 47.8619 30.4726 47.1109 30.7333C47.9117 30.1056 48.3064 29.7788 49.1831 29.2584C50.0598 28.7381 50.9755 28.3796 51.7102 28.096C51.1407 28.4966 50.3413 29.1262 49.4598 29.6494V29.6494Z" fill="#005B00" stroke="black" stroke-width="0.0318161"/>
<path fill-rule="evenodd" clip-rule="evenodd" d="M52.0202 30.4269C50.8629 31.1208 49.8775 31.4481 48.8367 31.6827C49.8529 30.7528 50.3491 30.2606 51.5064 29.5667C52.6636 28.8729 53.9218 28.508 54.9324 28.2228C54.1975 28.7951 53.1838 29.7293 52.0202 30.4269V30.4269Z" fill="#005B00" stroke="black" stroke-width="0.05296"/>
<path d="M44.1559 41.656C44.2305 41.6138 43.5252 35.5265 48.2328 29.1946" stroke="black" stroke-width="0.107842"/>
<path fill-rule="evenodd" clip-rule="evenodd" d="M51.3658 28.8267C51.4429 28.9562 51.3766 29.1388 51.2137 29.2284C51.0507 29.3179 50.8554 29.2835 50.7764 29.1506C50.6974 29.0178 50.7675 28.8417 50.9305 28.7521C51.0935 28.6626 51.2888 28.6971 51.3658 28.8267Z" fill="#FF0000" stroke="black" stroke-width="0.0339879"/>
<path fill-rule="evenodd" clip-rule="evenodd" d="M53.4576 27.6191C53.5347 27.7486 53.4684 27.9312 53.3055 28.0208C53.1425 28.1103 52.9471 28.0759 52.8682 27.943C52.7892 27.8102 52.8593 27.6341 53.0223 27.5445C53.1853 27.455 53.3806 27.4895 53.4576 27.6191Z" fill="#FF0000" stroke="black" stroke-width="0.0339879"/>
<path fill-rule="evenodd" clip-rule="evenodd" d="M47.6196 31.6777C47.6736 31.7768 47.573 31.9334 47.3919 32.023C47.2108 32.1126 47.0199 32.1032 46.9647 32.0017C46.9094 31.9001 47.0126 31.7484 47.1937 31.6588C47.3748 31.5693 47.5657 31.5786 47.6196 31.6777Z" fill="#FF0000" stroke="black" stroke-width="0.0306445"/>
<path fill-rule="evenodd" clip-rule="evenodd" d="M48.2378 31.4088C48.2917 31.5079 48.1912 31.6645 48.0101 31.7541C47.829 31.8437 47.6381 31.8343 47.5828 31.7327C47.5275 31.6312 47.6308 31.4795 47.8119 31.3899C47.9929 31.3003 48.1839 31.3097 48.2378 31.4088Z" fill="#FF0000" stroke="black" stroke-width="0.0306445"/>
<path fill-rule="evenodd" clip-rule="evenodd" d="M47.8706 31.9848C47.9245 32.0839 47.824 32.2406 47.6429 32.3301C47.4618 32.4197 47.2709 32.4104 47.2156 32.3088C47.1603 32.2072 47.2636 32.0555 47.4447 31.9659C47.6258 31.8764 47.8167 31.8857 47.8706 31.9848Z" fill="#FF0000" stroke="black" stroke-width="0.0306445"/>
<path fill-rule="evenodd" clip-rule="evenodd" d="M48.9589 32.0648C49.036 32.2173 48.9589 32.4078 48.7663 32.5031C48.5736 32.5984 48.381 32.5412 48.3039 32.3697C48.2269 32.1982 48.3039 32.0267 48.4966 31.9314C48.6892 31.8361 48.8819 31.8933 48.9397 32.0648H48.9589Z" fill="#FF0000" stroke="black" stroke-width="0.0379471"/>
<path fill-rule="evenodd" clip-rule="evenodd" d="M49.4075 31.6056C49.4657 31.7589 49.4075 31.9506 49.2138 32.0464C49.02 32.1422 48.8263 32.0847 48.7294 31.9314C48.6325 31.7781 48.7294 31.5672 48.9232 31.4714C49.1169 31.3756 49.3107 31.4522 49.3882 31.6056H49.4075Z" fill="#FF0000" stroke="black" stroke-width="0.0379471"/>
<path fill-rule="evenodd" clip-rule="evenodd" d="M49.5019 31.8152C49.5789 31.9676 49.5019 32.1773 49.3092 32.2535C49.1166 32.3297 48.924 32.2916 48.8469 32.1392C48.7699 31.9867 48.8469 31.7961 49.0396 31.7008C49.2322 31.6056 49.4248 31.6627 49.5019 31.8152Z" fill="#FF0000" stroke="black" stroke-width="0.0379471"/>
<path fill-rule="evenodd" clip-rule="evenodd" d="M39.6862 34.681C39.6862 36.7843 35.7081 59.9449 45.6645 66.255C49.6426 68.3583 55.6097 64.1516 55.6097 66.255L53.6207 49.4163L39.6862 34.681Z" fill="#0000C4" stroke="black" stroke-width="0.101136"/>
<path fill-rule="evenodd" clip-rule="evenodd" d="M43.6632 38.8874C43.6632 40.9908 41.6742 57.8295 47.6525 62.0481C51.6306 66.2548 61.587 65.114 61.587 65.114L53.6197 49.4161L43.6632 38.8874V38.8874Z" fill="#E10000" stroke="black" stroke-width="0.101136"/>
<path fill-rule="evenodd" clip-rule="evenodd" d="M35.6113 30.2827L53.9788 49.4494L54.3082 49.1427L35.9407 29.9952L35.6307 30.3019L35.6113 30.2827Z" fill="black"/>
<path fill-rule="evenodd" clip-rule="evenodd" d="M32.7851 28.0111L33.9511 28.2146L34.2941 28.5539C34.2472 28.5504 34.637 28.8931 34.1569 29.3681C33.6768 29.843 32.9936 29.1618 32.9936 29.1618C32.9936 29.1618 33.1994 30.3153 33.8872 30.9957C34.575 31.6761 35.3961 31.5385 35.3961 31.5385C35.3961 31.5385 34.6145 30.9048 35.1904 30.385C35.767 29.8606 36.0134 30.2493 36.0134 30.2493L36.6993 30.9278L37.1821 30.4502L34.4367 27.7343L34.2309 26.5808L32.4624 26.291L32.7859 28.0065L32.7851 28.0111Z" fill="#CECECC" stroke="black" stroke-width="0.0282212"/>
<path fill-rule="evenodd" clip-rule="evenodd" d="M35.491 19.9563L36.9018 22.1198L38.6878 22.5967L37.5218 23.343L39.6481 23.2752L40.611 23.9556L40.9559 23.4097L39.9902 22.7274L39.2377 20.621L39.03 22.0489L37.9318 20.4834L35.4902 19.9513L35.491 19.9563Z" fill="#CECECC" stroke="black" stroke-width="0.0303866"/>
<path fill-rule="evenodd" clip-rule="evenodd" d="M41.2301 21.2559C41.2301 21.3709 41.0751 21.4687 40.8968 21.4687C40.7186 21.4687 40.5558 21.3709 40.5558 21.2559C40.5558 21.1409 40.7108 21.0374 40.8968 21.0374C41.0828 21.0374 41.2301 21.1352 41.2301 21.2559ZM40.7496 21.7102C40.7496 23.7687 42.3693 32.5087 42.5011 32.7214C42.5088 32.9802 42.1291 33.0894 41.9508 32.7732C41.4393 31.7727 40.3388 23.5732 40.3001 21.6584C40.2768 20.8707 40.5868 20.8074 40.9433 20.8247C41.2301 20.8362 41.5866 21.0374 41.5866 21.2789C41.5866 21.5664 41.1371 21.7792 40.7496 21.7102V21.7102Z" fill="#E10000" stroke="black" stroke-width="0.0584234"/>
<path fill-rule="evenodd" clip-rule="evenodd" d="M41.8511 23.2968C41.793 23.4118 41.5963 23.4713 41.427 23.4272C41.2576 23.3831 41.1524 23.2451 41.2106 23.1301C41.2687 23.0151 41.4683 22.9499 41.645 22.9959C41.8217 23.0419 41.9121 23.1761 41.8511 23.2968ZM41.165 23.6323C41.6998 27.7665 39.9059 34.1509 39.9206 34.402C39.8001 34.6569 39.3812 34.678 39.3746 34.3119C39.2864 34.0743 41.3516 28.307 40.7642 23.4693C41.1402 22.6758 41.4667 22.6893 41.7967 22.7947C42.0633 22.8771 42.3002 23.1665 42.1782 23.408C42.0328 23.6955 41.4983 23.7971 41.165 23.6323V23.6323Z" fill="#0000C4" stroke="black" stroke-width="0.0612274"/>
<path fill-rule="evenodd" clip-rule="evenodd" d="M36.1728 29.0373C36.1728 29.229 35.9791 29.4207 35.7466 29.4207C35.5141 29.4207 35.3203 29.229 35.3203 29.0373C35.3203 28.8457 35.5141 28.6923 35.7466 28.6923C35.9791 28.6923 36.1534 28.8457 36.1534 29.0373H36.1728ZM35.5528 29.804C35.5528 33.2348 37.5872 47.8015 37.7422 48.1657C37.7422 48.5873 37.2966 48.779 37.0641 48.2423C36.4247 46.5748 35.0491 32.909 34.9909 29.7273C34.9716 28.4048 35.3591 28.309 35.8047 28.3282C36.1728 28.3473 36.5991 28.6923 36.5991 29.0948C36.5991 29.5548 36.0372 29.919 35.5528 29.804Z" fill="#E10000" stroke="black" stroke-width="0.0885432"/>
<path fill-rule="evenodd" clip-rule="evenodd" d="M37.2199 30.8072C37.1424 30.9912 36.8905 31.0901 36.6766 31.0239C36.4627 30.9578 36.3333 30.741 36.4108 30.557C36.4883 30.373 36.744 30.2649 36.9672 30.3339C37.1904 30.4029 37.3012 30.614 37.2199 30.8072ZM36.3371 31.3557C36.8874 37.9101 34.4066 48.0922 34.4175 48.4907C34.2563 48.8984 33.7231 48.9415 33.7262 48.3602C33.6215 47.9847 36.4278 38.7767 35.8326 31.1062C36.3356 29.8371 36.7502 29.8509 37.1664 30.0108C37.5027 30.1356 37.7949 30.5898 37.6322 30.9762C37.4384 31.4362 36.7556 31.6099 36.3371 31.3557V31.3557Z" fill="#0000C4" stroke="black" stroke-width="0.0862452"/>
<path fill-rule="evenodd" clip-rule="evenodd" d="M71.764 55.7363L85.8109 70.3988L86.0628 70.0921L72.0159 55.4296L71.764 55.7363ZM61.999 58.1321L80.3665 77.2988L80.6765 76.9921L62.3284 57.8255L61.999 58.1321V58.1321Z" fill="black"/>
<path fill-rule="evenodd" clip-rule="evenodd" d="M80.3105 77.0746L82.0272 78.7728L83.9839 80.2335L82.5073 78.2978L80.7907 76.5997L80.3105 77.0746Z" fill="#808080" stroke="black" stroke-width="0.0613628"/>
<path fill-rule="evenodd" clip-rule="evenodd" d="M85.0371 69.5805L86.7537 71.2786L88.7104 72.7393L87.2338 70.8037L85.5172 69.1055L85.0371 69.5805Z" fill="#808080" stroke="black" stroke-width="0.0613628"/>
<path fill-rule="evenodd" clip-rule="evenodd" d="M83.7104 22.0012C83.7104 22.0012 85.2536 63.2908 79.0807 63.2908C72.9078 63.2908 69.8127 58.9484 69.8127 58.9484L69.8824 36.255L83.7104 22.0012V22.0012Z" fill="#FFDF00" stroke="black" stroke-width="0.0905091"/>
<path fill-rule="evenodd" clip-rule="evenodd" d="M79.9354 25.8531C79.9354 28.0243 80.6242 58.9486 77.5377 58.9486C74.4513 58.9486 69.8129 56.7774 69.8129 56.7774L69.8827 36.2553L79.9354 25.8531V25.8531Z" fill="#0000C4" stroke="black" stroke-width="0.0905091"/>
<path fill-rule="evenodd" clip-rule="evenodd" d="M77.9316 27.9388C77.9316 30.11 77.5393 54.6065 74.4441 54.6065H69.8145L69.8842 36.2556L77.9316 27.9388Z" fill="#E10000" stroke="black" stroke-width="0.0905091"/>
<path fill-rule="evenodd" clip-rule="evenodd" d="M84.0479 22.2329L70.0204 36.8954L69.7686 36.5888L83.7961 21.9263L84.0479 22.2329Z" fill="black"/>
<path fill-rule="evenodd" clip-rule="evenodd" d="M72.9781 33.5555C72.9781 33.5555 76.9104 38.5466 78.8076 42.4038C80.7033 46.2692 82.9167 52.1591 82.9167 52.1591C82.9167 52.1591 81.6519 46.3604 79.2649 41.7115C76.137 35.8632 72.9765 33.8883 72.9781 33.5555Z" fill="#005B00" stroke="black" stroke-width="0.0422313"/>
<path fill-rule="evenodd" clip-rule="evenodd" d="M72.8398 29.5917C72.8398 29.5917 77.228 35.7643 79.231 40.3423C81.2315 44.9289 83.4588 51.8039 83.4588 51.8039C83.4588 51.8039 82.3777 45.1895 79.8415 39.6552C76.4989 32.6718 72.8117 29.9587 72.8398 29.5917Z" fill="#005B00" stroke="black" stroke-width="0.0487976"/>
<path fill-rule="evenodd" clip-rule="evenodd" d="M76.6272 23.4883C76.6272 23.4883 79.7318 32.6289 80.6779 38.2811C81.619 43.9383 82.1936 51.7238 82.1936 51.7238C82.1936 51.7238 82.7915 45.1895 81.5234 38.2531C79.769 29.3724 76.4985 23.7716 76.6272 23.4883Z" fill="#005B00" stroke="black" stroke-width="0.0554268"/>
<path fill-rule="evenodd" clip-rule="evenodd" d="M73.8393 23.0696C73.8393 23.0696 78.1384 31.1873 79.813 36.7036C81.4831 42.2278 83.0536 50.1977 83.0536 50.1977C83.0536 50.1977 82.827 42.9577 80.6637 36.2427C77.7619 27.7122 73.7453 23.4359 73.8393 23.0696Z" fill="#005B00" stroke="black" stroke-width="0.0561654"/>
<path fill-rule="evenodd" clip-rule="evenodd" d="M79.0037 25.6532C79.0037 25.6532 81.143 34.3932 81.6805 39.6075C82.2137 44.8252 82.3664 51.8651 82.3664 51.8651C82.3664 51.8651 83.1096 46.1676 82.3637 39.7477C81.3031 31.5028 78.8886 25.8801 79.0037 25.6532Z" fill="#005B00" stroke="black" stroke-width="0.0498086"/>
<path fill-rule="evenodd" clip-rule="evenodd" d="M73.3508 25.8935C73.3508 25.8935 77.5099 32.8472 79.193 37.7078C80.8722 42.5762 82.5257 49.6908 82.5257 49.6908C82.5257 49.6908 82.1238 43.0975 79.9606 37.1942C77.0716 29.7115 73.2745 26.2385 73.3508 25.8935Z" fill="#005B00" stroke="black" stroke-width="0.051227"/>
<path fill-rule="evenodd" clip-rule="evenodd" d="M72.5693 30.737C72.5693 30.737 76.9575 36.2495 78.9605 40.4713C80.961 44.7018 83.1883 51.1253 83.1883 51.1253C83.1883 51.1253 82.1072 44.8321 79.571 39.7405C76.2284 33.331 72.5412 31.0956 72.5693 30.737Z" fill="#005B00" stroke="black" stroke-width="0.0482584"/>
<path fill-rule="evenodd" clip-rule="evenodd" d="M73.1386 28.2045C73.1386 28.2045 77.1754 34.6895 78.9327 39.3806C80.6871 44.0799 82.5549 51.0508 82.5549 51.0508C82.5549 51.0508 81.807 44.4448 79.5692 38.7628C76.6048 31.5797 73.0931 28.5627 73.1386 28.2045Z" fill="#005B00" stroke="black" stroke-width="0.0481549"/>
<path fill-rule="evenodd" clip-rule="evenodd" d="M77.5099 23.6269C77.5099 23.6269 80.1052 32.576 80.7484 38.0418C81.3864 43.5119 81.5531 50.9896 81.5531 50.9896C81.5531 50.9896 82.48 44.7892 81.5848 38.0742C80.3096 29.4678 77.3683 23.8885 77.5099 23.6269Z" fill="#005B00" stroke="black" stroke-width="0.0538782"/>
<path fill-rule="evenodd" clip-rule="evenodd" d="M73.9495 21.3962C73.9495 21.3962 77.7393 29.8262 79.111 35.4557C80.4781 41.0926 81.6406 49.1583 81.6406 49.1583C81.6406 49.1583 81.7429 41.9267 79.9527 35.0641C77.53 26.3339 73.8426 21.7536 73.9495 21.3962Z" fill="#005B00" stroke="black" stroke-width="0.0553912"/>
<path fill-rule="evenodd" clip-rule="evenodd" d="M79.984 26.2934C79.984 26.2934 81.6141 34.6857 81.8487 39.657C82.0789 44.6313 81.8235 51.3155 81.8235 51.3155C81.8235 51.3155 82.8957 45.9476 82.5227 39.8229C81.9413 31.9521 79.856 26.5031 79.984 26.2934Z" fill="#005B00" stroke="black" stroke-width="0.0478924"/>
<path fill-rule="evenodd" clip-rule="evenodd" d="M73.4652 24.8715C73.4652 24.8715 77.2549 32.1376 78.6267 37.1113C79.9938 42.0923 81.1563 49.3028 81.1563 49.3028C81.1563 49.3028 81.2586 42.7179 79.4683 36.667C77.0457 28.9846 73.3582 25.2077 73.4652 24.8715Z" fill="#005B00" stroke="black" stroke-width="0.0523459"/>
<path fill-rule="evenodd" clip-rule="evenodd" d="M88.2912 30.463C88.2912 30.463 92.2693 70.4623 80.3351 70.4623C70.3899 70.4623 70.3899 64.1522 68.4009 64.1522L70.3899 49.4169L88.3025 30.463H88.2912Z" fill="#FFDF00" stroke="black" stroke-width="0.101136"/>
<path fill-rule="evenodd" clip-rule="evenodd" d="M84.3148 34.6812C84.3148 36.7845 88.2929 59.9451 78.3365 66.2552C74.3584 68.3585 68.3913 64.1518 68.3913 66.2552L70.3803 49.4165L84.3148 34.6812Z" fill="#0000C4" stroke="black" stroke-width="0.101136"/>
<path fill-rule="evenodd" clip-rule="evenodd" d="M80.3368 38.8876C80.3368 40.991 82.3258 57.8297 76.3475 62.0483C72.3694 66.255 62.413 65.1142 62.413 65.1142L70.3803 49.4163L80.3368 38.8876V38.8876Z" fill="#E10000" stroke="black" stroke-width="0.101136"/>
<path fill-rule="evenodd" clip-rule="evenodd" d="M88.3873 30.2829L70.0198 49.4496L69.6904 49.1429L88.0579 29.9954L88.3873 30.3021V30.2829Z" fill="black"/>
<path fill-rule="evenodd" clip-rule="evenodd" d="M91.2139 28.0112L90.0479 28.2148L89.705 28.554C89.7518 28.5506 89.362 28.8933 89.8421 29.3682C90.3222 29.8432 91.0054 29.162 91.0054 29.162C91.0054 29.162 90.7996 30.3155 90.1118 30.9959C89.424 31.6763 88.6029 31.5387 88.6029 31.5387C88.6029 31.5387 89.3845 30.905 88.8087 30.3852C88.2321 29.8608 87.9856 30.2495 87.9856 30.2495L87.2997 30.928L86.8169 30.4504L89.5624 27.7345L89.7681 26.581L91.5367 26.2912L91.2131 28.0066L91.2139 28.0112Z" fill="#CECECC" stroke="black" stroke-width="0.0282212"/>
<path fill-rule="evenodd" clip-rule="evenodd" d="M88.509 19.956L87.0982 22.1195L85.3122 22.5964L86.4782 23.3427L84.3519 23.2749L83.389 23.9553L83.0441 23.4094L84.0098 22.7271L84.7623 20.6207L84.97 22.0486L86.0682 20.483L88.5098 19.951L88.509 19.956Z" fill="#CECECC" stroke="black" stroke-width="0.0303866"/>
<path fill-rule="evenodd" clip-rule="evenodd" d="M82.7885 21.2556C82.7885 21.3706 82.9435 21.4683 83.1217 21.4683C83.3 21.4683 83.4627 21.3706 83.4627 21.2556C83.4627 21.1406 83.3077 21.0371 83.1217 21.0371C82.9357 21.0371 82.7885 21.1348 82.7885 21.2556ZM83.269 21.7098C83.269 23.7683 81.6492 32.5083 81.5175 32.7211C81.5097 32.9798 81.8895 33.0891 82.0677 32.7728C82.5792 31.7723 83.6797 23.5728 83.7185 21.6581C83.7417 20.8703 83.4317 20.8071 83.0752 20.8243C82.7885 20.8358 82.432 21.0371 82.432 21.2786C82.432 21.5661 82.8815 21.7788 83.269 21.7098V21.7098Z" fill="#E10000" stroke="black" stroke-width="0.0584234"/>
<path fill-rule="evenodd" clip-rule="evenodd" d="M82.1499 23.2965C82.208 23.4115 82.4047 23.4709 82.574 23.4269C82.7433 23.3828 82.8485 23.2448 82.7904 23.1298C82.7323 23.0148 82.5327 22.9496 82.356 22.9956C82.1793 23.0416 82.0888 23.1758 82.1499 23.2965ZM82.8359 23.6319C82.3012 27.7662 84.0951 34.1506 84.0804 34.4017C84.2009 34.6566 84.6198 34.6777 84.6264 34.3116C84.7145 34.0739 82.6494 28.3067 83.2368 23.469C82.8607 22.6755 82.5343 22.6889 82.2043 22.7944C81.9377 22.8768 81.7008 23.1662 81.8228 23.4077C81.9681 23.6952 82.5027 23.7968 82.8359 23.6319V23.6319Z" fill="#0000C4" stroke="black" stroke-width="0.0612274"/>
<path fill-rule="evenodd" clip-rule="evenodd" d="M87.8456 29.037C87.8456 29.2287 88.0393 29.4204 88.2525 29.4204C88.485 29.4204 88.6787 29.2287 88.6787 29.037C88.6787 28.8454 88.485 28.692 88.2525 28.692C88.02 28.692 87.8456 28.8454 87.8456 29.037ZM88.4268 29.8037C87.9629 35.9515 87.239 42.0775 86.2568 48.1654C86.2568 48.587 86.7025 48.7787 86.935 48.242C87.5743 46.5745 88.95 32.9087 89.0081 29.727C89.0275 28.4045 88.64 28.3087 88.1943 28.3279C87.8262 28.347 87.4 28.692 87.4 29.0945C87.4 29.5545 87.9618 29.9187 88.4462 29.8037H88.4268Z" fill="#E10000" stroke="black" stroke-width="0.0885432"/>
<path fill-rule="evenodd" clip-rule="evenodd" d="M86.7811 30.8074C86.8586 30.9914 87.1105 31.0903 87.3244 31.0241C87.5383 30.958 87.6677 30.7412 87.5902 30.5572C87.5127 30.3732 87.257 30.2651 87.0338 30.3341C86.8106 30.4031 86.6997 30.6142 86.7811 30.8074ZM87.6638 31.3559C87.1136 37.9103 89.5944 48.0924 89.5835 48.4909C89.7447 48.8986 90.2779 48.9417 90.2748 48.3604C90.3794 47.9849 87.5732 38.7769 88.1684 31.1064C87.6654 29.8373 87.2508 29.8511 86.8346 30.011C86.4982 30.1358 86.2061 30.59 86.3688 30.9764C86.5626 31.4364 87.2453 31.6101 87.6638 31.3559V31.3559Z" fill="#0000C4" stroke="black" stroke-width="0.0862452"/>
<path fill-rule="evenodd" clip-rule="evenodd" d="M55.6196 80.9903C56.5275 81.5418 57.5562 81.832 58.6032 81.832C59.6502 81.832 60.6789 81.5418 61.5868 80.9903V64.1516H57.6087C59.5977 70.4616 59.5977 76.7836 55.6084 80.9903H55.6196Z" fill="#E10000" stroke="black" stroke-width="0.101136"/>
<path fill-rule="evenodd" clip-rule="evenodd" d="M58.7687 64.5235C58.7687 76.3973 55.8867 79.0403 55.8867 81.4285C57.087 81.4285 57.8872 80.3149 58.7687 78.7854C59.969 76.3973 60.0843 64.3357 59.969 64.5235H58.7687Z" fill="#0000C4" stroke="black" stroke-width="0.0834794"/>
<path fill-rule="evenodd" clip-rule="evenodd" d="M56.3692 64.5239C56.3081 71.4603 53.3312 77.8869 53.894 79.3091C54.5315 80.5836 56.3692 76.3976 58.7697 78.7724C59.97 76.3976 60.0853 64.3361 59.97 64.5105H56.3692V64.5239Z" fill="#0000C4" stroke="black" stroke-width="0.0834794"/>
<path fill-rule="evenodd" clip-rule="evenodd" d="M56.6379 63.5123C56.6379 71.315 53.8779 71.8352 53.8779 73.9159C55.0782 73.9159 56.6311 72.7786 56.6379 72.8844C57.8382 71.315 57.9535 63.3888 57.8382 63.5123H56.6379Z" fill="#FFDF00" stroke="black" stroke-width="0.067672"/>
<path fill-rule="evenodd" clip-rule="evenodd" d="M54.2374 63.5124C54.1764 68.0706 51.2672 71.95 51.83 72.8845C52.4743 73.7133 54.2374 71.3152 56.638 72.8845C57.8382 71.3152 57.9535 63.389 57.8382 63.5124H54.2374Z" fill="#FFDF00" stroke="black" stroke-width="0.067672"/>
<path fill-rule="evenodd" clip-rule="evenodd" d="M68.3774 80.9903C67.4696 81.5418 66.4409 81.832 65.3939 81.832C64.3469 81.832 63.3182 81.5418 62.4103 80.9903V64.1516H66.3884C64.3994 70.4616 64.3994 76.7836 68.3887 80.9903H68.3774Z" fill="#E10000" stroke="black" stroke-width="0.101136"/>
<path fill-rule="evenodd" clip-rule="evenodd" d="M65.2283 64.5235C65.2283 76.3973 68.1104 79.0403 68.1104 81.4285C66.9101 81.4285 66.1099 80.3149 65.2283 78.7854C64.028 76.3973 63.9128 64.3357 64.028 64.5235H65.2283Z" fill="#0000C4" stroke="black" stroke-width="0.0834794"/>
<path fill-rule="evenodd" clip-rule="evenodd" d="M67.6298 64.5239C67.6909 71.4603 70.6678 77.8869 70.105 79.3091C69.4676 80.5836 67.6298 76.3976 65.2293 78.7724C64.029 76.3976 63.9137 64.3361 64.029 64.5105H67.6298V64.5239Z" fill="#0000C4" stroke="black" stroke-width="0.0834794"/>
<path fill-rule="evenodd" clip-rule="evenodd" d="M67.3592 63.5123C67.3592 71.315 70.1191 71.8352 70.1191 73.9159C68.9189 73.9159 67.366 72.7786 67.3592 72.8844C66.1589 71.315 66.0436 63.3888 66.1589 63.5123H67.3592Z" fill="#FFDF00" stroke="black" stroke-width="0.067672"/>
<path fill-rule="evenodd" clip-rule="evenodd" d="M69.7597 63.5123C69.8207 68.0705 72.7299 71.9498 72.167 72.8844C71.5228 73.7131 69.7597 71.315 67.3591 72.8844C66.1588 71.315 66.0436 63.3888 66.1588 63.5123H69.7597Z" fill="#FFDF00" stroke="black" stroke-width="0.067672"/>
<path fill-rule="evenodd" clip-rule="evenodd" d="M46.816 65.4649L44.7305 66.9576L46.816 68.4503L47.8576 67.7039L48.3784 68.4503L48.8992 69.943L49.4223 68.4503L49.9431 67.7039H77.8873V66.2112H49.9408L49.42 65.4606C49.42 64.7143 49.5293 63.9679 49.9431 63.9679H52.0263C52.0263 63.2216 50.9847 61.7289 48.8992 61.7289C46.816 61.7289 45.7721 63.2216 45.7721 63.9679H47.8576C48.2691 63.9679 48.3784 64.7143 48.3784 65.4649L47.8576 66.2112L46.8137 65.4606L46.816 65.4649Z" fill="#908F8A" stroke="black" stroke-width="0.0924851"/>
<path fill-rule="evenodd" clip-rule="evenodd" d="M52.9326 69.0835H71.1986V69.9994H52.938L52.9326 69.0835ZM52.9326 68.1623H71.1986V69.0835H52.938L52.9326 68.1623ZM52.9326 67.2463H71.1986V68.1675H52.938L52.9326 67.2463ZM52.9326 66.3304H71.1986V67.2463H52.938L52.9326 66.3304ZM52.9326 65.4144H71.1986V66.3304H52.938L52.9326 65.4144ZM52.9326 64.4932H71.1986V65.4144H52.938L52.9326 64.4932ZM52.9326 63.5824H71.1986V64.4932H52.938L52.9326 63.5824Z" fill="#B74D00" stroke="black" stroke-width="0.0626023"/>
<path fill-rule="evenodd" clip-rule="evenodd" d="M53.8037 63.5285L60.4784 69.9454H61.4326L54.7628 63.5336H53.8086L53.8037 63.5285Z" fill="#908F8A" stroke="black" stroke-width="0.108448"/>
<path fill-rule="evenodd" clip-rule="evenodd" d="M53.8037 70.1394L60.4784 63.7224H61.4326L54.7628 70.1342H53.8086L53.8037 70.1394Z" fill="#908F8A" stroke="black" stroke-width="0.108448"/>
<path fill-rule="evenodd" clip-rule="evenodd" d="M53.9902 63.5285V69.9454H54.9505V63.5285H53.9902V63.5285Z" fill="#908F8A" stroke="black" stroke-width="0.107815"/>
<path fill-rule="evenodd" clip-rule="evenodd" d="M62.3867 63.5285L69.0614 69.9454H70.0156L63.3458 63.5336H62.3916L62.3867 63.5285Z" fill="#908F8A" stroke="black" stroke-width="0.108448"/>
<path fill-rule="evenodd" clip-rule="evenodd" d="M62.3867 70.1394L69.0614 63.7224H70.0156L63.3458 70.1342H62.3916L62.3867 70.1394Z" fill="#908F8A" stroke="black" stroke-width="0.108448"/>
<path fill-rule="evenodd" clip-rule="evenodd" d="M69.2559 63.5285V69.9454H70.2161V63.5285H69.2559V63.5285Z" fill="#908F8A" stroke="black" stroke-width="0.107815"/>
<path fill-rule="evenodd" clip-rule="evenodd" d="M62.5918 63.5285V69.9454H63.552V63.5285H62.5918V63.5285Z" fill="#908F8A" stroke="black" stroke-width="0.107815"/>
<path fill-rule="evenodd" clip-rule="evenodd" d="M60.6543 63.5285V69.9454H61.6145V63.5285H60.6543V63.5285Z" fill="#908F8A" stroke="black" stroke-width="0.107815"/>
<path fill-rule="evenodd" clip-rule="evenodd" d="M75.5213 45.2097C75.5213 55.6671 69.2733 64.1518 61.5868 64.1518C53.9004 64.1518 47.6523 55.6671 47.6523 45.2097C47.6523 34.7524 53.8892 26.2558 61.5868 26.2558C69.2845 26.2558 75.5213 34.7405 75.5213 45.1978V45.2097ZM73.5323 45.2097C73.5323 54.5025 68.1833 62.0484 61.5868 62.0484C54.9904 62.0484 49.6414 54.5025 49.6414 45.2097C49.6414 35.9051 54.9904 28.3592 61.5868 28.3592C68.1833 28.3592 73.5323 35.9051 73.5323 45.2097V45.2097Z" fill="#FFDF00" stroke="black" stroke-width="0.101136"/>
<path fill-rule="evenodd" clip-rule="evenodd" d="M67.0146 27.753C65.3402 26.7904 63.5085 26.2557 61.5869 26.2557C59.6653 26.2557 57.8336 26.7904 56.1592 27.7411L56.9458 29.69C58.359 28.8286 59.9614 28.3752 61.5925 28.3752C63.2236 28.3752 64.8261 28.8286 66.2392 29.69L67.0146 27.7411V27.753Z" fill="#FFDF00" stroke="black" stroke-width="0.101136"/>
<path fill-rule="evenodd" clip-rule="evenodd" d="M67.0537 62.1572C65.3793 63.1198 63.5476 63.6545 61.626 63.6545C59.7043 63.6545 57.8726 63.1198 56.1982 62.1691L56.9849 60.2202C58.398 61.0816 60.0005 61.535 61.6316 61.535C63.2627 61.535 64.8651 61.0816 66.2783 60.2202L67.0537 62.1691V62.1572Z" fill="#FFDF00" stroke="black" stroke-width="0.101136"/>
<path fill-rule="evenodd" clip-rule="evenodd" d="M73.5466 45.2137C73.5466 54.5096 68.1797 62.0421 61.5922 62.0421C55.0047 62.0421 49.6572 54.5096 49.6572 45.2137C49.6572 35.9179 55.0047 28.3471 61.5922 28.3471C68.1797 28.3471 73.5466 35.8987 73.5466 45.2137V45.2137Z" fill="#A7CFFF"/>
<path fill-rule="evenodd" clip-rule="evenodd" d="M73.5313 45.2095C73.6549 48.3705 73.0144 49.9153 72.194 53.207C71.9805 53.5635 70.9579 52.4346 70.3511 51.8761C69.7442 51.3176 69.4745 52.3752 68.7104 51.5196C67.9575 50.6402 67.4743 51.7572 66.9124 51.0205C66.3505 50.2837 61.1476 50.1886 61.1476 50.1173C61.6645 49.8559 64.3165 50.1411 63.8895 48.7983C63.4063 47.3961 60.4059 48.7508 60.0013 46.9683C59.7204 45.1858 53.978 45.1145 53.5622 44.6867C53.7308 45.3521 58.0348 45.6373 57.9336 47.3604C57.8325 48.0734 53.6971 48.2754 53.2925 48.8696C52.9554 49.6182 56.5514 48.6676 56.675 49.5826C56.675 49.9629 56.1469 49.5826 54.2814 50.1768C53.3375 50.4738 56.012 51.4007 55.0006 51.9117C53.9893 52.4227 51.8204 52.6485 51.9103 52.8624C52.2475 53.9319 56.9335 55.1915 56.4728 55.3698C54.8096 56.1541 53.9331 56.6651 53.1352 57.1166C50.7974 53.6443 49.5726 49.4714 49.6404 45.2095C53.2026 43.8548 52.4497 43.5696 59.0349 43.5696C65.6201 43.5696 67.8002 43.8429 73.5313 45.2095V45.2095Z" fill="#AFFF7B" stroke="black" stroke-width="0.101136"/>
<path fill-rule="evenodd" clip-rule="evenodd" d="M73.5335 45.2092C72.6345 45.2092 71.6906 45.6132 70.7241 45.6132C69.7465 45.6132 68.7576 45.1973 67.7462 45.1973C66.7348 45.1973 65.5774 45.7439 64.5435 45.7439C63.4984 45.7439 62.5882 45.2092 61.5431 45.2092C60.498 45.2092 59.4529 45.6132 58.4191 45.6132C57.3852 45.6132 56.3626 45.1973 55.3625 45.1973C54.3623 45.1973 53.3734 45.6132 52.4182 45.6132C51.4631 45.6132 50.5303 45.1973 49.6426 45.1973C49.6426 42.8801 49.9797 40.6698 50.5865 38.6496C53.6207 38.8873 51.8227 36.7839 53.6207 36.7839C54.1455 36.7539 54.6705 36.8421 55.1606 37.0429C55.6508 37.2437 56.095 37.5524 56.4637 37.9485C56.7334 37.9485 58.0819 36.5938 59.599 36.7839C61.1048 36.974 60.5542 40.0281 62.5657 40.1825C63.5771 40.9906 64.1727 41.5016 65.5661 41.8343C67.5552 42.0245 73.2526 41.5372 73.2863 41.8106C73.4503 42.9351 73.533 44.0713 73.5335 45.2092V45.2092Z" fill="white" stroke="black" stroke-width="0.101136"/>
<path fill-rule="evenodd" clip-rule="evenodd" d="M63.3916 55.0117C63.3916 54.4873 63.9147 54.1377 63.9147 53.3005C63.9147 52.4633 63.4497 52.4449 63.4342 51.6629C63.4264 51.3409 63.8333 51.0189 64.0116 50.9821C64.1898 50.9453 64.3409 51.6629 64.3409 51.8193C64.3409 51.9757 64.1588 51.4329 64.0077 51.4237C63.8566 51.4145 63.5311 51.4789 63.5311 51.6353C63.5311 51.9481 64.1046 52.3345 64.0619 53.3833C64.0193 54.4137 63.5698 54.7265 63.5698 55.0393C63.5698 55.3521 63.7636 56.2169 63.7636 56.2169C63.7636 56.2169 63.3877 55.5269 63.3877 55.0025L63.3916 55.0117Z" fill="black" stroke="black" stroke-width="0.0522555"/>
<path fill-rule="evenodd" clip-rule="evenodd" d="M65.0645 54.935C65.0645 54.4106 64.5414 54.061 64.5414 53.2238C64.5414 52.3866 65.0064 52.3682 65.0219 51.5862C65.0606 51.2182 64.5646 50.979 64.3864 50.9514C64.2081 50.9238 63.9989 51.6874 63.9989 51.8346C63.9989 51.9818 64.2081 51.3562 64.3592 51.347C64.5104 51.3378 64.925 51.4022 64.925 51.5586C64.925 51.8714 64.3515 52.2578 64.3941 53.3066C64.4367 54.337 64.8862 54.6498 64.8862 54.9626C64.8862 55.2754 64.6925 56.1402 64.6925 56.1402C64.6925 56.1402 65.0684 55.4502 65.0684 54.9258L65.0645 54.935Z" fill="black" stroke="black" stroke-width="0.0522555"/>
<path fill-rule="evenodd" clip-rule="evenodd" d="M64.5189 50.7723C64.5189 51.0215 64.3833 51.2323 64.2283 51.2323C64.0733 51.2323 63.957 51.0215 63.957 50.7532C63.957 50.4848 64.0733 50.2932 64.2283 50.2932C64.3833 50.2932 64.5189 50.504 64.5189 50.7723ZM67.8127 52.4973H67.8902V56.2348H67.7933L67.8127 52.4973ZM68.607 52.1907H68.7039V55.9665H68.607V52.1907Z" fill="black"/>
<path fill-rule="evenodd" clip-rule="evenodd" d="M68.3154 53.8967V53.8008L69.0904 53.935V54.0308L68.3154 53.8967Z" fill="black"/>
<path fill-rule="evenodd" clip-rule="evenodd" d="M57.2417 54.9811C57.2417 54.9811 60.1635 56.3358 60.804 57.1439C61.4333 57.952 61.1861 57.952 61.1861 57.952L67.6701 58.2253C67.6701 57.8212 68.8163 57.8212 69.0748 56.8706C69.3332 55.9318 69.3333 55.6585 69.3333 55.6585L67.2993 56.3358L67.4116 55.1237H65.6361L65.3777 56.3358L61.5569 56.2051L61.8154 52.961L61.0512 53.0917L60.9388 56.1813C60.804 56.1813 57.3653 55.2426 57.2305 54.9811H57.2417Z" fill="#B74D00" stroke="black" stroke-width="0.101136"/>
<path fill-rule="evenodd" clip-rule="evenodd" d="M51.3623 35.6317C51.3623 35.6317 55.5988 34.3007 61.712 34.3958C67.8252 34.4909 72.0618 35.9169 71.9719 35.9169C71.882 35.9169 70.8032 33.7303 70.8032 33.7303C70.8032 33.7303 66.488 32.4826 61.6221 32.3875C56.7675 32.2924 52.531 33.3382 52.6321 33.4332L51.3623 35.6317V35.6317Z" fill="#FEDE00" stroke="#FEDE00" stroke-width="0.101136"/>
<path fill-rule="evenodd" clip-rule="evenodd" d="M59.2865 32.5447L61.9215 32.5063L61.9603 34.0205L59.3253 34.078L59.2865 32.5447ZM53.2415 33.3688L52.3115 34.883L55.4503 34.4997L55.1984 33.0238L53.2415 33.4072V33.3688ZM55.8959 32.7938L58.5309 32.583L58.6472 34.078L56.0315 34.308L55.8959 32.7938ZM65.3703 32.6597L62.7546 32.468L62.6578 34.0013L65.2734 34.1547L65.3703 32.6597ZM71.0278 33.618L71.9771 35.458L69.1484 34.768L69.4584 33.2922L71.0084 33.5988L71.0278 33.618ZM68.7415 33.043L66.1453 32.7172L65.9515 34.2122L68.5671 34.5572L68.7415 33.043Z" fill="#38A9F9"/>
<path fill-rule="evenodd" clip-rule="evenodd" d="M61.7108 36.4873L61.4299 34.883L60.5759 36.2496L60.8905 34.6454L59.6207 35.5604L60.4747 34.2176L58.9689 34.5503L60.2612 33.6472L58.7441 33.3501L60.2612 33.0411L58.9689 32.138L60.4747 32.4707L59.6094 31.1279L60.8905 32.0429L60.5759 30.4387L61.4299 31.8053L61.7108 30.201L62.003 31.8053L62.8458 30.4387L62.5424 32.0429L63.8123 31.1279L62.947 32.4707L64.464 32.138L63.1717 33.0411L64.6888 33.3501L63.1717 33.6472L64.464 34.5503L62.947 34.2176L63.8123 35.5604L62.5424 34.6454L62.8571 36.2496L62.003 34.883L61.7108 36.4873Z" fill="#FFDF00" stroke="black" stroke-width="0.101136"/>
<path fill-rule="evenodd" clip-rule="evenodd" d="M63.9555 32.3437C63.9555 33.2349 63.2266 33.9537 62.321 33.9537C61.4154 33.9537 60.6865 33.2349 60.6865 32.3437C60.6865 31.4524 61.4154 30.7241 62.321 30.7241C63.2266 30.7241 63.9555 31.4524 63.9555 32.3532V32.3437Z" fill="#FFDF00" stroke="black" stroke-width="0.0900365"/>
<path fill-rule="evenodd" clip-rule="evenodd" d="M62.1348 32.6979C62.1348 32.7937 61.8829 32.8895 61.5923 32.8895C61.3017 32.8895 61.0498 32.7937 61.0498 32.6979C61.0498 32.602 61.2823 32.5062 61.5923 32.5062C61.9023 32.5062 62.1348 32.5829 62.1348 32.6979ZM63.2973 32.6979C63.2973 32.7937 63.1229 32.8895 62.9098 32.8895C62.6967 32.8895 62.4836 32.7937 62.4836 32.6979C62.4836 32.5829 62.6773 32.5062 62.8904 32.5062C63.1036 32.5062 63.2973 32.5829 63.2973 32.6979V32.6979Z" fill="black"/>
<path d="M62.078 33.3588L62.1912 33.4232C61.9191 33.2588 62.0431 33.3197 62.4702 33.736C62.7141 33.5957 62.7604 33.4681 62.9119 33.2944" stroke="black" stroke-width="0.102147"/>
<path d="M60.9971 34.2054L61.087 34.3005C60.8735 34.0628 60.9747 34.1817 61.4466 34.4906C61.8961 34.5501 62.3569 34.348 62.6266 34.0153" stroke="black" stroke-width="0.101136"/>
<path fill-rule="evenodd" clip-rule="evenodd" d="M54.5218 37.3361C54.5218 37.3361 54.7155 38.8694 53.5336 40.7861C52.3711 42.6836 52.5455 42.0127 52.5455 42.0127C52.5455 42.0127 53.088 43.0669 52.9911 43.0669C52.8943 43.0669 52.0805 42.1086 52.0805 42.1086L51.1118 43.1627C51.1118 43.1627 52.003 41.5336 51.9061 41.5336C51.8093 41.5336 51.6349 40.9586 51.6349 40.9586L52.3518 40.6711C52.3518 40.6711 53.4368 38.6777 53.4368 38.7736C53.4368 38.8694 50.2011 40.9586 50.2011 40.9586L54.5218 37.3552V37.3361ZM55.2386 37.9111C55.1418 37.9111 55.6843 39.4444 56.1493 40.2111C56.5949 40.9777 56.5949 41.9169 56.5949 41.9169L58.1255 42.6836L56.1493 39.7319L57.4086 40.1919L55.2386 37.9111ZM55.2386 41.9169C55.2386 41.9169 56.3236 43.0669 56.4011 43.4502C56.4786 43.8336 56.498 44.6769 56.498 44.6769L56.0524 43.7186L55.413 44.5811C55.413 44.5811 55.878 43.2394 55.7811 43.1436C55.6843 43.0477 55.0643 43.6227 55.0643 43.6227C55.0643 43.6227 55.3355 42.8561 55.3355 42.7794C55.3355 42.7027 55.3355 42.2044 55.2386 41.9169V41.9169ZM49.833 44.5811C50.2011 44.2936 50.918 44.1019 50.918 44.1019C50.918 44.1019 50.4724 44.8686 50.3755 44.8686C50.2786 44.8686 50.0268 44.8686 49.833 44.5811ZM62.2524 40.4027C62.2524 40.4027 64.5968 41.8211 64.5968 41.9169C64.5968 42.0127 63.0661 41.2461 63.0661 41.2461L62.2524 40.4027V40.4027ZM58.0286 37.4319C58.2224 37.5277 61.458 40.1919 61.3611 40.1919C61.2643 40.1919 59.9274 39.4252 59.9274 39.5402V40.1919L59.1911 38.6777L59.0168 39.2527L58.048 37.4319H58.0286ZM58.8424 41.7252L59.7336 43.5269L60.6443 43.3352C60.6443 43.3352 58.9393 41.7252 58.8424 41.7252ZM61.6324 40.5752L61.7293 42.3002C61.7293 42.3002 62.2524 42.7794 62.2524 42.6836C62.2524 42.5877 61.7293 40.6711 61.6324 40.5752Z" fill="#B7E1FF"/>
<path fill-rule="evenodd" clip-rule="evenodd" d="M35.3799 17.1541C35.3799 17.1541 39.4486 14.9308 44.0793 13.2824C47.4862 12.0441 51.0016 11.1202 54.5805 10.5224C55.9368 10.5224 58.3005 13.9341 58.688 13.9341C59.0755 13.9341 60.6449 12.9758 62.6211 12.9758C64.5974 12.9758 65.7405 14.5091 66.1474 14.5091H69.6736C70.0611 14.5091 68.4918 10.7141 69.6736 10.9058C70.2549 11.0016 75.2536 11.7683 79.9036 13.2441C84.5536 14.7391 91.1411 17.3841 91.1411 17.3841C91.1411 17.3841 80.388 18.7833 77.5011 18.3808C77.1136 18.5724 77.5011 20.8724 76.9199 19.8566C76.0286 19.6649 72.7155 19.1474 72.1343 19.1474C71.553 19.1474 70.4486 19.7991 68.8793 20.1824C67.3293 20.5658 65.353 21.1408 65.353 21.1408L67.9105 25.1083L64.7718 26.6416C64.7718 26.6416 62.8149 22.0799 62.0205 22.0799C61.2261 22.0799 60.858 25.2999 59.8699 25.1083C58.9011 24.9166 58.5136 22.0799 57.7193 21.3133C56.9443 20.5658 52.798 20.2783 51.2286 19.9141C49.6786 19.5308 47.1405 19.2433 45.7649 18.8599C44.4086 18.4766 43.0136 19.8183 42.4324 19.8183C41.8511 19.8183 43.2074 18.6683 42.6261 18.4766C42.0449 18.2849 41.6574 19.0516 41.2699 19.0516C40.8824 19.0516 36.7555 18.2849 36.368 18.0933C35.9805 17.9016 37.3368 17.1541 36.9493 17.1541H35.3799Z" fill="#984000"/>
<path fill-rule="evenodd" clip-rule="evenodd" d="M64.6079 15.2562C64.6079 16.3127 63.7299 17.1698 62.6514 17.1698C61.573 17.1698 60.6992 16.3127 60.6992 15.2562C60.6992 14.1998 61.573 13.3476 62.6514 13.3476C63.7299 13.3476 64.6079 14.2048 64.6079 15.2562Z" fill="#808080" stroke="#772600" stroke-width="0.111933"/>
<path fill-rule="evenodd" clip-rule="evenodd" d="M54.6885 15.6207C55.039 15.2159 55.4732 14.6026 56.6083 14.6026C56.8699 14.4983 56.8699 13.885 57.4767 13.885C58.0888 13.885 57.9109 14.4983 58.3504 14.7068C58.7845 14.9092 62.3575 14.4983 62.3575 14.4983C62.3575 14.4983 62.7028 14.805 62.7028 15.2159C62.7028 15.6268 62.4412 15.9274 62.3575 15.9274C62.2738 15.9274 58.7845 15.6207 58.523 15.725C58.2614 15.8292 58.0888 15.9274 57.4767 15.9274C56.8699 15.9274 56.692 15.2159 56.2579 15.2159C55.8237 15.2159 55.3895 15.1116 54.6885 15.6268V15.6207Z" fill="#984000" stroke="#772600" stroke-width="0.197056"/>
<path d="M65.3204 15.4071H66.7119C67.2141 15.4132 67.3867 15.5911 67.8471 15.6095H69.066C69.5106 15.5911 69.746 15.4684 70.1959 15.4071C70.9544 15.3948 70.6981 15.3273 70.5464 14.7937C70.4104 14.3951 70.3895 14.2049 70.1959 13.978C70.1227 13.4873 69.9553 13.3156 69.9343 12.7513C69.8559 12.322 69.7094 12.0337 69.8506 11.5247C70.0494 11.8743 70.1279 12.0153 70.6353 12.0399C71.1585 12.0399 71.3625 12.0215 71.6816 12.2423C71.9222 12.5428 72.2466 12.4447 72.7278 12.4447C73.1254 12.5305 73.1934 12.7697 73.5073 12.9537C73.8787 13.1991 74.1193 13.2604 74.6372 13.2604C75.0557 13.3524 75.4219 13.4199 75.6835 13.5671C75.9084 13.8799 76.2589 13.9596 76.7297 13.978C76.9913 13.978 77.2005 13.9473 77.4255 13.8737C77.8283 13.8983 78.2363 13.8737 78.7333 13.8737C79.0576 14.3153 79.1309 14.4809 79.6906 14.4871C80.0777 14.806 80.4021 14.8551 80.7369 14.9961H82.0447C82.5155 15.0391 82.662 15.266 83.0909 15.4071C83.4589 15.6021 83.8362 15.7721 84.2209 15.9161C84.5953 15.9956 84.9756 16.0306 85.3561 16.0204C85.6752 16.2167 86.0675 16.2289 86.3134 16.4252C86.6743 16.5172 87.1661 16.6276 87.4433 16.7319C87.9037 16.8055 88.0816 16.9772 88.4896 17.0385C88.8401 17.1612 88.3745 17.2593 88.1391 17.3452C87.6264 17.3268 87.5898 17.0999 87.0928 17.0385C86.8313 16.8607 86.4337 16.8852 86.0466 16.7319H85.9629C86.3082 16.9772 86.643 17.1305 86.486 17.5537C86.0414 17.5537 85.6804 17.4863 85.2671 17.4495C84.8277 17.3513 84.6289 17.2471 84.1372 17.2471C84.6289 17.106 84.7545 17.2593 85.0945 17.4495C85.2201 17.9401 84.948 17.7561 84.4825 17.7561C84.0849 17.5905 83.8442 17.3881 83.3525 17.3452H82.3062C82.8241 17.3697 82.934 17.5967 83.2636 17.8604C83.2897 18.0199 83.2583 18.0076 83.002 18.0628C82.73 17.7868 82.3795 17.6948 81.9558 17.5537C81.5425 17.5353 81.1083 17.4924 80.7369 17.3452C80.4805 17.3268 80.5224 16.9711 81.0874 17.5537C81.4274 17.7868 81.5477 17.9831 81.5216 18.1671C81.0717 18.0321 80.852 17.8236 80.5642 17.6519C80.1729 17.4928 79.759 17.424 79.3454 17.4495C78.8955 17.3084 79.3924 17.2287 79.6906 17.7561C80.3393 18.2959 79.6069 18.0628 79.3454 17.9585C78.953 17.8297 78.545 17.6396 78.2102 17.5537C77.9486 17.4617 77.7184 17.3759 77.4255 17.3452C77.8806 17.3943 78.0323 17.5844 78.2102 17.9585C78.6705 18.3265 78.1893 18.1487 77.776 18.0628C77.5144 17.7929 77.1744 17.6519 76.9913 17.3452C76.5571 17.0937 76.5414 16.7932 76.8187 17.4495C76.8867 17.658 76.871 18.1119 76.9024 18.1671C76.5833 17.7561 76.6513 17.6519 76.2955 17.6519C76.0497 17.4556 75.694 17.3023 75.5109 17.0385C75.1761 17.0017 75.1551 16.8607 74.8151 16.7319C75.0924 17.1183 75.4638 17.4985 75.6835 17.8604C76.0811 18.118 76.1909 18.3511 76.4682 18.5719C76.578 18.7988 76.8867 18.9828 76.5571 18.6761C76.1805 18.2468 75.9032 18.1425 75.3382 17.8604C75.0139 17.5537 74.8988 17.4311 74.5535 17.1428C74.0827 16.9649 74.2658 16.8668 74.5535 17.4495C74.8831 17.8052 75.1342 18.1977 75.4219 18.4737C75.6476 18.7897 75.912 19.0647 76.2066 19.2895C76.2851 19.4244 76.5205 19.4489 76.2066 19.4919C75.9451 19.2097 75.5579 19.0319 75.2493 18.7743C74.8151 18.6332 74.6111 18.3695 74.292 18.0628C74.0827 17.7009 73.7479 17.4249 73.5073 17.1428C73.0051 16.9097 73.6067 17.3636 73.7689 17.6519C73.8787 18.026 74.02 18.3265 74.1141 18.6761C74.2606 19.0135 73.6747 18.5964 73.5073 18.4737C73.1631 18.2123 72.7767 18.0369 72.3721 17.9585C72.0254 17.8772 71.6765 17.8097 71.3259 17.7561C70.9335 17.6335 71.5403 18.0505 71.7653 18.4737C72.2047 18.9583 71.3311 18.5596 71.0695 18.4737C70.6377 18.3877 70.1995 18.3528 69.7617 18.3695C69.202 18.4063 69.6048 18.4921 69.7617 18.7743C69.9343 18.9337 70.0547 19.2649 70.0233 19.3876C69.6571 19.3263 69.3432 19.2036 68.8881 19.1852C68.5219 19.3263 68.0877 19.2895 67.6692 19.2895C67.6535 19.5471 67.7477 19.3263 67.9308 19.5961C68.2342 19.7372 68.433 19.9089 68.3702 20.1052H65.8435C65.5663 20.1911 65.9011 20.1481 66.1051 20.5161C65.99 20.8473 65.8435 20.7185 65.493 20.7185C65.2576 20.6081 64.7816 20.5591 64.5357 20.4119C64.2898 20.4119 64.3107 20.3383 64.1015 20.3076C64.8339 20.9209 64.4677 20.7676 64.8862 21.2276C64.9542 21.2583 65.1216 21.3319 64.9699 21.3319M59.2207 24.6009C59.1684 24.6009 59.0533 24.2697 58.8755 23.9876C58.7499 23.6196 58.593 23.8281 58.4361 23.27C58.457 22.6935 58.4727 22.5953 58.4361 22.0433C58.0803 21.7489 57.9286 21.6631 57.6514 21.1233C57.2119 20.694 57.7194 19.958 57.8031 19.4183C57.416 19.3201 57.2276 20.1236 56.6365 20.4119C56.2075 20.7492 56.5842 19.7127 56.3749 19.1116C56.2337 18.2591 55.81 19.5409 55.653 19.9028C55.3653 20.1297 55.2764 20.4241 54.8683 20.0009C54.8683 19.6881 55.1247 18.8049 55.0148 18.6332C54.6068 18.8724 54.0732 19.5839 53.6495 19.6943C53.2205 19.59 53.7384 18.7865 53.7384 18.1916C53.5815 18.1303 52.9694 19.774 52.7183 19.7863C52.4672 19.7985 52.5771 18.1916 52.4567 18.2284C52.2736 18.5351 51.9022 19.1729 51.6459 19.3937C51.1489 19.314 51.7191 18.3204 51.7924 17.9524C51.8761 17.5108 51.3268 18.7988 51.0338 18.8785C50.8194 19.0993 50.3956 19.2465 50.2491 19.2895C50.4165 18.9092 51.2431 18.1425 51.1908 17.9217C50.7043 17.9401 49.9667 18.6884 49.5534 18.7804C49.2814 18.7804 48.9047 18.8847 48.8576 18.8785C48.8786 18.3879 49.8725 17.9831 50.0294 17.6825C49.5429 17.7745 48.6065 18.2775 48.3345 18.6761C48.0102 18.7559 47.6021 18.8601 47.2883 18.6761C47.3353 18.2161 48.0677 17.3268 48.2299 17.0324C47.7852 17.2593 47.5655 17.4372 47.0947 17.5415C47.0058 17.6457 46.7547 17.8665 46.8331 17.6457C46.9744 17.2164 47.1836 17.0324 47.3563 16.7257C46.9639 16.8116 46.8174 17.0753 46.3989 17.3391C46.1322 17.3513 45.3684 18.2529 45.1121 18.2652C44.6782 18.6662 44.1718 18.9452 43.6316 19.0809C43.234 19.1668 43.0405 19.2649 42.8469 19.4919C43.0457 19.0809 43.3491 18.6945 43.6316 18.4737C43.804 18.1014 44.0814 17.8109 44.4163 17.6519C44.5157 17.5108 44.7877 17.474 44.5 17.4495C44.2541 17.7071 43.8356 18.0015 43.6316 18.1671C43.3648 18.3633 43.0562 18.5596 42.9306 18.4737C43.0719 18.0321 43.323 17.9217 43.5427 17.5537C44.003 17.2103 43.5427 17.4311 43.1922 17.5537C42.9672 17.7868 42.5644 17.9647 42.2349 18.1671C41.8687 18.2775 41.6228 18.5351 41.1886 18.6761C41.1886 18.8233 41.3142 18.4124 41.3665 18.2652C41.7222 17.8113 41.8164 17.6825 42.2349 17.5537C42.3395 17.3759 42.465 17.4495 42.1512 17.4495C41.9105 17.6948 41.5862 17.8297 41.2776 18.0628C40.9689 18.1425 40.5661 18.1671 40.1476 18.1671C39.6036 18.2407 39.6506 18.2897 40.1476 17.9585C40.4249 17.6519 40.655 17.7316 40.6707 17.3452C40.3412 17.6273 39.9384 17.8359 39.5355 18.0628C39.2007 18.0751 39.1118 18.1671 38.7509 18.1671C38.9235 17.9585 39.0281 17.6948 39.274 17.5537C39.6402 17.0815 39.0438 17.4617 38.9235 17.5537H37.6157C37.3855 17.8972 37.6052 17.5537 37.7935 17.3452C38.0185 17.2103 38.2539 17.0324 38.2277 16.9404C37.9662 17.2041 37.668 17.3268 37.443 17.5537C37.2024 17.6396 36.9199 17.6764 36.9199 17.7561C37.1135 17.4311 37.4221 17.2287 37.6209 16.9404C37.9139 16.8668 38.165 16.7564 38.2277 16.6337H37.0089H37.8772C38.3219 16.6337 38.6985 16.5847 39.1014 16.5295C39.7919 16.3945 39.0386 16.3271 38.6619 16.3271C38.5939 16.1676 38.8816 16.0817 39.1851 16.0204C39.4466 15.8732 39.7762 15.7444 40.0587 15.6095C40.308 15.5204 40.5431 15.3837 40.7544 15.2047C40.4929 15.2169 40.4929 15.2905 40.2313 15.3028C40.6236 15.2721 40.9009 15.2047 41.3665 15.2047C41.7499 15.0565 42.127 14.8866 42.4964 14.6956C42.6534 14.4748 42.7161 14.4871 42.3238 14.4871C42.6743 14.3583 43.1713 14.2908 43.4538 14.1804C43.8143 14.0919 44.1653 13.9561 44.5 13.7756C44.7563 13.5732 44.9028 13.334 45.1958 13.1623C45.5358 13.4321 45.541 13.4689 46.1531 13.4689C46.6448 13.4628 46.9482 13.3217 47.1993 13.058C47.576 12.9353 47.644 12.7268 48.0729 12.6532C48.476 12.7275 48.8839 12.7603 49.2918 12.7513C49.7103 12.6225 50.1131 12.3833 50.4218 12.138C50.6886 11.9847 51.0077 11.7639 51.2954 11.6289C51.6093 11.8191 51.8604 11.9724 52.2527 12.0399C52.6555 11.9663 52.87 11.7332 53.21 11.6289C53.4198 11.3672 53.6942 11.1892 53.9947 11.1199C54.5022 10.8255 54.4655 11.2119 54.6905 11.5247C54.952 11.8436 55.2868 11.6903 55.6478 11.8313C55.8518 12.1993 55.9983 12.4447 56.2599 12.6471C56.4639 12.9415 56.7045 13.0151 57.1335 13.058C57.2904 13.3033 57.1649 13.4751 57.4787 13.5671C57.6043 13.7265 57.8188 13.7879 58.0019 13.8737" stroke="#772600" stroke-width="0.130131"/>
<path d="M64.3168 21.9944V22.0435C64.3168 21.9024 64.3168 21.9821 64.4058 22.252C64.4372 22.4728 64.3639 22.4483 64.275 22.6077C64.2593 22.8347 64.2331 23.0003 64.2331 23.2701C64.2018 23.4909 64.0971 23.6995 64.0134 23.8835C63.9297 24.0736 63.5688 24.184 63.5792 24.4477C63.37 24.5152 63.3648 24.3557 63.3595 24.0859C63.234 23.9203 63.1921 23.6933 63.098 23.4725C63.0456 23.264 62.9201 23.1045 62.8364 22.8592C62.7108 22.6323 62.601 22.5648 62.4911 22.3011C62.4441 22.1784 62.4545 22.0189 62.3604 21.9453C62.2191 21.7307 62.1249 21.7 61.8791 21.6877C61.6908 21.7368 61.6175 21.8349 61.4449 21.8901C61.3089 21.9453 61.0473 21.9269 60.8799 21.9944C60.8381 22.0741 60.9636 22.1171 61.0107 22.3011C60.8956 22.4115 60.8538 22.6016 60.791 22.7611C60.6864 22.9144 60.6183 22.988 60.5713 23.2211C60.6445 23.3621 60.5817 23.5523 60.4876 23.6811C60.4562 23.9141 60.3568 24.0429 60.3097 24.2392C60.1737 24.3557 60.1214 24.46 60.0063 24.6501C59.9069 24.8157 59.818 24.8035 59.5721 24.8035C59.3785 24.7421 59.3524 24.6195 59.1798 24.5459C59.1641 24.4845 59.1484 24.4661 59.0908 24.4477" stroke="#782600" stroke-width="0.115259"/>
<path fill-rule="evenodd" clip-rule="evenodd" d="M59.5972 24.0536C59.5972 24.0536 59.5197 25.0119 58.8997 25.6444C58.2797 26.2769 57.001 27.0052 57.001 27.0052C57.001 27.0052 58.7253 26.2002 58.8997 26.3727C59.0935 26.5644 57.7953 27.9636 57.7953 27.9636C57.7953 27.9636 59.481 26.4877 59.6941 26.4877C59.9072 26.4877 60.3916 27.9252 60.5854 27.8869C60.7597 27.8486 60.1979 26.0661 60.2754 25.7786C60.3529 25.5102 60.2754 23.9961 60.2754 23.9961L59.6166 24.0536H59.5972ZM63.5691 23.9386C63.5691 23.9386 63.4916 24.9544 62.8716 25.6252C62.2516 26.2961 60.9729 27.0819 60.9729 27.0819C60.9729 27.0819 62.6972 26.2194 62.8716 26.4111C63.0653 26.6027 61.7672 28.0977 61.7672 28.0977C61.7672 28.0977 63.4528 26.5261 63.666 26.5261C63.8791 26.5261 64.3635 28.0594 64.5572 28.0211C64.7316 27.9827 64.1697 26.0661 64.2472 25.7786C64.3247 25.4719 64.2472 23.8619 64.2472 23.8619L63.5691 23.9386V23.9386ZM58.0085 14.7386C58.0085 14.9111 57.8147 15.0644 57.6016 15.0644C57.3885 15.0644 57.1754 14.9111 57.1754 14.7194C57.1754 14.5277 57.3691 14.3744 57.6016 14.3744C57.8341 14.3744 58.0085 14.5277 58.0085 14.7194V14.7386Z" fill="#812E00"/>
</g>
<defs>
<clipPath id="clip0_156451_3460">
<rect width="124" height="92" fill="white"/>
</clipPath>
</defs>
</svg>
