<svg width="124" height="92" viewBox="0 0 124 92" fill="none" xmlns="http://www.w3.org/2000/svg">
<g clip-path="url(#clip0_156451_4848)">
<path fill-rule="evenodd" clip-rule="evenodd" d="M-19.375 0.000732422H143.375V92.0007H-19.375V0.000732422Z" fill="white"/>
<path fill-rule="evenodd" clip-rule="evenodd" d="M-19.375 61.777H143.375V92.0005H-19.375V61.777Z" fill="#DA0000"/>
<path fill-rule="evenodd" clip-rule="evenodd" d="M11.5771 63.0714H20.4775V63.6643H11.5771V63.0714ZM12.9031 66.0901H13.5207V66.6831H12.9031V66.0901ZM20.5139 66.0901V66.6831H18.7338V66.0722L20.5139 66.0901ZM21.4584 63.0714H22.076V66.6651H21.4584V63.0714Z" fill="white"/>
<path fill-rule="evenodd" clip-rule="evenodd" d="M25.0187 66.0718V66.6827H21.6402V66.0718H25.0187ZM18.734 64.6522H19.3152V66.6827H18.7158L18.734 64.6522Z" fill="white"/>
<path fill-rule="evenodd" clip-rule="evenodd" d="M24.51 63.0714H25.1275V66.6651H24.51V63.0714ZM22.9842 63.0714H23.5836V66.6651H22.9842V63.0714ZM14.8467 64.5089V65.1198H11.5771V64.5089H14.8467ZM21.9852 64.5089V65.1198H18.7156V64.5089H21.9852Z" fill="white"/>
<path fill-rule="evenodd" clip-rule="evenodd" d="M18.734 64.6706H19.3152V66.6651H18.7158L18.734 64.6706Z" fill="white"/>
<path fill-rule="evenodd" clip-rule="evenodd" d="M18.734 64.6706H19.3152V66.6651H18.7158L18.734 64.6706Z" fill="white"/>
<path fill-rule="evenodd" clip-rule="evenodd" d="M18.7342 64.6706H19.3154V66.6651H18.716L18.7342 64.6706ZM11.5957 64.6706H12.1951V66.6651H11.5957V64.6706ZM16.827 64.6706H17.4445V66.6651H16.827V64.6706ZM14.2295 64.6706H14.8471V66.6651H14.2295V64.6706Z" fill="white"/>
<path fill-rule="evenodd" clip-rule="evenodd" d="M17.2437 66.0726V66.6835H14.501V66.0726H17.2437ZM17.4254 64.5093V65.1203H15.6816V64.5093H17.4254Z" fill="white"/>
<path fill-rule="evenodd" clip-rule="evenodd" d="M-3.06348 63.0714H5.83691V63.6643H-3.06348V63.0714ZM-1.7375 66.0901H-1.11992V66.6831H-1.75566L-1.7375 66.0901ZM5.87324 66.0901V66.6831H4.09316V66.0722L5.87324 66.0901ZM6.81777 63.0714H7.43535V66.6651H6.81777V63.0714Z" fill="white"/>
<path fill-rule="evenodd" clip-rule="evenodd" d="M10.3785 66.0718V66.6827H7V66.0718H10.3785ZM4.09375 64.6522H4.69316V66.6827H4.09375V64.6522Z" fill="white"/>
<path fill-rule="evenodd" clip-rule="evenodd" d="M9.86934 63.0714H10.4869V66.6651H9.86934V63.0714ZM8.34355 63.0714H8.94297V66.6651H8.34355V63.0714ZM0.206055 64.5089V65.1198H-3.06348V64.5089H0.206055ZM7.34453 64.5089V65.1198H4.075V64.5089H7.34453Z" fill="white"/>
<path fill-rule="evenodd" clip-rule="evenodd" d="M4.09375 64.6706H4.69316V66.6651H4.09375V64.6706Z" fill="white"/>
<path fill-rule="evenodd" clip-rule="evenodd" d="M4.09375 64.6706H4.69316V66.6651H4.09375V64.6706Z" fill="white"/>
<path fill-rule="evenodd" clip-rule="evenodd" d="M4.09356 64.6706H4.69297V66.6651H4.09356V64.6706ZM-3.04492 64.6706H-2.44551V66.6651H-3.04492V64.6706ZM2.18633 64.6706H2.78574V66.6651H2.18633V64.6706ZM-0.411133 64.6706H0.206446V66.6651H-0.411133V64.6706Z" fill="white"/>
<path fill-rule="evenodd" clip-rule="evenodd" d="M2.60352 66.0726V66.6835H-0.121094V66.0726H2.60352ZM2.78516 64.5093V65.1203H1.04141V64.5093H2.78516Z" fill="white"/>
<path fill-rule="evenodd" clip-rule="evenodd" d="M26.0898 63.0714H34.9902V63.6643H26.0898V63.0714ZM27.4158 66.0901H28.0334V66.6831H27.4158V66.0901ZM35.0266 66.0901V66.6831H33.2465V66.0722L35.0266 66.0901ZM35.9893 63.0714H36.6068V66.6651H35.9893V63.0714Z" fill="white"/>
<path fill-rule="evenodd" clip-rule="evenodd" d="M39.5318 66.0718V66.6827H36.1533V66.0718H39.5318ZM33.2471 64.6522H33.8646V66.6827H33.2471V64.6522Z" fill="white"/>
<path fill-rule="evenodd" clip-rule="evenodd" d="M39.0227 63.0714H39.6402V66.6651H39.0227V63.0714ZM37.4969 63.0714H38.1145V66.6651H37.4787L37.4969 63.0714ZM29.3594 64.5089V65.1198H26.0898V64.5089H29.3594ZM36.4979 64.5089V65.1198H33.2283V64.5089H36.4979Z" fill="white"/>
<path fill-rule="evenodd" clip-rule="evenodd" d="M33.2471 64.6706H33.8646V66.6651H33.2471V64.6706Z" fill="white"/>
<path fill-rule="evenodd" clip-rule="evenodd" d="M33.2471 64.6706H33.8646V66.6651H33.2471V64.6706Z" fill="white"/>
<path fill-rule="evenodd" clip-rule="evenodd" d="M33.2469 64.6706H33.8645V66.6651H33.2469V64.6706ZM26.1084 64.6706H26.726V66.6651H26.1084V64.6706ZM31.3396 64.6706H31.9572V66.6651H31.3396V64.6706ZM28.7422 64.6706H29.3598V66.6651H28.7422V64.6706Z" fill="white"/>
<path fill-rule="evenodd" clip-rule="evenodd" d="M31.7756 66.0726V66.6835H29.0146V66.0726H31.7756ZM31.9572 64.5093V65.1203H30.2135V64.5093H31.9572Z" fill="white"/>
<path fill-rule="evenodd" clip-rule="evenodd" d="M40.6943 63.0714H49.6129V63.6643H40.7125L40.6943 63.0714ZM42.0385 66.0901H42.6379V66.6831H42.0385V66.0901ZM49.6311 66.0901V66.6831H47.851V66.0722L49.6311 66.0901ZM50.5938 63.0714H51.2113V66.6651H50.5938V63.0714Z" fill="white"/>
<path fill-rule="evenodd" clip-rule="evenodd" d="M54.1535 66.0718V66.6827H50.775V66.0718H54.1535ZM47.8506 64.6522H48.4682V66.6827H47.8506V64.6522Z" fill="white"/>
<path fill-rule="evenodd" clip-rule="evenodd" d="M53.6438 63.0714H54.2613V66.6652H53.6438V63.0714ZM52.0998 63.0714H52.7174V66.6652H52.0998V63.0714ZM43.9623 64.5089V65.1199H40.7109V64.5089H43.9623ZM51.1008 64.5089V65.1199H47.8494V64.5089H51.1008Z" fill="white"/>
<path fill-rule="evenodd" clip-rule="evenodd" d="M47.8506 64.6706H48.4682V66.6651H47.8506V64.6706Z" fill="white"/>
<path fill-rule="evenodd" clip-rule="evenodd" d="M47.8506 64.6706H48.4682V66.6651H47.8506V64.6706Z" fill="white"/>
<path fill-rule="evenodd" clip-rule="evenodd" d="M47.8504 64.6706H48.468V66.6651H47.8504V64.6706ZM40.7119 64.6706H41.3295V66.6651H40.7119V64.6706ZM45.9432 64.6706H46.5607V66.6651H45.9432V64.6706ZM43.3639 64.6706H43.9633V66.6651H43.3639V64.6706Z" fill="white"/>
<path fill-rule="evenodd" clip-rule="evenodd" d="M46.3795 66.0726V66.6835H43.6367V66.0726H46.3795ZM46.5611 64.5093V65.1203H44.8174V64.5093H46.5611Z" fill="white"/>
<path fill-rule="evenodd" clip-rule="evenodd" d="M55.3701 63.0714H64.2705V63.6643H55.3701V63.0714ZM56.6961 66.0901H57.3137V66.6831H56.6961V66.0901ZM64.3068 66.0901V66.6831H62.5268V66.0722L64.3068 66.0901ZM65.2695 63.0714H65.8689V66.6651H65.2695V63.0714Z" fill="white"/>
<path fill-rule="evenodd" clip-rule="evenodd" d="M68.8121 66.0718V66.6827H65.4336V66.0718H68.8121ZM62.5273 64.6522H63.1449V66.6827H62.5273V64.6522Z" fill="white"/>
<path fill-rule="evenodd" clip-rule="evenodd" d="M68.3029 63.0714H68.9205V66.6651H68.3029V63.0714ZM66.7771 63.0714H67.3947V66.6651H66.7771V63.0714ZM58.6396 64.5089V65.1198H55.3701V64.5089H58.6396ZM65.7781 64.5089V65.1198H62.5086V64.5089H65.7781Z" fill="white"/>
<path fill-rule="evenodd" clip-rule="evenodd" d="M62.5273 64.6706H63.1449V66.6651H62.5273V64.6706Z" fill="white"/>
<path fill-rule="evenodd" clip-rule="evenodd" d="M62.5273 64.6706H63.1449V66.6651H62.5273V64.6706Z" fill="white"/>
<path fill-rule="evenodd" clip-rule="evenodd" d="M62.5271 64.6706H63.1447V66.6651H62.5271V64.6706ZM55.3887 64.6706H55.9881V66.6651H55.3887V64.6706ZM60.6199 64.6706H61.2375V66.6651H60.6199V64.6706ZM58.0225 64.6706H58.64V66.6651H58.0043L58.0225 64.6706Z" fill="white"/>
<path fill-rule="evenodd" clip-rule="evenodd" d="M61.0559 66.0726V66.6835H58.2949V66.0726H61.0559ZM61.2375 64.5093V65.1203H59.4574V64.5093H61.2375Z" fill="white"/>
<path fill-rule="evenodd" clip-rule="evenodd" d="M-19.375 0.000732422H143.375V30.2242H-19.375V0.000732422Z" fill="#239F40"/>
<path fill-rule="evenodd" clip-rule="evenodd" d="M70.1201 63.0714H79.0205V63.6643H70.1201V63.0714ZM71.4461 66.0901H72.0637V66.6831H71.4461V66.0901ZM79.0568 66.0901V66.6831H77.2586V66.0722L79.0568 66.0901ZM80.0195 63.0714H80.6189V66.6651H80.0195V63.0714Z" fill="white"/>
<path fill-rule="evenodd" clip-rule="evenodd" d="M83.5617 66.0718V66.6827H80.1832V66.0718H83.5617ZM77.277 64.6522H77.8945V66.6827H77.2588L77.277 64.6522Z" fill="white"/>
<path fill-rule="evenodd" clip-rule="evenodd" d="M83.0711 63.0714H83.6705V66.6651H83.0711V63.0714ZM81.5271 63.0714H82.1447V66.6651H81.5271V63.0714ZM73.3896 64.5089V65.1198H70.1201V64.5089H73.3896ZM80.5281 64.5089V65.1198H77.2586V64.5089H80.5281Z" fill="white"/>
<path fill-rule="evenodd" clip-rule="evenodd" d="M77.2588 64.6706H77.8945V66.6651H77.2588V64.6706Z" fill="white"/>
<path fill-rule="evenodd" clip-rule="evenodd" d="M77.2588 64.6706H77.8945V66.6651H77.2588V64.6706Z" fill="white"/>
<path fill-rule="evenodd" clip-rule="evenodd" d="M77.258 64.6706H77.8938V66.6651H77.258V64.6706ZM70.1377 64.6706H70.7553V66.6651H70.1377V64.6706ZM75.3689 64.6706H75.9865V66.6651H75.3689V64.6706ZM72.7715 64.6706H73.3891V66.6651H72.7715V64.6706Z" fill="white"/>
<path fill-rule="evenodd" clip-rule="evenodd" d="M75.8049 66.0726V66.6835H73.0439V66.0726H75.8049ZM75.9865 64.5093V65.1203H74.2428V64.5093H75.9865Z" fill="white"/>
<path fill-rule="evenodd" clip-rule="evenodd" d="M84.7773 63.0714H93.6777V63.6643H84.7773V63.0714ZM86.1033 66.0901H86.7209V66.6831H86.1033V66.0901ZM93.7322 66.0901V66.6831H91.934V66.0722L93.7322 66.0901ZM94.6768 63.0714H95.2943V66.6651H94.6768V63.0714Z" fill="white"/>
<path fill-rule="evenodd" clip-rule="evenodd" d="M98.2184 66.0718V66.6827H94.8398V66.0718H98.2184ZM91.9336 64.6522H92.5512V66.6827H91.9336V64.6522Z" fill="white"/>
<path fill-rule="evenodd" clip-rule="evenodd" d="M97.7268 63.0714H98.3262V66.6652H97.7268V63.0714ZM96.1828 63.0714H96.8004V66.6652H96.1828V63.0714ZM88.0453 64.5089V65.1199H84.7939V64.5089H88.0453ZM95.1838 64.5089V65.1199H91.9324V64.5089H95.1838Z" fill="white"/>
<path fill-rule="evenodd" clip-rule="evenodd" d="M91.9336 64.6706H92.5512V66.6651H91.9336V64.6706Z" fill="white"/>
<path fill-rule="evenodd" clip-rule="evenodd" d="M91.9336 64.6706H92.5512V66.6651H91.9336V64.6706Z" fill="white"/>
<path fill-rule="evenodd" clip-rule="evenodd" d="M91.9344 64.6706H92.552V66.6651H91.9344V64.6706ZM84.7959 64.6706H85.4135V66.6651H84.7959V64.6706ZM90.0271 64.6706H90.6447V66.6651H90.0271V64.6706ZM87.4297 64.6706H88.0473V66.6651H87.4479L87.4297 64.6706Z" fill="white"/>
<path fill-rule="evenodd" clip-rule="evenodd" d="M90.4625 66.0726V66.6835H87.7197V66.0726H90.4625ZM90.6441 64.5093V65.1203H88.8822V64.5093H90.6441Z" fill="white"/>
<path fill-rule="evenodd" clip-rule="evenodd" d="M99.4551 63.0714H108.355V63.6643H99.4551V63.0714ZM100.781 66.0901H101.399V66.6831H100.781V66.0901ZM108.392 66.0901V66.6831H106.612V66.0722L108.392 66.0901ZM109.336 63.0714H109.954V66.6651H109.336V63.0714Z" fill="white"/>
<path fill-rule="evenodd" clip-rule="evenodd" d="M112.897 66.0718V66.6827H109.518V66.0718H112.897ZM106.594 64.6522H107.211V66.6827H106.594V64.6522Z" fill="white"/>
<path fill-rule="evenodd" clip-rule="evenodd" d="M112.388 63.0714H113.005V66.6651H112.388V63.0714ZM110.862 63.0714H111.462V66.6651H110.862V63.0714ZM102.725 64.5089V65.1198H99.4551V64.5089H102.725ZM109.863 64.5089V65.1198H106.594V64.5089H109.863Z" fill="white"/>
<path fill-rule="evenodd" clip-rule="evenodd" d="M106.611 64.6706H107.211V66.6651H106.611V64.6706Z" fill="white"/>
<path fill-rule="evenodd" clip-rule="evenodd" d="M106.611 64.6706H107.211V66.6651H106.611V64.6706Z" fill="white"/>
<path fill-rule="evenodd" clip-rule="evenodd" d="M106.612 64.6706H107.211V66.6651H106.612V64.6706ZM99.4551 64.6706H100.073V66.6651H99.4551V64.6706ZM104.704 64.6706H105.304V66.6651H104.704V64.6706ZM102.107 64.6706H102.725V66.6651H102.107V64.6706Z" fill="white"/>
<path fill-rule="evenodd" clip-rule="evenodd" d="M105.122 66.0726V66.6835H102.379V66.0726H105.122ZM105.303 64.5093V65.1203H103.56V64.5093H105.303Z" fill="white"/>
<path fill-rule="evenodd" clip-rule="evenodd" d="M114.204 63.0714H123.104V63.6643H114.204V63.0714ZM115.53 66.0901H116.148V66.6831H115.53V66.0901ZM123.141 66.0901V66.6831H121.361V66.0722L123.141 66.0901ZM124.085 63.0714H124.703V66.6651H124.085V63.0714Z" fill="white"/>
<path fill-rule="evenodd" clip-rule="evenodd" d="M127.645 66.0718V66.6827H124.267V66.0718H127.645ZM121.36 64.6522H121.96V66.6827H121.36V64.6522Z" fill="white"/>
<path fill-rule="evenodd" clip-rule="evenodd" d="M127.137 63.0714H127.754V66.6651H127.137V63.0714ZM125.611 63.0714H126.211V66.6651H125.611V63.0714ZM117.474 64.5089V65.1198H114.204V64.5089H117.474ZM124.612 64.5089V65.1198H121.343V64.5089H124.612Z" fill="white"/>
<path fill-rule="evenodd" clip-rule="evenodd" d="M121.36 64.6706H121.96V66.6651H121.36V64.6706Z" fill="white"/>
<path fill-rule="evenodd" clip-rule="evenodd" d="M121.36 64.6706H121.96V66.6651H121.36V64.6706Z" fill="white"/>
<path fill-rule="evenodd" clip-rule="evenodd" d="M121.36 64.6706H121.96V66.6651H121.36V64.6706ZM114.222 64.6706H114.821V66.6651H114.222V64.6706ZM119.453 64.6706H120.071V66.6651H119.453V64.6706ZM116.855 64.6706H117.473V66.6651H116.855V64.6706Z" fill="white"/>
<path fill-rule="evenodd" clip-rule="evenodd" d="M119.871 66.0726V66.6835H117.128V66.0726H119.871ZM120.052 64.5093V65.1203H118.309V64.5093H120.052Z" fill="white"/>
<path fill-rule="evenodd" clip-rule="evenodd" d="M11.5771 25.7676H20.4775V26.3786H11.5771V25.7676ZM12.9031 28.8223H13.5207V29.3973H12.9031V28.8223ZM20.5139 28.7864V29.3973H18.7338V28.7864H20.5139ZM21.4584 25.7676H22.076V29.3973H21.4584V25.7676Z" fill="white"/>
<path fill-rule="evenodd" clip-rule="evenodd" d="M25.0187 28.7871V29.3981H21.6402V28.7871H25.0187ZM18.734 27.3676H19.3152V29.3981H18.7158L18.734 27.3676Z" fill="white"/>
<path fill-rule="evenodd" clip-rule="evenodd" d="M24.51 25.7676H25.1275V29.3973H24.51V25.7676ZM22.9842 25.7676H23.5836V29.3973H22.9842V25.7676ZM14.8467 27.2051V27.8161H11.5771V27.2231L14.8467 27.2051ZM21.9852 27.2051V27.8161H18.7156V27.2231L21.9852 27.2051Z" fill="white"/>
<path fill-rule="evenodd" clip-rule="evenodd" d="M18.734 27.3676H19.3152V29.3981H18.7158L18.734 27.3676Z" fill="white"/>
<path fill-rule="evenodd" clip-rule="evenodd" d="M18.734 27.3676H19.3152V29.3981H18.7158L18.734 27.3676Z" fill="white"/>
<path fill-rule="evenodd" clip-rule="evenodd" d="M18.7342 27.3676H19.3154V29.3981H18.716L18.7342 27.3676ZM11.5957 27.3676H12.1951V29.3981H11.5957V27.3676ZM16.827 27.3676H17.4445V29.3981H16.827V27.3676ZM14.2295 27.3676H14.8471V29.3981H14.2295V27.3676Z" fill="white"/>
<path fill-rule="evenodd" clip-rule="evenodd" d="M17.2437 28.7859V29.3969H14.501V28.7859H17.2437ZM17.4254 27.2226V27.8156H15.6816V27.2226H17.4254Z" fill="white"/>
<path fill-rule="evenodd" clip-rule="evenodd" d="M-3.06348 25.7676H5.83691V26.3786H-3.06348V25.7676ZM-1.7375 28.8223H-1.11992V29.3973H-1.75566L-1.7375 28.8223ZM5.87324 28.7864V29.3973H4.09316V28.7864H5.87324ZM6.81777 25.7676H7.43535V29.3973H6.81777V25.7676Z" fill="white"/>
<path fill-rule="evenodd" clip-rule="evenodd" d="M10.3785 28.7871V29.3981H7V28.7871H10.3785ZM4.09375 27.3676H4.69316V29.3981H4.09375V27.3676Z" fill="white"/>
<path fill-rule="evenodd" clip-rule="evenodd" d="M9.86934 25.7676H10.4869V29.3973H9.86934V25.7676ZM8.34355 25.7676H8.94297V29.3973H8.34355V25.7676ZM0.206055 27.2051V27.8161H-3.06348V27.2231L0.206055 27.2051ZM7.34453 27.2051V27.8161H4.075V27.2231L7.34453 27.2051Z" fill="white"/>
<path fill-rule="evenodd" clip-rule="evenodd" d="M4.09375 27.3676H4.69316V29.3981H4.09375V27.3676Z" fill="white"/>
<path fill-rule="evenodd" clip-rule="evenodd" d="M4.09375 27.3676H4.69316V29.3981H4.09375V27.3676Z" fill="white"/>
<path fill-rule="evenodd" clip-rule="evenodd" d="M4.09356 27.3676H4.69297V29.3981H4.09356V27.3676ZM-3.04492 27.3676H-2.44551V29.3981H-3.04492V27.3676ZM2.18633 27.3676H2.78574V29.3981H2.18633V27.3676ZM-0.411133 27.3676H0.206446V29.3981H-0.411133V27.3676Z" fill="white"/>
<path fill-rule="evenodd" clip-rule="evenodd" d="M2.60352 28.7859V29.3969H-0.121094V28.7859H2.60352ZM2.78516 27.2226V27.8156H1.04141V27.2226H2.78516Z" fill="white"/>
<path fill-rule="evenodd" clip-rule="evenodd" d="M26.0898 25.7676H34.9902V26.3786H26.0898V25.7676ZM27.4158 28.8223H28.0334V29.3973H27.4158V28.8223ZM35.0266 28.7864V29.3973H33.2465V28.7864H35.0266ZM35.9893 25.7676H36.6068V29.3973H35.9893V25.7676Z" fill="white"/>
<path fill-rule="evenodd" clip-rule="evenodd" d="M39.5318 28.7871V29.3981H36.1533V28.7871H39.5318ZM33.2471 27.3676H33.8646V29.3981H33.2471V27.3676Z" fill="white"/>
<path fill-rule="evenodd" clip-rule="evenodd" d="M39.0227 25.7676H39.6402V29.3973H39.0227V25.7676ZM37.4969 25.7676H38.1145V29.3973H37.4787L37.4969 25.7676ZM29.3594 27.2051V27.8161H26.0898V27.2231L29.3594 27.2051ZM36.4979 27.2051V27.8161H33.2283V27.2231L36.4979 27.2051Z" fill="white"/>
<path fill-rule="evenodd" clip-rule="evenodd" d="M33.2471 27.3676H33.8646V29.3981H33.2471V27.3676Z" fill="white"/>
<path fill-rule="evenodd" clip-rule="evenodd" d="M33.2471 27.3676H33.8646V29.3981H33.2471V27.3676Z" fill="white"/>
<path fill-rule="evenodd" clip-rule="evenodd" d="M33.2469 27.3676H33.8645V29.3981H33.2469V27.3676ZM26.1084 27.3676H26.726V29.3981H26.1084V27.3676ZM31.3396 27.3676H31.9572V29.3981H31.3396V27.3676ZM28.7422 27.3676H29.3598V29.3981H28.7422V27.3676Z" fill="white"/>
<path fill-rule="evenodd" clip-rule="evenodd" d="M31.7756 28.7859V29.3969H29.0146V28.7859H31.7756ZM31.9572 27.2226V27.8156H30.2135V27.2226H31.9572Z" fill="white"/>
<path fill-rule="evenodd" clip-rule="evenodd" d="M40.6943 25.7676H49.6129V26.3786H40.7125L40.6943 25.7676ZM42.0385 28.8223H42.6379V29.3973H42.0385V28.8223ZM49.6311 28.7864V29.3973H47.851V28.7864H49.6311ZM50.5938 25.7676H51.2113V29.3973H50.5938V25.7676Z" fill="white"/>
<path fill-rule="evenodd" clip-rule="evenodd" d="M54.1535 28.7871V29.3981H50.775V28.7871H54.1535ZM47.8506 27.3676H48.4682V29.3981H47.8506V27.3676Z" fill="white"/>
<path fill-rule="evenodd" clip-rule="evenodd" d="M53.6438 25.7676H54.2613V29.3973H53.6438V25.7676ZM52.0998 25.7676H52.7174V29.3973H52.0998V25.7676ZM43.9623 27.2051V27.8161H40.7109V27.2231L43.9623 27.2051ZM51.1008 27.2051V27.8161H47.8494V27.2231L51.1008 27.2051Z" fill="white"/>
<path fill-rule="evenodd" clip-rule="evenodd" d="M47.8506 27.3676H48.4682V29.3981H47.8506V27.3676Z" fill="white"/>
<path fill-rule="evenodd" clip-rule="evenodd" d="M47.8506 27.3676H48.4682V29.3981H47.8506V27.3676Z" fill="white"/>
<path fill-rule="evenodd" clip-rule="evenodd" d="M47.8504 27.3676H48.468V29.3981H47.8504V27.3676ZM40.7119 27.3676H41.3295V29.3981H40.7119V27.3676ZM45.9432 27.3676H46.5607V29.3981H45.9432V27.3676ZM43.3639 27.3676H43.9633V29.3981H43.3639V27.3676Z" fill="white"/>
<path fill-rule="evenodd" clip-rule="evenodd" d="M46.3795 28.7859V29.3969H43.6367V28.7859H46.3795ZM46.5611 27.2226V27.8156H44.8174V27.2226H46.5611Z" fill="white"/>
<path fill-rule="evenodd" clip-rule="evenodd" d="M55.3701 25.7676H64.2705V26.3786H55.3701V25.7676ZM56.6961 28.8223H57.3137V29.3973H56.6961V28.8223ZM64.3068 28.7864V29.3973H62.5268V28.7864H64.3068ZM65.2695 25.7676H65.8689V29.3973H65.2695V25.7676Z" fill="white"/>
<path fill-rule="evenodd" clip-rule="evenodd" d="M68.8121 28.7871V29.3981H65.4336V28.7871H68.8121ZM62.5273 27.3676H63.1449V29.3981H62.5273V27.3676Z" fill="white"/>
<path fill-rule="evenodd" clip-rule="evenodd" d="M68.3029 25.7676H68.9205V29.3973H68.3029V25.7676ZM66.7771 25.7676H67.3947V29.3973H66.7771V25.7676ZM58.6396 27.2051V27.8161H55.3701V27.2231L58.6396 27.2051ZM65.7781 27.2051V27.8161H62.5086V27.2231L65.7781 27.2051Z" fill="white"/>
<path fill-rule="evenodd" clip-rule="evenodd" d="M62.5273 27.3676H63.1449V29.3981H62.5273V27.3676Z" fill="white"/>
<path fill-rule="evenodd" clip-rule="evenodd" d="M62.5273 27.3676H63.1449V29.3981H62.5273V27.3676Z" fill="white"/>
<path fill-rule="evenodd" clip-rule="evenodd" d="M62.5271 27.3676H63.1447V29.3981H62.5271V27.3676ZM55.3887 27.3676H55.9881V29.3981H55.3887V27.3676ZM60.6199 27.3676H61.2375V29.3981H60.6199V27.3676ZM58.0225 27.3676H58.64V29.3981H58.0043L58.0225 27.3676Z" fill="white"/>
<path fill-rule="evenodd" clip-rule="evenodd" d="M61.0559 28.7859V29.3969H58.2949V28.7859H61.0559ZM61.2375 27.2226V27.8156H59.4574V27.2226H61.2375Z" fill="white"/>
<path fill-rule="evenodd" clip-rule="evenodd" d="M70.1201 25.7676H79.0205V26.3786H70.1201V25.7676ZM71.4461 28.8223H72.0637V29.3973H71.4461V28.8223ZM79.0568 28.7864V29.3973H77.2586V28.7864H79.0568ZM80.0195 25.7676H80.6189V29.3973H80.0195V25.7676Z" fill="white"/>
<path fill-rule="evenodd" clip-rule="evenodd" d="M83.5617 28.7871V29.3981H80.1832V28.7871H83.5617ZM77.277 27.3676H77.8945V29.3981H77.2588L77.277 27.3676Z" fill="white"/>
<path fill-rule="evenodd" clip-rule="evenodd" d="M83.0711 25.7676H83.6705V29.3973H83.0711V25.7676ZM81.5271 25.7676H82.1447V29.3973H81.5271V25.7676ZM73.3896 27.2051V27.8161H70.1201V27.2231L73.3896 27.2051ZM80.5281 27.2051V27.8161H77.2586V27.2231L80.5281 27.2051Z" fill="white"/>
<path fill-rule="evenodd" clip-rule="evenodd" d="M77.2588 27.3676H77.8945V29.3981H77.2588V27.3676Z" fill="white"/>
<path fill-rule="evenodd" clip-rule="evenodd" d="M77.2588 27.3676H77.8945V29.3981H77.2588V27.3676Z" fill="white"/>
<path fill-rule="evenodd" clip-rule="evenodd" d="M77.258 27.3676H77.8938V29.3981H77.258V27.3676ZM70.1377 27.3676H70.7553V29.3981H70.1377V27.3676ZM75.3689 27.3676H75.9865V29.3981H75.3689V27.3676ZM72.7715 27.3676H73.3891V29.3981H72.7715V27.3676Z" fill="white"/>
<path fill-rule="evenodd" clip-rule="evenodd" d="M75.8049 28.7859V29.3969H73.0439V28.7859H75.8049ZM75.9865 27.2226V27.8156H74.2428V27.2226H75.9865Z" fill="white"/>
<path fill-rule="evenodd" clip-rule="evenodd" d="M84.7773 25.7676H93.6777V26.3786H84.7773V25.7676ZM86.1033 28.8223H86.7209V29.3973H86.1033V28.8223ZM93.7322 28.7864V29.3973H91.934V28.7864H93.7322ZM94.6768 25.7676H95.2943V29.3973H94.6768V25.7676Z" fill="white"/>
<path fill-rule="evenodd" clip-rule="evenodd" d="M98.2184 28.7871V29.3981H94.8398V28.7871H98.2184ZM91.9336 27.3676H92.5512V29.3981H91.9336V27.3676Z" fill="white"/>
<path fill-rule="evenodd" clip-rule="evenodd" d="M97.7268 25.7676H98.3262V29.3973H97.7268V25.7676ZM96.1828 25.7676H96.8004V29.3973H96.1828V25.7676ZM88.0453 27.2051V27.8161H84.7939V27.2231L88.0453 27.2051ZM95.1838 27.2051V27.8161H91.9324V27.2231L95.1838 27.2051Z" fill="white"/>
<path fill-rule="evenodd" clip-rule="evenodd" d="M91.9336 27.3676H92.5512V29.3981H91.9336V27.3676Z" fill="white"/>
<path fill-rule="evenodd" clip-rule="evenodd" d="M91.9336 27.3676H92.5512V29.3981H91.9336V27.3676Z" fill="white"/>
<path fill-rule="evenodd" clip-rule="evenodd" d="M91.9344 27.3676H92.552V29.3981H91.9344V27.3676ZM84.7959 27.3676H85.4135V29.3981H84.7959V27.3676ZM90.0271 27.3676H90.6447V29.3981H90.0271V27.3676ZM87.4297 27.3676H88.0473V29.3981H87.4479L87.4297 27.3676Z" fill="white"/>
<path fill-rule="evenodd" clip-rule="evenodd" d="M90.4625 28.7859V29.3969H87.7197V28.7859H90.4625ZM90.6441 27.2226V27.8156H88.8822V27.2226H90.6441Z" fill="white"/>
<path fill-rule="evenodd" clip-rule="evenodd" d="M99.4551 25.7676H108.355V26.3786H99.4551V25.7676ZM100.781 28.8223H101.399V29.3973H100.781V28.8223ZM108.392 28.7864V29.3973H106.612V28.7864H108.392ZM109.336 25.7676H109.954V29.3973H109.336V25.7676Z" fill="white"/>
<path fill-rule="evenodd" clip-rule="evenodd" d="M112.897 28.7871V29.3981H109.518V28.7871H112.897ZM106.594 27.3676H107.211V29.3981H106.594V27.3676Z" fill="white"/>
<path fill-rule="evenodd" clip-rule="evenodd" d="M112.388 25.7676H113.005V29.3973H112.388V25.7676ZM110.862 25.7676H111.462V29.3973H110.862V25.7676ZM102.725 27.2051V27.8161H99.4551V27.2231L102.725 27.2051ZM109.863 27.2051V27.8161H106.594V27.2231L109.863 27.2051Z" fill="white"/>
<path fill-rule="evenodd" clip-rule="evenodd" d="M106.611 27.3676H107.211V29.3981H106.611V27.3676Z" fill="white"/>
<path fill-rule="evenodd" clip-rule="evenodd" d="M106.611 27.3676H107.211V29.3981H106.611V27.3676Z" fill="white"/>
<path fill-rule="evenodd" clip-rule="evenodd" d="M106.612 27.3676H107.211V29.3981H106.612V27.3676ZM99.4551 27.3676H100.073V29.3981H99.4551V27.3676ZM104.704 27.3676H105.304V29.3981H104.704V27.3676ZM102.107 27.3676H102.725V29.3981H102.107V27.3676Z" fill="white"/>
<path fill-rule="evenodd" clip-rule="evenodd" d="M105.122 28.7859V29.3969H102.379V28.7859H105.122ZM105.303 27.2226V27.8156H103.56V27.2226H105.303Z" fill="white"/>
<path fill-rule="evenodd" clip-rule="evenodd" d="M114.204 25.7676H123.104V26.3786H114.204V25.7676ZM115.53 28.8223H116.148V29.3973H115.53V28.8223ZM123.141 28.7864V29.3973H121.361V28.7864H123.141ZM124.085 25.7676H124.703V29.3973H124.085V25.7676Z" fill="white"/>
<path fill-rule="evenodd" clip-rule="evenodd" d="M127.645 28.7871V29.3981H124.267V28.7871H127.645ZM121.36 27.3676H121.96V29.3981H121.36V27.3676Z" fill="white"/>
<path fill-rule="evenodd" clip-rule="evenodd" d="M127.137 25.7676H127.754V29.3973H127.137V25.7676ZM125.611 25.7676H126.211V29.3973H125.611V25.7676ZM117.474 27.2051V27.8161H114.204V27.2231L117.474 27.2051ZM124.612 27.2051V27.8161H121.343V27.2231L124.612 27.2051Z" fill="white"/>
<path fill-rule="evenodd" clip-rule="evenodd" d="M121.36 27.3676H121.96V29.3981H121.36V27.3676Z" fill="white"/>
<path fill-rule="evenodd" clip-rule="evenodd" d="M121.36 27.3676H121.96V29.3981H121.36V27.3676Z" fill="white"/>
<path fill-rule="evenodd" clip-rule="evenodd" d="M121.36 27.3676H121.96V29.3981H121.36V27.3676ZM114.222 27.3676H114.821V29.3981H114.222V27.3676ZM119.453 27.3676H120.071V29.3981H119.453V27.3676ZM116.855 27.3676H117.473V29.3981H116.855V27.3676Z" fill="white"/>
<path fill-rule="evenodd" clip-rule="evenodd" d="M119.871 28.7859V29.3969H117.128V28.7859H119.871ZM120.052 27.2226V27.8156H118.309V27.2226H120.052Z" fill="white"/>
<path fill-rule="evenodd" clip-rule="evenodd" d="M3.00313 61.0052H4.09297V62.8919H3.00313V61.0052ZM32.1565 61.0052H33.2463V62.8919H32.1565V61.0052ZM-19.375 61.0052H-18.2852V62.8919H-19.375V61.0052ZM-4.57129 61.0052H-3.48144V62.8919H-4.57129V61.0052ZM10.1234 61.0052H11.2133V62.8919H10.1234V61.0052ZM17.3891 61.0052H18.4789V62.8919H17.3891V61.0052ZM24.8182 61.0052H25.908V62.8919H24.8182V61.0052ZM39.4221 61.0052H40.5119V62.8919H39.4221V61.0052ZM76.2951 61.0052H77.4031V62.8919H76.3133L76.2951 61.0052ZM46.8512 61.0052H47.941V62.8919H46.8512V61.0052ZM54.1168 61.0052H55.2066V62.8919H54.1168V61.0052ZM61.4732 61.0052H62.5631V62.8919H61.4732V61.0052ZM68.8115 61.0052H69.9014V62.8919H68.8115V61.0052ZM127.518 61.0052H128.608V62.8919H127.518V61.0052ZM83.4336 61.0052H84.5234V62.8919H83.4336V61.0052ZM90.8445 61.0052H91.9344V62.8919H90.8445V61.0052ZM98.3463 61.0052H99.4361V62.8919H98.3463V61.0052ZM105.394 61.0052H106.484V62.8919H105.394V61.0052ZM112.896 61.0052H113.986V62.8919H112.896V61.0052ZM120.234 61.0052H121.324V62.8919H120.234V61.0052ZM141.976 61.0052H143.066V62.8919H141.976V61.0052ZM134.929 61.0052H136.019V62.8919H134.929V61.0052ZM-12.0004 61.0052H-10.9105V62.8919H-12.0004V61.0052Z" fill="#D90000"/>
<path fill-rule="evenodd" clip-rule="evenodd" d="M3.00313 29.2172H4.09297V31.1039H3.00313V29.2172ZM32.1565 29.2172H33.2463V31.1039H32.1565V29.2172ZM-19.375 29.2172H-18.2852V31.1039H-19.375V29.2172ZM-4.57129 29.2172H-3.48144V31.1039H-4.57129V29.2172ZM10.1234 29.2172H11.2133V31.1039H10.1234V29.2172ZM17.3891 29.2172H18.4789V31.1039H17.3891V29.2172ZM24.8182 29.2172H25.908V31.1039H24.8182V29.2172ZM39.4221 29.2172H40.5119V31.1039H39.4221V29.2172ZM76.2951 29.2172H77.4031V31.1039H76.3133L76.2951 29.2172ZM46.8512 29.2172H47.941V31.1039H46.8512V29.2172ZM54.1168 29.2172H55.2066V31.1039H54.1168V29.2172ZM61.4732 29.2172H62.5631V31.1039H61.4732V29.2172ZM68.8115 29.2172H69.9014V31.1039H68.8115V29.2172ZM127.518 29.2172H128.608V31.1039H127.518V29.2172ZM83.4336 29.2172H84.5234V31.1039H83.4336V29.2172ZM90.8445 29.2172H91.9344V31.1039H90.8445V29.2172ZM98.3463 29.2172H99.4361V31.1039H98.3463V29.2172ZM105.394 29.2172H106.484V31.1039H105.394V29.2172ZM112.896 29.2172H113.986V31.1039H112.896V29.2172ZM120.234 29.2172H121.324V31.1039H120.234V29.2172ZM141.976 29.2172H143.066V31.1039H141.976V29.2172ZM134.929 29.2172H136.019V31.1039H134.929V29.2172ZM-12.0004 29.2172H-10.9105V31.1039H-12.0004V29.2172Z" fill="#239E3F"/>
<path fill-rule="evenodd" clip-rule="evenodd" d="M66.3232 35.4886C67.849 37.3574 72.5898 47.6355 63.4715 54.3917C59.1666 57.5902 61.8367 57.7339 61.9638 58.273C68.8662 54.6613 71.1004 49.7378 71.0459 45.3355C71.0095 40.9511 68.6482 37.0699 66.3232 35.4886Z" fill="#DA0000"/>
<path fill-rule="evenodd" clip-rule="evenodd" d="M67.2313 35.0037C68.9166 36.0182 70.3529 37.3904 71.4365 39.0212C72.52 40.6521 73.2237 42.5007 73.4966 44.4335C73.7695 46.3663 73.6048 48.3349 73.0145 50.197C72.4241 52.0591 71.4229 53.7682 70.0831 55.2006C75.0237 54.1225 81.3448 39.6756 67.2313 35.0037V35.0037ZM56.7688 35.0037C55.0849 36.0197 53.6501 37.3931 52.5683 39.0247C51.4865 40.6562 50.7847 42.5052 50.5135 44.4379C50.2424 46.3705 50.4087 48.3387 51.0004 50.2C51.5922 52.0614 52.5946 53.7694 53.9352 55.2006C48.9764 54.1225 42.6735 39.6756 56.7688 35.0037V35.0037Z" fill="#DA0000"/>
<path fill-rule="evenodd" clip-rule="evenodd" d="M57.6768 35.4886C56.151 37.3574 51.4101 47.6355 60.5285 54.3917C64.8152 57.5902 62.1633 57.7339 62.0361 58.273C55.1338 54.6613 52.8996 49.7378 52.9541 45.3355C52.9904 40.9511 55.3518 37.0699 57.6768 35.4886Z" fill="#DA0000"/>
<path fill-rule="evenodd" clip-rule="evenodd" d="M70.7559 57.339C68.0494 57.3749 64.6527 56.9796 62.1279 55.6679C62.5457 56.4765 62.8908 56.9796 63.3086 57.7702C65.7063 58.0038 69.0303 58.2734 70.7559 57.339ZM53.5 57.339C56.2064 57.3749 59.6031 56.9796 62.1279 55.6679C61.7102 56.4765 61.365 56.9796 60.9473 57.7702C58.5496 58.0038 55.2256 58.2734 53.5 57.339ZM58.4588 32.4163C59.0037 33.8538 60.4387 34.0695 61.9645 33.2249C63.0906 33.8718 64.8162 33.9257 65.4156 32.4882C65.8697 36.046 62.0916 35.1835 61.9645 34.5007C60.5477 35.8484 57.932 35.0757 58.4588 32.4163Z" fill="#DA0000"/>
<path fill-rule="evenodd" clip-rule="evenodd" d="M62.0725 59.5848L63.4893 57.9677L63.6891 36.3872L61.9998 34.9137L60.3105 36.3153L60.6557 58.0575L62.0725 59.5848Z" fill="#DA0000"/>
</g>
<defs>
<clipPath id="clip0_156451_4848">
<rect width="124" height="92" fill="white"/>
</clipPath>
</defs>
</svg>
