<svg width="124" height="92" viewBox="0 0 124 92" fill="none" xmlns="http://www.w3.org/2000/svg">
<g clip-path="url(#clip0_156451_3453)">
<path fill-rule="evenodd" clip-rule="evenodd" d="M-7.75 -1.52588e-05H131.75V92H-7.75V-1.52588e-05Z" fill="#199D00"/>
<path fill-rule="evenodd" clip-rule="evenodd" d="M27.3968 26.0724C27.2515 28.2286 27.0335 32.002 28.9044 32.3974C31.1386 32.613 29.9034 28.6599 30.7208 27.9411C30.8661 27.5817 31.1386 27.5817 31.1567 28.031V31.3911C31.1567 32.4692 31.8833 32.7927 32.4282 33.0083C33.0095 32.9724 33.4091 33.0083 33.627 33.5474L33.9177 39.3513C33.9177 39.3513 35.2618 39.7466 35.3345 36.0989C35.389 33.9427 34.8985 32.1638 35.1892 31.7505C35.1892 31.3372 35.7341 31.3192 36.0974 31.5169C36.6786 31.9122 36.9329 32.4153 37.8411 32.2356C39.2216 31.8403 40.0571 31.1755 40.0753 30.1333C40.048 29.1091 39.8326 28.0984 39.4395 27.1505C39.5122 26.9708 39.1852 26.4856 39.2579 26.3059C39.494 26.7013 39.8755 26.6653 39.9481 26.3059C39.712 25.5513 39.3487 24.8145 38.7675 24.5091C38.277 24.0778 37.5505 24.1497 37.3143 25.0481C37.169 26.0724 37.6776 27.2763 38.4224 28.2825C38.5858 28.6599 38.8038 29.3067 38.713 29.8817C38.3134 30.1153 37.9138 30.0075 37.5686 29.6661C37.5686 29.6661 36.4788 28.8575 36.4788 28.6599C36.7694 26.827 36.5333 26.6114 36.3698 26.0903C36.2608 25.3895 35.9157 25.1559 35.6433 24.6888C35.3708 24.4013 35.0075 24.4013 34.8259 24.6888C34.3354 25.5153 34.5716 27.2942 34.9167 28.1028C35.171 28.8395 35.5524 29.3067 35.3708 29.3067C35.2255 29.72 34.9167 29.6122 34.6806 29.127C34.4147 28.106 34.2865 27.0547 34.2991 26.0005C34.2083 25.1739 34.0993 23.413 33.5362 22.9458C33.2093 22.5145 32.7188 22.7302 32.5372 23.1255C32.4892 23.9282 32.5075 24.7335 32.5917 25.5333C32.955 26.863 33.0821 28.0489 33.2638 29.3966C33.3183 31.2114 32.2102 30.1872 32.2647 29.2708C32.503 28.1187 32.4844 26.9291 32.2102 25.7849C32.0286 25.3177 31.8288 25.2099 31.3747 25.2817C31.0296 25.2817 30.1395 26.2341 29.8852 27.8513C29.8852 27.8513 29.6673 28.6778 29.5765 29.4145C29.4493 30.2411 28.9044 30.852 28.5048 29.3067C28.1778 28.1747 27.9599 25.4255 27.4149 26.0724H27.3968Z" fill="white"/>
<path fill-rule="evenodd" clip-rule="evenodd" d="M33.4824 34.895L27.6699 37.6622C27.7244 36.3505 30.4127 33.9966 32.2654 33.9786C33.4461 33.9966 33.1555 34.4278 33.4643 34.895H33.4824Z" fill="white"/>
<path fill-rule="evenodd" clip-rule="evenodd" d="M32.447 36.6924C29.3954 44.5088 39.6218 45.6049 40.7661 37.0159C40.8751 36.6565 41.3111 36.3151 41.3837 36.8901C41.1476 44.6706 33.4642 45.1916 32.1564 42.7479C31.8487 41.907 31.6949 41.0187 31.7023 40.1245C31.5206 38.5971 30.7032 39.1901 30.5761 40.6995C30.4489 41.544 30.4853 41.7776 30.4853 42.5862C30.8849 48.7315 40.7843 46.0901 42.4009 41.0229C43.2546 38.2198 42.2556 36.1534 42.7097 36.1534C43.6905 37.1956 45.071 36.2971 45.3798 35.9377C45.507 35.7581 45.8339 35.6323 46.0519 35.8659C46.8148 36.4049 48.1589 36.1534 48.4495 35.201C48.613 34.2487 48.7402 33.2784 48.7765 32.2901C48.1407 32.4698 47.6866 32.5956 47.6321 32.8651L47.505 33.6916C47.4505 33.9612 46.9237 33.9612 46.8874 33.6198C46.6513 32.5417 45.6704 32.4159 45.071 34.069C44.6896 34.3924 43.963 34.4643 43.8904 33.9792C43.9812 32.8651 43.5271 32.7213 42.6189 33.2424L41.747 26.7377C42.1103 26.7377 42.4736 27.0073 42.8187 26.576C42.4554 25.4081 41.638 23.0362 41.1839 22.8565C40.9841 22.6049 40.8025 22.7667 40.5118 22.8385C40.0396 22.9823 39.6036 23.3776 39.7489 24.1682C40.2939 27.5463 40.6571 30.1159 41.2202 33.512C41.3111 33.8893 40.9841 34.4104 40.5482 34.3565C39.8216 33.8713 39.64 32.8831 38.3685 32.919C37.4603 32.919 36.4431 33.9073 36.3159 34.8416C36.1525 35.5963 36.098 36.4049 36.3159 37.0518C36.9517 37.8065 37.7146 37.7346 38.3866 37.5729C38.9316 37.3393 39.3857 36.8002 39.5855 36.926C39.7126 37.0877 39.6036 38.8846 36.988 40.2502C35.4077 40.969 34.1362 41.1127 33.4642 39.837C33.0464 39.0284 33.5005 35.9916 32.447 36.6924V36.6924Z" fill="white"/>
<path fill-rule="evenodd" clip-rule="evenodd" d="M45.471 28.7502C46.0704 28.5346 48.9766 25.2283 48.9766 25.2283L48.5407 24.8689C48.3772 24.7432 48.3954 24.5994 48.5407 24.4736C49.2672 24.0424 49.0311 23.1439 48.6678 22.7127C48.4212 22.5938 48.1499 22.5334 47.8755 22.5366C47.6012 22.5397 47.3314 22.6061 47.0876 22.7307C46.579 23.2158 46.47 23.9885 46.8696 24.4557C47.251 24.6353 47.6325 25.0307 47.3782 25.2463C46.1794 26.5041 42.928 28.6783 43.3094 28.7502C43.3821 28.858 45.3983 28.858 45.4528 28.7502H45.471ZM27.8518 40.4299C26.762 42.1549 26.6712 44.7244 27.2706 45.4971C27.5975 45.8564 28.1243 46.0182 28.5057 45.8924C29.196 45.6049 29.5047 44.2213 29.3413 43.7361C29.1051 43.3768 28.9235 43.3228 28.6874 43.6103C28.2151 44.5807 28.0153 43.9158 27.9608 43.3768C27.9087 42.4638 27.9575 41.548 28.1061 40.6455C28.2333 39.8908 28.1061 40.1064 27.8518 40.4299V40.4299ZM74.5516 37.6807C73.4981 35.4166 72.0268 33.1885 71.5727 32.3439C70.1572 30.1303 68.6545 27.9724 67.068 25.8752C65.9419 24.5455 68.9208 26.4322 66.7047 23.7728L65.0881 22.4252C64.7249 22.1736 63.853 21.7064 63.7077 22.4611C63.635 23.1439 63.6713 23.5033 63.7803 24.0603C63.8712 24.4197 64.4161 25.0486 64.6885 25.408C68.4124 30.2873 71.6831 35.4895 74.4608 40.951C74.9331 40.7174 74.8241 38.058 74.5516 37.6807V37.6807Z" fill="white"/>
<path fill-rule="evenodd" clip-rule="evenodd" d="M69.9198 45.1919C69.7018 45.4255 70.4284 46.4138 71.3729 46.4138C72.935 46.2341 74.3155 45.3716 75.587 43.0716C76.1036 42.3065 76.4332 41.4329 76.5497 40.5201C76.7035 36.158 76.35 31.7929 75.4961 27.5107C75.4417 27.1513 75.4962 26.7201 75.5325 26.6122C75.6415 26.4865 75.9866 26.6122 76.1682 26.3068C76.4407 26.0372 75.4417 23.7912 74.8967 22.9466C74.7151 22.5513 74.6243 22.2997 74.2973 22.9826C73.9028 23.736 73.7149 24.5786 73.7524 25.4263C74.4971 30.5474 74.7333 35.0216 75.2055 40.1427C75.26 40.6458 75.1874 41.3646 74.8422 41.6521C73.4716 43.1617 71.7942 44.368 69.9198 45.1919V45.1919ZM91.0809 45.174C89.9547 45.8208 89.9547 46.5576 90.8629 46.5755C92.4251 46.3958 94.2778 46.2701 95.5493 44.3654C95.9984 43.4683 96.258 42.49 96.3122 41.4904C96.5408 37.1955 96.2543 32.8889 95.4585 28.6607C95.4221 28.3013 95.2587 27.4568 95.3131 27.349C95.4221 27.0974 95.9307 27.3669 96.1124 27.0794C96.3667 26.8099 94.7864 24.7974 94.2233 23.9349C94.0417 23.5396 93.969 23.288 93.6239 23.9708C93.258 24.7312 93.1436 25.5863 93.2969 26.4146C94.1325 31.9849 94.7501 36.1537 94.8772 41.0771C94.8046 41.5443 94.7864 41.7958 94.5684 42.3888C94.078 42.9997 93.5331 43.7904 93.0245 44.1677C92.5159 44.5271 91.426 44.8865 91.0809 45.174V45.174Z" fill="white"/>
<path fill-rule="evenodd" clip-rule="evenodd" d="M91.9165 40.1964C91.9165 38.8847 91.9347 37.7706 91.8984 36.7823C91.8866 35.9454 91.7012 35.1197 91.3535 34.3566C91.0265 33.6198 91.2263 33.0269 91.0628 32.2362C90.9175 31.4456 90.9538 30.2597 90.7359 29.3433C90.6632 28.9839 90.4816 27.8159 90.5361 27.6902C90.6269 27.4386 90.972 27.6901 91.1536 27.4026C91.4079 27.1331 90.2454 24.1683 89.6642 23.3237C89.4644 22.9464 89.0648 23.0722 88.6107 23.6831C88.1566 24.0964 88.3201 25.0128 88.5017 25.8933C89.6097 31.6972 90.4634 36.962 90.2818 42.4784C90.2091 42.9456 91.9165 41.0769 91.9165 40.1964V40.1964ZM83.6156 33.0089C82.9072 32.973 81.4359 31.6253 80.9999 30.8526C80.9286 30.6638 80.8982 30.4622 80.9107 30.261C80.9232 30.0598 80.9784 29.8634 81.0726 29.6847C81.3451 29.505 81.7447 29.3253 82.0535 29.505C82.0535 29.505 82.3622 29.9362 82.3077 29.9901C82.671 30.1698 82.8527 30.08 82.889 29.9183C82.9072 29.6487 82.78 29.487 82.78 29.1995C82.9435 28.373 83.8699 28.2472 84.2331 28.7683C84.4874 29.0917 84.5964 29.7566 84.6146 30.2058C84.6146 30.4394 84.2513 30.1698 84.0152 30.2058C83.8154 30.2777 83.7609 30.5292 83.7427 30.7448C83.7064 31.3378 83.6337 32.2902 83.6156 32.9909V33.0089ZM70.5738 41.6339C70.7554 39.873 70.5011 36.7284 70.4829 35.6862C70.3858 33.006 70.1615 30.3317 69.8109 27.6722C69.5929 26.1628 70.4284 27.8339 70.3195 26.9534C70.047 25.462 69.2115 24.4378 68.2124 23.0902C67.9036 22.6409 67.9036 22.5511 67.4132 23.198C66.8683 24.4019 67.3406 25.2464 67.4859 26.1987C68.1943 29.2894 68.612 32.1284 68.8119 34.9495C69.021 37.8801 69.0453 40.8207 68.8845 43.7542C69.4294 43.7722 70.265 42.9097 70.5738 41.6339Z" fill="white"/>
<path fill-rule="evenodd" clip-rule="evenodd" d="M94.3317 38.813C93.0784 36.7286 91.2075 34.5005 90.6989 33.6559C89.0146 31.3291 87.2454 29.0636 85.395 26.8637C83.851 25.2465 86.1215 26.5942 85.1043 25.3364C84.2506 24.42 84.0145 24.1145 83.2698 23.5575C82.9065 23.3239 82.6885 22.8747 82.5432 23.6473C82.4853 24.3166 82.4732 24.989 82.5069 25.6598C82.5069 25.9653 82.8338 26.5583 83.1245 26.9176C86.8844 31.4997 91.0077 36.1715 94.3135 42.0473C94.7858 41.8137 94.6223 39.1723 94.3135 38.813H94.3317Z" fill="white"/>
<path fill-rule="evenodd" clip-rule="evenodd" d="M37.7687 34.9851C37.6779 35.1468 37.4781 35.3445 37.5507 35.5422C37.6779 35.7218 37.805 35.7757 38.023 35.7757C38.2228 35.7757 38.5134 35.8297 38.5679 35.7218C38.6769 35.5961 38.7496 35.3625 38.6769 35.1289C38.459 34.5898 37.8777 34.8054 37.7687 34.9851V34.9851Z" fill="#1BA400"/>
<path fill-rule="evenodd" clip-rule="evenodd" d="M79.8367 65.1375C81.5078 65.2094 82.5977 65.2274 84.0689 65.3891L85.8127 65.2094C87.7381 65.0297 87.8107 67.9227 87.8107 67.9227C87.8107 69.6297 87.1387 69.7195 86.285 69.8992C85.7945 69.9711 85.5584 69.6117 85.2859 69.2524C84.8751 69.3826 84.4376 69.4073 84.0145 69.3242C83.3061 69.2883 82.6158 69.2883 81.9256 69.2344C81.199 69.1805 80.7994 69.3242 80.0547 69.2524C79.9094 69.4859 79.6914 69.8094 79.2555 69.7195C78.8922 69.6656 78.4381 68.6414 78.5652 67.8328C78.8377 67.2578 78.7469 67.4555 78.7469 67.2039C71.9172 67.0242 65.033 66.7188 58.3486 66.8086C53.1174 66.8266 47.9588 67.0422 42.782 67.2578C40.0211 67.2219 37.9141 66.7906 36.4609 64.6883C36.6062 64.6883 43.5086 65.0656 45.5248 64.9399C49.2484 64.9039 52.6633 64.5984 56.4596 64.4906C63.9432 64.6164 71.3723 64.6164 78.8559 65.1375C78.1293 64.6524 78.1293 63.5203 79.2191 63.2328C79.31 63.1609 79.3645 63.7899 79.5279 63.7719C80.418 63.718 80.0184 64.9039 79.8367 65.1375V65.1375ZM49.757 24.3125C48.6309 27.5109 50.4109 31.0328 51.6461 30.6914C52.5543 31.0508 53.0992 29.3617 53.4625 27.5289C53.735 27.0078 53.9166 26.9539 54.0437 27.2234C54.0074 29.6672 54.2254 30.2242 54.8611 30.9609C56.2779 32.0391 57.4586 31.1047 57.5494 31.0149L58.6393 29.9188C58.8936 29.6492 59.2205 29.6492 59.5656 29.8648C59.9107 30.1703 59.8562 30.6914 60.5828 31.0508C61.2004 31.3024 62.49 31.1227 62.7988 30.6016C63.1984 29.9008 63.3074 29.6672 63.4891 29.4156C63.7797 29.0383 64.2701 29.2 64.2701 29.3258C64.2156 29.5414 63.925 29.7391 64.1248 30.1344C64.4881 30.3859 64.5607 30.2242 64.7605 30.1703C65.4871 29.8109 66.032 28.2656 66.032 28.2656C66.0502 27.6906 65.7232 27.7266 65.5053 27.8703L64.9422 28.2477C64.5789 28.3016 63.9068 28.5352 63.5617 28.0141C63.2166 27.4031 63.2166 26.5227 62.9623 25.8938C62.9623 25.8578 62.49 24.9055 62.926 24.8516C63.1439 24.8875 63.598 25.0133 63.6707 24.6359C63.8887 24.2586 63.1984 23.1984 62.708 22.6594C62.2902 22.2102 61.709 22.1563 61.1459 22.6234C60.7463 22.9828 60.8008 23.3781 60.7281 23.7555C60.6592 24.0259 60.6562 24.3086 60.7194 24.5804C60.7825 24.8522 60.91 25.1053 61.0914 25.3188C61.491 26.0734 62.1994 27.0617 61.9633 28.4633C61.9633 28.4633 61.5455 29.1102 60.8189 29.0203C60.5102 28.9664 60.0197 28.8406 59.7654 26.9C59.5656 25.4625 59.8018 23.4141 59.1842 22.4617C58.948 21.8688 58.7846 21.3117 58.2396 22.3C58.0943 22.6953 57.4586 23.2883 57.9127 24.4922C58.3424 25.5771 58.4679 26.7566 58.276 27.9063C58.0035 28.3016 57.949 28.4274 57.6039 28.8047C57.1316 29.3438 56.6049 29.2 56.2053 29.0023C55.842 28.7688 55.5514 28.643 55.3697 27.8344C55.4061 26.5766 55.4787 24.5102 55.2426 24.0789C54.8975 23.3961 54.3344 23.6477 54.0982 23.8633C53.0177 25.0507 52.2942 26.5133 52.0094 28.0859C51.6824 29.1281 51.3373 28.8227 51.1012 28.4094C50.5199 27.8703 50.4654 23.6117 49.757 24.3125V24.3125Z" fill="white"/>
<path fill-rule="evenodd" clip-rule="evenodd" d="M53.1722 31.2837C53.6989 30.9243 53.4628 30.6727 54.2257 31.4274C55.2104 33.151 55.7821 35.0751 55.8968 37.0516C55.8605 37.5188 56.1874 37.8063 56.3509 37.6985C56.4236 36.6204 59.0937 35.111 61.5458 34.8954C61.9091 34.8055 61.7275 34.1048 61.782 33.7454C61.6366 32.3977 62.5448 31.1759 63.8163 31.086C65.5601 31.3376 66.1413 32.254 66.1777 33.6376C65.9778 36.3329 63.1443 36.7821 61.564 36.9977C61.3278 37.0876 61.2189 37.1954 61.564 37.3212L68.212 37.3571L68.5571 37.5368C68.5935 37.7165 68.4482 37.5727 68.1939 38.004C67.8281 38.6395 67.5993 39.3431 67.5218 40.0704C65.5419 40.7173 63.4894 40.9688 61.4187 41.2384C60.6921 41.5977 60.3288 42.0829 60.4741 42.6219C60.7284 43.2149 62.3269 43.8259 62.3269 43.8438C62.6357 44.0235 62.9808 44.4727 62.236 45.3891C59.0028 45.2454 56.478 43.8798 55.6062 41.9571C55.3519 41.7594 55.0612 41.9571 54.8796 42.2087C53.6081 43.8259 52.373 45.2634 50.2114 46.054C48.94 46.3774 47.614 45.8563 46.9964 45.0298C46.5786 44.5446 46.5968 44.0235 46.4515 43.9157C45.7431 44.2212 39.7489 46.7368 40.5118 45.5509C41.965 44.0235 44.5079 42.8735 46.7239 41.3641C46.8874 40.843 47.178 39.118 48.0499 38.561C48.1044 38.561 47.9228 39.5673 47.9409 39.9985C47.9409 40.3579 47.9046 40.4837 47.9773 40.3938C48.1407 40.304 50.829 38.2016 51.0652 37.5548C51.3195 37.1954 51.1196 36.261 51.1196 36.2251C50.6111 34.9313 49.9027 34.8235 49.6484 34.1766C49.4122 33.3321 49.5212 32.3618 50.0116 32.0743C50.4476 31.6969 50.9562 31.7329 51.4466 32.1641C51.9915 32.6493 52.4638 33.6016 52.6091 34.3024C52.5183 34.5719 51.8825 34.1227 51.7009 34.2485C52.0505 34.646 52.283 35.1308 52.373 35.6501C52.7362 37.1235 52.6273 37.6985 52.264 38.6509C51.0652 41.1485 49.5394 41.8852 48.1952 42.8196C48.1589 42.8196 48.1407 43.4485 48.6312 43.7899C48.8128 43.9696 49.5212 44.0594 50.3386 43.7899C52.0848 42.8306 53.4969 41.3711 54.3892 39.6032C54.5435 38.258 54.3946 36.8956 53.9532 35.6141C53.4265 34.4102 52.8089 32.7032 52.8089 32.6673C52.7907 31.9126 52.8452 31.661 53.1722 31.2837V31.2837ZM35.771 24.3477C36.5339 24.7071 37.987 24.5454 37.9144 23.3235L37.878 22.7665C37.7327 22.4071 37.2968 22.497 37.206 22.8563C37.1696 22.9821 37.2605 23.1798 37.1515 23.2337C37.0788 23.3055 36.8427 23.2696 36.8427 22.9282C36.8427 22.8204 36.77 22.7126 36.7155 22.6407C36.6792 22.6048 36.6429 22.6048 36.5521 22.6048C36.4431 22.6048 36.4431 22.6227 36.3886 22.7126C36.3704 22.8024 36.3341 22.8923 36.3341 23.0001C36.3341 23.1259 36.2614 23.1618 36.1888 23.1798C36.0798 23.1798 36.098 23.1798 36.0071 23.1438C35.9708 23.0899 35.9163 23.072 35.9163 22.9641L35.8618 22.6766C35.8255 22.6227 35.7528 22.5868 35.6802 22.5688C35.2624 22.5688 35.2261 23.054 35.2624 23.2337C35.2261 23.2696 35.2079 24.1141 35.771 24.3477V24.3477Z" fill="white"/>
<path fill-rule="evenodd" clip-rule="evenodd" d="M58.204 33.7277C58.9669 34.0871 60.8014 33.8894 60.3473 32.7214L60.311 32.1464C60.1475 31.7871 59.7298 31.8769 59.6389 32.2542C59.6026 32.3621 59.6934 32.5597 59.5663 32.6136C59.5118 32.6855 59.2575 32.6495 59.2757 32.3261C59.2757 32.2183 59.203 32.0925 59.1485 32.0206C59.094 32.0027 59.0759 31.9847 58.9669 31.9847C58.8761 31.9847 58.8761 32.0206 58.8216 32.1105C58.7852 32.2003 58.7671 32.2902 58.7671 32.398C58.7489 32.5058 58.6944 32.5417 58.6036 32.5777C58.5128 32.5777 58.5309 32.5777 58.4583 32.5238C58.4038 32.4699 58.3493 32.4519 58.3493 32.3621L58.2948 32.0746C58.2585 32.0206 58.1858 31.9847 58.1132 31.9667C57.6954 31.9667 57.6591 32.4339 57.6772 32.6136C57.6591 32.6496 57.6409 33.5121 58.2221 33.7277H58.204ZM71.2821 29.8464C72.045 30.2058 73.48 30.0441 73.4255 28.8402L73.3891 28.2652C73.2257 27.9058 72.8079 27.9956 72.7171 28.355C72.6807 28.4808 72.7716 28.6785 72.6444 28.7503C72.5899 28.8042 72.3356 28.7683 72.3538 28.4269C72.3538 28.3191 72.2811 28.2113 72.2266 28.1394C72.1721 28.1035 72.154 28.1035 72.045 28.1035C71.9542 28.1035 71.9542 28.1394 71.8997 28.2292L71.8452 28.4988C71.827 28.6246 71.7725 28.6785 71.6817 28.6785C71.5909 28.6785 71.6091 28.6785 71.5364 28.6425C71.4819 28.5886 71.4274 28.5706 71.4274 28.4808C71.4274 28.391 71.4093 28.2472 71.3729 28.1753C71.3366 28.1214 71.2639 28.1035 71.1913 28.0855C70.7735 28.0855 70.7372 28.5527 70.7553 28.7324C70.7372 28.7683 70.719 29.6128 71.3003 29.8464H71.2821ZM78.0573 39.6035C76.7313 41.0949 77.3126 43.5566 77.6214 44.0956C78.0573 44.9581 78.4024 45.5152 79.2561 45.9464C80.0372 46.5035 80.6548 46.162 80.9817 45.7667C81.7628 44.9581 81.7809 42.8917 82.1442 42.4964C82.3985 41.7417 83.0524 41.8675 83.3612 42.2089C83.6501 42.6146 84.0373 42.9421 84.4874 43.1613C85.2139 43.7902 86.0858 43.916 86.9577 43.341C87.5389 42.9995 87.9204 42.5863 88.2655 41.7417C88.6288 40.7355 88.4471 36.0636 88.3563 33.2964L87.5934 29.4331C87.5934 29.3972 87.5026 27.6003 87.4118 27.1871C87.4118 27.0074 87.3573 26.9535 87.5389 26.9714C87.7387 27.1511 87.7569 27.1511 87.9022 27.205C88.0839 27.241 88.2655 26.8996 88.1383 26.6121L86.3219 23.2699C86.1766 23.1261 85.9768 22.9824 85.7407 23.3058C85.6014 23.4306 85.4905 23.5832 85.4153 23.7536C85.3402 23.924 85.3025 24.1082 85.3048 24.2941C85.3592 25.0847 85.4864 25.8933 85.5409 26.6839L86.2675 30.7449C86.5036 33.6199 86.5581 35.9917 86.7942 38.8847C86.7579 40.1066 86.3764 41.1667 86.0132 41.3285C86.0132 41.3285 85.4682 41.6339 85.105 41.2925C84.8325 41.1847 83.7608 39.5136 83.7608 39.5136C83.2159 39.0285 82.8526 39.1542 82.4712 39.5136C81.3813 40.5558 80.9091 42.4605 80.1643 43.7902C79.9827 44.0956 79.4378 44.3292 78.8565 43.7722C77.3671 41.7417 78.2389 38.8667 78.0573 39.6035V39.6035ZM71.6272 22.7667C72.3175 23.0363 72.7897 24.4199 72.6444 25.1027C72.4991 25.9113 72.1358 26.8097 71.8815 26.7019C71.5909 26.5941 72.0632 25.8753 71.7907 25.1206C71.6454 24.6175 70.7009 23.7191 70.8098 23.4675C70.6282 22.9105 71.2094 22.6589 71.6272 22.7488V22.7667Z" fill="white"/>
<path fill-rule="evenodd" clip-rule="evenodd" d="M80.2727 40.4294C80.3999 38.7763 80.1637 37.77 80.1274 36.7997C80.0911 35.8294 79.0194 28.4263 78.8014 27.7075C78.529 26.306 79.8368 27.5278 79.6915 26.7013C79.2374 25.695 78.1293 24.2036 77.7842 23.3231C77.5663 22.9638 77.6571 22.6044 77.1848 23.2333C76.7782 24.336 76.6352 25.5168 76.767 26.6833C77.8932 32.4872 79.0376 37.3028 78.8559 42.8192C79.4008 42.8192 80.0003 41.6153 80.2727 40.4294V40.4294ZM91.9704 25.1021C92.6061 25.4075 92.9694 27.1325 92.8967 27.6177C92.7696 28.5161 92.4426 29.4864 92.2065 29.3606C91.934 29.2528 92.261 28.031 92.1338 27.6536C91.9885 27.1146 91.1348 26.1442 91.2256 25.8567C91.044 25.2458 91.5889 24.9942 91.9704 25.1021V25.1021ZM45.5249 37.3028C46.1243 37.5364 46.4876 38.7942 46.4331 39.1536C46.2878 39.8185 45.979 40.5372 45.7428 40.4294C45.5067 40.3575 45.7973 39.4591 45.6883 39.1716C45.6338 38.5067 44.7983 38.1474 44.8165 37.8599C44.6711 37.3208 45.1797 37.231 45.543 37.3028H45.5249Z" fill="white"/>
<path fill-rule="evenodd" clip-rule="evenodd" d="M59.9838 39.208C60.7467 39.2439 61.1281 39.8548 60.4197 40.1064C59.6931 40.34 59.0211 40.5376 59.0029 41.5439C59.2754 42.9814 58.6396 42.4783 58.2763 42.2986C57.8404 41.9751 56.6053 41.2205 56.4236 39.6033C56.4054 39.2259 56.7142 38.8845 57.2047 38.8845C57.9312 39.0822 59.0211 39.1001 59.9838 39.208V39.208Z" fill="#1B9D00"/>
<path fill-rule="evenodd" clip-rule="evenodd" d="M29.5584 22.3532C30.4303 22.6048 30.4848 23.8985 30.4303 24.2759C30.3031 24.9587 29.9944 25.6954 29.7764 25.6056C29.5221 25.5157 29.7764 24.5813 29.6492 24.2938C29.5221 23.8985 28.7774 23.1438 28.85 22.9282C28.6865 22.479 29.2133 22.2634 29.5584 22.3532V22.3532ZM46.9778 28.3907C46.2875 28.7501 46.0332 29.8282 46.451 30.4751C46.8506 31.0141 47.4682 30.8165 47.5408 30.8165C48.2129 30.8884 48.6125 29.5766 48.6125 29.5766C48.6125 29.5766 48.6307 29.2173 47.8496 29.9181C47.5045 29.972 47.4863 29.8462 47.3955 29.6665C47.3124 29.3244 47.3443 28.9648 47.4863 28.6423C47.6135 28.3188 47.3592 28.1751 46.9778 28.3907ZM52.0637 21.8501C51.7004 22.0837 51.0283 22.7845 51.0102 23.5751C50.992 24.0243 50.9012 24.0243 51.1918 24.2938C51.4279 24.6173 51.6278 24.5993 52.0637 24.3657C52.1723 24.2981 52.2655 24.2088 52.3375 24.1037C52.4094 23.9985 52.4584 23.8797 52.4815 23.7548C52.5904 23.2516 51.9365 24.0063 51.8639 23.4313C51.7186 22.8923 52.1363 22.6766 52.536 22.1735C52.536 21.8141 52.536 21.5806 52.0455 21.8501H52.0637ZM56.1324 22.5688C55.9723 23.2231 55.875 23.891 55.8418 24.5634C55.7328 25.0665 56.3867 25.2821 56.6592 24.6352C57.0951 23.4673 57.0951 22.9641 57.1315 22.479C57.0043 21.7063 56.4776 21.7243 56.1324 22.5688ZM81.9254 35.5602C81.9981 35.4704 85.5582 32.9727 85.5582 32.9727C85.9215 32.847 85.8307 34.2665 85.6672 34.2485C84.5631 35.3012 83.2932 36.169 81.9072 36.8181C81.7256 36.9438 81.5621 35.8657 81.9072 35.5602H81.9254ZM85.1404 35.5243C85.7762 35.8298 86.0305 37.6446 85.9578 38.1298C85.9578 39.1001 85.3584 39.8548 85.1041 39.747C84.8498 39.6212 85.1404 38.5431 85.0133 38.1657C84.868 37.6266 84.3412 36.6384 84.432 36.3509C84.2504 35.7399 84.759 35.4165 85.1586 35.5243H85.1404ZM64.0701 43.3227C64.3648 42.9825 64.7073 42.686 65.0873 42.4423C65.4506 42.2626 65.7776 42.586 65.7594 42.5681C65.8139 42.9274 65.5414 43.2329 65.6322 43.7001C65.7049 43.8798 65.7594 44.0954 66.1045 44.0235C66.6676 43.5743 67.1944 43.5384 67.7393 43.5204C68.1934 43.5384 68.2115 44.2751 67.9209 44.2751C66.8856 44.4907 66.4315 44.7782 65.6867 45.0477C65.3235 45.2634 65.0328 44.9938 65.0328 44.9759C65.0328 44.9579 64.833 44.7782 64.9602 44.311C64.9965 43.9516 64.8512 43.736 64.5242 43.772C64.3063 43.9157 64.0883 43.9876 63.9793 43.7181C63.9248 43.5384 63.9067 43.4306 64.0701 43.3227V43.3227ZM88.8822 44.2931C89.0276 44.4727 89.1365 44.6524 88.8641 44.9759L88.192 45.5509C88.083 45.7306 88.0104 46.054 88.3737 46.1438C89.0276 46.3235 90.5533 45.3352 90.5533 45.3173C90.8076 45.1376 90.735 44.7782 90.6987 44.7782C90.5533 44.6165 90.2264 44.7243 90.0084 44.6884C89.8994 44.6884 89.5543 44.6524 89.7178 44.329C89.8398 44.1702 89.9377 43.9947 90.0084 43.8079C90.0992 43.5923 90.0084 43.4485 89.6451 43.3227C89.2637 43.2509 89.1002 43.2868 88.6824 43.3227C88.4645 43.3587 88.3918 43.4665 88.3373 43.736C88.3555 44.1493 88.6098 44.1313 88.8822 44.2751V44.2931Z" fill="white"/>
<path fill-rule="evenodd" clip-rule="evenodd" d="M64.1985 34.0874C64.1077 34.2671 63.7807 34.2671 63.4719 34.0874C63.1631 33.9077 62.9815 33.6202 63.0905 33.4585C63.1995 33.2968 63.5083 33.2968 63.8171 33.4585C64.1258 33.6202 64.2893 33.9257 64.1985 34.0874ZM48.0325 24.4561C47.8508 24.51 47.5965 24.3483 47.4876 24.0968C47.3786 23.8452 47.4331 23.6296 47.6147 23.5757C47.7963 23.5218 48.0325 23.7014 48.1596 23.935C48.2868 24.1686 48.2141 24.4202 48.0143 24.4741L48.0325 24.4561Z" fill="#259F00"/>
<path fill-rule="evenodd" clip-rule="evenodd" d="M80.0185 67.3829C81.7259 67.4548 83.3244 67.3829 85.0136 67.4728C85.3224 67.7423 85.1045 68.3712 84.9046 68.3353L83.4878 68.2814C83.4697 67.7423 82.0892 67.8322 82.1255 68.2993C81.3808 68.3892 80.7087 68.2814 79.9459 68.2454C79.7279 67.9759 79.7642 67.4908 80.0185 67.3829V67.3829Z" fill="#209000"/>
</g>
<defs>
<clipPath id="clip0_156451_3453">
<rect width="124" height="92" fill="white"/>
</clipPath>
</defs>
</svg>
