<svg width="124" height="92" viewBox="0 0 124 92" fill="none" xmlns="http://www.w3.org/2000/svg">
<g clip-path="url(#clip0_156451_3458)">
<path fill-rule="evenodd" clip-rule="evenodd" d="M0 -4.57764e-05H176.7V7.09162H0V-4.57764e-05ZM0 14.1641H176.7V21.2558H0V14.1641ZM0 28.3091H176.7V35.4008H0V28.3091ZM0 42.4541H176.7V49.5458H0V42.4541ZM0 56.6375H176.7V63.6908H0V56.6375ZM0 70.7633H176.7V77.855H0V70.7633ZM0 84.9083H176.7V92H0V84.9083Z" fill="#BD3D44"/>
<path fill-rule="evenodd" clip-rule="evenodd" d="M0 7.09171H176.7V14.1642H0V7.09171ZM0 21.2367H176.7V28.3092H0V21.2367ZM0 35.3817H176.7V42.4734H0V35.3817ZM0 49.5459H176.7V56.6375H0V49.5459ZM0 63.6909H176.7V70.7825H0V63.6909ZM0 77.8359H176.7V84.9275H0V77.8359Z" fill="white"/>
<path fill-rule="evenodd" clip-rule="evenodd" d="M0 -4.57764e-05H70.68V49.5458H0V-4.57764e-05Z" fill="#192F5D"/>
<path fill-rule="evenodd" clip-rule="evenodd" d="M5.89008 2.10804L6.54883 4.08221H8.60258L6.93633 5.28971L7.5757 7.26387L5.89008 6.03721L4.22383 7.24471L4.84383 5.28971L3.1582 4.08221H5.27008L5.89008 2.10804ZM17.6701 2.10804L18.3095 4.08221H20.402L18.7163 5.28971L19.3363 7.26387L17.6701 6.03721L15.9845 7.24471L16.6238 5.28971L14.9576 4.08221H17.0113L17.6701 2.10804ZM29.4501 2.10804L30.0895 4.08221H32.1626L30.4963 5.28971L31.1357 7.26387L29.4501 6.03721L27.7645 7.24471L28.4038 5.28971L26.7182 4.08221H28.8107L29.4501 2.10804ZM41.2301 2.10804L41.8694 4.08221H43.9619L42.2763 5.28971L42.9157 7.26387L41.2301 6.03721L39.5444 7.24471L40.2032 5.28971L38.4982 4.08221H40.5713L41.2301 2.10804ZM53.0101 2.10804L53.6494 4.08221H55.7226L54.0563 5.28971L54.6957 7.26387L53.0101 6.03721L51.3244 7.24471L51.9638 5.28971L50.2976 4.08221H52.3707L53.0101 2.10804ZM64.7901 2.10804L65.4295 4.08221H67.5219L65.817 5.28971L66.4757 7.26387L64.7901 6.03721L63.1045 7.24471L63.7632 5.28971L62.0582 4.08221H64.1507L64.7901 2.10804ZM11.7801 7.09137L12.4195 9.04637H14.5313L12.8457 10.2347L13.4657 12.2089L11.8188 11.0014L10.1332 12.2089L10.7338 10.2347L9.10633 9.04637H11.1795L11.7801 7.09137ZM23.5601 7.09137L24.2188 9.04637H26.2919L24.587 10.2347L25.2457 12.2089L23.5601 11.0014L21.8745 12.2089L22.5138 10.2347L20.8282 9.04637H22.9207L23.5601 7.09137ZM35.3401 7.09137L35.9794 9.04637H38.0719L36.3863 10.2347L37.0257 12.2089L35.3401 11.0014L33.6544 12.2089L34.2938 10.2347L32.6276 9.04637H34.6813L35.3401 7.09137ZM47.1201 7.09137L47.7788 9.04637H49.8519L48.1469 10.2347L48.8057 12.2089L47.1201 11.0014L45.4538 12.2089L46.0738 10.2347L44.3882 9.04637H46.5001L47.1201 7.09137ZM58.9001 7.09137L59.5394 9.04637H61.632L59.9463 10.2347L60.5857 12.2089L58.9001 11.0014L57.2144 12.2089L57.8538 10.2347L56.1876 9.04637H58.2607L58.9001 7.09137ZM5.89008 11.998L6.54883 13.9914H8.60258L6.93633 15.1989L7.5757 17.1539L5.89008 15.9464L4.22383 17.1539L4.84383 15.1989L3.1582 13.9914H5.27008L5.89008 11.998ZM17.6701 11.998L18.3095 13.9914H20.402L18.7163 15.1989L19.3363 17.1539L17.6701 15.9464L15.9845 17.1539L16.6238 15.1797L14.9576 13.9722H17.0113L17.6701 11.998ZM29.4501 11.998L30.0895 13.9722H32.1626L30.4963 15.1797L31.1357 17.1347L29.4501 15.9272L27.7645 17.1347L28.4038 15.1605L26.7182 13.953H28.8107L29.4501 11.998ZM41.2301 11.998L41.8694 13.9722H43.9619L42.2763 15.1797L42.9157 17.1347L41.2301 15.9272L39.5444 17.1347L40.2032 15.1605L38.4982 13.953H40.5713L41.2301 11.998ZM53.0101 11.998L53.6494 13.9722H55.7226L54.0563 15.1797L54.6957 17.1347L53.0101 15.9272L51.3244 17.1347L51.9638 15.1605L50.2976 13.953H52.3707L53.0101 11.998ZM64.7901 11.998L65.4295 13.9722H67.5219L65.817 15.1797L66.4757 17.1347L64.7901 15.9272L63.1045 17.1347L63.7632 15.1605L62.0582 13.953H64.1507L64.7901 11.998ZM11.7801 16.9814L12.4195 18.9364H14.5313L12.8457 20.1439L13.4851 22.118L11.7995 20.8914L10.1138 22.0989L10.7532 20.1439L9.08695 18.9364H11.1601L11.7801 16.9814ZM23.5601 16.9814L24.2188 18.9364H26.2919L24.587 20.1439L25.2457 22.118L23.5601 20.8914L21.8745 22.0989L22.5138 20.1439L20.8282 18.9364H22.9207L23.5601 16.9814ZM35.3401 16.9814L35.9794 18.9364H38.0719L36.3863 20.1439L37.0257 22.118L35.3401 20.8914L33.6544 22.0989L34.2938 20.1439L32.6276 18.9364H34.6813L35.3401 16.9814ZM47.1201 16.9814L47.7788 18.9364H49.8519L48.1663 20.1439L48.8057 22.118L47.1201 20.8914L45.4538 22.0989L46.0738 20.1439L44.3882 18.9364H46.5001L47.1201 16.9814ZM58.9001 16.9814L59.5394 18.9364H61.632L59.9463 20.1439L60.5857 22.118L58.9001 20.8914L57.2144 22.0989L57.8538 20.1439L56.1876 18.9364H58.2607L58.9001 16.9814ZM5.89008 21.9455L6.54883 23.9005H8.60258L6.93633 25.108L7.5757 27.0822L5.89008 25.8555L4.22383 27.063L4.84383 25.108L3.1582 23.9005H5.27008L5.89008 21.9455ZM17.6701 21.9455L18.3095 23.9005H20.402L18.7163 25.108L19.3363 27.063L17.6701 25.8555L15.9845 27.063L16.6238 25.108L14.9576 23.9005H17.0113L17.6701 21.9455ZM29.4501 21.9455L30.0895 23.9005H32.1626L30.4963 25.108L31.1357 27.0822L29.4501 25.8555L27.7645 27.063L28.4038 25.108L26.7182 23.9005H28.8107L29.4501 21.9455ZM41.2301 21.9455L41.8694 23.9005H43.9619L42.2763 25.108L42.9157 27.0822L41.2301 25.8555L39.5444 27.063L40.2032 25.108L38.4982 23.9005H40.5713L41.2301 21.9455ZM53.0101 21.9455L53.6494 23.9005H55.7226L54.0563 25.108L54.6957 27.0822L53.0101 25.8555L51.3244 27.063L51.9638 25.108L50.2976 23.9005H52.3707L53.0101 21.9455ZM64.7901 21.9455L65.4295 23.9005H67.5219L65.817 25.108L66.4757 27.0822L64.7901 25.8555L63.1045 27.063L63.7438 25.108L62.0388 23.9005H64.1313L64.7901 21.9455ZM11.7801 26.8905L12.4195 28.8647H14.5313L12.8457 30.053L13.4851 32.0272L11.7995 30.8005L10.1138 32.0272L10.7532 30.053L9.08695 28.8455H11.1601L11.7801 26.8905ZM23.5601 26.8905L24.2188 28.8647H26.2919L24.587 30.053L25.2457 32.0272L23.5601 30.8005L21.8745 32.0272L22.5138 30.053L20.8282 28.8455H22.9207L23.5601 26.8905ZM35.3401 26.8905L35.9794 28.8647H38.0719L36.3863 30.053L37.0257 32.0272L35.3401 30.8005L33.6544 32.0272L34.2938 30.053L32.6276 28.8455H34.6813L35.3401 26.8905ZM47.1201 26.8905L47.7788 28.8647H49.8519L48.1663 30.053L48.8057 32.0272L47.1201 30.8005L45.4538 32.0272L46.0738 30.053L44.3882 28.8455H46.5001L47.1201 26.8905ZM58.9001 26.8905L59.5394 28.8647H61.632L59.9463 30.053L60.5857 32.0272L58.9001 30.8005L57.2144 32.0272L57.8538 30.053L56.1876 28.8455H58.2607L58.9001 26.8905ZM5.89008 31.8355L6.54883 33.8097H8.60258L6.93633 35.0172L7.5757 36.953L5.89008 35.7647L4.22383 36.953L4.84383 34.998L3.1582 33.7905H5.27008L5.89008 31.8355ZM17.6701 31.8355L18.3095 33.8097H20.402L18.7163 35.0172L19.3557 36.953L17.6701 35.7647L15.9845 36.953L16.6432 34.998L14.9576 33.7905H17.0113L17.6701 31.8355ZM29.4501 31.8355L30.0895 33.8097H32.1626L30.4963 35.0172L31.1357 36.953L29.4501 35.7647L27.7645 36.953L28.4038 34.998L26.7182 33.7905H28.8107L29.4501 31.8355ZM41.2301 31.8355L41.8694 33.8097H43.9619L42.2763 35.0172L42.9157 36.953L41.2301 35.7647L39.5444 36.953L40.2032 34.998L38.4982 33.7905H40.5713L41.2301 31.8355ZM53.0101 31.8355L53.6494 33.8097H55.7226L54.0563 35.0172L54.6957 36.953L53.0101 35.7647L51.3244 36.953L51.9638 34.998L50.2976 33.7905H52.3707L53.0101 31.8355ZM64.7901 31.8355L65.4295 33.8097H67.5219L65.817 35.0172L66.4757 36.953L64.7901 35.7647L63.1045 36.953L63.7632 34.998L62.0582 33.7905H64.1507L64.7901 31.8355ZM11.7801 36.7997L12.4195 38.7547H14.5313L12.8457 39.9622L13.4851 41.9364L11.7995 40.7097L10.1138 41.9172L10.7532 39.9622L9.08695 38.7547H11.1601L11.7801 36.7997ZM23.5601 36.7997L24.2188 38.7547H26.2919L24.587 39.9622L25.2457 41.9364L23.5601 40.7097L21.8745 41.9172L22.5138 39.9622L20.8282 38.7547H22.9207L23.5601 36.7997ZM35.3401 36.7997L35.9794 38.7547H38.0719L36.3863 39.9622L37.0257 41.9364L35.3401 40.7097L33.6544 41.9172L34.2938 39.9622L32.6276 38.7547H34.6813L35.3401 36.7997ZM47.1201 36.7997L47.7788 38.7547H49.8519L48.1663 39.9622L48.8057 41.9364L47.1201 40.7097L45.4538 41.9172L46.0738 39.9622L44.3882 38.7547H46.5001L47.1201 36.7997ZM58.9001 36.7997L59.5394 38.7547H61.632L59.9463 39.9622L60.5857 41.9364L58.9001 40.7097L57.2144 41.9172L57.8538 39.9622L56.1876 38.7547H58.2607L58.9001 36.7997ZM5.89008 41.7639L6.54883 43.7189H8.60258L6.93633 44.9264L7.5757 46.8814L5.89008 45.6739L4.22383 46.8814L4.84383 44.9072L3.1582 43.6997H5.27008L5.89008 41.7639ZM17.6701 41.7639L18.3095 43.7189H20.402L18.7163 44.9264L19.3557 46.8814L17.6701 45.6739L15.9845 46.8814L16.6432 44.9072L14.9576 43.6997H17.0113L17.6701 41.7639ZM29.4501 41.7639L30.0895 43.7189H32.1626L30.5351 44.9264L31.1744 46.8814L29.4888 45.6739L27.8032 46.8814L28.4426 44.9072L26.757 43.6997H28.8494L29.4501 41.7639ZM41.2301 41.7639L41.8694 43.7189H43.9619L42.2763 44.9264L42.9157 46.8814L41.2301 45.6739L39.5444 46.8814L40.2032 44.9072L38.4982 43.6997H40.5713L41.2301 41.7639ZM53.0101 41.7639L53.6494 43.7189H55.7226L54.0563 44.9264L54.6957 46.8814L53.0101 45.6739L51.3244 46.8814L51.9638 44.9072L50.2976 43.6997H52.3707L53.0101 41.7639ZM64.7901 41.7639L65.4295 43.7189H67.5219L65.817 44.9264L66.4757 46.8814L64.7901 45.6739L63.1045 46.8814L63.7632 44.9072L62.0582 43.6997H64.1507L64.7901 41.7639Z" fill="white"/>
</g>
<defs>
<clipPath id="clip0_156451_3458">
<rect width="124" height="92" fill="white"/>
</clipPath>
</defs>
</svg>
