<svg width="491" height="752" viewBox="0 0 491 752" fill="none" xmlns="http://www.w3.org/2000/svg">
<rect x="417" width="74" height="752" fill="white"/>
<rect x="139" width="74" height="752" fill="white"/>
<rect width="74" height="752" fill="white"/>
<rect x="278" width="74" height="752" fill="white"/>
<rect x="74" width="65" height="752" fill="#B1D4E5"/>
<rect x="213" width="65" height="752" fill="#B1D4E5"/>
<rect x="352" width="65" height="752" fill="#B1D4E5"/>
<rect x="74" width="65" height="752" fill="#B1D4E5"/>
<rect x="213" width="65" height="752" fill="#B1D4E5"/>
<rect x="352" width="65" height="752" fill="#B1D4E5"/>
<path d="M332.842 145.35C333.056 145.35 333.378 145.35 333.538 145.35C333.699 145.35 333.538 145.296 333.163 145.296C332.788 145.35 332.628 145.35 332.842 145.35ZM335.145 145.35C335.36 145.35 335.681 145.35 335.842 145.35C336.002 145.35 335.842 145.296 335.467 145.296C335.092 145.296 334.931 145.35 335.145 145.35ZM343.127 145.35C343.341 145.35 343.662 145.35 343.823 145.35C343.984 145.35 343.823 145.296 343.448 145.296C343.073 145.296 342.912 145.35 343.127 145.35ZM345.376 145.35C345.537 145.35 345.912 145.35 346.126 145.35C346.341 145.35 346.18 145.296 345.805 145.296C345.43 145.296 345.216 145.35 345.376 145.35ZM355.554 145.35C355.822 145.35 356.197 145.35 356.411 145.35C356.625 145.35 356.411 145.296 355.929 145.296C355.447 145.296 355.286 145.35 355.554 145.35ZM358.447 145.35C358.607 145.35 358.982 145.35 359.196 145.35C359.411 145.35 359.25 145.296 358.875 145.296C358.5 145.296 358.232 145.35 358.447 145.35ZM368.731 145.35C368.945 145.35 369.267 145.35 369.481 145.35C369.695 145.35 369.535 145.296 369.16 145.296C368.785 145.296 368.517 145.35 368.731 145.35Z" fill="#FFFFFE"/>
<path d="M328.128 163.884V166.294L320.469 166.348C320.469 171.383 320.522 172.936 320.522 172.99C320.576 173.043 321.111 173.097 322.879 173.097H325.182L325.129 174.811L320.469 174.865C320.469 180.328 320.522 181.507 320.576 181.507C320.629 181.507 322.129 181.507 323.95 181.56C325.772 181.56 327.432 181.56 327.7 181.614H328.128C328.128 214.985 328.182 221.199 328.236 221.949C328.289 222.538 328.45 223.395 328.557 223.877C328.664 224.306 328.932 225.002 329.093 225.324C329.253 225.699 329.521 226.127 329.628 226.288C329.735 226.502 330.11 226.931 330.432 227.252C330.753 227.573 331.342 228.109 331.717 228.377C332.092 228.645 332.735 229.073 333.164 229.288C333.646 229.502 334.288 229.716 334.878 229.877C335.413 229.984 336.324 230.145 336.913 230.198C337.502 230.252 339.163 230.305 340.609 230.359C342.484 230.412 343.502 230.466 344.145 230.573C344.627 230.68 345.484 230.895 346.019 231.055C346.555 231.216 347.359 231.591 347.787 231.805C348.216 232.073 348.912 232.501 349.287 232.823C349.662 233.144 350.198 233.68 350.519 234.001C350.787 234.323 351.162 234.805 351.269 235.126C351.43 235.394 351.59 235.608 351.59 235.608C351.644 235.608 351.644 235.555 351.644 235.501C351.644 235.448 351.858 235.073 352.126 234.644C352.447 234.162 352.876 233.626 353.412 233.198C353.84 232.823 354.536 232.287 354.965 232.019C355.393 231.752 356.143 231.377 356.625 231.216C357.108 231.055 357.911 230.787 358.393 230.68C358.875 230.573 359.572 230.466 360 230.412C360.429 230.359 361.714 230.305 362.946 230.305C364.178 230.305 365.464 230.252 365.839 230.198C366.214 230.145 366.91 230.091 367.339 230.037C367.767 229.984 368.517 229.77 368.946 229.662C369.374 229.502 369.91 229.341 370.07 229.234C370.231 229.127 370.66 228.859 371.035 228.645C371.41 228.377 371.999 227.895 372.32 227.573C372.642 227.252 373.124 226.663 373.338 226.341C373.552 225.966 373.82 225.591 373.874 225.431C373.927 225.27 374.141 224.842 374.249 224.413C374.409 223.985 374.57 223.395 374.624 223.074C374.677 222.752 374.731 221.949 374.784 221.253C374.838 220.556 374.838 211.343 374.838 200.79C374.838 181.667 374.838 181.614 374.999 181.56C375.106 181.56 376.766 181.507 378.748 181.56C380.73 181.56 382.337 181.56 382.391 181.56C382.444 181.56 382.444 180.382 382.444 178.186V174.865H377.838V173.151C381.266 173.151 382.284 173.097 382.337 173.097C382.391 173.043 382.444 172.186 382.444 169.722V166.401L374.838 166.348C374.838 163.402 374.838 162.277 374.838 162.009L374.784 161.473H328.075L328.128 163.884Z" fill="#D5B048"/>
<path d="M344.252 161.527C344.412 161.527 344.68 161.527 344.894 161.527C345.055 161.527 344.948 161.473 344.573 161.473C344.252 161.473 344.091 161.473 344.252 161.527ZM374.891 163.937C374.891 164.312 374.891 164.473 374.945 164.312C374.945 164.151 374.945 163.83 374.945 163.669C374.891 163.455 374.891 163.562 374.891 163.937ZM320.415 167.847C320.415 168.222 320.415 168.383 320.468 168.169C320.468 167.955 320.468 167.633 320.468 167.473C320.468 167.312 320.415 167.473 320.415 167.847Z" fill="#FFFFFE"/>
<path d="M322.182 167.955C322.129 168.008 322.129 168.812 322.129 169.829V171.651L380.944 171.597C380.998 168.383 380.944 167.955 380.891 167.901C380.837 167.847 367.606 167.847 351.537 167.847C335.413 167.901 322.236 167.901 322.182 167.955Z" fill="#43A1D5"/>
<path d="M382.498 169.079C382.498 169.508 382.498 169.615 382.551 169.401C382.551 169.187 382.551 168.865 382.551 168.651C382.498 168.49 382.498 168.704 382.498 169.079ZM320.468 170.472C320.468 170.901 320.468 171.008 320.522 170.794C320.522 170.579 320.522 170.258 320.522 170.044C320.468 169.883 320.468 170.044 320.468 170.472ZM382.498 171.811C382.498 172.24 382.498 172.347 382.551 172.133C382.551 171.918 382.551 171.597 382.551 171.383C382.498 171.276 382.498 171.436 382.498 171.811ZM326.95 174.007V176.364L375.909 176.311V171.704L326.95 171.651V174.007ZM320.415 175.614C320.415 175.989 320.415 176.15 320.468 175.936C320.468 175.775 320.468 175.454 320.468 175.293C320.468 175.132 320.415 175.24 320.415 175.614ZM382.498 176.793C382.498 177.221 382.498 177.436 382.551 177.221C382.551 177.007 382.551 176.686 382.551 176.472C382.498 176.204 382.498 176.364 382.498 176.793Z" fill="#FFFFFE"/>
<path d="M322.182 176.418C322.129 176.471 322.129 177.275 322.129 178.293V180.114H380.944C380.998 177.168 380.944 176.471 380.891 176.418C380.837 176.364 367.606 176.364 351.537 176.364C335.413 176.364 322.236 176.418 322.182 176.418Z" fill="#43A1D5"/>
<path d="M320.415 178.132C320.415 178.507 320.415 178.614 320.468 178.453C320.468 178.239 320.468 177.918 320.468 177.757C320.468 177.596 320.415 177.757 320.415 178.132ZM382.498 179.364C382.498 179.793 382.498 179.9 382.551 179.685C382.551 179.471 382.551 179.15 382.551 178.936C382.498 178.828 382.498 178.989 382.498 179.364ZM320.468 180.757C320.468 181.132 320.468 181.292 320.522 181.078C320.522 180.864 320.522 180.543 320.522 180.328C320.468 180.168 320.468 180.382 320.468 180.757ZM321.218 181.614C321.379 181.614 321.647 181.614 321.808 181.614C321.968 181.614 321.861 181.56 321.54 181.56C321.218 181.56 321.111 181.56 321.218 181.614ZM323.736 181.614C323.95 181.614 324.272 181.614 324.432 181.614C324.593 181.614 324.432 181.56 324.057 181.56C323.682 181.56 323.522 181.56 323.736 181.614ZM326.307 181.614C326.521 181.614 326.843 181.614 327.003 181.614C327.164 181.614 327.003 181.56 326.628 181.56C326.253 181.56 326.093 181.56 326.307 181.614ZM377.73 181.614C377.945 181.614 378.266 181.614 378.427 181.614C378.587 181.614 378.427 181.56 378.052 181.56C377.677 181.56 377.516 181.56 377.73 181.614ZM380.301 181.614C380.516 181.614 380.837 181.614 380.998 181.614C381.158 181.614 380.998 181.56 380.623 181.56C380.248 181.56 380.087 181.56 380.301 181.614Z" fill="#FFFFFE"/>
<path d="M337.985 183.114C337.985 183.167 338.199 183.649 338.467 184.185C338.734 184.667 339.109 185.363 339.324 185.685C339.538 186.006 339.859 186.381 339.967 186.542C340.127 186.703 340.449 187.078 340.716 187.292C340.984 187.56 341.466 187.935 341.681 188.149C341.948 188.363 342.484 188.631 342.805 188.845C343.18 189.006 343.716 189.274 344.038 189.381C344.359 189.488 345.055 189.702 345.644 189.809C346.18 189.97 346.984 190.131 347.412 190.184C347.841 190.238 348.323 190.291 348.537 190.345C348.751 190.345 348.912 190.399 348.966 190.399C349.019 190.452 349.073 193.077 349.073 202.826V215.146C347.68 215.628 347.091 215.896 346.877 216.003C346.662 216.11 346.287 216.324 346.073 216.539C345.859 216.699 345.537 216.967 345.377 217.128C345.216 217.289 345.055 217.556 344.948 217.771C344.841 217.985 344.787 218.253 344.787 218.414C344.787 218.628 344.841 218.788 345.002 218.949C345.162 219.11 345.27 219.163 345.537 219.11C345.698 219.056 346.127 218.896 346.448 218.735C346.769 218.574 347.144 218.36 347.198 218.306C347.305 218.253 347.626 218.146 347.894 218.092C348.162 218.039 348.698 217.985 349.073 217.985C349.448 217.985 349.983 218.039 350.358 218.146C350.733 218.253 351.215 218.414 351.483 218.521C351.805 218.681 352.233 219.056 352.769 219.592C353.412 220.235 353.733 220.503 354.215 220.717C354.536 220.878 355.126 221.092 355.501 221.199C355.929 221.306 356.465 221.36 357 221.36C357.483 221.36 358.072 221.306 358.286 221.253C358.5 221.199 358.875 221.038 359.09 220.931C359.304 220.824 359.679 220.61 359.893 220.395C360.107 220.235 360.429 219.913 360.536 219.753C360.696 219.538 360.804 219.271 360.804 219.056C360.804 218.842 360.75 218.628 360.696 218.467C360.643 218.36 360.482 218.199 360.322 218.092C360.161 217.985 359.947 217.985 359.839 217.985C359.679 217.985 359.25 218.092 358.768 218.199C358.179 218.36 357.858 218.414 357.536 218.36C357.322 218.36 356.893 218.199 356.572 218.039C356.304 217.878 355.554 217.449 354.965 216.967C354.376 216.539 353.572 216.003 353.144 215.789C352.715 215.575 352.126 215.36 351.805 215.253L351.215 215.092V202.558H354.644V205.986H357.108V196.13L354.644 196.184L354.59 199.398H351.162V190.077C351.912 189.916 352.662 189.649 353.304 189.434C353.947 189.22 354.751 188.952 355.126 188.845C355.501 188.738 356.143 188.631 356.572 188.577C357.054 188.524 357.643 188.524 358.018 188.577C358.393 188.631 358.929 188.738 359.197 188.845C359.464 188.952 359.893 189.113 360.161 189.274C360.375 189.381 360.911 189.756 361.286 190.024C361.661 190.291 362.357 190.774 362.786 191.041C363.214 191.309 363.803 191.631 364.071 191.738C364.339 191.845 364.714 191.952 364.982 191.952C365.25 191.952 365.517 191.952 365.732 191.845C365.892 191.791 366.16 191.577 366.267 191.47C366.374 191.309 366.535 191.041 366.535 190.881C366.589 190.72 366.589 190.131 366.535 189.542C366.482 189.006 366.428 188.31 366.321 187.935C366.214 187.613 366.053 187.131 365.946 186.917C365.839 186.703 365.571 186.274 365.357 186.006C365.142 185.738 364.714 185.31 364.393 185.096C364.071 184.828 363.535 184.56 363.214 184.399C362.893 184.239 362.357 184.078 362.089 184.024C361.821 183.971 361.232 183.864 360.804 183.81C360.214 183.756 359.786 183.756 359.036 183.81C358.5 183.864 357.858 183.971 357.59 184.024C357.322 184.078 356.465 184.346 355.608 184.613C354.804 184.881 353.679 185.149 353.197 185.256C352.715 185.363 351.912 185.471 351.376 185.524C350.894 185.578 349.662 185.631 348.644 185.631C347.519 185.631 346.448 185.578 345.805 185.524C345.27 185.471 344.412 185.31 343.93 185.203C343.448 185.096 342.645 184.881 342.109 184.721C341.573 184.56 340.716 184.239 340.234 184.024C339.752 183.81 339.109 183.489 338.842 183.381C338.574 183.221 338.252 183.06 338.145 182.953C338.038 182.846 337.877 182.792 337.877 182.792C337.985 183.006 337.985 183.06 337.985 183.114Z" fill="#173E69"/>
<path d="M374.891 184.56C374.891 184.935 374.891 185.042 374.945 184.881C374.945 184.721 374.945 184.453 374.945 184.239C374.891 184.024 374.891 184.185 374.891 184.56Z" fill="#FFFFFE"/>
<path d="M320.897 189.381C320.79 189.595 320.468 190.292 320.254 190.934C320.04 191.577 319.772 192.488 319.665 192.863C319.558 193.291 319.451 193.827 319.397 194.041L319.29 194.523C318.969 193.613 318.701 192.97 318.486 192.595C318.272 192.166 317.897 191.684 317.737 191.47C317.522 191.256 317.362 191.095 317.308 191.095C317.308 191.095 317.201 191.363 317.147 191.684C317.094 192.113 317.094 192.541 317.201 193.72C317.254 194.523 317.415 195.38 317.469 195.541C317.522 195.755 317.629 196.13 317.629 196.398C317.683 196.666 317.737 197.094 317.79 197.362C317.844 197.63 318.004 198.112 318.058 198.434C318.165 198.755 318.379 199.505 318.54 200.041C318.701 200.63 318.915 201.165 318.969 201.326C319.022 201.487 319.236 201.915 319.451 202.344C319.665 202.772 319.933 203.308 320.093 203.469L320.361 203.844C320.201 204.915 319.986 205.772 319.772 206.468C319.558 207.111 319.344 207.968 319.236 208.29C319.129 208.665 319.076 209.093 319.022 209.254L319.129 209.575C318.701 208.504 318.486 207.968 318.326 207.7C318.165 207.433 317.897 207.004 317.683 206.736C317.469 206.468 317.254 206.254 317.201 206.254C317.147 206.254 317.094 206.415 317.04 206.683C316.987 206.897 316.987 207.54 317.04 208.075C317.094 208.611 317.147 209.361 317.201 209.736C317.254 210.111 317.362 210.754 317.469 211.182C317.576 211.611 317.683 212.093 317.683 212.254C317.683 212.414 317.897 213.057 318.058 213.7C318.272 214.343 318.54 215.307 318.754 215.842C318.915 216.378 319.236 217.128 319.451 217.503C319.665 217.878 319.933 218.36 320.093 218.628L320.361 219.003C320.254 220.021 320.201 220.717 320.254 221.253C320.308 221.788 320.308 222.431 320.361 222.645C320.361 222.86 320.468 223.342 320.468 223.663C320.522 224.038 320.576 224.413 320.576 224.52C320.576 224.627 320.576 224.734 320.522 224.734C320.468 224.734 320.308 224.574 320.147 224.306C319.986 224.092 319.558 223.663 319.236 223.342C318.915 223.02 318.594 222.752 318.594 222.752C318.594 222.752 318.486 222.699 318.433 222.645C318.379 222.592 318.165 222.431 317.897 222.324L317.469 222.11C317.469 222.592 317.522 222.913 317.576 223.074C317.629 223.235 317.79 223.663 317.951 223.984C318.111 224.306 318.219 224.574 318.219 224.627C318.219 224.627 318.486 225.163 318.861 225.806C319.183 226.449 319.504 226.984 319.558 227.038C319.611 227.091 319.879 227.52 320.201 228.002C320.468 228.484 320.79 228.859 320.79 228.859C320.843 228.859 320.897 228.913 320.897 228.966C320.897 229.02 321.058 229.287 321.218 229.502C321.379 229.716 321.7 230.091 321.861 230.305C322.022 230.52 322.29 230.787 322.343 230.894C322.45 231.002 322.879 231.484 323.361 231.966C323.843 232.448 324.272 232.876 324.379 232.93C324.486 232.984 324.968 233.412 325.343 233.894C325.771 234.376 326.361 234.912 326.736 235.18C327.057 235.448 327.486 235.662 327.593 235.769C327.753 235.823 327.86 235.93 327.86 235.983C327.86 236.037 327.914 236.09 328.021 236.09C328.128 236.144 328.235 236.197 328.343 236.251C328.45 236.305 328.664 236.465 328.878 236.626C329.092 236.787 329.36 236.894 329.414 236.894C329.521 236.894 329.575 236.947 329.575 236.947C329.575 237.001 329.789 237.108 330.057 237.215C330.325 237.322 330.485 237.483 330.485 237.483C330.485 237.537 329.842 237.537 329.146 237.537C328.396 237.537 327.646 237.537 327.325 237.644C327.003 237.697 326.789 237.804 326.736 237.912C326.682 238.019 326.628 238.072 326.628 238.126C326.628 238.126 326.682 238.233 326.789 238.34C326.843 238.447 327.003 238.554 327.111 238.608C327.218 238.662 327.432 238.715 327.646 238.769C327.807 238.822 328.128 238.876 328.289 238.929C328.45 238.983 328.718 239.036 328.825 239.036C328.932 239.036 329.307 239.09 329.575 239.197C329.896 239.304 330.325 239.358 330.539 239.358C330.753 239.358 330.967 239.411 331.021 239.465C331.021 239.519 331.235 239.572 331.449 239.572C331.664 239.572 332.039 239.626 332.306 239.626C332.574 239.679 333.003 239.733 333.271 239.733C333.538 239.786 334.449 239.84 335.306 239.84C336.163 239.894 337.181 239.894 337.609 239.84C338.038 239.786 338.413 239.786 338.467 239.786C338.52 239.786 338.681 239.733 338.841 239.733C339.002 239.679 339.377 239.679 339.645 239.626C340.02 239.572 340.127 239.626 340.181 239.679C340.234 239.733 340.341 239.786 340.448 239.84C340.556 239.84 341.198 240.054 341.841 240.215C342.484 240.376 343.073 240.59 343.127 240.643C343.18 240.697 343.234 240.751 343.18 240.804C343.127 240.858 342.966 240.965 342.752 241.072C342.538 241.179 342.109 241.393 341.788 241.554C341.466 241.715 341.038 241.983 340.823 242.09C340.609 242.197 340.234 242.518 340.02 242.679C339.806 242.893 339.538 243.161 339.431 243.322C339.324 243.482 339.27 243.643 339.324 243.643C339.377 243.697 339.913 243.697 340.556 243.697C341.198 243.697 342.109 243.697 342.591 243.643C343.073 243.59 343.823 243.429 344.252 243.322C344.68 243.215 345.537 242.893 346.126 242.679C346.716 242.465 347.198 242.304 347.198 242.358C347.198 242.411 347.144 242.411 347.144 242.465C347.091 242.465 346.823 242.786 346.555 243.107C346.287 243.482 345.805 244.125 345.484 244.554C345.055 245.197 344.948 245.411 344.948 245.679V246H346.769C346.983 245.25 347.198 244.714 347.412 244.393C347.573 244.018 347.948 243.429 348.216 243C348.483 242.572 348.912 242.036 349.18 241.715C349.448 241.393 349.769 241.126 349.93 241.072C350.09 241.018 350.465 240.965 351.108 240.965C351.751 240.965 352.126 241.018 352.287 241.072C352.394 241.126 352.769 241.447 353.036 241.715C353.304 242.036 353.733 242.572 354.001 243C354.268 243.429 354.643 244.072 354.858 244.447C355.072 244.822 355.233 245.357 355.34 245.572L355.447 246H357.268C357.268 245.518 357.215 245.25 357.107 245.089C357 244.929 356.786 244.554 356.625 244.286C356.465 244.018 356.09 243.536 355.822 243.215C355.554 242.893 355.286 242.518 355.179 242.465C355.072 242.411 355.072 242.304 355.072 242.25C355.072 242.197 355.554 242.411 356.143 242.625C356.732 242.893 357.375 243.107 357.643 243.215C357.857 243.268 358.286 243.375 358.5 243.482C358.714 243.536 359.197 243.643 359.464 243.643C359.786 243.697 360.643 243.697 361.446 243.697C362.25 243.697 362.893 243.643 362.946 243.643C363 243.59 362.946 243.482 362.839 243.322C362.785 243.215 362.518 242.893 362.303 242.679C362.089 242.465 361.875 242.25 361.821 242.25C361.768 242.25 361.553 242.143 361.339 241.983C361.125 241.822 360.589 241.554 360.161 241.34C359.732 241.126 359.304 240.858 359.197 240.804C359.036 240.697 359.036 240.643 359.089 240.59C359.143 240.536 359.357 240.483 359.518 240.429C359.679 240.376 360.107 240.268 360.375 240.215C360.643 240.108 361.232 240.001 361.714 239.84C362.41 239.679 362.625 239.626 363.107 239.733C363.428 239.786 364.178 239.84 364.767 239.84C365.357 239.894 366.481 239.84 367.231 239.786C367.981 239.733 368.945 239.679 369.428 239.626C369.856 239.572 370.606 239.465 371.035 239.411C371.463 239.358 372.32 239.197 372.856 239.09C373.445 238.983 374.034 238.822 374.249 238.769C374.463 238.715 374.945 238.501 375.32 238.394C375.748 238.233 376.016 238.072 376.016 238.019C376.016 237.965 375.695 237.804 375.32 237.697C374.784 237.537 374.302 237.483 373.284 237.43C371.945 237.376 371.945 237.376 372.213 237.215C372.374 237.162 372.963 236.787 373.499 236.465C374.034 236.144 374.516 235.823 374.57 235.769C374.623 235.715 374.838 235.555 375.052 235.448C375.266 235.34 375.695 234.965 376.07 234.644C376.445 234.323 376.873 233.841 377.088 233.626C377.302 233.412 377.57 233.091 377.784 232.984C377.998 232.876 378.534 232.341 378.962 231.859C379.444 231.377 380.034 230.734 380.248 230.466C380.462 230.198 380.837 229.77 380.998 229.502C381.159 229.287 381.426 228.859 381.587 228.645C381.748 228.43 381.962 228.163 382.016 228.109C382.069 228.055 382.176 227.895 382.23 227.788C382.283 227.681 382.444 227.413 382.605 227.145C382.765 226.877 383.087 226.341 383.355 225.913C383.569 225.484 383.837 225.056 383.89 224.949C383.944 224.842 384.158 224.413 384.319 223.984C384.48 223.61 384.694 223.127 384.747 222.913C384.801 222.699 384.855 222.431 384.801 222.324L384.747 222.056C383.944 222.538 383.569 222.806 383.408 222.967C383.248 223.127 382.926 223.449 382.658 223.717C382.391 223.984 382.069 224.359 382.016 224.467C381.908 224.627 381.801 224.681 381.801 224.681C381.801 224.681 381.801 224.306 381.855 223.877C381.908 223.449 382.016 222.913 382.016 222.645C382.016 222.377 382.069 221.735 382.123 221.253C382.176 220.717 382.123 220.021 382.069 219.646C382.016 219.003 382.016 219.003 382.176 218.735C382.283 218.574 382.391 218.414 382.391 218.414C382.391 218.36 382.551 218.092 382.765 217.771C382.98 217.449 383.301 216.7 383.515 216.217C383.73 215.682 383.944 215.093 383.944 214.932C383.997 214.718 384.158 214.128 384.319 213.593C384.48 213.057 384.694 212.307 384.747 211.879C384.801 211.45 384.962 210.861 385.015 210.486C385.069 210.111 385.176 209.629 385.23 209.361C385.283 209.093 385.283 208.343 385.337 207.7C385.337 207.058 385.283 206.415 385.283 206.361C385.23 206.308 385.176 206.254 385.122 206.254C385.069 206.308 384.855 206.522 384.64 206.79C384.426 207.058 384.212 207.379 384.105 207.486C384.051 207.593 383.783 208.129 383.569 208.665L383.408 209.575C383.248 209.04 383.14 208.558 383.033 208.129C382.926 207.7 382.819 207.218 382.765 207.004C382.712 206.79 382.605 206.361 382.444 206.04C382.283 205.665 382.123 205.076 382.069 204.647L381.962 203.897C382.391 203.308 382.712 202.719 382.98 202.183C383.248 201.648 383.569 200.898 383.676 200.523C383.783 200.148 383.997 199.505 384.158 199.023C384.265 198.541 384.48 197.844 384.587 197.469C384.694 197.094 384.855 196.452 384.908 196.023C384.962 195.595 385.069 195.059 385.122 194.791C385.176 194.523 385.23 194.095 385.283 193.773C385.337 193.452 385.39 193.184 385.39 193.131C385.39 193.077 385.39 192.648 385.337 192.166C385.283 191.684 385.23 191.202 385.23 191.202C385.176 191.149 385.015 191.256 384.801 191.47C384.64 191.684 384.372 192.006 384.212 192.22C384.105 192.434 383.89 192.756 383.783 193.023C383.676 193.238 383.515 193.72 383.408 194.041L383.194 194.63C382.926 193.345 382.712 192.595 382.551 192.059C382.391 191.524 382.176 190.774 382.016 190.399C381.855 189.97 381.694 189.542 381.587 189.434C381.48 189.327 381.426 189.167 381.373 189.167C381.319 189.167 381.212 189.274 381.105 189.488C380.998 189.649 380.837 190.131 380.676 190.559C380.516 191.041 380.301 191.845 380.141 192.809C379.98 193.613 379.873 194.416 379.819 194.523C379.766 194.63 379.712 194.738 379.712 194.738C379.712 194.738 379.444 194.309 379.177 193.72C378.962 193.184 378.694 192.702 378.694 192.648C378.641 192.648 378.534 192.434 378.373 192.166C378.212 191.952 377.998 191.631 377.891 191.524C377.784 191.416 377.623 191.256 377.57 191.256C377.462 191.202 377.409 191.256 377.409 191.524C377.409 191.684 377.462 192.273 377.516 192.809C377.57 193.345 377.73 194.47 377.837 195.327C377.998 196.184 378.105 196.934 378.159 197.041C378.212 197.148 378.32 197.523 378.373 197.844C378.427 198.166 378.587 198.701 378.694 199.023C378.802 199.344 378.909 199.773 379.016 199.987C379.069 200.201 379.23 200.576 379.284 200.737C379.391 200.898 379.605 201.326 379.766 201.755C379.926 202.13 380.248 202.665 380.409 202.987C380.569 203.254 380.73 203.576 380.73 203.629C380.73 203.683 380.73 203.737 380.784 203.737C380.837 203.737 380.891 204.165 380.891 204.701C380.944 205.611 380.944 205.719 380.73 206.415C380.569 206.843 380.355 207.7 380.248 208.343C380.141 208.986 380.034 209.629 380.034 209.79C380.034 209.95 379.98 210.057 379.98 210.057C379.926 210.057 379.766 209.736 379.605 209.415C379.444 209.04 379.23 208.558 379.123 208.343C379.016 208.129 378.855 207.754 378.694 207.593C378.534 207.379 378.266 207.058 378.105 206.843C377.891 206.629 377.677 206.468 377.623 206.468C377.516 206.468 377.516 206.576 377.57 207.004C377.623 207.325 377.677 207.968 377.73 208.504C377.784 209.04 377.837 209.629 377.891 209.843C377.945 210.057 377.998 210.486 378.052 210.807C378.105 211.129 378.266 211.825 378.373 212.307C378.48 212.789 378.587 213.325 378.641 213.432C378.641 213.539 378.694 213.753 378.748 213.807C378.802 213.914 378.909 214.235 379.016 214.557C379.123 214.878 379.177 215.2 379.177 215.253C379.177 215.307 379.23 215.414 379.284 215.414C379.337 215.414 379.391 215.468 379.391 215.521C379.391 215.575 379.498 215.95 379.659 216.271C379.819 216.592 379.98 216.967 379.98 217.074C379.98 217.182 380.301 217.664 380.569 218.146C381.105 219.003 381.105 219.056 381.159 219.592C381.159 220.074 381.105 220.181 380.837 220.556C380.676 220.771 380.409 221.199 380.248 221.413C380.087 221.628 379.659 222.324 379.337 222.913C379.016 223.502 378.694 223.984 378.641 223.984C378.587 223.984 378.534 223.449 378.534 222.806C378.48 222.163 378.427 221.628 378.427 221.574C378.373 221.52 378.32 221.36 378.266 221.145C378.212 220.931 378.105 220.556 377.998 220.342C377.891 220.128 377.784 219.913 377.73 219.913C377.677 219.913 377.623 220.021 377.623 220.128C377.57 220.235 377.516 220.61 377.409 220.931C377.302 221.253 377.141 222.003 376.98 222.592C376.82 223.181 376.659 224.038 376.659 224.413C376.605 224.788 376.552 225.27 376.498 225.538C376.445 225.752 376.391 226.556 376.338 227.306C376.284 228.163 376.284 229.127 376.338 229.93C376.391 230.734 376.498 231.537 376.605 232.073L376.82 232.93C376.284 233.466 376.07 233.733 375.963 233.841C375.802 234.001 375.695 234.055 374.998 234.108C374.57 234.162 373.659 234.269 372.963 234.376C372.267 234.483 371.57 234.591 371.356 234.644L370.981 234.698C371.302 234.43 371.517 234.216 371.677 234.108C371.838 234.001 372.159 233.68 372.427 233.412C372.695 233.144 373.07 232.769 373.177 232.609C373.284 232.448 373.499 232.126 373.606 231.966C373.713 231.805 373.766 231.591 373.82 231.484C373.82 231.377 373.82 231.323 373.766 231.323C373.766 231.323 373.231 231.537 372.588 231.859C371.945 232.126 371.356 232.394 371.195 232.501C371.035 232.555 370.499 232.823 370.017 233.091C369.481 233.358 368.945 233.626 368.785 233.733C368.624 233.841 368.249 234.055 367.928 234.216C367.606 234.43 367.124 234.698 366.856 234.912C366.589 235.073 366.267 235.34 366.106 235.394C365.946 235.501 365.517 235.769 365.142 236.09C364.767 236.358 364.125 236.947 363.696 237.376C363.268 237.804 362.785 238.287 362.678 238.447C362.571 238.608 362.357 238.822 362.25 238.822C362.196 238.822 361.714 238.715 361.286 238.501C360.857 238.34 360.482 238.179 360.429 238.179C360.375 238.179 360.482 238.019 360.589 237.912C360.696 237.804 361.018 237.429 361.232 237.108C361.5 236.787 361.768 236.305 361.928 236.037C362.089 235.769 362.196 235.34 362.25 235.18C362.303 234.965 362.303 234.805 362.25 234.805C362.196 234.751 361.607 234.912 360.911 235.126C360.214 235.34 359.304 235.555 358.929 235.715C358.5 235.823 357.804 236.037 357.322 236.197C356.84 236.358 356.036 236.626 355.608 236.84C354.965 237.162 354.643 237.376 354.054 237.965C353.626 238.394 353.144 238.929 352.929 239.197L352.554 239.679H350.09C349.555 238.983 349.019 238.394 348.59 237.965C347.894 237.269 347.68 237.108 346.983 236.787C346.555 236.572 345.805 236.305 345.377 236.197C344.948 236.09 343.984 235.769 343.234 235.555C342.484 235.34 341.52 235.073 341.145 234.965C340.77 234.858 340.395 234.805 340.395 234.805C340.395 234.805 340.341 234.858 340.341 234.965C340.341 235.073 340.395 235.34 340.502 235.608C340.609 235.876 340.716 236.197 340.77 236.358C340.823 236.465 341.145 236.947 341.466 237.376C341.788 237.804 342.109 238.179 342.163 238.179C342.216 238.179 342.216 238.233 342.163 238.287C342.109 238.34 341.734 238.501 341.252 238.662C340.77 238.822 340.395 238.983 340.288 238.983C340.234 238.983 340.073 238.876 339.913 238.769C339.806 238.662 339.645 238.447 339.591 238.34C339.538 238.233 339.377 238.019 339.163 237.912C339.002 237.804 338.841 237.697 338.841 237.644C338.841 237.59 338.627 237.322 338.306 237.055C338.038 236.787 337.609 236.465 337.449 236.305C337.235 236.197 336.913 235.93 336.699 235.769C336.485 235.608 336.27 235.448 336.163 235.394C336.056 235.34 335.842 235.18 335.681 235.073C335.52 234.965 335.145 234.698 334.878 234.537C334.61 234.376 334.235 234.162 334.074 234.055C333.86 233.948 333.271 233.626 332.735 233.305C332.199 232.984 331.61 232.716 331.449 232.662C331.289 232.609 330.646 232.287 330.057 232.019C329.467 231.752 328.878 231.537 328.825 231.537C328.771 231.537 328.718 231.537 328.718 231.591C328.718 231.591 328.771 231.752 328.825 231.912C328.878 232.073 329.146 232.448 329.414 232.769C329.682 233.091 330.057 233.519 330.325 233.733C330.592 234.001 330.86 234.216 330.967 234.269C331.074 234.323 331.289 234.43 331.449 234.591C331.664 234.751 331.717 234.858 331.664 234.858C331.61 234.858 331.449 234.912 331.342 234.912C331.235 234.912 331.021 234.858 330.807 234.805C330.592 234.751 330.217 234.644 329.896 234.644C329.575 234.591 329.146 234.537 328.878 234.43C328.61 234.376 328.021 234.269 327.539 234.216L326.682 234.162C325.879 233.358 325.664 233.091 325.664 232.984C325.664 232.93 325.718 232.716 325.771 232.501C325.825 232.341 325.932 231.644 326.039 231.002C326.146 230.305 326.2 229.341 326.2 228.645C326.2 228.002 326.146 226.931 326.093 226.395C326.039 225.806 325.932 225.216 325.932 225.056C325.879 224.895 325.825 224.681 325.825 224.52C325.825 224.359 325.771 224.038 325.718 223.717C325.664 223.395 325.557 222.913 325.45 222.645C325.343 222.377 325.289 221.895 325.236 221.681C325.182 221.413 325.075 220.931 324.968 220.61C324.861 220.288 324.754 220.021 324.7 220.074C324.647 220.074 324.486 220.396 324.379 220.771C324.272 221.145 324.111 221.52 324.057 221.628C324.004 221.735 323.95 222.324 323.897 222.913C323.843 223.556 323.789 224.038 323.789 224.092C323.736 224.092 323.575 223.824 323.415 223.556C323.254 223.235 322.932 222.645 322.665 222.27C322.45 221.895 322.075 221.36 321.861 221.092C321.647 220.824 321.486 220.556 321.379 220.449C321.325 220.342 321.272 220.021 321.272 219.699C321.272 219.217 321.325 219.11 321.7 218.521C321.915 218.146 322.343 217.396 322.611 216.807C322.879 216.217 323.093 215.682 323.093 215.628C323.093 215.575 323.093 215.468 323.147 215.468C323.2 215.414 323.254 215.2 323.361 214.932C323.468 214.664 323.629 214.075 323.789 213.486C323.95 212.95 324.111 212.254 324.164 211.986C324.218 211.718 324.379 211.022 324.432 210.486C324.539 209.95 324.593 209.361 324.593 209.2C324.593 209.04 324.647 208.825 324.647 208.718C324.7 208.611 324.754 208.129 324.754 207.54C324.807 206.79 324.754 206.522 324.7 206.522C324.647 206.522 324.432 206.736 324.164 206.951C323.897 207.165 323.682 207.593 323.575 207.808C323.468 208.022 323.307 208.29 323.254 208.397C323.2 208.504 322.986 208.932 322.825 209.361C322.665 209.79 322.504 210.111 322.45 210.111C322.397 210.111 322.343 209.79 322.29 209.361C322.236 208.932 322.129 208.397 322.075 208.183C322.022 207.968 321.968 207.54 321.915 207.272C321.861 207.004 321.754 206.576 321.593 206.254C321.379 205.719 321.379 205.611 321.433 204.701C321.486 204.165 321.54 203.737 321.54 203.737C321.54 203.737 321.647 203.576 321.754 203.415C321.861 203.201 321.968 203.094 321.968 203.094C321.968 203.094 322.182 202.719 322.45 202.237C322.665 201.755 322.932 201.219 323.04 201.058C323.147 200.898 323.361 200.255 323.522 199.666C323.736 199.076 324.004 198.112 324.111 197.577C324.272 196.987 324.432 196.237 324.486 195.862C324.539 195.487 324.7 194.577 324.807 193.827C324.914 193.077 324.968 192.273 324.968 191.952C324.968 191.577 324.914 191.416 324.861 191.416C324.807 191.416 324.647 191.577 324.432 191.738C324.272 191.899 323.95 192.381 323.736 192.702C323.522 193.077 323.2 193.613 323.093 193.988C322.932 194.363 322.772 194.684 322.718 194.791C322.665 194.898 322.611 194.898 322.557 194.791C322.504 194.738 322.45 194.309 322.397 193.934C322.343 193.559 322.236 192.916 322.182 192.595C322.129 192.273 322.022 191.845 321.968 191.631C321.915 191.416 321.754 190.934 321.593 190.559C321.433 190.131 321.218 189.702 321.165 189.595C321.111 189.488 321.004 189.381 321.004 189.381C321.165 189.006 321.058 189.167 320.897 189.381Z" fill="#D5B048"/>
<path d="M374.891 192.327C374.891 192.702 374.891 192.863 374.945 192.648C374.945 192.434 374.945 192.113 374.945 191.952C374.891 191.738 374.891 191.952 374.891 192.327Z" fill="#FFFFFE"/>
<path d="M338.627 193.452C338.627 193.505 338.092 195.059 337.502 196.934C336.913 198.808 336.378 200.576 336.27 200.79C336.217 201.005 336.11 201.38 336.003 201.594C335.949 201.808 335.36 203.522 334.771 205.451C334.181 207.379 333.592 209.2 333.485 209.575C333.378 209.95 333.217 210.432 333.11 210.754L332.949 211.289H331.182C331.182 213.539 331.235 214.235 331.235 214.235C331.289 214.235 332.735 214.235 334.449 214.235L337.61 214.182V211.343C335.36 211.289 335.36 211.289 335.413 211.129C335.413 211.021 335.574 210.379 335.735 209.736L336.003 208.557C341.52 208.557 342.216 208.557 342.27 208.665C342.27 208.718 342.43 209.307 342.591 210.004C342.752 210.7 342.859 211.236 342.859 211.289C342.859 211.289 342.323 211.343 341.734 211.343H340.663V214.182H347.198V211.343C345.323 211.343 345.323 211.343 345.269 211.129C345.269 211.021 344.52 208.343 343.662 205.129C342.805 201.915 341.948 198.916 341.788 198.326C341.627 197.791 341.359 196.827 341.198 196.184C341.038 195.541 340.77 194.684 340.663 194.309C340.556 193.88 340.449 193.505 340.395 193.452C340.341 193.345 340.074 193.345 339.538 193.345C339.056 193.398 338.681 193.398 338.627 193.452ZM362.785 193.505C362.785 193.559 362.571 194.148 362.357 194.845C362.143 195.541 361.821 196.452 361.714 196.88C361.553 197.309 361.339 198.059 361.232 198.487C361.125 198.916 360.75 199.933 360.482 200.79C360.214 201.647 359.786 202.987 359.518 203.844C359.25 204.701 358.768 206.254 358.393 207.325C358.072 208.397 357.643 209.736 357.429 210.325L357.108 211.343H355.34L355.393 214.289C355.876 214.289 357.322 214.289 358.929 214.289H361.821V211.343C360.107 211.343 359.572 211.289 359.572 211.289C359.572 211.236 359.679 210.7 359.839 210.111C360 209.522 360.107 208.932 360.107 208.825C360.107 208.718 360.161 208.611 360.321 208.611C360.429 208.611 361.821 208.611 363.482 208.611L366.428 208.665C366.857 210.379 366.964 211.021 367.017 211.129L367.071 211.343H364.767L364.821 214.128H371.356L371.41 211.343L369.481 211.289C368.678 208.504 368.303 207.004 368.035 206.201C367.767 205.397 367.553 204.433 367.446 204.058C367.339 203.683 366.964 202.344 366.642 201.058C366.267 199.773 365.892 198.326 365.785 197.898C365.678 197.469 365.41 196.612 365.25 196.023C365.089 195.434 364.875 194.737 364.821 194.523C364.767 194.309 364.66 193.934 364.607 193.773L364.553 193.452C363.053 193.398 362.839 193.398 362.785 193.505Z" fill="#173E69"/>
<path d="M374.891 194.845C374.891 195.22 374.891 195.38 374.945 195.166C374.945 195.005 374.945 194.738 374.945 194.523C374.891 194.363 374.891 194.47 374.891 194.845Z" fill="#FFFFFE"/>
<path d="M363.589 198.058C363.589 198.112 363.482 198.38 363.375 198.701C363.268 199.023 363 199.987 362.785 200.79C362.571 201.594 362.25 202.558 362.143 202.933C362.036 203.308 361.768 204.111 361.607 204.754C361.393 205.397 361.286 205.933 361.286 205.933C361.286 205.933 362.303 205.986 363.535 205.986C364.767 205.986 365.785 205.933 365.785 205.933C365.785 205.879 365.357 204.111 364.821 201.969C364.285 199.826 363.857 198.058 363.803 198.058C363.642 198.005 363.589 198.058 363.589 198.058ZM339.324 198.273C339.324 198.38 339.163 198.808 339.002 199.344C338.842 199.826 338.627 200.63 338.467 201.058C338.359 201.487 337.931 202.772 337.609 203.897C337.288 205.022 337.02 205.933 337.02 205.986C337.02 206.04 338.038 206.04 339.27 206.04H341.52C341.466 205.665 341.038 203.897 340.502 201.862C340.02 199.826 339.538 198.166 339.484 198.166C339.431 198.112 339.377 198.166 339.324 198.273Z" fill="#D5B048"/>
<path d="M374.891 202.612C374.891 202.987 374.891 203.147 374.945 202.933C374.945 202.719 374.945 202.397 374.945 202.237C374.891 202.076 374.891 202.237 374.891 202.612ZM374.891 205.129C374.891 205.504 374.891 205.611 374.945 205.451C374.945 205.29 374.945 205.022 374.945 204.808C374.891 204.647 374.891 204.808 374.891 205.129ZM374.891 212.896C374.891 213.271 374.891 213.432 374.945 213.218C374.945 213.003 374.945 212.682 374.945 212.521C374.891 212.361 374.891 212.521 374.891 212.896ZM374.891 215.414C374.891 215.789 374.891 215.896 374.945 215.735C374.945 215.575 374.945 215.307 374.945 215.092C374.891 214.932 374.891 215.092 374.891 215.414Z" fill="#FFFFFE"/>
<path d="M331.874 155.826L333.311 149.942L328.493 145.985L334.858 145.462L337.333 139.913L339.809 145.462L346.174 145.985L341.356 149.942L342.792 155.826L337.333 152.706L331.874 155.826Z" fill="#D5B048"/>
<path d="M360.164 155.826L361.601 149.942L356.783 145.985L363.148 145.462L365.623 139.913L368.099 145.462L374.464 145.985L369.646 149.942L371.082 155.826L365.623 152.706L360.164 155.826Z" fill="#D5B048"/>
<path d="M346.903 139.913L348.34 134.029L343.522 130.072L349.887 129.549L352.362 124L354.838 129.549L361.203 130.072L356.385 134.029L357.821 139.913L352.362 136.793L346.903 139.913Z" fill="#D5B048"/>
<path fill-rule="evenodd" clip-rule="evenodd" d="M175 224L149.233 179L135.227 187.041L156.242 224H175ZM126.023 224L117.734 209.385L104 217.571L107.489 224M131.887 224H150.516L133.537 194.163L119.593 202.3L131.887 224Z" fill="#1D1E1B"/>
</svg>
