<svg width="375" height="616" viewBox="0 0 375 616" fill="none" xmlns="http://www.w3.org/2000/svg">
<rect x="106" y="1.77008" width="57" height="614.23" fill="white"/>
<rect x="212" y="1.77008" width="57" height="614.23" fill="white"/>
<rect x="318" y="1.77008" width="57" height="614.23" fill="white"/>
<rect y="1.77008" width="57" height="614.23" fill="white"/>
<rect x="269" width="49" height="616" fill="#B1D4E5"/>
<rect x="163" width="49" height="616" fill="#B1D4E5"/>
<rect x="57.0001" width="49" height="616" fill="#B1D4E5"/>
<path d="M252.739 120.023C252.924 120.023 253.202 120.023 253.341 120.023C253.479 120.023 253.341 119.977 253.017 119.977C252.693 120.023 252.554 120.023 252.739 120.023ZM254.729 120.023C254.914 120.023 255.192 120.023 255.33 120.023C255.469 120.023 255.33 119.977 255.007 119.977C254.683 119.977 254.544 120.023 254.729 120.023ZM261.624 120.023C261.809 120.023 262.087 120.023 262.226 120.023C262.364 120.023 262.226 119.977 261.902 119.977C261.578 119.977 261.439 120.023 261.624 120.023ZM263.568 120.023C263.706 120.023 264.03 120.023 264.215 120.023C264.401 120.023 264.262 119.977 263.938 119.977C263.614 119.977 263.429 120.023 263.568 120.023ZM272.36 120.023C272.591 120.023 272.915 120.023 273.1 120.023C273.286 120.023 273.1 119.977 272.684 119.977C272.268 119.977 272.129 120.023 272.36 120.023ZM274.859 120.023C274.998 120.023 275.322 120.023 275.507 120.023C275.692 120.023 275.553 119.977 275.229 119.977C274.905 119.977 274.674 120.023 274.859 120.023ZM283.744 120.023C283.929 120.023 284.207 120.023 284.392 120.023C284.577 120.023 284.438 119.977 284.114 119.977C283.79 119.977 283.559 120.023 283.744 120.023Z" fill="#FFFFFE"/>
<path d="M248.667 136.034V138.117L242.049 138.163C242.049 142.513 242.096 143.855 242.096 143.901C242.142 143.948 242.605 143.994 244.132 143.994H246.122L246.075 145.475L242.049 145.521C242.049 150.241 242.096 151.259 242.142 151.259C242.188 151.259 243.484 151.259 245.057 151.306C246.631 151.306 248.065 151.306 248.297 151.352H248.667C248.667 180.182 248.713 185.55 248.759 186.198C248.806 186.707 248.945 187.447 249.037 187.864C249.13 188.234 249.361 188.836 249.5 189.113C249.639 189.437 249.87 189.807 249.963 189.946C250.055 190.131 250.379 190.501 250.657 190.779C250.934 191.057 251.444 191.52 251.767 191.751C252.091 191.982 252.647 192.353 253.017 192.538C253.433 192.723 253.989 192.908 254.498 193.047C254.96 193.139 255.747 193.278 256.256 193.324C256.765 193.371 258.2 193.417 259.449 193.463C261.069 193.509 261.948 193.556 262.504 193.648C262.92 193.741 263.66 193.926 264.123 194.065C264.586 194.204 265.28 194.527 265.65 194.713C266.02 194.944 266.622 195.314 266.946 195.592C267.27 195.869 267.733 196.332 268.01 196.61C268.242 196.888 268.566 197.304 268.658 197.582C268.797 197.813 268.936 197.998 268.936 197.998C268.982 197.998 268.982 197.952 268.982 197.906C268.982 197.859 269.167 197.535 269.399 197.165C269.676 196.749 270.047 196.286 270.509 195.916C270.879 195.592 271.481 195.129 271.851 194.898C272.221 194.666 272.869 194.342 273.286 194.204C273.702 194.065 274.396 193.833 274.813 193.741C275.229 193.648 275.831 193.556 276.201 193.509C276.571 193.463 277.682 193.417 278.746 193.417C279.811 193.417 280.921 193.371 281.245 193.324C281.569 193.278 282.171 193.232 282.541 193.185C282.911 193.139 283.559 192.954 283.929 192.862C284.3 192.723 284.762 192.584 284.901 192.491C285.04 192.399 285.41 192.167 285.734 191.982C286.058 191.751 286.567 191.334 286.845 191.057C287.122 190.779 287.539 190.27 287.724 189.992C287.909 189.668 288.14 189.345 288.187 189.206C288.233 189.067 288.418 188.697 288.511 188.326C288.65 187.956 288.788 187.447 288.835 187.17C288.881 186.892 288.927 186.198 288.973 185.596C289.02 184.995 289.02 177.035 289.02 167.919C289.02 151.398 289.02 151.352 289.159 151.306C289.251 151.306 290.686 151.259 292.398 151.306C294.11 151.306 295.498 151.306 295.545 151.306C295.591 151.306 295.591 150.288 295.591 148.39V145.521H291.611V144.04C294.573 144.04 295.452 143.994 295.498 143.994C295.545 143.948 295.591 143.207 295.591 141.079V138.209L289.02 138.163C289.02 135.618 289.02 134.646 289.02 134.415L288.973 133.952H248.621L248.667 136.034Z" fill="#D5B048"/>
<path d="M262.596 133.998C262.735 133.998 262.966 133.998 263.151 133.998C263.29 133.998 263.197 133.952 262.874 133.952C262.596 133.952 262.457 133.952 262.596 133.998ZM289.066 136.081C289.066 136.405 289.066 136.543 289.112 136.405C289.112 136.266 289.112 135.988 289.112 135.849C289.066 135.664 289.066 135.757 289.066 136.081ZM242.003 139.459C242.003 139.783 242.003 139.922 242.049 139.737C242.049 139.551 242.049 139.274 242.049 139.135C242.049 138.996 242.003 139.135 242.003 139.459Z" fill="#FFFFFE"/>
<path d="M243.53 139.551C243.484 139.598 243.484 140.292 243.484 141.171V142.744L294.295 142.698C294.342 139.922 294.295 139.551 294.249 139.505C294.203 139.459 282.773 139.459 268.89 139.459C254.961 139.505 243.577 139.505 243.53 139.551Z" fill="#43A1D5"/>
<path d="M295.637 140.523C295.637 140.893 295.637 140.986 295.683 140.801C295.683 140.616 295.683 140.338 295.683 140.153C295.637 140.014 295.637 140.199 295.637 140.523ZM242.049 141.726C242.049 142.096 242.049 142.189 242.096 142.004C242.096 141.819 242.096 141.541 242.096 141.356C242.049 141.217 242.049 141.356 242.049 141.726ZM295.637 142.883C295.637 143.253 295.637 143.346 295.683 143.161C295.683 142.976 295.683 142.698 295.683 142.513C295.637 142.42 295.637 142.559 295.637 142.883ZM247.649 144.781V146.817L289.945 146.77V142.791L247.649 142.744V144.781ZM242.003 146.169C242.003 146.493 242.003 146.632 242.049 146.446C242.049 146.308 242.049 146.03 242.049 145.891C242.049 145.752 242.003 145.845 242.003 146.169ZM295.637 147.187C295.637 147.557 295.637 147.742 295.683 147.557C295.683 147.372 295.683 147.094 295.683 146.909C295.637 146.678 295.637 146.817 295.637 147.187Z" fill="#FFFFFE"/>
<path d="M243.53 146.863C243.484 146.909 243.484 147.603 243.484 148.483V150.056H294.295C294.342 147.511 294.295 146.909 294.249 146.863C294.203 146.817 282.773 146.817 268.89 146.817C254.961 146.817 243.577 146.863 243.53 146.863Z" fill="#43A1D5"/>
<path d="M242.003 148.344C242.003 148.668 242.003 148.76 242.049 148.621C242.049 148.436 242.049 148.159 242.049 148.02C242.049 147.881 242.003 148.02 242.003 148.344ZM295.637 149.408C295.637 149.778 295.637 149.871 295.683 149.686C295.683 149.501 295.683 149.223 295.683 149.038C295.637 148.945 295.637 149.084 295.637 149.408ZM242.049 150.611C242.049 150.935 242.049 151.074 242.096 150.889C242.096 150.704 242.096 150.426 242.096 150.241C242.049 150.102 242.049 150.287 242.049 150.611ZM242.697 151.352C242.836 151.352 243.067 151.352 243.206 151.352C243.345 151.352 243.252 151.305 242.975 151.305C242.697 151.305 242.605 151.305 242.697 151.352ZM244.872 151.352C245.057 151.352 245.335 151.352 245.474 151.352C245.613 151.352 245.474 151.305 245.15 151.305C244.826 151.305 244.687 151.305 244.872 151.352ZM247.093 151.352C247.278 151.352 247.556 151.352 247.695 151.352C247.834 151.352 247.695 151.305 247.371 151.305C247.047 151.305 246.908 151.305 247.093 151.352ZM291.518 151.352C291.704 151.352 291.981 151.352 292.12 151.352C292.259 151.352 292.12 151.305 291.796 151.305C291.472 151.305 291.333 151.305 291.518 151.352ZM293.74 151.352C293.925 151.352 294.202 151.352 294.341 151.352C294.48 151.352 294.341 151.305 294.017 151.305C293.693 151.305 293.555 151.305 293.74 151.352Z" fill="#FFFFFE"/>
<path d="M257.181 152.647C257.181 152.694 257.367 153.11 257.598 153.573C257.829 153.989 258.153 154.591 258.338 154.869C258.523 155.146 258.801 155.47 258.894 155.609C259.033 155.748 259.31 156.072 259.542 156.257C259.773 156.488 260.189 156.812 260.375 156.997C260.606 157.182 261.069 157.414 261.346 157.599C261.67 157.738 262.133 157.969 262.411 158.062C262.688 158.154 263.29 158.339 263.799 158.432C264.262 158.571 264.956 158.709 265.326 158.756C265.696 158.802 266.113 158.848 266.298 158.895C266.483 158.895 266.622 158.941 266.668 158.941C266.714 158.987 266.761 161.255 266.761 169.677V180.32C265.557 180.737 265.048 180.968 264.863 181.061C264.678 181.153 264.354 181.338 264.169 181.524C263.984 181.662 263.706 181.894 263.568 182.033C263.429 182.171 263.29 182.403 263.197 182.588C263.105 182.773 263.059 183.004 263.059 183.143C263.059 183.328 263.105 183.467 263.244 183.606C263.382 183.745 263.475 183.791 263.706 183.745C263.845 183.699 264.215 183.56 264.493 183.421C264.771 183.282 265.095 183.097 265.141 183.051C265.234 183.004 265.511 182.912 265.743 182.866C265.974 182.819 266.437 182.773 266.761 182.773C267.085 182.773 267.547 182.819 267.871 182.912C268.195 183.004 268.612 183.143 268.843 183.236C269.121 183.375 269.491 183.699 269.954 184.161C270.509 184.717 270.787 184.948 271.203 185.133C271.481 185.272 271.99 185.457 272.314 185.55C272.684 185.642 273.147 185.688 273.61 185.688C274.026 185.688 274.535 185.642 274.72 185.596C274.905 185.55 275.229 185.411 275.414 185.318C275.599 185.226 275.923 185.041 276.108 184.855C276.294 184.717 276.571 184.439 276.664 184.3C276.803 184.115 276.895 183.884 276.895 183.699C276.895 183.513 276.849 183.328 276.803 183.19C276.756 183.097 276.617 182.958 276.479 182.866C276.34 182.773 276.155 182.773 276.062 182.773C275.923 182.773 275.553 182.866 275.137 182.958C274.628 183.097 274.35 183.143 274.072 183.097C273.887 183.097 273.517 182.958 273.239 182.819C273.008 182.68 272.36 182.31 271.851 181.894C271.342 181.524 270.648 181.061 270.278 180.876C269.907 180.691 269.398 180.506 269.121 180.413L268.612 180.274V169.446H271.573V172.407H273.702V163.892L271.573 163.939L271.527 166.715H268.565V158.663C269.213 158.524 269.861 158.293 270.416 158.108C270.972 157.923 271.666 157.691 271.99 157.599C272.314 157.506 272.869 157.414 273.239 157.367C273.656 157.321 274.165 157.321 274.489 157.367C274.813 157.414 275.275 157.506 275.507 157.599C275.738 157.691 276.108 157.83 276.34 157.969C276.525 158.062 276.988 158.386 277.312 158.617C277.636 158.848 278.237 159.265 278.607 159.496C278.978 159.728 279.487 160.005 279.718 160.098C279.949 160.19 280.273 160.283 280.505 160.283C280.736 160.283 280.967 160.283 281.153 160.19C281.291 160.144 281.523 159.959 281.615 159.866C281.708 159.728 281.847 159.496 281.847 159.357C281.893 159.218 281.893 158.709 281.847 158.2C281.8 157.738 281.754 157.136 281.662 156.812C281.569 156.534 281.43 156.118 281.338 155.933C281.245 155.748 281.014 155.378 280.829 155.146C280.643 154.915 280.273 154.545 279.996 154.36C279.718 154.128 279.255 153.897 278.978 153.758C278.7 153.619 278.237 153.48 278.006 153.434C277.774 153.388 277.265 153.295 276.895 153.249C276.386 153.203 276.016 153.203 275.368 153.249C274.905 153.295 274.35 153.388 274.119 153.434C273.887 153.48 273.147 153.712 272.406 153.943C271.712 154.174 270.74 154.406 270.324 154.498C269.907 154.591 269.213 154.683 268.751 154.73C268.334 154.776 267.27 154.822 266.39 154.822C265.419 154.822 264.493 154.776 263.938 154.73C263.475 154.683 262.735 154.545 262.318 154.452C261.902 154.36 261.208 154.174 260.745 154.036C260.282 153.897 259.542 153.619 259.125 153.434C258.709 153.249 258.153 152.971 257.922 152.879C257.691 152.74 257.413 152.601 257.32 152.508C257.228 152.416 257.089 152.37 257.089 152.37C257.181 152.555 257.181 152.601 257.181 152.647Z" fill="#173E69"/>
<path d="M289.066 153.897C289.066 154.221 289.066 154.313 289.112 154.174C289.112 154.036 289.112 153.804 289.112 153.619C289.066 153.434 289.066 153.573 289.066 153.897Z" fill="#FFFFFE"/>
<path d="M242.419 158.062C242.327 158.247 242.049 158.848 241.864 159.404C241.679 159.959 241.448 160.746 241.355 161.07C241.263 161.44 241.17 161.903 241.124 162.088L241.031 162.504C240.754 161.717 240.522 161.162 240.337 160.838C240.152 160.468 239.828 160.051 239.689 159.866C239.504 159.681 239.365 159.542 239.319 159.542C239.319 159.542 239.226 159.774 239.18 160.051C239.134 160.422 239.134 160.792 239.226 161.81C239.273 162.504 239.412 163.245 239.458 163.383C239.504 163.568 239.597 163.892 239.597 164.124C239.643 164.355 239.689 164.725 239.735 164.957C239.782 165.188 239.921 165.605 239.967 165.882C240.059 166.16 240.244 166.808 240.383 167.271C240.522 167.78 240.707 168.242 240.754 168.381C240.8 168.52 240.985 168.89 241.17 169.26C241.355 169.631 241.587 170.093 241.725 170.232L241.957 170.556C241.818 171.482 241.633 172.222 241.448 172.824C241.263 173.379 241.077 174.119 240.985 174.397C240.892 174.721 240.846 175.091 240.8 175.23L240.892 175.508C240.522 174.582 240.337 174.119 240.198 173.888C240.059 173.657 239.828 173.286 239.643 173.055C239.458 172.824 239.273 172.639 239.226 172.639C239.18 172.639 239.134 172.777 239.088 173.009C239.041 173.194 239.041 173.749 239.088 174.212C239.134 174.675 239.18 175.323 239.226 175.647C239.273 175.97 239.365 176.526 239.458 176.896C239.55 177.266 239.643 177.683 239.643 177.822C239.643 177.96 239.828 178.516 239.967 179.071C240.152 179.626 240.383 180.459 240.568 180.922C240.707 181.385 240.985 182.033 241.17 182.357C241.355 182.681 241.587 183.097 241.725 183.328L241.957 183.652C241.864 184.532 241.818 185.133 241.864 185.596C241.91 186.059 241.91 186.614 241.957 186.799C241.957 186.984 242.049 187.401 242.049 187.678C242.096 188.002 242.142 188.326 242.142 188.419C242.142 188.511 242.142 188.604 242.096 188.604C242.049 188.604 241.91 188.465 241.772 188.234C241.633 188.049 241.263 187.678 240.985 187.401C240.707 187.123 240.43 186.892 240.43 186.892C240.43 186.892 240.337 186.845 240.291 186.799C240.244 186.753 240.059 186.614 239.828 186.521L239.458 186.336C239.458 186.753 239.504 187.03 239.55 187.169C239.597 187.308 239.735 187.678 239.874 187.956C240.013 188.234 240.106 188.465 240.106 188.511C240.106 188.511 240.337 188.974 240.661 189.529C240.939 190.085 241.216 190.547 241.263 190.594C241.309 190.64 241.54 191.01 241.818 191.427C242.049 191.843 242.327 192.167 242.327 192.167C242.373 192.167 242.419 192.213 242.419 192.26C242.419 192.306 242.558 192.537 242.697 192.722C242.836 192.908 243.114 193.231 243.252 193.417C243.391 193.602 243.623 193.833 243.669 193.926C243.761 194.018 244.132 194.435 244.548 194.851C244.965 195.268 245.335 195.638 245.427 195.684C245.52 195.73 245.936 196.101 246.26 196.517C246.631 196.934 247.14 197.396 247.464 197.628C247.741 197.859 248.111 198.044 248.204 198.137C248.343 198.183 248.435 198.276 248.435 198.322C248.435 198.368 248.482 198.414 248.574 198.414C248.667 198.461 248.759 198.507 248.852 198.553C248.944 198.6 249.13 198.738 249.315 198.877C249.5 199.016 249.731 199.109 249.777 199.109C249.87 199.109 249.916 199.155 249.916 199.155C249.916 199.201 250.101 199.294 250.333 199.386C250.564 199.479 250.703 199.618 250.703 199.618C250.703 199.664 250.148 199.664 249.546 199.664C248.898 199.664 248.25 199.664 247.973 199.756C247.695 199.803 247.51 199.895 247.464 199.988C247.417 200.08 247.371 200.127 247.371 200.173C247.371 200.173 247.417 200.265 247.51 200.358C247.556 200.451 247.695 200.543 247.788 200.589C247.88 200.636 248.065 200.682 248.25 200.728C248.389 200.774 248.667 200.821 248.806 200.867C248.944 200.913 249.176 200.96 249.268 200.96C249.361 200.96 249.685 201.006 249.916 201.098C250.194 201.191 250.564 201.237 250.749 201.237C250.934 201.237 251.119 201.284 251.166 201.33C251.166 201.376 251.351 201.422 251.536 201.422C251.721 201.422 252.045 201.469 252.276 201.469C252.508 201.515 252.878 201.561 253.109 201.561C253.341 201.607 254.127 201.654 254.868 201.654C255.608 201.7 256.487 201.7 256.858 201.654C257.228 201.607 257.552 201.607 257.598 201.607C257.644 201.607 257.783 201.561 257.922 201.561C258.061 201.515 258.385 201.515 258.616 201.469C258.94 201.422 259.033 201.469 259.079 201.515C259.125 201.561 259.218 201.607 259.31 201.654C259.403 201.654 259.958 201.839 260.513 201.978C261.069 202.117 261.578 202.302 261.624 202.348C261.67 202.394 261.717 202.44 261.67 202.487C261.624 202.533 261.485 202.626 261.3 202.718C261.115 202.811 260.745 202.996 260.467 203.135C260.19 203.273 259.819 203.505 259.634 203.597C259.449 203.69 259.125 203.968 258.94 204.106C258.755 204.291 258.524 204.523 258.431 204.662C258.338 204.801 258.292 204.939 258.338 204.939C258.385 204.986 258.848 204.986 259.403 204.986C259.958 204.986 260.745 204.986 261.161 204.939C261.578 204.893 262.226 204.754 262.596 204.662C262.966 204.569 263.706 204.291 264.216 204.106C264.725 203.921 265.141 203.782 265.141 203.829C265.141 203.875 265.095 203.875 265.095 203.921C265.049 203.921 264.817 204.199 264.586 204.477C264.354 204.801 263.938 205.356 263.66 205.726C263.29 206.281 263.197 206.466 263.197 206.698V206.975H264.771C264.956 206.328 265.141 205.865 265.326 205.587C265.465 205.263 265.789 204.754 266.02 204.384C266.252 204.014 266.622 203.551 266.853 203.273C267.085 202.996 267.362 202.764 267.501 202.718C267.64 202.672 267.964 202.626 268.519 202.626C269.075 202.626 269.398 202.672 269.537 202.718C269.63 202.764 269.954 203.042 270.185 203.273C270.417 203.551 270.787 204.014 271.018 204.384C271.25 204.754 271.573 205.31 271.759 205.633C271.944 205.957 272.082 206.42 272.175 206.605L272.268 206.975H273.841C273.841 206.559 273.795 206.328 273.702 206.189C273.61 206.05 273.424 205.726 273.286 205.495C273.147 205.263 272.823 204.847 272.592 204.569C272.36 204.291 272.129 203.968 272.036 203.921C271.944 203.875 271.944 203.782 271.944 203.736C271.944 203.69 272.36 203.875 272.869 204.06C273.378 204.291 273.934 204.477 274.165 204.569C274.35 204.615 274.72 204.708 274.905 204.801C275.09 204.847 275.507 204.939 275.738 204.939C276.016 204.986 276.756 204.986 277.451 204.986C278.145 204.986 278.7 204.939 278.746 204.939C278.793 204.893 278.746 204.801 278.654 204.662C278.607 204.569 278.376 204.291 278.191 204.106C278.006 203.921 277.821 203.736 277.774 203.736C277.728 203.736 277.543 203.644 277.358 203.505C277.173 203.366 276.71 203.135 276.34 202.949C275.97 202.764 275.599 202.533 275.507 202.487C275.368 202.394 275.368 202.348 275.414 202.302C275.461 202.255 275.646 202.209 275.785 202.163C275.923 202.117 276.294 202.024 276.525 201.978C276.756 201.885 277.265 201.793 277.682 201.654C278.283 201.515 278.469 201.469 278.885 201.561C279.163 201.607 279.811 201.654 280.32 201.654C280.829 201.7 281.8 201.654 282.448 201.607C283.096 201.561 283.929 201.515 284.346 201.469C284.716 201.422 285.364 201.33 285.734 201.284C286.104 201.237 286.845 201.098 287.307 201.006C287.816 200.913 288.325 200.774 288.511 200.728C288.696 200.682 289.112 200.497 289.436 200.404C289.806 200.265 290.038 200.127 290.038 200.08C290.038 200.034 289.76 199.895 289.436 199.803C288.973 199.664 288.557 199.618 287.678 199.571C286.521 199.525 286.521 199.525 286.752 199.386C286.891 199.34 287.4 199.016 287.863 198.738C288.325 198.461 288.742 198.183 288.788 198.137C288.834 198.09 289.02 197.952 289.205 197.859C289.39 197.767 289.76 197.443 290.084 197.165C290.408 196.887 290.778 196.471 290.963 196.286C291.148 196.101 291.38 195.823 291.565 195.73C291.75 195.638 292.213 195.175 292.583 194.759C292.999 194.342 293.508 193.787 293.693 193.555C293.879 193.324 294.202 192.954 294.341 192.722C294.48 192.537 294.712 192.167 294.85 191.982C294.989 191.797 295.174 191.566 295.221 191.519C295.267 191.473 295.359 191.334 295.406 191.242C295.452 191.149 295.591 190.918 295.73 190.686C295.868 190.455 296.146 189.992 296.377 189.622C296.563 189.252 296.794 188.882 296.84 188.789C296.886 188.696 297.072 188.326 297.21 187.956C297.349 187.632 297.534 187.216 297.581 187.03C297.627 186.845 297.673 186.614 297.627 186.521L297.581 186.29C296.886 186.707 296.563 186.938 296.424 187.077C296.285 187.216 296.007 187.493 295.776 187.725C295.544 187.956 295.267 188.28 295.221 188.372C295.128 188.511 295.035 188.558 295.035 188.558C295.035 188.558 295.035 188.234 295.082 187.863C295.128 187.493 295.221 187.03 295.221 186.799C295.221 186.568 295.267 186.012 295.313 185.596C295.359 185.133 295.313 184.532 295.267 184.208C295.221 183.652 295.221 183.652 295.359 183.421C295.452 183.282 295.544 183.143 295.544 183.143C295.544 183.097 295.683 182.866 295.868 182.588C296.054 182.31 296.331 181.662 296.516 181.246C296.701 180.783 296.886 180.274 296.886 180.135C296.933 179.95 297.072 179.441 297.21 178.978C297.349 178.516 297.534 177.868 297.581 177.498C297.627 177.127 297.766 176.618 297.812 176.294C297.858 175.97 297.951 175.554 297.997 175.323C298.043 175.091 298.043 174.443 298.09 173.888C298.09 173.333 298.043 172.777 298.043 172.731C297.997 172.685 297.951 172.639 297.905 172.639C297.858 172.685 297.673 172.87 297.488 173.101C297.303 173.333 297.118 173.61 297.025 173.703C296.979 173.796 296.748 174.258 296.563 174.721L296.424 175.508C296.285 175.045 296.192 174.628 296.1 174.258C296.007 173.888 295.915 173.472 295.868 173.286C295.822 173.101 295.73 172.731 295.591 172.453C295.452 172.13 295.313 171.621 295.267 171.25L295.174 170.602C295.544 170.093 295.822 169.584 296.054 169.122C296.285 168.659 296.563 168.011 296.655 167.687C296.748 167.363 296.933 166.808 297.072 166.391C297.164 165.975 297.349 165.373 297.442 165.049C297.534 164.725 297.673 164.17 297.719 163.8C297.766 163.43 297.858 162.967 297.905 162.736C297.951 162.504 297.997 162.134 298.043 161.856C298.09 161.579 298.136 161.347 298.136 161.301C298.136 161.255 298.136 160.884 298.09 160.468C298.043 160.051 297.997 159.635 297.997 159.635C297.951 159.589 297.812 159.681 297.627 159.866C297.488 160.051 297.257 160.329 297.118 160.514C297.025 160.699 296.84 160.977 296.748 161.208C296.655 161.394 296.516 161.81 296.424 162.088L296.239 162.597C296.007 161.486 295.822 160.838 295.683 160.375C295.544 159.913 295.359 159.265 295.221 158.941C295.082 158.571 294.943 158.2 294.85 158.108C294.758 158.015 294.712 157.877 294.665 157.877C294.619 157.877 294.526 157.969 294.434 158.154C294.341 158.293 294.202 158.709 294.064 159.08C293.925 159.496 293.74 160.19 293.601 161.023C293.462 161.717 293.37 162.412 293.323 162.504C293.277 162.597 293.231 162.689 293.231 162.689C293.231 162.689 292.999 162.319 292.768 161.81C292.583 161.347 292.351 160.931 292.351 160.884C292.305 160.884 292.213 160.699 292.074 160.468C291.935 160.283 291.75 160.005 291.657 159.913C291.565 159.82 291.426 159.681 291.38 159.681C291.287 159.635 291.241 159.681 291.241 159.913C291.241 160.051 291.287 160.561 291.333 161.023C291.38 161.486 291.518 162.458 291.611 163.198C291.75 163.939 291.842 164.587 291.889 164.679C291.935 164.772 292.027 165.096 292.074 165.373C292.12 165.651 292.259 166.114 292.351 166.391C292.444 166.669 292.537 167.039 292.629 167.224C292.675 167.409 292.814 167.733 292.86 167.872C292.953 168.011 293.138 168.381 293.277 168.751C293.416 169.075 293.693 169.538 293.832 169.816C293.971 170.047 294.11 170.325 294.11 170.371C294.11 170.417 294.11 170.464 294.156 170.464C294.202 170.464 294.249 170.834 294.249 171.297C294.295 172.083 294.295 172.176 294.11 172.777C293.971 173.148 293.786 173.888 293.693 174.443C293.601 174.999 293.508 175.554 293.508 175.693C293.508 175.832 293.462 175.924 293.462 175.924C293.416 175.924 293.277 175.647 293.138 175.369C292.999 175.045 292.814 174.628 292.722 174.443C292.629 174.258 292.49 173.934 292.351 173.796C292.213 173.61 291.981 173.333 291.842 173.148C291.657 172.963 291.472 172.824 291.426 172.824C291.333 172.824 291.333 172.916 291.38 173.286C291.426 173.564 291.472 174.119 291.518 174.582C291.565 175.045 291.611 175.554 291.657 175.739C291.704 175.924 291.75 176.294 291.796 176.572C291.842 176.85 291.981 177.451 292.074 177.868C292.166 178.284 292.259 178.747 292.305 178.84C292.305 178.932 292.351 179.117 292.398 179.164C292.444 179.256 292.537 179.534 292.629 179.811C292.722 180.089 292.768 180.367 292.768 180.413C292.768 180.459 292.814 180.552 292.86 180.552C292.907 180.552 292.953 180.598 292.953 180.644C292.953 180.691 293.046 181.015 293.184 181.292C293.323 181.57 293.462 181.894 293.462 181.986C293.462 182.079 293.74 182.495 293.971 182.912C294.434 183.652 294.434 183.699 294.48 184.161C294.48 184.578 294.434 184.67 294.202 184.994C294.064 185.179 293.832 185.55 293.693 185.735C293.555 185.92 293.184 186.521 292.907 187.03C292.629 187.54 292.351 187.956 292.305 187.956C292.259 187.956 292.213 187.493 292.213 186.938C292.166 186.383 292.12 185.92 292.12 185.874C292.074 185.827 292.027 185.688 291.981 185.503C291.935 185.318 291.842 184.994 291.75 184.809C291.657 184.624 291.565 184.439 291.518 184.439C291.472 184.439 291.426 184.532 291.426 184.624C291.38 184.717 291.333 185.041 291.241 185.318C291.148 185.596 291.009 186.244 290.871 186.753C290.732 187.262 290.593 188.002 290.593 188.326C290.547 188.65 290.5 189.067 290.454 189.298C290.408 189.483 290.362 190.177 290.315 190.825C290.269 191.566 290.269 192.399 290.315 193.093C290.362 193.787 290.454 194.481 290.547 194.944L290.732 195.684C290.269 196.147 290.084 196.378 289.991 196.471C289.853 196.61 289.76 196.656 289.158 196.702C288.788 196.748 288.001 196.841 287.4 196.934C286.798 197.026 286.197 197.119 286.012 197.165L285.688 197.211C285.965 196.98 286.15 196.795 286.289 196.702C286.428 196.61 286.706 196.332 286.937 196.101C287.168 195.869 287.492 195.545 287.585 195.406C287.678 195.268 287.863 194.99 287.955 194.851C288.048 194.712 288.094 194.527 288.14 194.435C288.14 194.342 288.14 194.296 288.094 194.296C288.094 194.296 287.631 194.481 287.076 194.759C286.521 194.99 286.012 195.221 285.873 195.314C285.734 195.36 285.271 195.592 284.855 195.823C284.392 196.054 283.929 196.286 283.79 196.378C283.652 196.471 283.328 196.656 283.05 196.795C282.772 196.98 282.356 197.211 282.124 197.396C281.893 197.535 281.615 197.767 281.477 197.813C281.338 197.905 280.967 198.137 280.644 198.414C280.32 198.646 279.764 199.155 279.394 199.525C279.024 199.895 278.607 200.312 278.515 200.451C278.422 200.589 278.237 200.774 278.145 200.774C278.098 200.774 277.682 200.682 277.312 200.497C276.941 200.358 276.618 200.219 276.571 200.219C276.525 200.219 276.618 200.08 276.71 199.988C276.803 199.895 277.08 199.571 277.265 199.294C277.497 199.016 277.728 198.6 277.867 198.368C278.006 198.137 278.098 197.767 278.145 197.628C278.191 197.443 278.191 197.304 278.145 197.304C278.098 197.258 277.589 197.396 276.988 197.581C276.386 197.767 275.599 197.952 275.276 198.09C274.905 198.183 274.304 198.368 273.887 198.507C273.471 198.646 272.777 198.877 272.406 199.062C271.851 199.34 271.573 199.525 271.064 200.034C270.694 200.404 270.278 200.867 270.093 201.098L269.769 201.515H267.64C267.177 200.913 266.714 200.404 266.344 200.034C265.743 199.432 265.558 199.294 264.956 199.016C264.586 198.831 263.938 198.6 263.568 198.507C263.197 198.414 262.364 198.137 261.717 197.952C261.069 197.767 260.236 197.535 259.912 197.443C259.588 197.35 259.264 197.304 259.264 197.304C259.264 197.304 259.218 197.35 259.218 197.443C259.218 197.535 259.264 197.767 259.357 197.998C259.449 198.229 259.542 198.507 259.588 198.646C259.634 198.738 259.912 199.155 260.19 199.525C260.467 199.895 260.745 200.219 260.791 200.219C260.837 200.219 260.837 200.265 260.791 200.312C260.745 200.358 260.421 200.497 260.004 200.636C259.588 200.774 259.264 200.913 259.171 200.913C259.125 200.913 258.986 200.821 258.848 200.728C258.755 200.636 258.616 200.451 258.57 200.358C258.524 200.265 258.385 200.08 258.2 199.988C258.061 199.895 257.922 199.803 257.922 199.756C257.922 199.71 257.737 199.479 257.459 199.247C257.228 199.016 256.858 198.738 256.719 198.6C256.534 198.507 256.256 198.276 256.071 198.137C255.886 197.998 255.701 197.859 255.608 197.813C255.516 197.767 255.331 197.628 255.192 197.535C255.053 197.443 254.729 197.211 254.498 197.072C254.266 196.934 253.942 196.748 253.803 196.656C253.618 196.563 253.109 196.286 252.646 196.008C252.184 195.73 251.675 195.499 251.536 195.453C251.397 195.406 250.842 195.129 250.333 194.897C249.824 194.666 249.315 194.481 249.268 194.481C249.222 194.481 249.176 194.481 249.176 194.527C249.176 194.527 249.222 194.666 249.268 194.805C249.315 194.944 249.546 195.268 249.777 195.545C250.009 195.823 250.333 196.193 250.564 196.378C250.795 196.61 251.027 196.795 251.119 196.841C251.212 196.887 251.397 196.98 251.536 197.119C251.721 197.258 251.767 197.35 251.721 197.35C251.675 197.35 251.536 197.396 251.443 197.396C251.351 197.396 251.166 197.35 250.981 197.304C250.795 197.258 250.472 197.165 250.194 197.165C249.916 197.119 249.546 197.072 249.315 196.98C249.083 196.934 248.574 196.841 248.158 196.795L247.417 196.748C246.723 196.054 246.538 195.823 246.538 195.73C246.538 195.684 246.584 195.499 246.631 195.314C246.677 195.175 246.769 194.573 246.862 194.018C246.955 193.417 247.001 192.584 247.001 191.982C247.001 191.427 246.955 190.501 246.908 190.038C246.862 189.529 246.769 189.02 246.769 188.882C246.723 188.743 246.677 188.558 246.677 188.419C246.677 188.28 246.631 188.002 246.584 187.725C246.538 187.447 246.446 187.03 246.353 186.799C246.26 186.568 246.214 186.151 246.168 185.966C246.122 185.735 246.029 185.318 245.936 185.041C245.844 184.763 245.751 184.532 245.705 184.578C245.659 184.578 245.52 184.856 245.427 185.179C245.335 185.503 245.196 185.827 245.15 185.92C245.103 186.012 245.057 186.521 245.011 187.03C244.965 187.586 244.918 188.002 244.918 188.049C244.872 188.049 244.733 187.817 244.594 187.586C244.456 187.308 244.178 186.799 243.947 186.475C243.761 186.151 243.438 185.688 243.252 185.457C243.067 185.226 242.929 184.994 242.836 184.902C242.79 184.809 242.743 184.532 242.743 184.254C242.743 183.837 242.79 183.745 243.114 183.236C243.299 182.912 243.669 182.264 243.9 181.755C244.132 181.246 244.317 180.783 244.317 180.737C244.317 180.691 244.317 180.598 244.363 180.598C244.409 180.552 244.456 180.367 244.548 180.135C244.641 179.904 244.78 179.395 244.918 178.886C245.057 178.423 245.196 177.822 245.242 177.59C245.289 177.359 245.427 176.757 245.474 176.294C245.566 175.832 245.613 175.323 245.613 175.184C245.613 175.045 245.659 174.86 245.659 174.767C245.705 174.675 245.751 174.258 245.751 173.749C245.798 173.101 245.751 172.87 245.705 172.87C245.659 172.87 245.474 173.055 245.242 173.24C245.011 173.425 244.826 173.796 244.733 173.981C244.641 174.166 244.502 174.397 244.456 174.49C244.409 174.582 244.224 174.952 244.085 175.323C243.947 175.693 243.808 175.97 243.761 175.97C243.715 175.97 243.669 175.693 243.623 175.323C243.576 174.952 243.484 174.49 243.438 174.305C243.391 174.119 243.345 173.749 243.299 173.518C243.252 173.286 243.16 172.916 243.021 172.639C242.836 172.176 242.836 172.083 242.882 171.297C242.929 170.834 242.975 170.464 242.975 170.464C242.975 170.464 243.067 170.325 243.16 170.186C243.252 170.001 243.345 169.908 243.345 169.908C243.345 169.908 243.53 169.584 243.761 169.168C243.947 168.751 244.178 168.289 244.271 168.15C244.363 168.011 244.548 167.456 244.687 166.947C244.872 166.438 245.103 165.605 245.196 165.142C245.335 164.633 245.474 163.985 245.52 163.661C245.566 163.337 245.705 162.55 245.798 161.903C245.89 161.255 245.936 160.561 245.936 160.283C245.936 159.959 245.89 159.82 245.844 159.82C245.798 159.82 245.659 159.959 245.474 160.098C245.335 160.237 245.057 160.653 244.872 160.931C244.687 161.255 244.409 161.717 244.317 162.041C244.178 162.365 244.039 162.643 243.993 162.736C243.947 162.828 243.9 162.828 243.854 162.736C243.808 162.689 243.761 162.319 243.715 161.995C243.669 161.671 243.576 161.116 243.53 160.838C243.484 160.561 243.391 160.19 243.345 160.005C243.299 159.82 243.16 159.404 243.021 159.08C242.882 158.709 242.697 158.339 242.651 158.247C242.605 158.154 242.512 158.062 242.512 158.062C242.651 157.738 242.558 157.877 242.419 158.062Z" fill="#D5B048"/>
<path d="M289.066 160.607C289.066 160.931 289.066 161.07 289.112 160.885C289.112 160.7 289.112 160.422 289.112 160.283C289.066 160.098 289.066 160.283 289.066 160.607Z" fill="#FFFFFE"/>
<path d="M257.737 161.579C257.737 161.625 257.274 162.967 256.765 164.587C256.256 166.206 255.793 167.733 255.701 167.918C255.654 168.104 255.562 168.428 255.469 168.613C255.423 168.798 254.914 170.279 254.405 171.944C253.896 173.61 253.387 175.184 253.294 175.508C253.202 175.832 253.063 176.248 252.97 176.526L252.832 176.989H251.304C251.304 178.932 251.351 179.534 251.351 179.534C251.397 179.534 252.646 179.534 254.127 179.534L256.858 179.488V177.035C254.914 176.989 254.914 176.989 254.96 176.85C254.96 176.757 255.099 176.202 255.238 175.647L255.469 174.629C260.236 174.629 260.837 174.629 260.884 174.721C260.884 174.767 261.022 175.276 261.161 175.878C261.3 176.48 261.393 176.942 261.393 176.989C261.393 176.989 260.93 177.035 260.421 177.035H259.495V179.488H265.141V177.035C263.521 177.035 263.521 177.035 263.475 176.85C263.475 176.757 262.827 174.443 262.087 171.667C261.346 168.89 260.606 166.299 260.467 165.79C260.328 165.327 260.097 164.494 259.958 163.939C259.819 163.383 259.588 162.643 259.495 162.319C259.403 161.949 259.31 161.625 259.264 161.579C259.218 161.486 258.986 161.486 258.524 161.486C258.107 161.532 257.783 161.532 257.737 161.579ZM278.607 161.625C278.607 161.671 278.422 162.18 278.237 162.782C278.052 163.383 277.774 164.17 277.682 164.54C277.543 164.911 277.358 165.558 277.265 165.929C277.173 166.299 276.849 167.178 276.618 167.918C276.386 168.659 276.016 169.816 275.785 170.556C275.553 171.297 275.137 172.639 274.813 173.564C274.535 174.49 274.165 175.647 273.98 176.156L273.702 177.035H272.175L272.221 179.58C272.638 179.58 273.887 179.58 275.276 179.58H277.774V177.035C276.294 177.035 275.831 176.989 275.831 176.989C275.831 176.942 275.923 176.48 276.062 175.971C276.201 175.461 276.294 174.952 276.294 174.86C276.294 174.767 276.34 174.675 276.479 174.675C276.571 174.675 277.774 174.675 279.209 174.675L281.754 174.721C282.124 176.202 282.217 176.757 282.263 176.85L282.309 177.035H280.32L280.366 179.441H286.012L286.058 177.035L284.392 176.989C283.698 174.582 283.374 173.286 283.142 172.592C282.911 171.898 282.726 171.065 282.633 170.741C282.541 170.417 282.217 169.26 281.939 168.15C281.615 167.039 281.291 165.79 281.199 165.42C281.106 165.049 280.875 164.309 280.736 163.8C280.597 163.291 280.412 162.689 280.366 162.504C280.32 162.319 280.227 161.995 280.181 161.856L280.135 161.579C278.839 161.532 278.654 161.532 278.607 161.625Z" fill="#173E69"/>
<path d="M289.066 162.782C289.066 163.106 289.066 163.245 289.112 163.06C289.112 162.921 289.112 162.689 289.112 162.504C289.066 162.365 289.066 162.458 289.066 162.782Z" fill="#FFFFFE"/>
<path d="M279.302 165.558C279.302 165.605 279.209 165.836 279.117 166.114C279.024 166.391 278.793 167.224 278.608 167.918C278.423 168.613 278.145 169.446 278.052 169.77C277.96 170.093 277.728 170.788 277.59 171.343C277.404 171.898 277.312 172.361 277.312 172.361C277.312 172.361 278.191 172.407 279.255 172.407C280.32 172.407 281.199 172.361 281.199 172.361C281.199 172.315 280.829 170.788 280.366 168.937C279.903 167.086 279.533 165.558 279.487 165.558C279.348 165.512 279.302 165.558 279.302 165.558ZM258.339 165.744C258.339 165.836 258.2 166.206 258.061 166.669C257.922 167.086 257.737 167.78 257.598 168.15C257.506 168.52 257.135 169.631 256.858 170.603C256.58 171.574 256.349 172.361 256.349 172.407C256.349 172.454 257.228 172.454 258.292 172.454H260.236C260.19 172.13 259.82 170.603 259.357 168.844C258.94 167.086 258.524 165.651 258.477 165.651C258.431 165.605 258.385 165.651 258.339 165.744Z" fill="#D5B048"/>
<path d="M289.066 169.492C289.066 169.816 289.066 169.955 289.112 169.769C289.112 169.584 289.112 169.307 289.112 169.168C289.066 169.029 289.066 169.168 289.066 169.492ZM289.066 171.667C289.066 171.991 289.066 172.083 289.112 171.944C289.112 171.806 289.112 171.574 289.112 171.389C289.066 171.25 289.066 171.389 289.066 171.667ZM289.066 178.377C289.066 178.701 289.066 178.84 289.112 178.654C289.112 178.469 289.112 178.192 289.112 178.053C289.066 177.914 289.066 178.053 289.066 178.377ZM289.066 180.552C289.066 180.876 289.066 180.968 289.112 180.829C289.112 180.691 289.112 180.459 289.112 180.274C289.066 180.135 289.066 180.274 289.066 180.552Z" fill="#FFFFFE"/>
<path d="M251.903 129.073L253.144 123.991L248.982 120.572L254.481 120.12L256.619 115.326L258.758 120.12L264.257 120.572L260.094 123.991L261.335 129.073L256.619 126.378L251.903 129.073Z" fill="#D5B048"/>
<path d="M276.343 129.073L277.584 123.991L273.422 120.572L278.921 120.12L281.059 115.326L283.198 120.12L288.697 120.572L284.534 123.991L285.775 129.073L281.059 126.378L276.343 129.073Z" fill="#D5B048"/>
<path d="M264.887 115.326L266.128 110.243L261.965 106.824L267.464 106.372L269.603 101.578L271.741 106.372L277.24 106.824L273.078 110.243L274.319 115.326L269.603 112.631L264.887 115.326Z" fill="#D5B048"/>
<path fill-rule="evenodd" clip-rule="evenodd" d="M133.656 174.898L113.977 140.529L103.279 146.671L119.33 174.898H133.656ZM96.2496 174.898L89.9192 163.736L79.4298 169.988L82.0943 174.898M100.728 174.898H114.956L101.988 152.11L91.3391 158.325L100.728 174.898Z" fill="#1D1E1B"/>
</svg>
