<svg width="148" height="146" viewBox="0 0 148 146" fill="none" xmlns="http://www.w3.org/2000/svg">
<path d="M70.6396 74.335L100.578 139.054C100.578 139.054 101.103 140.307 101.943 139.994C102.784 139.576 102.259 138.323 102.259 138.323L77.3626 71.5166M76.6273 96.7779C76.2071 106.59 82.2998 112.018 81.5645 120.787C80.7241 129.659 85.5562 134.566 86.8168 138.01C87.8672 141.455 85.5562 143.438 86.5016 143.96C87.5521 144.482 89.653 141.768 89.0228 136.862C88.2874 132.06 84.6108 130.599 85.4512 119.847C86.2916 109.095 81.0392 106.59 82.2998 96.8823" fill="#F6B40E"/>
<path d="M70.6396 74.335L100.578 139.054C100.578 139.054 101.103 140.307 101.943 139.994C102.784 139.576 102.259 138.323 102.259 138.323L77.3626 71.5166M76.6273 96.7779C76.2071 106.59 82.2998 112.018 81.5645 120.787C80.7241 129.659 85.5562 134.566 86.8168 138.01C87.8672 141.455 85.5562 143.438 86.5016 143.96C87.5521 144.482 89.653 141.768 89.0228 136.862C88.2874 132.06 84.6108 130.599 85.4512 119.847C86.2916 109.095 81.0392 106.59 82.2998 96.8823" stroke="#85340A" stroke-width="0.109046"/>
<path d="M70.3692 72.9529L73.1049 144.13C73.1049 144.13 73.1078 145.487 74.0046 145.517C74.9421 145.451 74.9393 144.094 74.9393 144.094L77.666 72.9053M67.2585 95.9643C63.0917 104.87 66.6299 112.201 62.5738 120.023C58.3804 127.901 60.9552 134.271 60.7936 137.932C60.4373 141.514 57.5383 142.468 58.211 143.31C58.9802 144.192 61.9667 142.483 63.2735 137.711C64.4437 132.995 61.6097 130.246 66.5266 120.633C71.4434 111.019 67.5556 106.708 72.4589 98.2177" fill="#F6B40E"/>
<path d="M70.3692 72.9529L73.1049 144.13C73.1049 144.13 73.1078 145.487 74.0046 145.517C74.9421 145.451 74.9393 144.094 74.9393 144.094L77.666 72.9053M67.2585 95.9643C63.0917 104.87 66.6299 112.201 62.5738 120.023C58.3804 127.901 60.9552 134.271 60.7936 137.932C60.4373 141.514 57.5383 142.468 58.211 143.31C58.9802 144.192 61.9667 142.483 63.2735 137.711C64.4437 132.995 61.6097 130.246 66.5266 120.633C71.4434 111.019 67.5556 106.708 72.4589 98.2177" stroke="#85340A" stroke-width="0.109046"/>
<path d="M70.6578 71.5762L45.7742 138.376C45.7742 138.376 45.2541 139.631 46.0713 140C46.9625 140.295 47.4826 139.04 47.4826 139.04L77.4169 74.3072M58.9214 91.6528C51.6421 98.2961 52.0877 106.415 45.3286 112.099C38.4204 117.782 38.3464 124.647 36.7866 127.968C35.0781 131.142 32.0324 130.921 32.3294 131.954C32.7011 133.062 36.1179 132.619 39.1631 128.706C42.0603 124.795 40.5005 121.178 48.7455 114.166C56.9905 107.154 55.059 101.691 62.8584 95.7125" fill="#F6B40E"/>
<path d="M70.6578 71.5762L45.7742 138.376C45.7742 138.376 45.2541 139.631 46.0713 140C46.9625 140.295 47.4826 139.04 47.4826 139.04L77.4169 74.3072M58.9214 91.6528C51.6421 98.2961 52.0877 106.415 45.3286 112.099C38.4204 117.782 38.3464 124.647 36.7866 127.968C35.0781 131.142 32.0324 130.921 32.3294 131.954C32.7011 133.062 36.1179 132.619 39.1631 128.706C42.0603 124.795 40.5005 121.178 48.7455 114.166C56.9905 107.154 55.059 101.691 62.8584 95.7125" stroke="#85340A" stroke-width="0.109046"/>
<path d="M71.4545 70.4084L22.7401 122.661C22.7401 122.661 21.7766 123.622 22.3894 124.274C23.0993 124.886 24.0628 123.924 24.0628 123.924L76.6475 75.5024M52.8799 84.4943C43.5963 87.8635 40.8815 95.5342 32.4478 98.2147C23.877 100.839 21.165 107.152 18.4445 109.628C15.6438 111.91 12.9154 110.548 12.7923 111.615C12.7087 112.779 16.0363 113.67 20.3562 111.214C24.5394 108.701 24.4909 104.767 34.8086 101.423C45.1263 98.0803 45.4459 92.2999 54.9537 89.7419" fill="#F6B40E"/>
<path d="M71.4545 70.4084L22.7401 122.661C22.7401 122.661 21.7766 123.622 22.3894 124.274C23.0993 124.886 24.0628 123.924 24.0628 123.924L76.6475 75.5024M52.8799 84.4943C43.5963 87.8635 40.8815 95.5342 32.4478 98.2147C23.877 100.839 21.165 107.152 18.4445 109.628C15.6438 111.91 12.9154 110.548 12.7923 111.615C12.7087 112.779 16.0363 113.67 20.3562 111.214C24.5394 108.701 24.4909 104.767 34.8086 101.423C45.1263 98.0803 45.4459 92.2999 54.9537 89.7419" stroke="#85340A" stroke-width="0.109046"/>
<path d="M78.5181 98.4502C79.0433 107.845 84.4007 112.02 83.3502 120.684C85.6612 113.899 80.0937 108.576 80.4089 98.5546M72.3203 73.7108L92.8044 118.179L75.6818 72.3538" fill="#85340A"/>
<path d="M68.3621 98.2248C65.2293 107.104 68.5704 112.999 64.2635 120.604C69.0115 115.214 65.9183 108.178 70.0688 99.04M72.1629 73.0117L73.9628 121.885L75.7916 73.0361" fill="#85340A"/>
<path d="M59.0722 94.1616C52.7582 101.174 53.5754 107.891 46.6677 113.279C53.1298 110.105 52.9812 102.428 60.335 95.564M72.2939 72.3132L55.1352 118.15L75.6362 73.7156" fill="#85340A"/>
<path d="M52.0463 86.8718C43.5127 90.949 41.6805 97.4658 33.2238 99.8167C40.416 99.3419 43.2353 92.1931 52.6726 88.648M72.6754 71.7148L39.1707 107.538L75.2231 74.2814" fill="#85340A"/>
<path d="M72.6333 69.6392L7.50459 99.3891C7.50459 99.3891 6.24403 99.911 6.55917 100.746C6.97935 101.581 8.23991 101.059 8.23991 101.059L75.4696 76.3198M50.0483 75.5892C40.174 75.1716 34.7116 81.226 25.8877 80.4953C16.9587 79.6602 12.0216 84.4619 8.55503 85.7146C5.0885 86.7584 3.09263 84.4619 2.56739 85.4014C2.04216 86.4453 4.77337 88.533 9.71055 87.9067C14.5427 87.176 16.0133 83.5225 26.8331 84.3576C37.6529 85.1926 40.174 79.9733 49.9433 81.226" fill="#F6B40E"/>
<path d="M72.6333 69.6392L7.50459 99.3891C7.50459 99.3891 6.24403 99.911 6.55917 100.746C6.97935 101.581 8.23991 101.059 8.23991 101.059L75.4696 76.3198M50.0483 75.5892C40.174 75.1716 34.7116 81.226 25.8877 80.4953C16.9587 79.6602 12.0216 84.4619 8.55503 85.7146C5.0885 86.7584 3.09263 84.4619 2.56739 85.4014C2.04216 86.4453 4.77337 88.533 9.71055 87.9067C14.5427 87.176 16.0133 83.5225 26.8331 84.3576C37.6529 85.1926 40.174 79.9733 49.9433 81.226" stroke="#85340A" stroke-width="0.109046"/>
<path d="M74.0241 69.3742L2.3961 72.0927C2.3961 72.0927 1.0305 72.0955 1 72.9868C1.06664 73.9183 2.43225 73.9155 2.43225 73.9155L74.0716 76.625M50.8671 66.2829C41.9048 62.142 34.5267 65.6582 26.6562 61.6275C18.7285 57.4606 12.3179 60.0192 8.63281 59.8586C5.02791 59.5046 4.06839 56.6238 3.22124 57.2921C2.33399 58.0568 4.0537 61.0244 8.8559 62.323C13.6016 63.4854 16.3673 60.6693 26.0423 65.5556C35.7167 70.4413 40.0558 66.5784 48.599 71.4505" fill="#F6B40E"/>
<path d="M74.0241 69.3742L2.3961 72.0927C2.3961 72.0927 1.0305 72.0955 1 72.9868C1.06664 73.9183 2.43225 73.9155 2.43225 73.9155L74.0716 76.625M50.8671 66.2829C41.9048 62.142 34.5267 65.6582 26.6562 61.6275C18.7285 57.4606 12.3179 60.0192 8.63281 59.8586C5.02791 59.5046 4.06839 56.6238 3.22124 57.2921C2.33399 58.0568 4.0537 61.0244 8.8559 62.323C13.6016 63.4854 16.3673 60.6693 26.0423 65.5556C35.7167 70.4413 40.0558 66.5784 48.599 71.4505" stroke="#85340A" stroke-width="0.109046"/>
<path d="M75.4119 69.6578L8.189 44.9308C8.189 44.9308 6.92619 44.414 6.55514 45.2258C6.25807 46.112 7.52089 46.6282 7.52089 46.6282L72.6632 76.3748M55.208 57.9955C48.5228 50.7617 40.3518 51.2048 34.6324 44.4878C28.9131 37.6233 22.0048 37.5495 18.6626 35.9996C15.4683 34.3016 15.6914 31.2756 14.6516 31.5706C13.5373 31.9399 13.9829 35.3353 17.9199 38.3614C21.8563 41.2399 25.4962 39.69 32.553 47.8831C39.6091 56.0763 45.106 54.1571 51.1225 61.9077" fill="#F6B40E"/>
<path d="M75.4119 69.6578L8.189 44.9308C8.189 44.9308 6.92619 44.414 6.55514 45.2258C6.25807 46.112 7.52089 46.6282 7.52089 46.6282L72.6632 76.3748M55.208 57.9955C48.5228 50.7617 40.3518 51.2048 34.6324 44.4878C28.9131 37.6233 22.0048 37.5495 18.6626 35.9996C15.4683 34.3016 15.6914 31.2756 14.6516 31.5706C13.5373 31.9399 13.9829 35.3353 17.9199 38.3614C21.8563 41.2399 25.4962 39.69 32.553 47.8831C39.6091 56.0763 45.106 54.1571 51.1225 61.9077" stroke="#85340A" stroke-width="0.109046"/>
<path d="M76.5796 70.4478L23.9965 22.04C23.9965 22.04 23.0291 21.0824 22.3734 21.6911C21.7578 22.3969 22.7253 23.3539 22.7253 23.3539L71.4538 75.608M62.4051 51.9902C59.0142 42.7651 51.295 40.067 48.5977 31.6866C45.9574 23.1696 39.6033 20.4743 37.1121 17.7716C34.8152 14.9883 36.1864 12.2771 35.1122 12.1546C33.9404 12.0718 33.0446 15.3781 35.5166 19.6709C38.0451 23.8276 42.0046 23.7794 45.369 34.0325C48.7327 44.2855 54.5503 44.6027 57.124 54.0507" fill="#F6B40E"/>
<path d="M76.5796 70.4478L23.9965 22.04C23.9965 22.04 23.0291 21.0824 22.3734 21.6911C21.7578 22.3969 22.7253 23.3539 22.7253 23.3539L71.4538 75.608M62.4051 51.9902C59.0142 42.7651 51.295 40.067 48.5977 31.6866C45.9574 23.1696 39.6033 20.4743 37.1121 17.7716C34.8152 14.9883 36.1864 12.2771 35.1122 12.1546C33.9404 12.0718 33.0446 15.3781 35.5166 19.6709C38.0451 23.8276 42.0046 23.7794 45.369 34.0325C48.7327 44.2855 54.5503 44.6027 57.124 54.0507" stroke="#85340A" stroke-width="0.109046"/>
<path d="M48.3645 77.4688C38.9103 77.9907 34.7085 83.3144 25.9896 82.2705C32.8176 84.567 38.175 79.0346 48.2594 79.3477M73.2605 71.3101L28.5107 91.6652L74.6261 74.6504" fill="#85340A"/>
<path d="M48.593 67.3803C39.6573 64.2674 33.725 67.5879 26.0719 63.3081C31.4959 68.0259 38.5758 64.9522 47.7724 69.076M73.9657 71.1574L24.7831 72.9462L73.9408 74.7633" fill="#85340A"/>
<path d="M52.6784 58.1405C45.6222 51.8666 38.8626 52.6785 33.4402 45.814C36.6346 52.2354 44.3594 52.0879 51.2671 59.3955M74.6653 71.279L28.5381 54.2284L73.2539 74.6006" fill="#85340A"/>
<path d="M60.0204 51.1645C55.9173 42.6849 49.3598 40.8644 46.9935 32.4602C47.4713 39.6078 54.6652 42.4092 58.2334 51.7875M75.2735 71.6638L39.224 38.3705L72.6909 74.1958" fill="#85340A"/>
<path d="M77.3616 71.6208L47.4234 6.9017C47.4234 6.9017 46.8982 5.64908 46.0578 5.96223C45.2174 6.37978 45.7427 7.63242 45.7427 7.63242L70.6387 74.4392M71.374 49.1779C71.7942 39.3656 65.7015 33.9376 66.4368 25.1692C67.2772 16.2964 62.445 11.3903 61.1845 7.94557C60.134 4.50084 62.4451 2.51751 61.4996 1.99558C60.4492 1.47365 58.3482 4.18769 58.9785 9.09381C59.7138 13.8956 63.3905 15.3569 62.5501 26.1087C61.7097 36.8604 66.962 39.3657 65.7015 49.0735" fill="#F6B40E"/>
<path d="M77.3616 71.6208L47.4234 6.9017C47.4234 6.9017 46.8982 5.64908 46.0578 5.96223C45.2174 6.37978 45.7427 7.63242 45.7427 7.63242L70.6387 74.4392M71.374 49.1779C71.7942 39.3656 65.7015 33.9376 66.4368 25.1692C67.2772 16.2964 62.445 11.3903 61.1845 7.94557C60.134 4.50084 62.4451 2.51751 61.4996 1.99558C60.4492 1.47365 58.3482 4.18769 58.9785 9.09381C59.7138 13.8956 63.3905 15.3569 62.5501 26.1087C61.7097 36.8604 66.962 39.3657 65.7015 49.0735" stroke="#85340A" stroke-width="0.109046"/>
<path d="M77.625 73.0059L74.8893 1.82848C74.8893 1.82848 74.8865 0.471474 73.9896 0.441406C73.0521 0.507782 73.0549 1.8648 73.0549 1.8648L70.3282 73.0536M80.7357 49.9945C84.9026 41.0888 81.3643 33.7575 85.4205 25.9359C89.6138 18.0582 87.0391 11.6878 87.2006 8.02581C87.557 4.44436 90.4559 3.49071 89.7833 2.64882C89.0141 1.76721 86.0276 3.47539 84.7207 8.2482C83.5505 12.9637 86.3845 15.7123 81.4677 25.326C76.5508 34.9397 80.4387 39.2513 75.5354 47.7412" fill="#F6B40E"/>
<path d="M77.625 73.0059L74.8893 1.82848C74.8893 1.82848 74.8865 0.471474 73.9896 0.441406C73.0521 0.507782 73.0549 1.8648 73.0549 1.8648L70.3282 73.0536M80.7357 49.9945C84.9026 41.0888 81.3643 33.7575 85.4205 25.9359C89.6138 18.0582 87.0391 11.6878 87.2006 8.02581C87.557 4.44436 90.4559 3.49071 89.7833 2.64882C89.0141 1.76721 86.0276 3.47539 84.7207 8.2482C83.5505 12.9637 86.3845 15.7123 81.4677 25.326C76.5508 34.9397 80.4387 39.2513 75.5354 47.7412" stroke="#85340A" stroke-width="0.109046"/>
<path d="M77.3374 74.3826L102.221 7.58319C102.221 7.58319 102.741 6.32829 101.924 5.95897C101.033 5.66397 100.513 6.91887 100.513 6.91887L70.5782 71.6516M89.0738 54.306C96.353 47.6627 95.9074 39.5433 102.667 33.86C109.575 28.1767 109.649 21.3122 111.209 17.9906C112.917 14.8164 115.963 15.0377 115.666 14.0046C115.294 12.8972 111.877 13.3403 108.832 17.2525C105.935 21.1641 107.495 24.7813 99.2497 31.7933C91.0047 38.8053 92.9362 44.2674 85.1368 50.2463" fill="#F6B40E"/>
<path d="M77.3374 74.3826L102.221 7.58319C102.221 7.58319 102.741 6.32829 101.924 5.95897C101.033 5.66397 100.513 6.91887 100.513 6.91887L70.5782 71.6516M89.0738 54.306C96.353 47.6627 95.9074 39.5433 102.667 33.86C109.575 28.1767 109.649 21.3122 111.209 17.9906C112.917 14.8164 115.963 15.0377 115.666 14.0046C115.294 12.8972 111.877 13.3403 108.832 17.2525C105.935 21.1641 107.495 24.7813 99.2497 31.7933C91.0047 38.8053 92.9362 44.2674 85.1368 50.2463" stroke="#85340A" stroke-width="0.109046"/>
<path d="M76.5472 75.5452L125.261 23.2928C125.261 23.2928 126.225 22.3312 125.612 21.6799C124.902 21.0678 123.939 22.0294 123.939 22.0294L71.3541 70.4518M95.1211 61.4594C104.405 58.0901 107.12 50.4195 115.554 47.7389C124.125 45.1151 126.837 38.8014 129.557 36.3263C132.357 34.0434 135.086 35.4061 135.209 34.3384C135.292 33.1742 131.965 32.2841 127.645 34.74C123.462 37.2527 123.511 41.1876 113.193 44.5302C102.875 47.8733 102.556 53.6543 93.0479 56.2117" fill="#F6B40E"/>
<path d="M76.5472 75.5452L125.261 23.2928C125.261 23.2928 126.225 22.3312 125.612 21.6799C124.902 21.0678 123.939 22.0294 123.939 22.0294L71.3541 70.4518M95.1211 61.4594C104.405 58.0901 107.12 50.4195 115.554 47.7389C124.125 45.1151 126.837 38.8014 129.557 36.3263C132.357 34.0434 135.086 35.4061 135.209 34.3384C135.292 33.1742 131.965 32.2841 127.645 34.74C123.462 37.2527 123.511 41.1876 113.193 44.5302C102.875 47.8733 102.556 53.6543 93.0479 56.2117" stroke="#85340A" stroke-width="0.109046"/>
<path d="M69.4817 47.512C68.9565 38.1173 63.5991 33.9418 64.6496 25.2778C62.3386 32.0629 67.9055 37.3866 67.5903 47.4076M75.6795 72.2514L55.1954 27.7831L72.3174 73.6084" fill="#85340A"/>
<path d="M79.6336 47.7328C82.7664 38.8532 79.4252 32.9583 83.7321 25.3534C78.9841 30.7435 82.0773 37.7787 77.9269 46.917M75.8327 72.9459L74.0328 24.073L72.2041 72.9209" fill="#85340A"/>
<path d="M88.9295 51.7957C95.243 44.7837 94.4264 38.0667 101.334 32.6784C94.872 35.8525 95.0205 43.5288 87.6667 50.3933M75.7078 73.6441L92.8665 27.8069L72.3655 72.2417" fill="#85340A"/>
<path d="M95.9488 59.084C104.482 55.0067 106.314 48.4905 114.771 46.1396C107.579 46.6144 104.76 53.7626 95.3225 57.3083M75.3196 74.2415L108.824 38.4185L72.772 71.6749" fill="#85340A"/>
<path d="M75.3663 76.316L140.495 46.5661C140.495 46.5661 141.756 46.0442 141.44 45.2091C141.02 44.374 139.76 44.8959 139.76 44.8959L72.53 69.6354M97.9513 70.3661C107.826 70.7836 113.288 64.7292 122.112 65.4599C131.041 66.295 135.978 61.4933 139.445 60.2407C142.911 59.1968 144.907 61.4933 145.432 60.5538C145.957 59.5099 143.226 57.4222 138.289 58.0485C133.457 58.7792 131.986 62.4327 121.166 61.5977C110.347 60.7626 107.826 65.9819 98.0563 64.7292" fill="#F6B40E"/>
<path d="M75.3663 76.316L140.495 46.5661C140.495 46.5661 141.756 46.0442 141.44 45.2091C141.02 44.374 139.76 44.8959 139.76 44.8959L72.53 69.6354M97.9513 70.3661C107.826 70.7836 113.288 64.7292 122.112 65.4599C131.041 66.295 135.978 61.4933 139.445 60.2407C142.911 59.1968 144.907 61.4933 145.432 60.5538C145.957 59.5099 143.226 57.4222 138.289 58.0485C133.457 58.7792 131.986 62.4327 121.166 61.5977C110.347 60.7626 107.826 65.9819 98.0563 64.7292" stroke="#85340A" stroke-width="0.109046"/>
<path d="M73.9759 76.5865L145.604 73.8679C145.604 73.8679 146.97 73.8651 147 72.9739C146.933 72.0423 145.568 72.0452 145.568 72.0452L73.9285 69.3357M97.133 79.6778C106.095 83.8186 113.473 80.3024 121.344 84.3332C129.272 88.5001 135.682 85.9409 139.367 86.1021C142.972 86.4561 143.932 89.3369 144.778 88.6686C145.665 87.9039 143.946 84.9362 139.144 83.6377C134.398 82.4752 131.632 85.2914 121.958 80.4051C112.283 75.5194 107.944 79.3822 99.4011 74.5101" fill="#F6B40E"/>
<path d="M73.9759 76.5865L145.604 73.8679C145.604 73.8679 146.97 73.8651 147 72.9739C146.933 72.0423 145.568 72.0452 145.568 72.0452L73.9285 69.3357M97.133 79.6778C106.095 83.8186 113.473 80.3024 121.344 84.3332C129.272 88.5001 135.682 85.9409 139.367 86.1021C142.972 86.4561 143.932 89.3369 144.778 88.6686C145.665 87.9039 143.946 84.9362 139.144 83.6377C134.398 82.4752 131.632 85.2914 121.958 80.4051C112.283 75.5194 107.944 79.3822 99.4011 74.5101" stroke="#85340A" stroke-width="0.109046"/>
<path d="M72.5833 76.3044L139.806 101.031C139.806 101.031 141.069 101.548 141.44 100.736C141.737 99.8507 140.474 99.3339 140.474 99.3339L75.332 69.5874M92.7872 87.9666C99.4723 95.2004 107.643 94.7574 113.363 101.474C119.082 108.339 125.99 108.413 129.333 109.963C132.527 111.66 132.304 114.687 133.344 114.392C134.458 114.022 134.012 110.627 130.075 107.601C126.139 104.722 122.499 106.272 115.443 98.079C108.386 89.8859 102.889 91.8051 96.8727 84.0545" fill="#F6B40E"/>
<path d="M72.5833 76.3044L139.806 101.031C139.806 101.031 141.069 101.548 141.44 100.736C141.737 99.8507 140.474 99.3339 140.474 99.3339L75.332 69.5874M92.7872 87.9666C99.4723 95.2004 107.643 94.7574 113.363 101.474C119.082 108.339 125.99 108.413 129.333 109.963C132.527 111.66 132.304 114.687 133.344 114.392C134.458 114.022 134.012 110.627 130.075 107.601C126.139 104.722 122.499 106.272 115.443 98.079C108.386 89.8859 102.889 91.8051 96.8727 84.0545" stroke="#85340A" stroke-width="0.109046"/>
<path d="M71.4154 75.5106L123.998 123.919C123.998 123.919 124.966 124.877 125.622 124.267C126.237 123.562 125.27 122.604 125.27 122.604L76.5412 70.3503M85.5899 93.9687C88.9807 103.194 96.6999 105.891 99.3973 114.272C102.038 122.789 108.392 125.484 110.883 128.187C113.18 130.971 111.809 133.682 112.883 133.804C114.055 133.887 114.95 130.581 112.478 126.287C109.95 122.131 105.99 122.179 102.626 111.926C99.2623 101.673 93.4446 101.356 90.871 91.9077" fill="#F6B40E"/>
<path d="M71.4154 75.5106L123.998 123.919C123.998 123.919 124.966 124.877 125.622 124.267C126.237 123.562 125.27 122.604 125.27 122.604L76.5412 70.3503M85.5899 93.9687C88.9807 103.194 96.6999 105.891 99.3973 114.272C102.038 122.789 108.392 125.484 110.883 128.187C113.18 130.971 111.809 133.682 112.883 133.804C114.055 133.887 114.95 130.581 112.478 126.287C109.95 122.131 105.99 122.179 102.626 111.926C99.2623 101.673 93.4446 101.356 90.871 91.9077" stroke="#85340A" stroke-width="0.109046"/>
<path d="M99.6302 68.4882C109.084 67.9663 113.286 62.6426 122.005 63.6865C115.177 61.39 109.82 66.9224 99.7353 66.6093M74.7343 74.647L119.484 54.2917L73.3687 71.3066" fill="#85340A"/>
<path d="M99.4076 78.5763C108.343 81.6897 114.275 78.3692 121.928 82.649C116.505 77.9307 109.424 81.005 100.228 76.8806M74.0349 74.7991L123.217 73.0104L74.0598 71.1938" fill="#85340A"/>
<path d="M95.3168 87.8153C102.373 94.0892 109.133 93.2773 114.555 100.142C111.361 93.7204 103.636 93.8679 96.7282 86.5609M73.33 74.6768L119.457 91.7274L74.7413 71.3552" fill="#85340A"/>
<path d="M87.9816 94.7929C92.0846 103.273 98.6421 105.093 101.008 113.497C100.53 106.35 93.3367 103.548 89.7685 94.1706M72.7284 74.2936L108.778 107.588L75.3111 71.7617" fill="#85340A"/>
<path d="M74.0003 102.011C90.1356 102.011 103.216 89.0125 103.216 72.9785C103.216 56.9446 90.1356 43.9463 74.0003 43.9463C57.8644 43.9463 44.7838 56.9446 44.7838 72.9785C44.7838 89.0125 57.8644 102.011 74.0003 102.011Z" fill="#F6B40E" stroke="#85340A" stroke-width="0.144568"/>
<path d="M83.8473 66.7825C81.9876 66.7825 80.0177 67.6522 78.9237 69.3921C81.1122 71.4583 86.1454 71.5666 89.5374 69.1748C88.8207 68.4186 87.956 67.8161 86.9964 67.4048C86.0363 66.9935 85.0023 66.7819 83.9569 66.7825H83.8473ZM83.8473 67.2176C85.8172 67.2176 87.6776 68.0873 87.8961 68.957C85.7077 71.4583 82.0966 71.1321 79.7991 69.3921C80.893 67.87 82.4253 67.2176 83.9569 67.2176H83.8473Z" fill="#843511"/>
<path d="M84.2852 65.3696C81.3309 65.3696 80.6741 66.022 79.361 67.2179C78.0479 68.3055 77.2821 68.0882 77.1725 68.3055C76.8444 68.5228 77.1725 69.1752 77.5007 68.9579C78.0479 68.7406 78.9233 68.3055 80.2364 67.2179C81.5495 66.131 82.9721 66.131 84.2852 66.131C88.334 66.131 90.5225 69.393 90.9602 69.1752C91.5069 68.9579 88.7717 65.3696 84.2852 65.3696Z" fill="#85340A"/>
<path d="M92.3801 66.779C87.2373 62.3211 80.6719 61.5598 77.0608 64.9307C76.2289 66.0177 75.667 67.2845 75.4196 68.6274C74.9819 71.237 75.7477 73.9556 77.7171 76.7825L76.8417 77.2176C75.0909 73.8466 74.4347 70.3673 75.0909 66.9963L75.7477 64.4956C80.6719 60.4722 87.4559 60.146 92.3801 66.6701V66.779Z" fill="#85340A"/>
<path d="M83.8325 70.8871C84.914 70.8871 85.7905 70.0163 85.7905 68.9412C85.7905 67.8667 84.914 66.9954 83.8325 66.9954C82.751 66.9954 81.8739 67.8667 81.8739 68.9412C81.8739 70.0163 82.751 70.8871 83.8325 70.8871Z" fill="#85340A"/>
<path d="M89.6446 70.259C85.8149 73.1949 81.9852 72.9776 79.7967 71.6728C77.6083 70.259 77.6083 69.8245 78.046 69.8245C78.4837 69.8245 78.9214 70.259 80.6721 71.2376C82.5319 72.1079 85.1581 72.1079 89.6446 70.259Z" fill="#85340A"/>
<path d="M69.621 77.0022C69.3172 77.0737 69.0342 77.2155 68.7964 77.4169C68.5587 77.6183 68.3729 77.873 68.2531 78.1601C68.134 78.4466 68.0854 78.758 68.1108 79.0672C68.1362 79.3764 68.2356 79.6754 68.4005 79.9392C68.5649 80.203 68.7908 80.4242 69.0585 80.5842C69.3262 80.7442 69.6283 80.8384 69.9395 80.8599C70.2513 80.8809 70.5636 80.8282 70.8505 80.7056C71.1379 80.5831 71.3915 80.3947 71.5909 80.1553C72.3127 80.6007 73.1491 80.827 73.9979 80.8077H74.217C74.8733 80.8077 75.9678 80.6994 76.7336 80.1553C77.0618 80.6994 77.7186 80.9167 78.3749 80.9167C78.8973 80.9598 79.4157 80.7953 79.8156 80.4589C80.216 80.1224 80.4651 79.6419 80.5085 79.1228C80.552 78.6037 80.3865 78.0886 80.0477 77.6909C79.7094 77.2932 79.2254 77.0453 78.703 77.0022C79.2502 77.2195 79.5784 77.6546 79.5784 78.307C79.5784 78.6531 79.44 78.985 79.1938 79.2295C78.9475 79.4746 78.6137 79.6118 78.2653 79.6118C77.9174 79.6118 77.5831 79.4746 77.3368 79.2295C77.0906 78.985 76.9522 78.6531 76.9522 78.307C76.693 78.8437 76.2909 79.2998 75.7894 79.6255C75.2878 79.9517 74.7061 80.1349 74.1075 80.1553C73.5275 80.1156 72.9689 79.9233 72.4883 79.5988C72.0077 79.2737 71.6225 78.8284 71.3718 78.307C71.3718 79.0684 70.7155 79.6118 69.9491 79.6118C69.2929 79.6118 68.636 78.9594 68.636 78.307C68.636 77.6546 68.9647 77.2195 69.5114 77.0022H69.621ZM71.8094 82.8739C69.5114 82.8739 68.527 85.0484 66.5571 86.2449C67.6516 85.8097 68.527 84.94 70.1682 84.0698C71.6999 83.2001 73.013 84.2876 73.9979 84.2876C74.8733 84.2876 76.1864 83.2001 77.8276 84.0698C79.3598 84.94 80.3448 85.8097 81.4387 86.2449C79.3598 84.94 78.4844 82.9828 76.1864 82.9828C75.7487 82.9828 74.8733 83.2001 73.9979 83.6352L71.8094 82.8739Z" fill="#85340A"/>
<path d="M70.9343 85.5918C70.0589 85.5918 68.9644 85.8091 67.2136 86.2442C71.2624 85.3745 72.1378 86.7877 73.9981 86.7877C75.7489 86.7877 76.7339 85.3745 80.6731 86.2442C76.2962 84.9394 75.3112 85.8091 73.9981 85.8091C73.1227 85.8091 72.4659 85.4829 70.9343 85.5918Z" fill="#85340A"/>
<path d="M67.4325 86.2431H66.5571C71.2622 86.7872 69.0737 89.5051 73.9979 89.5051C78.9221 89.5051 76.7336 86.7872 81.4387 86.2431C76.5145 85.8085 78.0467 88.7444 73.9979 88.7444C70.1682 88.7444 71.3718 86.2431 67.4325 86.2431Z" fill="#85340A"/>
<path d="M78.0468 93.5309C78.0468 92.4638 77.6199 91.4404 76.8608 90.6859C76.1012 89.9313 75.0716 89.5076 73.998 89.5076C72.9244 89.5076 71.8943 89.9313 71.1352 90.6859C70.3756 91.4404 69.9492 92.4638 69.9492 93.5309C70.1633 92.6232 70.6795 91.8137 71.4142 91.235C72.1495 90.6558 73.0599 90.3404 73.998 90.3404C74.9361 90.3404 75.8465 90.6558 76.5813 91.235C77.3166 91.8137 77.8328 92.6232 78.0468 93.5309Z" fill="#85340A"/>
<path d="M55.8358 66.779C60.9786 62.3211 67.544 61.5598 71.1551 64.9307C71.9864 66.0177 72.5489 67.2845 72.7963 68.6274C73.234 71.237 72.4682 73.9556 70.4983 76.7825L71.3736 77.2176C73.1244 73.8466 73.7812 70.3673 73.1244 66.9963L72.4681 64.4956C67.544 60.4722 60.76 60.146 55.8358 66.6701V66.779Z" fill="#85340A"/>
<path d="M63.9318 65.3696C66.8861 65.3696 67.5429 66.022 68.856 67.2179C70.1691 68.3055 70.9349 68.0882 71.0444 68.3055C71.3726 68.5228 71.0444 69.1752 70.7157 68.9579C70.1691 68.7406 69.2937 68.3055 67.9806 67.2179C66.6675 66.131 65.2449 66.131 63.9318 66.131C59.883 66.131 57.6945 69.393 57.2568 69.1752C56.7096 68.9579 59.4453 65.3696 63.9318 65.3696Z" fill="#85340A"/>
<path d="M63.7101 66.7825C61.8498 66.7825 59.8804 67.6522 58.7859 69.3921C60.9744 71.4583 66.0081 71.5666 69.4001 69.1748C68.6834 68.4186 67.8188 67.8161 66.8587 67.4048C65.8991 66.9935 64.865 66.7819 63.8196 66.7825H63.7101ZM63.7101 67.2176C65.68 67.2176 67.5398 68.0873 67.7589 68.957C65.5704 71.4583 61.9593 71.1321 59.6613 69.3921C60.7558 67.87 62.2874 67.2176 63.8196 67.2176H63.7101Z" fill="#843511"/>
<path d="M64.0264 70.8871C65.1085 70.8871 65.985 70.0163 65.985 68.9412C65.985 67.8667 65.1085 66.9954 64.0264 66.9954C62.9449 66.9954 62.0684 67.8667 62.0684 68.9412C62.0684 70.0163 62.9449 70.8871 64.0264 70.8871Z" fill="#85340A"/>
<path d="M58.5714 70.259C62.4011 73.1949 66.2307 72.9776 68.4192 71.6728C70.6077 70.259 70.6077 69.8245 70.17 69.8245C69.7323 69.8245 69.2946 70.259 67.5438 71.2376C65.6835 72.1079 63.0573 72.1079 58.5714 70.259Z" fill="#85340A"/>
</svg>
