<svg width="408" height="691" viewBox="0 0 408 691" fill="none" xmlns="http://www.w3.org/2000/svg">
<path d="M90.0442 0.381165C88.5468 0.714079 88.1586 1.15801 86.4394 4.87555C86.1621 5.43041 85.2193 5.70782 83.722 5.76331C81.9473 5.76331 81.0045 6.15168 79.6181 7.48334C77.067 9.86922 75.8469 10.4241 71.6875 10.8125C68.7482 11.0899 67.9164 11.3673 67.2509 12.4216C66.3081 13.8642 63.8125 14.863 61.2059 14.863C57.2684 14.863 54.6618 18.6914 54.5509 24.6284C54.44 29.4557 54.1627 29.9551 51.778 29.5112C50.1697 29.2337 49.7815 29.4002 48.9496 30.7319C48.3951 31.5642 47.9514 33.1178 47.8959 34.2275C47.8959 36.0585 47.7296 36.2249 45.6776 36.7798C43.7366 37.3346 43.4593 37.6676 43.2929 39.2212C43.1265 40.9412 42.9601 41.0522 41.5182 40.7748C40.0763 40.4419 39.9654 40.6084 39.6326 42.5504C39.4108 44.0485 38.6899 45.2136 37.3589 46.4343C36.2497 47.3776 35.196 48.1544 34.9742 48.1544C34.7523 48.1544 34.2532 48.3763 33.8095 48.6537C33.144 49.0976 33.144 49.3196 33.9204 50.0964C34.475 50.5957 34.8632 51.8719 34.8632 53.0371C34.8632 54.2578 35.3069 55.4785 36.0279 56.2553C37.0816 57.365 37.1925 58.1973 37.2479 65.6879C37.3589 73.8443 37.3589 73.8997 35.8615 75.7863C34.7523 77.1734 34.3087 78.3386 34.3087 80.0032C34.3087 81.2239 33.9204 84.3866 33.5322 86.9944C33.0331 89.8796 32.9222 92.5985 33.144 93.9856C33.7541 97.0928 33.0886 98.0916 30.482 98.0916C26.6 98.0916 24.3262 101.199 24.3262 106.525C24.3262 108.134 23.8825 109.022 22.3851 110.576C20.6659 112.24 20.0559 112.518 17.7266 112.518C16.2293 112.518 14.7874 112.851 14.4546 113.184C14.1773 113.572 13.6227 115.514 13.29 117.512C12.5136 122.061 11.3489 123.615 7.96599 124.669C4.74941 125.723 3.08566 127.832 2.19833 131.993C1.31099 136.155 1.53283 140.15 2.91928 143.867C4.02845 146.919 4.30574 147.252 6.30224 147.862C7.52232 148.251 9.46336 148.695 10.628 148.861C13.7891 149.36 13.1791 150.914 8.24328 155.075C5.13762 157.628 3.86207 159.126 3.19658 160.901C2.69745 162.233 1.81012 164.175 1.14462 165.229C-0.408211 167.726 -0.408211 168.447 1.31099 170.001C2.3647 171 2.58653 171.61 2.3647 172.886C2.19833 173.774 2.30924 175.383 2.58653 176.548C2.97474 177.935 2.97474 179.101 2.58653 180.266C1.53283 183.373 4.58303 185.87 10.8498 186.869C14.5655 187.479 15.3419 188.145 16.0629 191.308C16.8948 195.081 20.2777 201.461 23.1615 204.68C24.6035 206.344 26.1563 208.675 26.5445 209.895C26.9327 211.116 28.0973 213.058 29.0956 214.168C31.3694 216.72 32.3676 218.718 32.8667 221.547C33.5322 225.265 39.3554 237.361 42.7383 242.133C44.513 244.574 46.6758 248.291 47.6741 250.455C48.6169 252.564 49.837 255.283 50.447 256.559C51.0016 257.779 51.5007 259.666 51.5007 260.72C51.5007 262.884 52.1662 263.994 56.5474 269.32C62.2596 276.312 71.2993 283.691 74.6823 284.246C77.677 284.746 79.5626 285.578 80.7272 286.854C81.2818 287.464 83.722 288.962 86.1621 290.128C88.6023 291.293 91.597 292.791 92.8171 293.457C94.0372 294.067 95.4237 294.788 95.8673 295.01C96.3664 295.288 96.7547 296.453 96.8656 297.951C97.0874 301.169 98.3629 302.39 103.077 303.944C106.959 305.275 107.514 305.719 107.514 307.772C107.514 308.493 108.29 311.379 109.233 314.153C110.619 318.092 111.118 320.7 111.451 325.86C111.728 329.523 112.061 333.406 112.228 334.461C112.505 335.792 112.006 338.567 110.841 343.061C108.789 350.718 108.623 353.215 109.954 356.655C110.675 358.486 110.952 360.705 110.952 364.811C110.952 369.694 111.118 370.693 112.061 371.969C113.115 373.301 113.17 373.634 112.56 376.241C112.006 378.572 112.006 380.68 112.671 387.45C113.392 394.33 113.503 399.435 113.115 404.761C113.059 405.15 112.338 406.148 111.396 406.981C109.344 408.756 109.288 410.421 111.174 412.64C112.505 414.249 112.56 414.638 112.228 417.856C112.006 419.909 111.34 421.962 110.675 422.905C109.566 424.514 109.566 424.57 110.508 429.175C111.063 431.783 112.117 435.5 112.838 437.442C113.559 439.44 114.169 441.548 114.169 442.27C114.169 442.935 114.779 444.822 115.555 446.431C117.33 450.259 117.274 451.258 115.222 455.198C113.503 458.416 113.448 458.527 113.947 463.465C114.779 472.676 114.224 486.603 112.838 490.32C111.673 493.483 111.728 494.925 113.059 496.646C115.278 499.475 116.387 502.693 116.387 506.577C116.387 508.908 116.72 511.072 117.33 512.292C118.217 514.179 118.217 514.29 117.052 515.899C115.61 517.786 115.555 518.562 116.609 520.06C116.997 520.671 117.496 522.391 117.662 523.834C118.051 526.774 121.655 534.154 122.931 534.598C123.375 534.82 124.428 534.487 125.316 533.987C126.702 533.155 127.146 533.155 128.421 533.765C129.253 534.154 130.03 534.986 130.141 535.596C130.251 536.207 131.194 537.483 132.248 538.482C134.134 540.257 134.633 542.033 133.634 543.586C133.357 543.975 133.413 544.974 133.745 545.861C134.189 547.027 134.078 547.914 133.357 549.745C132.414 552.187 132.803 553.629 134.466 553.629C135.631 553.629 135.797 554.406 135.132 556.57C134.577 558.346 134.633 558.79 135.52 559.733C136.075 560.343 136.851 560.842 137.239 560.842C138.515 560.842 140.234 563.228 140.234 564.948C140.234 565.892 139.624 568 138.847 569.609C137.295 572.994 137.184 574.381 138.293 576.378C138.792 577.266 139.069 579.486 139.125 582.815C139.125 587.087 138.958 588.086 138.016 589.307C137.406 590.083 136.906 590.916 136.906 591.249C136.906 591.526 137.406 592.192 138.016 592.747C138.626 593.302 139.125 594.023 139.125 594.356C139.18 595.854 140.289 596.575 142.73 596.631C144.227 596.686 145.669 597.13 146.168 597.63C146.944 598.406 146.889 598.573 145.336 599.35C143.617 600.237 143.34 600.903 142.73 605.342C142.341 607.783 142.452 608.061 143.839 609.226C147.721 612.444 147.998 612.888 147.998 615.496C147.998 617.882 148.996 619.657 150.66 620.268C150.937 620.379 151.769 621.988 152.49 623.819C153.599 626.538 154.209 627.314 155.873 628.091C156.982 628.646 158.313 629.811 158.868 630.699C159.422 631.587 160.421 632.641 161.142 633.029C162.029 633.529 162.75 634.694 163.305 636.691C163.804 638.356 164.691 640.298 165.357 641.075L166.577 642.517L169.571 640.964C172.344 639.521 172.677 639.466 175.894 640.021C177.779 640.354 180.275 641.019 181.384 641.519C183.159 642.296 183.491 642.684 183.491 644.071C183.491 647.511 178.888 647.733 176.947 644.404C175.117 641.352 171.291 641.408 171.291 644.57C171.291 646.346 172.566 647.622 174.784 648.177C176.836 648.676 176.67 649.62 174.563 649.62C172.344 649.62 172.732 650.618 175.339 651.617C176.448 652.061 178.334 652.782 179.498 653.226C182.049 654.169 184.711 654.28 185.599 653.393C185.987 653.004 186.264 651.839 186.264 650.729C186.264 649.287 186.985 647.622 188.76 644.903C193.307 637.746 192.531 638.356 197.134 638.744C201.183 639.133 201.238 639.133 201.238 637.801C201.238 636.026 199.574 634.638 197.467 634.638C195.969 634.638 195.692 634.417 195.692 633.362C195.692 632.641 195.082 631.476 194.361 630.81C192.476 629.034 191.256 626.26 191.256 623.874C191.256 621.211 193.03 617.826 194.805 616.994C196.358 616.273 196.413 616.051 196.247 609.115L196.136 604.898L198.964 602.29C200.517 600.848 202.403 599.405 203.179 599.017C206.118 597.685 206.895 593.246 204.787 589.806C204.122 588.807 203.512 588.585 201.016 588.585C198.631 588.585 197.633 588.252 195.803 586.976C194.583 586.088 193.418 585.034 193.197 584.757C193.03 584.424 191.866 583.647 190.701 583.037C188.039 581.65 186.819 579.486 186.819 576.046C186.819 573.882 187.096 573.216 188.649 571.662C189.869 570.442 191.256 569.665 192.697 569.443C193.862 569.276 195.249 568.888 195.692 568.666C196.635 568.167 197.467 564.505 197.411 561.12C197.411 559.899 197.356 557.125 197.3 555.016C197.3 552.853 197.3 550.966 197.3 550.689C197.356 550.467 197.966 550.3 198.742 550.3C200.517 550.3 200.517 549.301 198.687 547.581C196.968 545.917 197.134 544.53 199.186 544.308C200.24 544.197 200.683 543.808 200.683 543.087C200.683 541.755 199.741 541.201 197.855 541.312C197.023 541.367 195.692 541.201 194.916 540.868C193.64 540.368 193.474 540.035 193.474 537.428C193.474 534.542 193.418 534.487 190.812 532.822C187.873 530.936 187.152 528.938 188.815 527.274C190.146 525.997 194.139 526.441 196.469 528.161C197.966 529.327 198.964 529.493 203.567 529.66C208.392 529.826 209.002 529.77 210.056 528.716C211.331 527.44 211.664 523.889 210.61 523.556C210.278 523.445 209.723 521.226 209.39 518.562C208.891 514.401 208.947 513.458 209.779 511.238C210.943 508.187 212.219 507.687 215.879 508.908C219.761 510.24 219.373 510.295 230.908 506.688C233.348 505.967 235.955 505.357 236.62 505.357C239.56 505.357 241.168 503.637 244.606 496.756C248.766 488.378 248.766 488.489 242.832 480.721C241.833 479.389 241.168 477.891 241.168 476.837C241.168 475.894 240.724 473.841 240.17 472.343L239.171 469.568L236.565 469.735C233.182 469.957 231.13 468.792 229.577 465.851C228.523 463.909 228.413 463.188 228.912 461.911C229.688 459.914 230.631 460.025 233.016 462.3C234.513 463.687 235.622 464.186 237.785 464.464C240.78 464.797 243.331 465.962 245.771 467.959C247.712 469.624 248.766 469.624 251.982 468.07L254.533 466.85L256.863 468.07C259.802 469.624 260.079 469.624 261.743 467.848C262.464 467.072 263.85 466.017 264.738 465.574C268.01 463.909 269.452 462.078 269.452 459.526C269.452 457.473 269.784 456.807 271.615 455.031C274.332 452.257 275.164 450.648 276.939 444.267C278.602 438.33 278.935 437.831 281.32 437.22C282.484 436.943 283.316 436.166 283.871 435.056C284.314 434.113 285.368 432.781 286.2 432.116C287.198 431.394 287.808 430.229 288.03 428.897C289.361 420.575 291.08 416.247 296.016 408.867C301.34 400.877 301.229 401.21 300.786 394.441C300.453 389.725 300.12 388.115 299.066 386.284C297.403 383.455 297.292 379.626 298.789 376.741C299.898 374.577 302.782 371.692 307.163 368.363C308.55 367.308 310.324 365.533 311.156 364.368C313.097 361.704 315.205 360.594 319.586 360.04C322.913 359.651 323.357 359.429 326.796 356.267C332.286 351.273 333.34 350.829 341.436 350.718C345.208 350.718 348.812 350.496 349.478 350.33C350.143 350.163 351.419 348.887 352.251 347.5C353.138 346.113 355.246 343.782 356.909 342.34L359.96 339.676L360.126 335.515C360.237 333.24 360.348 331.076 360.348 330.743C360.403 330.355 361.235 329.689 362.233 329.301C364.84 328.191 365.672 326.915 365.505 324.029C365.394 321.2 365.838 320.478 368.888 318.536C371.717 316.761 372.105 315.429 371.162 311.379C370.774 309.603 370.386 306.662 370.386 304.887C370.386 301.946 370.552 301.502 372.382 299.727C373.602 298.451 374.212 297.396 373.99 296.841C372.493 292.846 372.493 289.073 374.101 287.742C375.599 286.521 375.932 284.69 375.1 281.916C374.711 280.473 374.157 277.255 373.99 274.814C373.769 272.372 373.214 269.376 372.826 268.155C371.828 265.27 371.883 264.327 372.937 262.218C373.713 260.665 373.713 260.332 372.937 258.223C372.438 257.003 372.216 255.338 372.438 254.561C372.881 252.564 375.266 250.233 377.54 249.512C379.758 248.791 381.477 247.515 381.477 246.516C381.477 246.183 382.198 244.907 383.086 243.686C383.973 242.521 384.86 240.967 385.027 240.301C385.249 239.58 386.524 236.639 387.911 233.754C390.018 229.204 390.572 228.483 391.682 228.483C392.735 228.483 393.623 227.595 395.675 224.544C397.117 222.324 399.834 218.828 401.664 216.665L404.992 212.781L405.38 207.176C405.602 203.681 406.156 200.352 406.933 198.299C408.43 194.082 408.43 193.638 406.434 187.978C405.546 185.371 404.77 182.208 404.77 180.876C404.77 178.768 404.437 178.102 402.052 175.605L399.279 172.72L393.845 172.553C388.576 172.387 388.354 172.331 386.912 170.667C386.08 169.724 384.86 168.891 384.139 168.836C383.418 168.78 382.697 168.669 382.531 168.614C382.365 168.614 380.756 166.616 378.982 164.231C375.876 160.069 370.497 155.353 366.67 153.355C365.672 152.856 364.452 151.691 364.008 150.803C362.954 148.75 361.291 148.639 355.689 150.248C353.582 150.858 350.864 151.358 349.644 151.358C347.481 151.358 338.885 148.75 335.669 147.085C333.451 145.92 330.123 146.364 326.407 148.251C323.413 149.86 322.525 149.749 324.023 148.084C325.797 146.142 325.298 143.978 322.414 140.649C320.861 138.818 319.142 137.375 318.255 137.209C317.423 137.043 316.092 136.155 315.26 135.211C314.096 133.88 313.375 133.602 311.378 133.602C309.493 133.602 308.494 133.214 307.163 132.104C305.5 130.717 303.78 130.218 297.902 129.385C293.964 128.775 292.966 129.33 291.191 133.159C289.195 137.264 283.538 142.48 280.987 142.48C279.656 142.48 279.434 142.258 279.434 140.927C279.434 138.985 280.321 138.041 282.207 138.041C284.259 138.041 285.645 136.876 287.087 133.935C287.753 132.548 288.862 130.218 289.528 128.831C291.191 125.446 290.581 124.558 286.311 124.114C284.536 123.892 280.266 123.726 276.828 123.67C271.892 123.615 270.45 123.781 269.784 124.503C268.842 125.391 268.842 125.557 268.675 131.106C268.62 134.435 268.62 134.435 266.901 134.601C265.902 134.712 264.183 135.6 262.908 136.71C261.133 138.208 260.19 138.596 258.305 138.596H255.92L260.19 134.49C262.519 132.215 264.46 129.996 264.46 129.441C264.46 128.942 265.07 127.222 265.847 125.612C266.845 123.504 267.843 122.394 269.396 121.507C270.949 120.619 271.781 119.675 272.225 118.288C272.613 117.179 273.611 115.514 274.443 114.571C276.495 112.129 277.881 109.355 277.659 107.913C277.549 106.969 276.717 106.47 273.999 105.582C272.058 104.916 270.284 104.029 270.006 103.64C269.784 103.196 269.452 100.866 269.285 98.4799C269.008 94.8733 268.731 93.8191 267.4 92.0991C266.124 90.379 265.791 89.3248 265.57 85.9402L265.292 81.7787L263.462 81.3348C261.854 80.891 261.355 80.3361 259.857 77.1179C257.861 72.79 257.528 72.4571 255.365 72.8455C254.201 73.0675 253.369 72.7346 252.149 71.7358C251.095 70.8481 249.819 70.3487 248.655 70.3487C247.213 70.3487 246.492 69.9603 245.549 68.6286C243.83 66.1872 240.003 64.5781 237.064 65.022C235.567 65.244 233.903 65.0775 232.35 64.5226C229.466 63.5239 225.972 63.4684 221.758 64.3562C217.82 65.133 215.768 64.5227 214.16 61.9703C213.494 60.9161 211.609 58.7521 210 57.1985C207.671 54.8681 206.673 54.2578 205.286 54.2578C202.791 54.2578 201.238 52.5932 201.238 49.9299C201.238 46.1014 196.469 40.2754 191.034 37.5011C189.148 36.5024 188.594 36.4469 186.653 37.0573C182.327 38.3334 179.332 35.5591 181.994 32.7294C186.264 28.0686 182.382 23.7407 173.842 23.7407C169.46 23.7407 169.072 23.4633 169.072 20.689C169.072 18.9134 170.459 17.6373 172.4 17.6373C175.062 17.6373 175.062 16.472 172.4 14.6965C170.514 13.3648 168.074 13.5313 165.246 15.1404C163.693 16.0282 161.974 16.5275 160.421 16.5275C158.979 16.5275 157.26 16.9714 156.206 17.6373C155.208 18.2476 153.932 18.7469 153.378 18.7469C152.823 18.7469 151.88 19.5793 151.27 20.6335C150.66 21.6877 149.828 22.631 149.44 22.7974C148.553 23.1303 145.003 21.5767 140.678 18.9689L137.406 16.9714L131.472 17.3043C128.199 17.5263 124.539 17.8037 123.264 17.9702C120.491 18.3586 119.16 17.2488 119.16 14.5855C119.16 13.4203 118.661 12.1441 117.884 11.2009C116.664 9.81372 116.221 9.70276 112.449 9.64728L108.345 9.5918L108.512 6.70654C108.734 3.54386 108.29 3.04449 104.685 2.37866C103.243 2.10123 102.522 2.2677 101.968 2.93353C101.358 3.71033 101.524 4.09871 103.354 6.04071C105.351 8.0382 105.462 8.26012 104.63 9.09241C104.186 9.59178 102.3 10.1466 100.47 10.3686C96.7547 10.8125 94.3145 12.2551 92.5398 15.1404C90.9315 17.8037 89.4896 17.7482 89.9333 15.0849C90.2106 13.5868 89.9887 12.8655 89.1569 12.0332C88.6023 11.4783 88.1032 10.646 88.1032 10.2576C88.1032 9.31437 89.656 7.87174 91.2088 7.42786C93.2608 6.81751 95.3127 4.48715 95.3127 2.76709C95.3127 0.103775 94.0927 -0.506607 90.0442 0.381165Z" fill="#A9C7D6"/>
<path d="M233.137 472.057L232.96 472.194L232.86 472.715L232.949 473.074L233.456 473.229L234.043 472.737L234.128 472.604L234.311 472.766L235.048 473.079L235.545 473.209L235.785 473.219L236.158 473.253L236.635 473.307L237.772 473.529L238.213 473.654L240.505 474.507L241.775 475.111L241.967 475.252L243.064 476.192L243.567 476.732L243.7 476.911L243.746 477.296L243.703 477.464L243.562 477.931L243.308 478.418L243.004 479.34L242.834 479.902L242.761 480.197L242.754 480.369L242.785 480.615L242.937 481.228L243.003 481.415L243.123 481.663L243.243 481.841L243.822 482.624L244.438 483.187L244.619 483.315L245.22 483.662L245.549 483.83L245.944 483.982L246.837 484.229L247.028 484.147L247.199 483.97L247.778 483.448L247.962 483.495L248.458 484.176L248.536 484.349L248.988 485.534L249.649 487.899L249.686 488.124L249.632 488.338L249.525 488.615L249.368 488.954L249.026 489.875L248.553 491.459L248.274 492.572L248.267 492.743L248.07 493.339L247.911 493.732L247.626 494.389L247.499 494.601L247.181 495.081L246.909 495.56L246.543 496.368L246.225 497.109L246.169 497.377L246.127 497.611L246.125 497.865L246.132 498.075L246.178 498.522L246.349 498.795L246.427 499.307L246.362 499.569L246.244 499.818L246.002 500.186L245.901 500.323L245.748 500.523L244.875 501.53L243.043 503.245L242.887 503.387L242.233 503.889L240.091 505.219L239.425 505.608L237.881 506.801L237.682 506.912L237.465 507.009L237.01 507.187L236.418 507.474L235.018 508.196L233.928 508.794L233.232 509.264L232.6 509.467L232.464 509.521L228.988 511.133L227.51 511.728L226.748 512.087L226.521 512.175L225.027 512.72L224.589 512.856L223.598 513.037L223.258 513.041L223.051 513.073L222.845 513.155L222.659 513.256L222.36 513.5L222.141 513.593L221.511 513.68L220.268 513.816L219.158 513.812L218.839 513.791L218.352 513.67L218.191 513.452L218.089 513.274L217.364 513.027L216.37 513.039L216.179 513.198L216.151 513.363L216.319 513.668L216.462 513.825L216.826 514.119L217.193 514.313L217.124 515.053L217.071 515.44L217.175 516.211L217.513 516.955L217.815 516.98L218.063 516.96L218.224 516.928L218.631 516.915L219.327 517.107L219.722 517.355L219.768 517.54L219.61 517.795L219.007 517.58L218.772 517.434L218.513 517.148L218.083 517.317L218.029 517.531L219.067 518.127L219.734 518.634L219.853 519.806L219.928 520.476L219.962 520.703L220.111 521.505L219.797 521.799L219.18 521.814L218.972 522.289L219.018 523.382L219.203 524.141L219.279 524.322L219.303 524.805L219.256 525.094L219.166 525.239L218.957 525.384L218.709 525.854L218.672 526.09L219.22 526.997L219.445 527.314L220.473 527.963L220.67 527.922L220.889 528.264L220.854 528.553L220.555 528.616L220.32 528.459L220.448 529.016L220.539 529.059L220.905 528.664L221.291 528.414L221.308 528.606L221.164 528.75L221.071 529.87L220.98 530.662L220.607 531.09L219.45 532.141L218.721 532.892L218.551 532.95L218.425 532.969L218.289 532.807L218.01 532.503L217.774 532.281L217.186 531.765L217.015 531.634L216.389 531.274L215.731 531.022L215.505 530.959L215.144 530.941L214.964 530.959L214.635 531.022L213.855 531.081L213.706 531.049L213.544 530.585L211.498 522.321L210.875 519.836L210.718 519.236L210.697 519.106L210.302 517.503L204.014 492.344L202.063 484.388L201.911 483.744L201.156 480.652L200.691 478.785L200.835 478.761L201.385 478.628L202.624 478.323L203.999 477.977L204.152 477.943L207.711 477.049L210.458 476.346L211.621 476.041L213.435 472.59L215.296 468.947L215.165 468.698L215.148 468.522L215.211 468.372L215.325 468.262L215.472 468.175L215.649 468.116L216.847 468.045L217.008 468.089L217.226 468.197L217.356 468.284L217.535 468.374L217.676 468.385L217.83 468.355L218.209 468.122L218.358 467.519L218.381 467.336L218.361 467.025L218.314 466.775L218.595 466.039L218.89 465.373L218.897 465.063L218.697 464.924L218.928 464.974L219.087 465.027L219.232 465.099L219.823 465.487L219.979 465.606L220.194 465.745L220.468 465.873L220.617 465.936L221.316 466.185L221.888 466.278L222.12 466.362L222.529 466.603L222.647 466.739L222.906 466.886L223.155 466.948L224.061 467.134L224.342 466.864L224.532 466.763L224.697 466.795L224.948 466.986L225.09 467.124L225.217 467.219L225.417 467.281L226.698 467.451L227.638 467.471L228.091 467.378L228.307 467.428L228.743 467.562L230.349 468.163L230.971 468.474L231.367 468.429L231.541 468.297L231.675 468.125L231.803 468.024L232.256 467.827L232.258 467.834L232.432 467.871L232.638 467.928L232.748 468.047L233.065 469.103L232.937 469.543L232.847 469.797L232.615 470.024L232.549 470.418L232.724 470.967L233.016 471.664L233.137 472.057ZM220.325 516.108L220.252 516.107L219.065 515.733L218.719 515.326L218.674 515.21L218.693 515.117L218.781 515.099L219.634 515.137L219.73 515.152L220.127 515.237L220.264 515.419L220.489 515.844L220.5 515.995L220.413 516.079L220.325 516.108Z" fill="#9BBECF"/>
<path d="M176.221 431.468L176.27 431.526L176.687 432.314L177.249 433.512L177.491 434.047L177.548 434.215L177.731 434.808L177.812 435.12L177.852 435.311L177.899 435.686L177.833 435.967L177.671 436.264L177.452 436.74L177.503 436.944L177.563 437.139L177.782 437.163L177.964 437.208L178.17 437.351L178.309 437.628L178.766 439.029L179.037 440.007L179.475 441.267L179.591 441.546L179.706 441.762L180.18 442.417L181.052 443.415L181.199 443.54L181.247 443.576L180.862 443.774L180.727 443.852L181.535 445.994L181.475 446.155L180.592 447.854L180.054 447.408L179.578 447.065L177.286 445.395L175.849 444.324L175.169 443.724L175.04 443.208L174.929 443.011L174.59 442.645L174.472 442.544L171.952 441.124L171.595 440.98L171.369 440.914L171.17 440.877L170.981 440.865L170.765 440.824L170.347 440.731L170.164 440.65L169.94 440.402L169.637 439.546L168.558 438.122L168.45 438.015L168.327 437.927L168.16 437.831L167.944 437.758L165.184 437.301L165.04 437.298L164.681 437.32L164.516 437.436L164.446 437.639L164.351 437.832L164.244 437.962L163.993 438.091L163.787 438.135L162.519 438.3L162.212 438.065L161.446 437.79L161.255 437.846L161.051 438.335L160.924 438.804L160.797 439.057L160.605 439.175L160.434 439.202L159.739 439.198L159.373 439.131L159.163 438.97L158.961 438.796L158.708 438.543L158.577 438.315L158.422 437.924L157.809 437.828L156.985 437.911L156.406 437.826L155.281 437.51L154.983 437.589L154.718 437.461L154.419 436.321L154.432 435.86L154.368 435.651L154.236 435.569L153.89 435.628L152.898 435.985L152.274 436.251L152.09 436.415L151.734 436.618L151.522 436.702L150.831 436.776L150.588 436.809L150.352 436.844L149.851 436.945L149.82 436.621L149.891 435.783L150.022 435.517L150.513 433.49L150.576 432.791L150.449 432.515L150.464 432.267L150.529 431.982L150.688 431.485L150.828 431.347L151.112 431.257L151.412 431.234L151.791 431.368L153.206 430.44L153.319 430.348L153.537 430.148L153.71 429.971L153.737 429.084L153.642 428.938L152.351 427.705L151.449 427.038L151.198 426.793L151.094 426.657L151.021 426.517L150.92 426.16L150.882 426.008L150.809 425.592L150.776 425.347L150.774 424.981L150.861 424.786L150.993 424.603L151.209 424.348L151.513 423.874L151.592 423.629L150.76 421.828L150.204 420.684L150.107 420.515L149.574 419.851L149.065 419.038L149.003 418.864L148.961 418.634L148.953 418.478L148.945 417.873L148.972 417.621L149.031 417.283L149.057 417.245L149.057 416.685L149.122 416.451L149.18 416.37L149.278 416.377L149.918 416.348L153.891 416.148L156.184 415.553L158.425 414.967L160.571 414.402L162.023 414.009L162.255 414.132L163.095 415.418L163.166 416.423L163.084 416.605L162.864 416.873L162.714 416.989L162.165 417.161L161.65 417.305L161.333 417.743L161.296 417.906L161.343 418.19L161.404 418.4L161.505 418.62L161.661 418.889L161.759 419.002L161.869 419.101L161.987 419.186L162.884 419.91L163.244 420.234L163.681 420.729L163.95 421.096L164.16 421.364L164.326 421.516L164.95 421.92L165.099 422.006L165.26 422.045L165.39 421.992L165.461 421.856L165.498 421.599L165.514 421.37L165.576 420.979L165.648 420.772L165.806 420.642L166.574 420.459L166.611 420.824L166.483 421.586L166.457 421.825L166.758 422.942L166.944 423.002L167.303 422.952L167.655 422.916L167.823 422.921L168.113 422.983L169.337 423.523L169.446 423.618L169.526 423.787L169.712 425.063L169.692 425.293L169.641 425.491L169.517 425.818L169.362 426.038L169.064 426.566L168.974 426.766L168.506 427.924L168.383 428.736L168.737 428.786L169.027 428.753L169.493 428.929L169.92 429.182L170.319 430.037L170.735 430.821L171.613 431.731L171.815 431.717L172.043 431.514L172.549 431.676L172.682 431.899L172.754 432.098L172.833 432.272L173.023 432.568L173.169 432.721L173.866 433.186L173.98 432.957L174.024 432.697L174.113 432.466L174.419 431.999L174.61 431.77L174.983 431.369L175.13 431.384L175.393 431.536L175.632 431.638L175.775 431.669L175.937 431.665L176.081 431.593L176.221 431.468Z" fill="#9BBECF"/>
<path d="M217.936 421.535L212.713 422.847L209.678 423.603L207.893 424.059L202.728 425.345L200.809 425.819L199.271 426.191L199.186 425.815L198.239 422.027L197.122 417.511L196.038 413.207L195.052 409.368L195.009 409.226L194.759 409.285L193.634 409.576L192.014 409.987L188.269 410.92L186.605 411.326L185.979 411.475L183.995 411.95L185.238 409.147L185.361 408.884L187.345 404.389L188.708 401.175L188.465 400.262L188.183 399.222L189.266 399.41L190.724 399.692L191.42 399.943L191.994 399.937L192.879 400.259L193.328 400.72L194.072 400.874L194.875 401.342L195.087 401.362L195.7 401.328L195.964 401.262L196.178 401.228L196.36 401.221L196.586 401.294L197.095 401.721L197.549 402.329L198.022 402.643L198.807 402.974L199.886 403.503L200.926 403.783L202.112 403.984L203.087 404.802L203.881 405.36L204.382 405.613L204.494 405.849L204.552 406.064L204.639 406.244L205.058 406.758L206.184 406.966L207.248 407.266L207.397 407.34L207.94 407.762L208.837 408.47L209.264 409.261L209.408 409.298L210.01 409.282L210.266 409.218L210.746 409.159L210.916 409.209L211.042 409.345L211.134 409.639L211.391 410.098L211.694 410.252L212.198 410.199L212.342 410.129L212.585 409.95L213.466 409.929L214.243 410.014L214.431 410.093L214.613 410.208L214.788 410.34L214.911 410.478L215.131 410.637L216.243 411.115L216.704 411.302L217.737 411.923L218.377 412.367L219.009 412.549L219.168 412.555L219.21 412.583L218.98 412.816L218.621 413.516L218.162 414.676L217.989 414.739L217.856 414.818L217.747 415.058L217.799 415.313L218.113 415.498L218.257 415.63L218.345 416.135L218.044 416.466L217.934 416.566L217.675 416.741L217.558 416.858L217.426 417.036L217.012 417.685L217.022 417.877L217.136 418.089L217.281 418.35L217.658 419.337L217.707 419.52L217.839 420.25L217.871 420.471L217.834 421.061L217.936 421.535Z" fill="#9BBECF"/>
<path d="M170.807 592.636L170.845 592.603L171.019 592.362L170.689 591.717L170.505 591.565L170.179 591.501L169.968 591.485L169.747 591.415L169.216 590.363L169.114 589.661L169.098 588.717L169.298 588.473L169.536 588.303L169.676 588.234L169.804 588.176L169.958 588.149L170.765 587.506L171.471 585.644L171.103 585.012L169.642 583.86L169.136 583.244L168.861 583.08L167.737 582.991L167.292 583.037L166.438 583.166L165.524 583.195L165.166 582.173L165.16 581.977L165.315 581.816L165.511 581.817L165.701 581.869L165.846 581.897L166.01 581.925L166.754 581.831L166.918 581.718L166.988 581.491L167.125 581.38L167.517 581.367L167.669 581.39L167.814 581.418L167.957 581.436L168.113 581.371L168.234 581.287L168.535 581.018L168.753 580.861L168.93 580.817L169.068 580.817L169.288 580.899L169.654 581.055L169.848 581.098L170.06 581.114L170.284 581.059L170.452 580.963L170.675 580.413L170.644 580.131L170.532 579.885L170.446 579.663L170.559 578.945L170.843 578.821L170.955 578.622L170.962 578.297L170.426 577.623L170.157 577.485L168.746 577.55L168.23 577.698L167.821 577.872L167.294 578.003L166.292 578.234L165.953 578.246L165.724 578.033L165.747 577.833L165.99 577.544L165.758 576.52L165.661 576.301L165.479 576.08L165.56 575.309L165.717 575.03L166.084 573.961L166.1 573.781L166.037 573.588L165.601 573.224L165.12 572.895L164.654 572.474L164.594 572.215L164.711 572.102L164.829 572.019L165.176 571.64L165.208 571.415L164.988 570.856L163.802 570.192L163.13 569.914L163.019 569.314L163.106 568.706L163.71 568.327L163.963 568.325L164.064 568.208L164.065 568.029L163.799 567.128L163.075 566.901L162.848 566.901L162.426 566.96L162.24 566.999L161.977 567.068L161.589 567.005L161.388 566.906L161.018 566.53L160.822 566.267L160.734 565.82L160.738 565.637L160.772 565.419L160.762 565.117L160.717 564.876L160.478 564.053L160.365 563.708L160.139 563.277L159.896 562.61L159.874 562.414L159.888 562.209L159.937 562.006L160.029 560.51L159.907 560.361L159.495 560.152L159.287 559.918L159.594 558.577L159.694 558.411L159.829 558.29L160.05 558.281L160.177 558.409L160.302 558.618L160.509 558.601L161.263 557.99L161.515 557.6L161.339 557.035L161.091 556.823L163.451 556.239L164.54 555.96L168.685 554.928L168.903 554.881L173.262 553.788L177.408 552.763L180.245 552.057L184.17 551.072L187.228 550.314L194.858 548.41L199.441 547.277L204.458 546.02L204.943 545.998L205.44 546.636L205.613 546.776L205.869 546.944L206.1 547.069L206.546 547.259L207.542 547.373L208.482 547.405L208.62 547.374L208.881 547.203L209.148 547.182L209.411 547.253L209.35 547.44L209.212 547.638L209.081 547.869L209.012 548.084L208.828 548.716L208.923 548.944L209.887 548.81L211.937 548.212L212.071 548.133L212.327 547.746L212.388 547.556L212.256 546.964L212.067 546.714L211.907 546.643L211.715 546.627L211.503 546.653L210.98 546.802L210.815 546.866L210.527 546.941L210.262 546.863L210.436 546.667L211.274 546.276L212.145 545.644L212.784 544.986L212.934 544.865L213.08 544.79L213.553 544.593L213.701 544.556L213.843 544.616L214.218 545.12L214.352 545.334L214.491 545.539L214.683 545.739L214.977 545.936L215.1 546.077L215.2 546.216L215.301 546.404L215.966 548.873L215.972 550.272L215.72 550.815L215.527 550.95L215.311 551.038L214.772 551.306L213.391 552.049L213.17 552.131L212.882 552.054L211.942 551.375L211.868 551.153L211.91 550.599L211.979 550.151L211.002 549.511L210.857 549.452L210.39 549.336L210.007 549.352L209.744 549.421L209.561 549.474L208.957 549.727L208.286 550.267L208.197 550.484L208.099 550.736L207.874 551.017L207.762 551.106L207.531 551.182L207.208 551.362L207.074 551.521L206.829 552.355L206.966 552.641L207.131 552.752L207.47 552.74L208.438 552.868L209.005 553.031L209.419 553.248L209.586 553.317L209.804 553.377L210.044 553.401L211.299 553.431L211.453 553.373L211.846 553.055L212.099 553.361L211.742 553.823L211.593 553.997L210.446 554.953L209.746 555.284L209.354 555.529L209.179 555.687L209.007 555.875L208.495 556.562L207.982 557.402L207.96 557.575L207.663 558.878L207.113 560.089L207 560.437L206.842 561.005L206.903 561.512L206.966 561.717L207.28 562.469L207.454 562.661L207.603 562.86L207.761 563.137L207.978 563.654L208.14 563.534L208.266 563.472L208.49 564.878L208.332 565.001L208.109 565.167L208.111 565.7L208.182 565.876L208.618 566.518L208.806 566.734L208.533 567.689L208.479 567.919L208.374 568.851L207.219 570.053L207.08 570.266L207.013 570.413L206.832 571.074L206.778 571.705L206.835 571.98L206.943 572.181L207.283 572.314L207.557 572.276L208.235 572.469L208.043 573.762L207.587 574.088L207.308 573.986L207.114 573.901L206.451 573.827L204.631 574.036L204.175 574.18L203.209 575.076L202.255 575.823L202.22 576.098L202.101 576.574L201.418 577.144L200.502 577.474L200.351 577.546L199.836 578.082L199.614 578.407L199.431 578.997L199.209 579.879L198.922 580.974L198.852 581.125L198.573 581.499L198.321 581.813L198.241 582.062L198.226 582.294L198.238 583.791L198.057 584.064L197.527 585.281L197.383 586.026L197.059 586.098L190.955 587.626L190.736 587.673L184.413 589.247L184.195 589.309L175.681 591.422L174.378 591.754L171.546 592.459L170.807 592.636Z" fill="#9BBECF"/>
<path d="M234.101 472.385L234.031 472.494L233.553 472.91L233.136 472.776L233.06 472.471L233.136 472.03L233.28 471.916L233.329 471.963L233.563 472.081L233.718 472.072L233.898 472.099L234.101 472.385Z" fill="#9BBECF"/>
<path d="M190.481 486.823L190.118 485.334L188.652 479.418L188.475 478.72L188.386 478.412L187.613 475.906L186.58 472.405L186.619 472.151L186.716 471.801L186.91 471.254L187.01 470.585L186.995 469.453L187.025 467.918L187.095 467.378L187.018 466.836L186.275 465.002L186.034 464.869L185.822 464.961L185.678 465.044L185.55 465.147L185.329 465.269L184.618 465.548L184.413 465.56L183.846 464.515L183.761 464.233L183.642 463.992L183.123 463.642L180.612 462.873L180.353 462.89L179.773 463.035L179.758 463.007L179.407 461.641L178.392 457.691L178.118 456.608L178.277 454.805L178.319 454.39L178.477 451.067L178.63 450.722L178.787 448.861L179.198 448.621L179.33 448.553L180.376 447.946L180.469 447.782L181.368 446.085L181.43 445.924L180.621 443.793L180.759 443.715L181.149 443.516L181.278 443.452L184.982 441.45L186.618 441.541L186.671 441.787L187.016 442.082L188.457 442.434L188.731 442.413L188.92 442.37L189.104 442.32L189.308 442.242L189.47 442.151L189.657 442.053L189.886 441.996L190.576 441.977L190.916 442.05L191.313 442.305L191.541 442.668L192.508 442.502L192.872 442.419L196.626 441.433L199.116 440.766L200.235 442.373L201.004 443.462L201.216 445.825L200.936 445.914L201.104 446.78L202.542 447.337L203.713 447.485L203.668 450.203L203.579 455.08L202.984 455.904L203.346 456.791L203.579 457.382L203.805 458.382L203.835 458.63L203.973 459.102L204.627 459.572L204.894 459.619L205.029 459.672L205.205 459.797L205.37 460.035L205.502 460.359L205.655 460.596L205.856 460.758L206.042 460.842L206.262 460.92L206.464 461.023L206.662 461.186L206.846 461.439L207.147 461.984L207.611 462.729L208.467 463.549L208.595 463.812L208.707 465.037L208.712 465.244L208.645 465.496L208.531 465.713L208.265 465.987L208 466.057L207.823 466.514L206.3 471.379L204.656 476.565L204.22 477.903L204.172 478.076L204.019 478.106L202.608 478.461L201.344 478.772L200.781 478.908L200.633 478.929L201.108 480.834L201.877 483.985L201.728 484.018L193.639 486.017L191.224 486.61L190.904 486.694L190.481 486.823Z" fill="#9BBECF"/>
<path d="M216.821 440.836L216.568 440.371L216.683 439.73L216.767 438.307L216.671 438.031L216.501 437.854L216.264 437.67L216.027 437.506L215.852 437.21L215.8 436.942L215.796 436.75L215.846 436.418L215.873 435.865L215.867 435.431L215.8 434.943L215.672 434.305L215.54 433.821L215.556 433.617L215.834 432.265L215.942 432.131L216.383 431.859L216.54 431.704L217.39 430.256L217.415 429.996L217.396 427.374L217.414 427.084L217.205 425.503L217.124 425.18L216.805 424.308L216.711 423.993L216.677 423.697L216.716 423.541L216.815 423.358L217.046 423.166L217.29 423.14L217.43 423.105L217.579 422.999L217.718 422.799L217.78 422.452L217.799 422.278L217.789 422.126L217.765 422.013L217.661 421.534L217.701 420.939L217.669 420.716L217.536 419.978L217.486 419.794L217.105 418.799L216.957 418.535L216.842 418.322L216.832 418.127L217.256 417.471L217.392 417.291L217.511 417.173L217.776 416.995L217.888 416.894L218.196 416.559L218.458 416.371L218.658 416.259L218.804 416.184L218.973 416.123L220.218 415.717L221.102 415.458L222.074 415.228L222.585 415.143L223.582 415.025L224.022 415.031L224.218 415.079L224.386 415.156L224.684 415.283L224.893 415.319L226.337 415.318L226.81 415.265L226.949 415.227L227.14 415.222L227.345 415.259L227.59 415.333L227.812 415.374L228.122 415.393L228.417 415.366L228.715 415.307L228.909 415.14L229.167 414.871L229.361 414.692L229.658 414.502L229.899 414.446L230.036 414.478L230.252 414.589L230.613 414.815L230.809 414.863L231.052 414.829L231.181 414.628L231.227 414.543L231.362 414.409L231.537 414.308L231.776 414.202L231.973 414.157L232.168 414.139L232.381 414.159L232.516 414.23L232.632 414.413L232.965 414.68L233.269 414.82L233.424 414.859L233.642 414.805L233.748 414.666L234.033 413.798L234.038 413.643L233.976 413.473L233.933 413.207L234.619 412.424L234.909 412.301L235.134 412.23L235.331 412.2L235.851 412.278L235.675 412.484L235.638 412.728L235.631 412.903L235.689 413.166L235.829 413.447L236.205 413.873L236.397 414.061L236.572 414.198L237.218 415.016L237.306 415.148L237.443 415.399L237.623 415.916L237.731 416.274L237.813 416.412L238.601 417.236L238.847 417.406L239.603 417.688L239.584 417.831L239.354 418.181L239.171 418.327L238.929 418.457L238.816 418.631L238.872 418.779L239.249 418.878L239.536 418.976L239.686 419.2L239.62 419.787L239.428 419.677L239.302 419.515L238.612 419.606L238.375 419.692L238.244 419.829L237.889 420.853L237.809 421.447L237.562 422.025L237.058 422.959L236.443 423.493L236.349 423.682L236.369 423.951L236.027 425.735L235.974 425.933L235.431 426.253L235.111 426.587L235.004 426.741L234.849 427.045L234.769 427.273L234.756 427.519L234.812 427.763L234.689 428.429L234.138 429.552L233.642 430.408L233.037 431.733L232.886 432.025L232.748 432.256L232.502 432.433L232.172 432.522L231.956 432.599L231.777 432.729L231.653 432.875L231.576 433.056L231.526 433.465L231.593 433.734L231.675 434.252L231.586 434.448L230.887 435.681L230.632 435.995L230.514 436.101L230.338 436.211L230.175 436.282L230.132 436.72L230.238 437.021L230.235 437.184L230.09 437.671L229.692 438.274L229.411 438.591L229.028 439.098L228.966 439.241L228.956 439.405L229.075 439.884L229.241 440.031L229.45 440.149L229.799 440.636L229.915 440.884L229.783 440.855L229.44 440.706L229.271 440.609L228.936 440.411L228.513 440.143L228.389 440.055L228.206 439.854L227.974 439.584L227.85 439.415L227.15 438.665L226.146 437.809L225.986 437.73L225.679 437.694L223.676 437.669L223.427 437.693L223.204 437.771L222.945 437.909L222.592 438.224L222.386 438.418L221.82 438.709L221.464 438.756L221.079 438.72L220.739 438.801L220.178 439.411L220.087 439.688L219.574 440.177L219.281 440.196L219.109 440.166L218.922 440.12L218.614 440.143L218.457 440.171L217.701 440.409L217.348 440.674L217.164 440.751L216.821 440.836Z" fill="#9BBECF"/>
<path d="M218.388 464.52L218.319 464.45L217.901 464.098L217.68 464.023L217.057 463.873L216.613 463.813L216.461 463.748L214.909 461.943L214.793 461.766L214.677 461.521L214.066 460.092L213.805 459.139L213.804 458.525L213.92 457.7L213.392 456.44L212.964 453.012L213.071 452.819L213.31 452.676L213.711 452.529L213.94 452.456L214.344 452.288L214.561 452.024L214.795 451.609L215.773 449.686L215.924 449.22L215.962 448.957L215.978 448.672L216.026 448.335L216.142 447.973L216.404 447.666L216.64 447.064L216.847 446.328L217.235 445.185L217.397 444.812L217.454 444.659L217.661 443.973L218.034 442.577L217.997 442.158L217.755 441.216L217.649 440.953L217.472 440.815L217.058 440.415L217.005 440.329L217.353 440.242L217.541 440.164L217.899 439.892L218.666 439.649L218.826 439.621L219.139 439.599L219.33 439.647L219.505 439.678L219.803 439.66L220.322 439.158L220.415 438.873L220.983 438.248L221.329 438.166L221.72 438.203L222.083 438.157L222.657 437.859L222.867 437.66L223.224 437.338L223.487 437.197L223.714 437.117L223.967 437.093L226.004 437.125L226.316 437.162L226.48 437.244L227.503 438.127L228.217 438.9L228.344 439.074L228.581 439.352L228.767 439.559L228.894 439.651L229.325 439.928L229.666 440.132L229.838 440.232L230.187 440.386L230.322 440.416L230.378 440.545L230.491 440.854L230.65 441.46L230.619 442.985L230.567 444.71L230.286 446.008L230.084 446.189L229.918 446.369L229.894 446.593L230.024 446.716L230.252 446.766L230.438 446.858L230.643 447.013L230.786 447.251L230.84 447.562L230.773 449.002L230.662 449.228L230.458 449.401L230.191 449.527L230.048 449.622L229.935 449.809L229.898 450.107L230.279 450.488L230.459 450.796L230.567 451.387L230.568 451.68L230.501 451.907L230.536 452.159L230.745 452.44L230.953 452.602L231.276 452.799L231.385 453.109L231.417 453.363L231.245 453.647L231.174 453.795L231.063 454.116L231.001 454.52L230.993 454.506L230.939 454.655L230.927 454.848L230.97 455.134L231.073 455.529L231.513 456.56L232.317 458.385L232.546 459.192L232.532 459.377L232.464 459.517L232.352 459.628L232.136 459.718L231.978 459.741L231.824 459.744L231.118 459.852L230.875 459.913L230.754 460.082L231.075 461.404L231.028 462.046L230.951 462.216L230.824 462.727L230.852 463.37L230.875 463.637L231.044 464.828L231.092 465.034L231.212 465.436L231.383 465.694L231.793 466.076L231.984 466.206L232.428 467.237L232.435 467.489L232.434 467.485L231.964 467.689L231.831 467.794L231.692 467.971L231.511 468.107L231.1 468.154L230.456 467.835L228.794 467.219L228.339 467.082L228.119 467.03L227.645 467.124L226.669 467.106L225.342 466.937L225.134 466.87L225.007 466.775L224.859 466.629L224.6 466.436L224.429 466.404L224.236 466.507L223.944 466.79L223.005 466.6L222.747 466.537L222.478 466.386L222.356 466.246L221.932 465.999L221.691 465.909L221.102 465.813L220.374 465.559L220.223 465.494L219.939 465.362L219.717 465.219L219.555 465.097L218.942 464.699L218.793 464.625L218.632 464.57L218.388 464.52Z" fill="#9BBECF"/>
<path d="M188.22 399.01L187.858 397.555L186.585 392.381L185.894 389.622L185.297 387.301L185.268 387.199L185.452 387.235L185.675 387.292L185.952 387.445L186.051 387.552L186.118 387.745L186.985 388.939L187.431 389.282L187.928 389.616L188.072 389.751L188.303 390.082L188.329 390.266L188.49 390.455L189.067 390.789L189.271 390.784L189.517 390.84L190.296 391.267L190.401 391.369L190.493 391.695L191.058 391.951L191.304 391.87L191.578 391.903L192.725 392.542L193.353 392.672L193.86 392.799L194.707 393.089L195.264 393.358L196.018 394.284L196.144 394.498L196.278 394.654L196.454 394.692L197.223 394.714L198.004 394.694L198.19 394.648L198.998 394.614L199.182 394.758L199.327 394.928L200.187 395.04L201.42 395.113L202.185 394.95L202.328 394.883L202.472 394.805L202.639 394.701L202.762 394.612L202.935 394.515L203.353 394.667L205.719 395.538L206.751 395.914L207.229 396.094L207.942 396.534L208.176 396.755L208.325 396.85L208.69 396.961L210.075 397.334L210.375 397.337L210.884 397.49L211.272 397.63L211.724 397.859L212.293 398.114L213.261 398.187L213.694 398.126L213.876 398.065L214.168 398.047L214.755 398.103L215.58 398.732L216.057 398.695L216.699 398.512L217.098 398.665L217.596 398.743L218.479 398.857L218.658 398.816L218.857 398.821L219.016 398.878L219.779 399.259L220.045 399.67L220.314 399.898L220.573 400.009L220.62 400.09L221.006 400.615L221.341 400.757L221.593 400.885L221.659 401.089L221.659 401.715L220.881 403.349L220.653 403.654L220.55 403.726L220.691 404.157L220.51 404.757L220.299 405.206L220.397 405.325L220.642 405.455L219.91 406.464L219.644 406.647L219.178 407.446L219.356 407.794L219.238 408.161L219.147 409.12L219.321 410.02L219.598 410.184L219.744 410.373L219.762 410.811L219.287 412.626L219.074 412.776L219.032 412.748L218.875 412.74L218.247 412.551L217.609 412.096L216.581 411.459L216.123 411.267L215.016 410.773L214.797 410.61L214.675 410.47L214.501 410.335L214.319 410.217L214.132 410.135L213.361 410.044L212.487 410.06L212.247 410.24L212.105 410.31L211.605 410.361L211.304 410.203L211.047 409.735L210.954 409.436L210.828 409.296L210.659 409.245L210.183 409.302L209.929 409.365L209.332 409.377L209.19 409.339L208.761 408.533L207.867 407.809L207.326 407.376L207.178 407.301L206.121 406.989L205.003 406.771L204.584 406.246L204.496 406.062L204.438 405.844L204.325 405.604L203.827 405.343L203.035 404.772L202.064 403.934L200.887 403.723L199.853 403.432L198.78 402.888L198 402.547L197.529 402.225L197.074 401.604L196.566 401.168L196.342 401.092L196.162 401.098L195.95 401.131L195.689 401.196L195.081 401.227L194.871 401.206L194.071 400.725L193.332 400.564L192.884 400.093L192.004 399.761L191.435 399.763L190.744 399.504L189.295 399.208L188.22 399.01Z" fill="#9BBECF"/>
<path d="M165.558 389.129L165.465 389.715L165.468 390.111L165.531 390.444L165.617 390.759L165.398 391.846L165.347 392.023L165.289 392.16L165.278 392.324L165.398 392.661L166.005 393.738L166.315 394.487L166.72 395.124L166.969 395.307L167.126 395.363L167.311 395.355L167.498 395.305L167.787 395.233L167.933 395.212L168.118 395.204L168.308 395.313L168.457 395.51L168.514 395.706L168.55 395.946L168.583 396.224L168.565 396.473L168.552 396.932L168.675 397.123L168.911 397.172L169.113 397.167L169.249 397.221L169.429 397.398L169.963 398.041L170.08 398.349L170.608 398.424L170.792 398.283L170.872 398.14L170.954 398.021L171.443 397.78L172.342 397.981L172.643 398.135L173.042 398.441L173.469 398.029L173.588 397.659L174.884 397.363L175.281 398.813L175.508 399.66L175.556 399.869L175.936 401.205L176.062 401.614L176.225 402.078L176.245 402.318L176.206 402.61L176.082 403.02L175.851 403.582L175.785 403.717L175.651 403.946L175.507 404.073L175.32 404.12L174.95 404.266L174.305 404.939L174.207 405.07L174.1 405.265L174.008 405.521L173.87 405.973L173.804 405.966L173.393 405.755L173.144 405.603L172.924 405.47L172.22 405.152L172.111 405.305L172.041 405.506L172.004 405.757L171.983 405.976L171.94 406.22L171.855 406.341L171.638 406.383L170.925 406.301L170.682 406.22L170.264 406.045L169.149 406.284L168.906 406.283L167.358 406.24L166.939 406.111L165.462 404.865L165.359 404.738L165.301 404.588L165.279 404.402L165.246 404.173L165.099 404.015L164.157 403.637L163.938 403.638L163.835 403.767L163.703 403.831L163.313 403.56L162.978 402.998L162.851 402.375L162.894 402.131L163.006 401.927L162.719 400.74L162.611 400.595L162.319 400.431L161.696 400.23L161.224 400.111L160.58 400.053L160.012 400.026L159.789 400.17L159.755 400.434L159.757 401L159.785 401.192L159.845 401.403L160.111 401.799L160.286 402.134L160.353 402.355L160.427 402.669L160.436 402.976L160.248 405.659L160.14 405.946L159.312 406.041L158.97 406.046L158.764 406.017L157.811 405.852L157.667 405.819L157.047 405.423L156.436 404.982L155.843 404.602L155.632 404.54L155.359 404.577L154.72 404.331L154.523 404.227L154.433 404.154L154.51 401.568L154.533 401.31L154.636 400.409L154.741 399.503L154.847 398.57L153.962 398.025L153.288 397.604L153.51 396.784L154.122 395.996L153.861 395.235L154.434 394.752L154.907 394.447L155.375 394.135L155.307 393.766L155.282 392.675L155.554 392.374L156.038 392.223L156.401 392.033L156.805 391.802L157.392 391.457L157.748 391.238L157.941 390.892L157.973 390.574L157.937 390.158L157.934 388.817L157.995 388.679L158.2 388.686L159.071 388.794L160.279 389.247L160.802 389.652L161.288 390.02L161.782 390.184L162.407 390.021L162.788 389.857L165.558 389.129Z" fill="#9BBECF"/>
<path d="M210.611 518.964L210.232 519.086L210.055 519.103L209.792 519.063L208.21 518.439L206.822 517.864L205.951 517.375L204.608 516.999L204.235 516.909L203.894 516.853L203.177 516.774L202.921 516.76L202.433 516.749L202.175 516.802L201.821 516.87L200.02 516.983L198.414 517.258L197.558 517.491L197.427 517.551L197.222 517.711L197.022 517.823L196.233 518.137L196.081 518.081L195.841 517.973L195.32 517.923L194.858 517.949L194.675 518.006L194.352 518.309L194.186 518.479L193.437 518.462L192.927 518.332L191.882 518.296L191.35 518.346L190.908 518.421L190.478 518.501L190.113 518.584L189.915 518.723L189.251 519.001L187.955 518.954L187.757 518.714L187.661 518.375L187.543 518.218L187.423 518.099L187.173 517.935L186.944 517.84L185.961 517.628L185.773 517.617L185.197 517.612L184.699 517.545L184.011 517.361L183.87 517.303L183.341 516.904L183.169 516.529L182.861 515.97L182.299 515.993L182.167 516.049L182.062 516.181L181.85 516.39L181.669 516.517L180.592 516.894L180.432 516.915L180.231 516.886L180.065 516.819L179.618 516.559L179.416 516.368L179.304 516.154L179.161 515.959L179.013 515.809L178.812 515.683L178.618 515.615L178.41 515.62L178.125 515.741L177.748 515.461L177.554 514.889L177.557 514.599L177.822 514.128L177.967 514.014L178.124 513.9L178.21 513.77L178.265 513.565L178.312 513.214L178.229 512.817L178.035 512.514L177.774 512.224L177.586 512.057L177.377 511.945L177.121 511.88L176.704 511.836L176.543 511.825L175.487 511.951L174.537 512.11L174.227 512.21L171.547 501.366L171.346 500.593L171.031 500.672L170.733 499.318L172.838 498.814L176.467 497.906L180.443 496.908L181.977 496.53L192.261 493.989L191.772 491.992L191.658 491.568L190.746 487.887L190.301 486.055L190.242 485.847L190.667 485.718L190.989 485.634L193.414 485.038L201.537 483.031L201.687 482.997L201.842 483.653L203.818 491.716L210.19 517.209L210.59 518.833L210.611 518.964Z" fill="#9BBECF"/>
<path d="M180.095 447.481L180.003 447.644L178.967 448.244L178.837 448.312L178.429 448.55L178.275 450.394L178.123 450.736L177.967 454.029L177.926 454.441L177.769 456.228L178.04 457.301L179.046 461.216L179.395 462.57L179.409 462.597L178.719 462.932L178.32 462.981L178.126 462.905L177.905 462.863L177.723 462.865L177.41 462.978L177.149 463.117L176.983 463.232L176.796 463.415L176.566 463.601L176.381 463.702L176.176 463.784L175.509 463.993L174.057 464.199L173.681 464.14L173.446 464.086L173.174 464.072L173.034 464.103L172.959 464.129L172.716 463.762L172.516 463.52L171.76 462.746L170.909 462.405L170.209 461.98L169.454 460.728L169.363 459.769L169.327 459.361L169.245 458.529L168.699 458.288L168.742 457.121L167.802 456.031L167.586 455.863L167.372 455.815L167.169 455.78L166.724 455.385L166.093 454.88L165.623 454.658L164.535 453.944L164.222 453.357L164.115 453.239L163.908 453.096L163.701 452.98L162.59 452.435L161.971 452.153L161.721 452.083L161.55 451.99L160.813 451.543L160.628 451.285L160.527 451.158L160.162 450.957L159.447 450.614L158.317 450.101L157.819 449.96L157.167 449.885L155.622 449.876L155.423 449.937L155.203 450.051L155.053 450.166L154.811 450.335L153.773 450.613L153.518 450.587L153.399 450.422L153.331 450.213L153.292 449.946L153.278 449.763L153.28 448.961L153.201 447.785L153.112 447.192L153.309 447.112L153.377 446.932L153.345 446.43L152.866 445.175L151.874 444.612L151.244 444.189L151.006 443.699L150.675 443.213L149.142 442.473L148.499 442.525L146.959 442.398L147.231 442.07L147.613 441.542L148.244 440.318L148.466 439.835L148.507 439.642L148.502 439.293L148.587 438.777L148.801 438.591L149.04 438.505L149.219 438.41L149.286 438.245L149.325 438.025L149.345 437.841L149.337 436.823L149.84 436.721L150.076 436.686L150.32 436.652L151.012 436.577L151.225 436.493L151.582 436.291L151.767 436.128L152.393 435.863L153.388 435.506L153.735 435.447L153.868 435.527L153.931 435.733L153.916 436.189L154.212 437.314L154.476 437.439L154.775 437.361L155.901 437.668L156.481 437.75L157.307 437.665L157.92 437.757L158.075 438.143L158.205 438.368L158.457 438.616L158.659 438.788L158.869 438.946L159.235 439.01L159.931 439.012L160.103 438.985L160.295 438.867L160.423 438.617L160.553 438.153L160.759 437.669L160.951 437.614L161.717 437.882L162.023 438.114L163.295 437.945L163.502 437.901L163.753 437.772L163.861 437.644L163.957 437.453L164.028 437.252L164.194 437.137L164.553 437.114L164.698 437.117L167.462 437.558L167.677 437.628L167.845 437.723L167.967 437.809L168.075 437.915L169.151 439.317L169.451 440.161L169.675 440.405L169.857 440.484L170.276 440.575L170.492 440.614L170.681 440.625L170.881 440.661L171.107 440.726L171.464 440.867L173.984 442.26L174.102 442.359L174.44 442.718L174.55 442.913L174.677 443.422L175.357 444.012L176.792 445.064L179.082 446.705L179.558 447.042L180.095 447.481Z" fill="#9BBECF"/>
<path d="M157.1 504.664L157.162 504.113L156.872 503.261L156.68 502.619L156.697 502.42L156.799 502.062L156.963 501.826L156.6 501.246L156.242 500.78L156.102 500.486L156.156 500.294L156.003 499.459L155.52 498.255L154.665 497.972L154.529 497.911L154.356 497.7L154.317 497.483L154.417 497.177L154.564 497.097L154.788 497.025L154.987 496.932L155.391 496.578L155.461 496.346L155.407 495.971L155.335 495.806L155.252 495.505L155.181 495.19L155.181 495.126L155.302 493.843L155.341 492.167L155.627 490.966L156.053 489.717L155.917 489.358L155.797 488.876L155.806 488.787L155.909 488.682L156.185 488.554L156.378 488.514L156.538 488.517L156.852 488.463L157.234 487.991L156.749 486.922L156.096 485.316L155.834 484.826L155.73 484.427L155.516 482.564L155.68 481.516L155.803 481.271L155.806 481.049L155.398 480.226L154.853 480.072L154.657 480.053L154.499 480.124L154.36 480.365L154.289 480.645L154.13 480.708L153.259 479.906L153.17 479.706L153.175 479.443L153.124 479.067L152.975 478.89L153.07 478.473L153.291 477.934L153.332 477.301L152.943 477.212L152.089 476.615L151.655 475.609L151.606 475.224L151.611 474.902L151.575 474.597L151.463 474.367L150.69 473.425L150.535 473.194L151.053 472.942L151.97 472.738L152.326 472.713L152.586 472.581L152.707 472.475L152.87 472.359L153.209 472.187L153.537 472.062L153.802 471.984L154.276 471.835L154.454 471.58L154.447 471.364L154.351 471.058L154.307 470.879L154.341 470.72L154.445 470.575L155.358 469.808L155.657 469.71L156.526 469.065L156.886 468.63L157.181 468.608L157.319 468.661L157.487 468.774L157.651 468.916L157.792 469.091L157.942 469.22L158.234 469.346L158.794 469.119L159.195 469.118L159.343 469.161L159.567 469.295L159.718 469.337L160.079 469.41L160.269 469.438L161.457 469.431L161.684 469.403L161.876 469.28L161.957 469.073L161.889 468.674L161.901 468.456L162.038 468.287L162.214 468.259L162.545 468.367L162.705 468.367L163.557 468.246L164.252 467.891L164.39 467.805L164.588 467.66L164.836 467.591L164.983 467.617L165.112 467.68L165.254 467.764L165.394 467.904L165.588 468.197L166.383 468.617L166.533 468.656L166.947 468.628L167.554 468.576L167.856 468.473L167.983 468.402L168.205 468.354L168.896 468.42L169.052 468.484L169.645 468.908L169.798 469.036L169.89 469.124L170.128 469.248L170.483 469.766L170.812 470.335L171.188 471.173L171.726 471.892L171.764 472.454L171.861 473.171L171.966 473.328L172.137 473.495L172.387 474.218L172.653 475.132L172.646 475.415L173.332 477.057L173.722 477.543L174.257 478.064L175.049 479.065L175.52 479.848L175.746 480.05L176.217 480.234L176.374 480.361L177.069 481.104L177.366 481.685L177.428 482.324L177.229 482.671L177.151 483.044L177.544 484.278L178.343 485.781L178.434 485.925L179.212 486.719L179.859 487.359L180.071 487.663L180.356 488.116L180.458 488.309L181.069 489.822L181.545 491.703L181.728 492.78L181.75 493.009L181.856 494.688L181.863 494.968L181.87 495.934L181.953 497.004L182.122 497.212L182.141 497.227L180.623 497.601L176.689 498.588L173.098 499.486L171.015 499.985L171.319 501.361L171.631 501.284L171.835 502.07L174.561 513.096L173.942 513.131L172.965 512.938L172.036 512.634L170.681 512.297L170.517 512.346L170.308 512.477L170.176 512.574L170.029 512.61L169.421 512.611L169.152 512.579L168.912 512.448L168.751 512.191L168.634 511.879L168.499 511.682L168.313 511.526L167.997 511.418L166.969 511.266L166.797 511.297L166.528 511.392L166.099 511.566L165.896 511.72L165.699 511.82L165.11 511.899L164.817 511.913L164.495 511.886L164.073 511.729L163.8 511.619L163.546 511.46L162.986 510.917L163.048 510.493L163.008 510.209L162.927 509.912L162.793 509.597L162.584 509.585L162.217 509.49L161.904 509.33L161.751 509.217L161.641 508.963L161.447 508.683L160.421 508.041L159.996 508.009L159.776 507.956L159.364 507.587L159.24 507.415L159.163 507.248L159.079 507.035L158.797 506.498L158.635 506.317L158.486 506.298L158.312 506.461L158.131 506.533L157.932 506.377L157.749 506.081L157.688 505.787L157.765 505.581L157.692 505.147L157.509 504.867L157.248 504.695L157.1 504.664Z" fill="#9BBECF"/>
<path d="M235.399 412.047L235.673 411.937L235.892 411.927L236.107 412.074L236.222 412.299L236.346 412.381L236.999 412.491L237.166 412.412L237.883 411.507L237.942 411.296L237.941 410.832L237.892 410.685L237.781 410.558L237.75 410.195L237.825 409.761L238.479 408.634L238.568 408.517L238.701 408.427L239.38 408.039L239.512 407.995L240.219 407.335L240.594 406.709L240.725 406.615L241.006 406.534L241.185 406.41L241.252 406.28L241.262 406.066L241.246 405.669L241.352 405.488L241.542 405.346L241.777 405.303L242.374 403.408L242.352 402.332L242.209 402.012L242.345 401.793L242.308 401.598L242.11 401.421L241.791 400.125L242.113 399.799L241.774 398.658L241.459 397.728L241.494 397.152L241.843 397.042L242.454 397.268L242.588 397.329L242.958 396.844L243.39 396.544L243.621 396.467L244.32 396.362L244.419 396.14L244.677 395.777L246.398 396.388L246.672 396.709L247.124 397.474L247.158 397.628L247.202 398.059L247.378 398.544L248.218 399.371L248.906 400.001L249.019 400.154L249.103 400.379L249.127 400.475L249.126 400.585L249.083 400.841L248.978 401.056L248.893 401.301L249.169 402.347L249.318 403.421L249.321 403.719L249.603 404.31L249.905 404.999L249.911 405.216L249.836 405.741L249.802 405.939L249.611 406.954L249.474 407.31L249.308 407.185L249.035 407.298L248.384 407.736L248.306 408.012L248.198 408.232L248.082 408.401L247.967 408.543L247.832 408.637L247.617 408.683L247.181 409.491L246.949 409.881L246.482 410.247L245.877 410.492L245.383 410.781L244.443 411.507L243.882 411.722L243.74 411.674L243.683 411.526L243.546 411.579L243.214 412.697L243.265 412.998L243.255 413.148L242.677 414.09L242.415 414.246L241.651 414.519L240.812 415.235L240.547 415.697L240.549 415.852L240.6 416.088L240.255 416.643L239.433 417.207L239.149 417.338L238.388 417.066L238.141 416.901L237.35 416.096L237.269 415.962L237.162 415.61L236.984 415.103L236.848 414.857L236.76 414.728L236.113 413.929L235.937 413.795L235.745 413.612L235.368 413.196L235.229 412.921L235.172 412.662L235.181 412.49L235.22 412.25L235.399 412.047Z" fill="#9BBECF"/>
<path d="M156.052 535.484L156.151 535.455L156.517 535.777L156.705 535.815L157.295 535.633L157.349 535.453L157.315 535.118L157.275 533.98L157.356 533.006L157.264 532.211L156.937 531.292L156.737 530.765L156.616 530.554L156.558 530.338L156.47 529.878L156.471 529.652L156.532 529.438L156.695 529.175L156.838 529.019L157.364 528.487L158.139 527.706L158.393 527.487L158.562 527.418L158.772 527.389L159.089 527.318L159.218 527.211L159.509 526.683L159.505 525.766L159.462 525.488L159.272 525.228L158.984 525.093L158.785 525.03L158.436 524.801L158.221 524.536L157.743 523.486L157.554 523.019L157.483 522.383L157.322 521.672L156.303 520.255L156.023 519.924L155.84 519.557L155.591 519.214L155.367 518.833L155.271 518.522L155.246 518.24L155.328 518.064L155.507 517.837L155.333 516.739L155.222 516.553L154.986 516.355L154.79 516.166L154.442 515.575L154.458 515.275L154.616 514.947L154.643 514.551L154.595 513.882L154.074 512.785L153.563 511.772L153.669 510.838L153.803 509.099L153.806 508.546L153.904 508.451L154.146 508.461L154.342 508.439L155.788 507.448L155.808 507.237L155.569 506.888L155.508 506.261L156.044 505.208L156.587 505.05L156.831 505.008L156.991 504.856L157.053 504.708L157.198 504.738L157.453 504.908L157.632 505.183L157.704 505.609L157.628 505.81L157.689 506.099L157.868 506.389L158.062 506.544L158.238 506.472L158.408 506.313L158.553 506.332L158.712 506.51L158.987 507.037L159.07 507.246L159.145 507.411L159.267 507.579L159.669 507.942L159.884 507.994L160.299 508.027L161.3 508.657L161.491 508.933L161.598 509.183L161.748 509.294L162.053 509.451L162.411 509.545L162.616 509.556L162.746 509.866L162.826 510.158L162.865 510.436L162.805 510.852L163.353 511.386L163.601 511.542L163.868 511.651L164.279 511.805L164.594 511.832L164.879 511.819L165.454 511.743L165.646 511.644L165.844 511.494L166.262 511.323L166.524 511.231L166.692 511.201L167.696 511.352L168.004 511.458L168.186 511.611L168.318 511.804L168.432 512.111L168.59 512.363L168.824 512.492L169.087 512.524L169.68 512.524L169.823 512.488L169.952 512.394L170.156 512.266L170.315 512.218L171.638 512.551L172.546 512.85L173.499 513.041L174.103 513.008L174.138 513.166L175.912 520.337L177.019 524.842L175.735 525.98L175.572 526.059L175.362 526.178L175.006 526.703L174.91 526.96L174.89 527.335L174.865 527.513L174.792 527.675L174.246 528.371L174.141 528.561L173.839 529.501L173.636 530.26L173.472 530.484L172.999 530.878L172.8 530.951L172.516 531.03L171.995 531.58L171.849 531.756L171.739 531.974L171.654 532.214L171.607 532.482L171.556 532.783L171.487 532.948L171.399 533.099L170.883 533.807L170.73 533.955L170.409 534.085L170.199 534.207L169.187 534.969L168.456 535.56L168.292 535.726L168.137 535.928L168.037 536.155L167.972 536.444L167.944 536.973L167.979 537.159L168.074 537.31L168.194 537.428L168.344 538.061L168.239 539.656L168.17 539.911L167.745 540.893L167.617 541.006L166.513 541.659L166.223 541.684L166.041 541.628L165.892 541.595L165.686 541.651L165.451 541.822L165.227 542.053L165.139 542.204L165.039 542.431L164.933 542.539L164.769 542.615L164.222 542.798L163.935 542.885L163.651 543.088L163.527 543.201L162.975 543.766L162.373 544.676L162.349 544.888L162.388 545.178L162.525 545.335L162.728 545.459L162.895 545.597L163.036 545.795L163.184 546.191L163.176 546.512L163.112 546.711L162.701 547.553L162.23 547.966L161.967 548.102L161.714 548.157L161.491 548.178L161.255 548.174L161.098 548.155L160.709 548.061L160.193 547.975L159.916 547.993L158.212 548.239L158.021 548.294L158.036 547.773L157.863 547.415L157.215 546.587L156.811 545.955L156.884 545.7L157.037 545.475L157.138 545.298L157.22 545.079L157.257 544.676L157.19 544.44L157.118 544.072L157.228 542.912L157.367 542.889L157.551 543.003L157.675 542.933L157.723 542.746L157.819 542.076L157.705 541.757L157.445 541.659L157.388 541.887L156.8 541.512L156.539 541.199L156.519 540.382L156.732 540.092L157.178 539.595L157.189 538.705L156.75 537.934L156.245 536.9L156.004 536.041L156.02 535.569L156.052 535.484Z" fill="#9BBECF"/>
<path d="M160.616 556.838L160.47 556.358L160.245 555.847L160.116 555.63L159.486 554.874L158.802 553.95L158.738 553.693L158.841 553.48L159.002 552.917L158.623 551.897L158.351 551.528L158.243 551.266L158.206 550.676L158.261 550.397L158.237 550.173L157.97 548.502L157.738 548.108L157.935 548.051L159.688 547.797L159.973 547.777L160.503 547.863L160.902 547.958L161.063 547.978L161.307 547.981L161.536 547.959L161.796 547.902L162.067 547.764L162.552 547.341L162.976 546.482L163.043 546.279L163.052 545.952L162.901 545.549L162.756 545.347L162.585 545.207L162.377 545.081L162.236 544.922L162.197 544.626L162.222 544.41L162.843 543.481L163.412 542.904L163.54 542.788L163.832 542.581L164.127 542.491L164.691 542.304L164.859 542.226L164.969 542.115L165.071 541.884L165.162 541.73L165.393 541.494L165.635 541.319L165.848 541.262L166.001 541.295L166.187 541.352L166.486 541.325L167.623 540.657L167.754 540.541L168.193 539.54L168.266 539.28L168.377 537.654L168.225 537.01L168.101 536.89L168.004 536.735L167.968 536.546L167.999 536.007L168.066 535.713L168.169 535.481L168.329 535.274L168.498 535.105L169.252 534.501L170.294 533.722L170.509 533.597L170.84 533.463L170.998 533.313L171.53 532.589L171.621 532.436L171.693 532.267L171.746 531.961L171.795 531.687L171.883 531.443L171.996 531.22L172.146 531.04L172.683 530.478L172.976 530.397L173.181 530.323L173.667 529.92L173.837 529.691L174.048 528.917L174.361 527.959L174.469 527.765L175.032 527.054L175.108 526.888L175.133 526.707L175.155 526.325L175.254 526.062L175.622 525.527L175.838 525.405L176.006 525.324L177.329 524.162L176.201 519.573L174.395 512.269L174.358 512.108L174.666 512.007L175.609 511.852L176.659 511.729L176.818 511.741L177.233 511.788L177.489 511.856L177.697 511.97L177.885 512.142L178.146 512.438L178.34 512.746L178.425 513.149L178.381 513.505L178.327 513.713L178.242 513.845L178.087 513.959L177.943 514.074L177.683 514.552L177.681 514.846L177.877 515.427L178.254 515.714L178.537 515.592L178.743 515.589L178.937 515.659L179.137 515.788L179.285 515.941L179.428 516.14L179.541 516.357L179.742 516.553L180.188 516.819L180.354 516.889L180.553 516.918L180.713 516.899L181.781 516.521L181.96 516.394L182.17 516.183L182.274 516.05L182.405 515.993L182.963 515.973L183.273 516.543L183.446 516.924L183.975 517.332L184.115 517.392L184.8 517.582L185.295 517.653L185.868 517.661L186.056 517.674L187.034 517.894L187.262 517.992L187.511 518.16L187.631 518.281L187.749 518.442L187.847 518.786L188.045 519.031L189.334 519.086L189.993 518.807L190.189 518.667L190.552 518.585L190.978 518.506L191.418 518.433L191.946 518.384L192.985 518.427L193.493 518.562L194.237 518.583L194.402 518.411L194.721 518.106L194.903 518.049L195.362 518.025L195.881 518.079L196.12 518.19L196.271 518.247L197.054 517.934L197.252 517.821L197.455 517.659L197.585 517.599L198.435 517.367L200.031 517.097L201.82 516.992L202.171 516.925L202.428 516.873L202.913 516.887L203.168 516.903L203.881 516.987L204.22 517.045L204.592 517.139L205.929 517.528L206.798 518.029L208.182 518.621L209.758 519.263L210.019 519.305L210.195 519.289L210.572 519.168L210.733 519.786L211.376 522.35L213.487 530.859L213.654 531.341L213.803 531.375L214.598 531.316L214.935 531.252L215.122 531.233L215.49 531.252L215.717 531.315L216.393 531.575L217.029 531.948L217.204 532.083L217.81 532.614L218.047 532.844L218.333 533.158L218.468 533.326L217.127 534.414L217.047 534.549L216.931 534.681L216.775 534.759L216.253 534.957L214.756 535.341L214.262 535.433L213.44 535.669L212.683 535.897L212.526 535.94L212.035 536.047L211.805 536.048L211.565 535.997L211.29 535.895L211 535.706L210.82 535.58L210.596 535.469L210.327 535.409L209.821 535.373L209.215 535.373L208.081 535.08L206.697 534.85L206.529 534.848L204.97 534.653L204.723 534.401L204.381 533.844L204.18 533.807L203.615 533.817L203.446 533.847L203.27 533.926L202.99 534.119L202.276 535.435L202.228 536.276L202.274 536.824L202.578 537.7L202.667 537.9L203.112 538.852L204.032 540.661L204.229 540.858L204.4 540.962L204.566 541.032L204.702 541.232L204.773 541.626L204.784 541.814L204.757 542.114L204.742 542.399L204.836 542.808L204.961 543.091L205.069 543.27L205.247 543.499L205.258 543.921L205.221 544.212L205.088 545.062L205.106 545.355L205.183 545.569L205.339 545.8L204.843 545.821L199.727 547.103L195.053 548.259L190.385 549.425L184.153 550.973L180.15 551.977L177.257 552.698L173.029 553.743L168.584 554.858L168.361 554.905L164.134 555.958L163.024 556.242L160.616 556.838Z" fill="#9BBECF"/>
<path d="M183.771 411.767L180.214 412.599L179.157 412.54L178.494 412.496L178.24 412.476L177.498 416.172L177.439 417.265L177.442 417.61L177.39 417.642L176.003 418.003L175.77 418.019L175.536 418.016L175.274 418.089L175.123 418.18L174.977 418.323L174.86 418.519L174.706 418.663L174.499 418.768L174.327 418.773L173.645 418.749L172.054 418.545L171.826 418.169L171.632 417.975L171.444 417.984L171.313 418.092L171.127 418.294L170.981 418.437L170.831 418.501L170.037 418.532L169.252 418.537L169.158 418.697L169.185 418.918L169.273 419.208L169.371 420.06L169.276 420.266L167.397 420.461L166.99 420.478L166.235 420.473L165.452 420.66L165.29 420.788L165.214 420.989L165.146 421.367L165.126 421.588L165.086 421.837L165.012 421.97L164.879 422.022L164.716 421.986L164.566 421.906L163.937 421.523L163.771 421.379L163.561 421.124L163.292 420.773L162.855 420.301L162.493 419.992L161.592 419.306L161.473 419.225L161.363 419.131L161.265 419.023L161.11 418.765L161.01 418.554L160.952 418.353L160.907 418.079L160.947 417.921L161.275 417.494L161.799 417.348L162.36 417.174L162.514 417.06L162.741 416.798L162.827 416.621L162.767 415.653L161.932 414.422L161.697 414.306L160.217 414.705L158.03 415.28L155.745 415.875L153.408 416.48L149.369 416.726L148.719 416.763L148.619 416.757L149.045 416.579L149.424 416.246L148.049 414.88L147.681 414.781L147.428 414.419L147.395 414.192L147.485 413.775L147.599 413.298L147.785 412.758L148.099 411.925L148.241 411.783L148.566 411.755L148.761 411.334L148.835 410.948L149.215 410.652L150.968 409.331L152.526 408.149L154.354 406.749L154.421 404.576L154.51 404.648L154.705 404.752L155.339 404.996L155.61 404.959L155.819 405.021L156.407 405.399L157.013 405.836L157.629 406.23L157.771 406.262L158.716 406.426L158.921 406.455L159.259 406.45L160.081 406.355L160.188 406.071L160.374 403.408L160.365 403.103L160.292 402.791L160.225 402.572L160.052 402.24L159.788 401.846L159.728 401.637L159.7 401.446L159.698 400.885L159.732 400.622L159.953 400.48L160.516 400.506L161.155 400.564L161.623 400.683L162.241 400.882L162.531 401.045L162.638 401.189L162.923 402.367L162.812 402.57L162.769 402.812L162.895 403.43L163.228 403.989L163.615 404.257L163.745 404.194L163.848 404.066L164.065 404.065L164.999 404.44L165.145 404.597L165.178 404.824L165.2 405.009L165.257 405.158L165.359 405.284L166.825 406.521L167.24 406.65L168.775 406.693L169.016 406.693L170.122 406.456L170.537 406.63L170.778 406.71L171.486 406.792L171.7 406.75L171.785 406.63L171.827 406.388L171.848 406.17L171.885 405.922L171.954 405.723L172.062 405.57L172.761 405.886L172.979 406.018L173.226 406.169L173.634 406.379L173.699 406.385L173.836 405.937L173.927 405.683L174.032 405.49L174.13 405.359L174.77 404.691L175.137 404.547L175.322 404.5L175.465 404.374L175.598 404.147L175.663 404.013L175.892 403.455L176.015 403.048L176.054 402.758L176.034 402.52L175.872 402.059L175.747 401.653L175.37 400.327L175.322 400.119L175.097 399.279L174.703 397.84L173.417 398.133L173.299 398.5L172.876 398.91L172.48 398.606L172.181 398.452L171.29 398.253L170.805 398.491L170.724 398.61L170.644 398.751L170.462 398.892L169.938 398.817L169.823 398.512L169.292 397.873L169.114 397.697L168.978 397.644L168.778 397.648L168.545 397.6L168.423 397.41L168.436 396.955L168.453 396.708L168.42 396.431L168.384 396.193L168.328 395.999L168.181 395.804L167.992 395.695L167.808 395.703L167.663 395.724L167.377 395.795L167.192 395.845L167.008 395.853L166.852 395.797L166.605 395.615L166.203 394.983L165.895 394.239L165.293 393.17L165.174 392.835L165.185 392.673L165.242 392.537L165.293 392.362L165.51 391.282L165.425 390.97L165.362 390.64L165.359 390.246L165.451 389.665L166.801 389.298L166.957 389.384L168.797 389.477L169.001 389.377L169.68 389.485L170.071 389.74L170.16 389.908L170.465 390.736L171.084 391.364L171.317 391.792L171.304 392.057L171.368 392.254L171.682 392.468L172.136 392.75L172.259 392.943L172.371 393.264L172.42 393.465L172.535 393.637L172.664 393.537L172.715 393.315L172.698 392.739L172.637 392.557L172.535 391.974L172.582 391.386L172.61 391.246L172.688 390.953L172.816 390.788L172.956 390.571L173.16 390.076L173.513 387.653L173.701 386.919L175.106 386.581L176.048 386.35L179.164 385.555L181.267 385.009L181.412 385.117L181.536 385.393L181.597 385.637L181.638 385.786L181.889 386.016L182.758 386.399L182.852 386.395L183.091 386.609L183.907 387.108L184.923 387.493L185.139 387.522L185.292 387.499L185.32 387.599L185.905 389.868L186.581 392.566L187.825 397.625L188.179 399.047L188.46 400.082L188.702 400.99L187.275 404.204L185.199 408.7L185.072 408.964L183.771 411.767Z" fill="#9BBECF"/>
<path d="M205.138 615.296L204.877 615.733L204.768 615.995L204.613 616.87L204.908 617.367L204.668 618.217L204.452 618.705L204.256 619.105L204.139 619.275L204.038 619.914L204.717 619.659L204.814 619.346L204.804 619.043L204.892 618.333L205.037 618.215L205.198 618.3L205.277 620.052L205.3 621.082L205.384 622.246L205.513 623.043L205.585 623.568L205.63 624.198L205.649 624.635L205.646 624.875L205.625 625.165L205.532 625.415L205.219 626.013L205.112 626.192L204.72 626.771L204.553 627.004L204.357 627.248L204.251 627.369L203.571 627.929L203.437 628.033L203.169 628.174L202.974 628.234L202.832 628.269L202.584 628.304L201.834 627.912L201.057 627.12L200.358 626.747L200.32 626.983L199.814 627.386L199.564 627.425L198.866 627.556L198.732 627.593L198.161 627.908L198.037 627.989L197.849 628.263L198.454 628.038L198.598 627.885L198.829 627.722L199.028 627.676L199.258 627.693L200.021 627.53L200.156 627.462L200.323 627.322L200.543 627.268L200.8 627.395L200.979 627.648L201.151 627.965L201.282 628.1L201.45 628.183L201.594 628.245L202.304 628.506L202.395 628.73L202.305 629.042L202.165 629.229L202.041 629.338L201.861 629.473L201.423 629.758L200.804 630.174L200.101 630.783L199.823 631.04L199.651 631.239L199.536 631.417L199.237 632.089L199.163 632.291L198.749 633.701L198.707 633.922L198.701 634.506L198.808 636.153L198.968 636.782L199.165 637.37L199.184 637.6L199.064 637.931L198.718 638.65L198.385 639.136L198.274 639.316L198.067 639.747L197.966 640.124L198.156 639.776L198.468 639.221L199.082 638.58L199.381 638.939L199.616 639.338L199.702 639.668L199.767 639.989L199.857 640.244L199.982 640.494L200.922 642.164L201.047 642.368L201.498 643.073L201.84 643.586L202.018 643.913L202.186 644.274L202.16 644.655L201.991 644.694L201.842 644.625L201.587 644.74L201.454 644.878L201.195 645.318L201.027 645.333L200.654 645.269L199.958 645.032L199.438 645.146L198.789 645.534L198.06 646.259L198.444 646.097L198.582 645.996L198.759 645.85L199.446 645.55L199.723 645.509L200.356 645.523L200.938 645.66L201.99 645.202L202.166 645.241L202.817 645.95L203.412 646.733L204.022 647.605L204.215 647.866L205.237 649.023L205.925 649.693L206.087 649.844L206.283 649.994L206.793 650.356L207.476 651.023L207.798 651.396L208.081 651.83L207.95 652.383L207.826 652.476L207.733 651.932L206.744 651.909L206.236 651.942L205.693 651.991L204.996 652.047L204.153 651.69L203.721 651.516L203.416 651.459L201.945 651.235L201.589 651.332L200.435 651.615L198.195 651.215L196.887 650.97L196.482 650.906L195.74 651.091L193.591 651.638L188.301 652.955L185.242 653.713L183.808 654.054L183.376 653.227L183.287 652.87L183.103 652.615L182.016 651.853L181.629 651.672L181.43 651.589L181.272 651.534L181.072 651.494L180.728 651.517L180.495 651.454L179.269 649.683L179.438 649.473L179.543 649.286L179.568 648.31L179.437 647.893L179.321 647.379L179.377 647.06L179.524 646.808L179.54 646.495L179.18 646.206L178.907 646.137L178.71 646.049L178.494 645.868L178.231 645.359L178.443 644.477L178.777 644.351L178.834 644.114L178.578 642.43L178.441 642.206L178.184 641.926L177.985 641.749L177.709 641.544L177.619 641.293L177.73 640.663L177.71 640.394L177.1 640.116L176.27 640.197L176.098 640.271L175.958 640.396L175.858 640.617L175.785 640.948L175.678 641.08L175.469 641.163L175.236 641.131L175.075 641.046L174.918 640.917L174.688 640.787L174.494 640.835L173.876 641.364L173.69 641.555L173.59 641.713L173.337 642.339L173.162 642.602L172.967 642.787L172.777 642.913L172.619 642.995L172.425 643.012L172.257 642.933L172.086 642.76L171.369 641.363L170.979 640.373L170.489 638.888L170.346 638.627L169.923 638.051L169.779 637.896L169.635 637.783L168.937 637.46L168.255 637.157L168.09 636.885L168.084 636.531L168.157 636.169L168.276 635.869L168.224 635.55L168.046 635.399L167.842 635.281L167.511 635.059L167.449 634.108L167.577 633.842L167.755 633.559L167.839 633.335L166.906 631.538L166.434 631.155L166.3 630.989L166.333 629.921L166.495 628.45L166.765 628.363L168.653 627.834L168.889 627.377L168.314 627.359L168.241 627.272L168.173 627.062L168.446 625.332L168.739 624.513L168.846 624.271L169.016 624.08L169.228 623.918L169.351 623.848L169.617 623.794L169.901 623.656L170.08 623.53L170.226 623.384L170.326 623.269L170.472 623.061L171.081 622.06L171.19 621.763L171.192 621.521L171.077 621.06L170.816 620.277L170.574 619.649L170.477 619.431L170.139 618.76L170.142 618.537L170.219 618.346L170.333 618.212L170.711 617.859L171.096 617.58L171.841 616.78L171.395 615.222L170.975 614.142L170.238 613.586L169.935 613.587L169.716 613.505L169.404 613.297L169.25 613.128L169.16 612.877L169.307 611.237L169.386 610.776L169.476 610.448L169.68 609.815L169.721 609.605L169.733 609.376L169.654 608.449L169.393 608.354L169.247 608.265L169.24 607.973L169.3 607.806L169.423 607.678L169.544 607.585L169.767 607.436L169.942 607.388L170.195 607.407L170.411 607.275L170.785 606.576L171.025 605.73L171.805 605.071L171.869 604.91L171.86 604.435L171.714 604.128L171.454 603.942L170.704 603.288L170.42 601.103L170.527 600.908L170.962 600.765L171.177 600.602L171.822 599.585L171.867 599.378L171.832 599.066L171.532 597.968L171.289 597.54L170.91 597.016L170.423 595.511L170.327 595.284L170.131 595.071L169.88 595.017L169.632 594.988L169.066 594.602L169.362 594.356L169.533 594.294L169.729 594.194L169.888 594.068L170.008 593.831L170.072 593.526L170.154 593.263L170.301 592.902L170.409 592.742L171.157 592.564L174.026 591.849L175.344 591.513L179.987 590.357L182.202 589.813L183.966 589.374L184.187 589.311L190.589 587.717L190.811 587.67L196.991 586.123L197.319 586.049L197.265 586.786L197.387 587.354L197.515 587.803L197.659 588.119L198.061 588.953L198.169 589.153L198.666 590.023L198.967 590.358L199.49 590.865L199.867 591.213L200.286 591.551L200.449 591.659L201.484 592.152L201.704 592.206L202.35 592.554L203.587 593.403L204.771 594.336L205.427 594.615L205.624 594.671L205.907 594.667L206.094 594.64L206.225 594.604L206.513 594.497L206.98 594.373L207.917 594.3L208.083 594.434L209.064 594.35L209.779 594.149L210.045 593.906L210.294 593.766L210.456 593.73L211.169 593.908L212.186 594.625L212.799 595.883L212.849 596.082L212.924 596.462L213.039 597.176L213.152 597.942L213.139 598.731L212.93 600.293L212.839 600.429L212.557 600.514L212.283 600.489L212.063 600.528L211.891 600.63L211.784 600.746L211.706 600.902L211.593 601.15L211.469 601.309L211.106 601.458L210.761 601.724L210.715 601.947L210.883 601.733L211.069 601.636L211.426 601.512L212.292 600.76L212.431 600.741L212.837 600.887L213.909 601.918L213.983 602.244L213.744 602.377L213.561 602.345L213.323 602.263L213.114 602.253L212.795 602.5L213.152 603.338L213.141 603.794L212.476 604.042L211.413 605.828L211.153 606.311L210.799 607.013L210.567 607.673L210.043 607.909L209.506 608.297L209.363 608.422L209.248 608.615L208.965 609.276L208.619 609.992L208.28 610.158L208.075 610.272L207.925 610.372L207.756 610.504L207.198 610.995L207.057 611.147L206.89 611.49L206.594 612.576L206.481 613.23L206.243 613.414L206.079 613.553L205.943 613.708L205.598 614.212L205.23 615.058L205.138 615.296Z" fill="#9BBECF"/>
<path d="M176.219 431.588L176.677 431.402L176.821 431.259L177.076 430.321L176.737 429.801L176.53 429.546L176.391 429.362L176.298 429.114L176.092 428.068L176.135 427.866L176.654 426.83L176.822 426.725L176.972 426.656L177.136 425.911L177.191 425.476L177.251 424.156L177.393 423.401L177.444 422.327L177.689 422.25L177.745 421.273L178.229 421.189L178.346 421.112L178.272 420.816L178.208 420.605L178.016 420.132L177.784 419.589L177.7 419.344L177.698 419.149L177.729 418.807L177.753 418.464L177.74 418.256L177.694 418.073L177.553 417.662L177.545 417.302L177.587 416.162L178.265 412.315L178.516 412.34L179.171 412.395L180.216 412.473L183.715 411.658L185.725 411.177L186.36 411.027L188.044 410.615L191.838 409.671L193.479 409.254L194.617 408.959L194.871 408.9L194.915 409.048L195.942 413.047L197.07 417.531L198.234 422.236L199.221 426.182L199.31 426.574L199.47 428.197L199.501 428.463L199.754 431.025L200.098 434.543L200.332 437.01L200.566 439.604L200.958 443.846L200.189 442.74L199.072 441.11L196.607 441.771L192.891 442.748L192.531 442.83L191.573 442.993L191.345 442.624L190.95 442.365L190.613 442.289L189.929 442.305L189.702 442.361L189.517 442.459L189.357 442.55L189.155 442.629L188.973 442.678L188.785 442.721L188.514 442.74L187.083 442.377L186.741 442.076L186.686 441.827L185.064 441.726L181.403 443.732L181.275 443.795L181.227 443.76L181.079 443.633L180.203 442.627L179.727 441.965L179.611 441.748L179.494 441.467L179.054 440.196L178.781 439.21L178.321 437.798L178.181 437.518L177.974 437.375L177.792 437.329L177.572 437.304L177.512 437.108L177.46 436.902L177.679 436.422L177.841 436.123L177.907 435.841L177.86 435.463L177.819 435.27L177.737 434.956L177.553 434.358L177.496 434.189L177.253 433.649L176.688 432.442L176.268 431.647L176.219 431.588Z" fill="#9BBECF"/>
<path d="M218.719 464.84L218.924 464.982L218.916 465.299L218.611 465.983L218.325 466.741L218.372 466.994L218.392 467.312L218.372 467.503L218.217 468.121L217.825 468.361L217.666 468.393L217.521 468.382L217.335 468.29L217.202 468.2L216.977 468.091L216.815 468.044L215.578 468.12L215.396 468.185L215.243 468.27L215.124 468.382L215.06 468.54L215.078 468.722L215.212 468.976L213.282 472.712L211.399 476.255L210.198 476.57L207.365 477.299L203.685 478.223L203.733 478.05L204.174 476.704L205.839 471.492L207.383 466.601L207.562 466.142L207.83 466.071L208.098 465.796L208.214 465.577L208.281 465.324L208.277 465.116L208.165 463.885L208.035 463.621L207.173 462.798L206.705 462.05L206.403 461.502L206.217 461.249L206.017 461.085L205.813 460.982L205.592 460.903L205.405 460.819L205.202 460.657L205.047 460.419L204.915 460.093L204.748 459.854L204.57 459.729L204.434 459.676L204.165 459.629L203.505 459.158L203.367 458.683L203.337 458.434L203.11 457.429L202.876 456.836L202.511 455.945L203.113 455.116L203.208 450.215L203.257 447.484L202.075 447.337L200.625 446.778L200.456 445.909L200.738 445.819L200.527 443.445L200.156 439.232L199.934 436.655L199.712 434.205L199.385 430.711L199.144 428.167L199.113 427.902L198.962 426.291L200.55 425.907L202.532 425.418L207.866 424.089L209.71 423.618L212.844 422.838L218.239 421.483L218.264 421.599L218.275 421.754L218.256 421.932L218.193 422.287L218.054 422.491L217.903 422.6L217.761 422.635L217.514 422.661L217.282 422.857L217.181 423.044L217.142 423.204L217.178 423.507L217.274 423.83L217.6 424.724L217.682 425.054L217.899 426.673L217.882 426.97L217.908 429.654L217.884 429.921L217.028 431.4L216.869 431.558L216.423 431.835L216.315 431.973L216.037 433.356L216.022 433.565L216.157 434.06L216.288 434.714L216.357 435.214L216.365 435.658L216.339 436.224L216.289 436.564L216.294 436.76L216.347 437.035L216.525 437.338L216.766 437.507L217.007 437.696L217.179 437.878L217.277 438.161L217.196 439.617L217.082 440.273L217.339 440.75L217.392 440.835L217.805 441.234L217.981 441.371L218.086 441.633L218.328 442.571L218.364 442.988L217.994 444.379L217.787 445.062L217.73 445.214L217.569 445.586L217.183 446.724L216.977 447.457L216.742 448.056L216.482 448.362L216.365 448.722L216.318 449.058L216.302 449.342L216.264 449.604L216.114 450.068L215.141 451.983L214.907 452.396L214.691 452.659L214.289 452.826L214.062 452.899L213.662 453.046L213.424 453.188L213.318 453.38L213.744 456.794L214.27 458.048L214.154 458.87L214.155 459.481L214.416 460.43L215.024 461.853L215.14 462.097L215.255 462.273L216.8 464.071L216.951 464.136L217.393 464.195L218.013 464.345L218.234 464.42L218.65 464.77L218.719 464.84Z" fill="#9BBECF"/>
<path d="M150.729 473.668L150.231 473.575L150.143 473.439L150.099 473.139L149.613 472.073L149.809 471.698L150.07 471.585L150.129 470.924L150.041 470.722L149.645 470.43L149.501 470.387L149.058 470.529L148.797 470.535L148.655 470.483L148.512 470.353L148.397 470.244L147.044 468.338L147.029 468.062L146.985 467.565L146.745 466.403L146.656 465.251L146.681 465.063L147.007 464.446L147.18 464.561L147.584 464.291L147.893 463.685L147.853 463.416L147.541 463.17L147.467 462.98L147.417 462.657L147.36 462.123L147.381 460.908L147.409 460.566L147.523 459.892L147.796 458.834L148.243 458.357L148.392 458.343L148.59 458.27L148.934 457.999L149.1 457.568L149.277 456.416L149.202 456.053L149.074 455.891L148.903 455.8L148.305 455.094L148.295 454.883L148.259 454.435L148.045 453.515L147.836 452.921L147.805 452.869L147.554 452.778L147.441 452.676L147.357 452.508L147.339 452.296L147.331 452.065L147.224 451.729L147.153 451.581L146.693 450.785L146.43 450.449L146.351 450.283L146.27 449.807L146.546 449.005L146.807 448.436L147.207 448.285L147.378 448.088L147.43 447.93L147.422 447.731L147.304 447.319L147.261 446.273L147.314 445.539L147.211 445.293L147.1 445.139L147.015 444.979L146.924 444.599L147.064 443.926L147.243 443.759L147.222 443.489L147.002 442.408L148.512 442.549L149.143 442.502L150.651 443.261L150.98 443.755L151.217 444.251L151.838 444.684L152.815 445.261L153.295 446.532L153.33 447.04L153.265 447.222L153.072 447.301L153.164 447.901L153.251 449.089L153.255 449.9L153.271 450.085L153.311 450.355L153.379 450.567L153.497 450.735L153.748 450.763L154.763 450.49L154.999 450.321L155.145 450.206L155.36 450.093L155.554 450.033L157.069 450.054L157.709 450.135L158.198 450.281L159.31 450.808L160.014 451.161L160.373 451.367L160.474 451.496L160.657 451.758L161.383 452.215L161.551 452.311L161.797 452.384L162.406 452.674L163.499 453.233L163.704 453.352L163.908 453.498L164.013 453.618L164.325 454.214L165.397 454.944L165.86 455.172L166.483 455.687L166.922 456.09L167.121 456.127L167.331 456.177L167.545 456.348L168.475 457.457L168.441 458.636L168.979 458.884L169.066 459.725L169.104 460.138L169.201 461.107L169.951 462.378L170.641 462.813L171.478 463.165L172.225 463.952L172.423 464.198L172.665 464.572L172.341 464.723L171.316 465.034L171.132 465.075L169.724 465.221L168.857 465.299L168.578 465.353L168.479 465.46L168.426 465.734L168.686 467.037L169.112 468.641L169.304 469.216L169.418 469.428L169.603 469.713L169.513 469.625L169.363 469.497L168.782 469.074L168.629 469.009L167.954 468.941L167.738 468.987L167.615 469.057L167.32 469.158L166.728 469.207L166.324 469.233L166.177 469.194L165.399 468.773L165.209 468.482L165.072 468.342L164.933 468.259L164.807 468.195L164.663 468.168L164.422 468.236L164.229 468.379L164.094 468.464L163.417 468.813L162.587 468.93L162.431 468.929L162.107 468.82L161.935 468.848L161.802 469.015L161.791 469.23L161.859 469.627L161.781 469.832L161.594 469.953L161.373 469.981L160.214 469.982L160.028 469.953L159.675 469.879L159.528 469.837L159.308 469.703L159.164 469.66L158.772 469.659L158.227 469.881L157.941 469.755L157.795 469.626L157.656 469.452L157.495 469.311L157.331 469.198L157.196 469.145L156.908 469.165L156.559 469.595L155.713 470.231L155.422 470.328L154.534 471.085L154.433 471.228L154.4 471.386L154.444 471.564L154.539 471.868L154.547 472.082L154.374 472.334L153.912 472.481L153.654 472.557L153.335 472.68L153.004 472.849L152.846 472.963L152.728 473.067L152.475 473.197L152.127 473.221L151.234 473.42L150.729 473.668Z" fill="#9BBECF"/>
<path d="M170.005 469.909L169.817 469.63L169.702 469.422L169.51 468.856L169.089 467.276L168.836 465.992L168.895 465.721L168.999 465.614L169.289 465.557L170.188 465.469L171.649 465.307L171.839 465.264L172.906 464.944L173.243 464.79L173.319 464.763L173.461 464.732L173.737 464.745L173.975 464.798L174.357 464.854L175.833 464.642L176.511 464.43L176.72 464.347L176.908 464.246L177.142 464.06L177.333 463.876L177.502 463.761L177.768 463.621L178.087 463.506L178.272 463.503L178.495 463.544L178.692 463.62L179.098 463.569L179.8 463.231L180.384 463.086L180.644 463.067L183.166 463.818L183.686 464.162L183.805 464.4L183.89 464.678L184.455 465.71L184.661 465.697L185.378 465.418L185.601 465.296L185.729 465.194L185.875 465.111L186.089 465.019L186.331 465.149L187.07 466.961L187.144 467.497L187.072 468.032L187.035 469.551L187.046 470.67L186.942 471.333L186.745 471.875L186.646 472.222L186.605 472.473L187.629 475.933L188.396 478.409L188.483 478.714L188.659 479.404L190.107 485.251L190.466 486.722L190.525 486.929L190.967 488.752L191.876 492.416L191.989 492.838L192.476 494.825L182.166 497.373L182.146 497.358L181.978 497.156L181.902 496.107L181.903 495.159L181.898 494.885L181.804 493.239L181.784 493.015L181.608 491.96L181.142 490.119L180.537 488.64L180.434 488.451L180.151 488.01L179.938 487.713L179.289 487.09L178.509 486.318L178.418 486.178L177.622 484.71L177.234 483.502L177.317 483.136L177.52 482.795L177.463 482.168L177.168 481.601L176.47 480.878L176.313 480.754L175.838 480.577L175.612 480.381L175.141 479.617L174.349 478.642L173.812 478.135L173.421 477.662L172.741 476.057L172.751 475.779L172.489 474.885L172.242 474.178L172.071 474.015L171.966 473.863L171.874 473.16L171.839 472.609L171.301 471.908L170.927 471.089L170.6 470.534L170.244 470.028L170.005 469.909Z" fill="#9BBECF"/>
<path d="M217.479 679.43L217.225 679.362L217.103 679.342L216.85 679.323L216.207 679.378L215.817 679.604L215.784 679.786L215.709 679.844L214.682 680.228L214.534 680.273L214.398 680.272L214.25 680.242L214.077 680.138L213.542 679.693L212.879 676.919L212.35 674.748L212.284 674.516L211.357 670.713L210.931 668.94L210.033 665.254L209.566 663.348L209.392 662.665L208.097 657.374L207.72 655.794L207.702 655.694L208.132 656.107L208.589 656.618L209.273 657.291L209.629 657.563L210.146 657.877L210.282 657.971L210.559 658.256L210.638 658.341L210.711 658.431L210.915 658.734L211.01 658.896L211.069 659.01L211.582 660.132L211.618 660.263L211.509 660.278L211.354 660.03L211.291 659.917L211.207 659.736L211.076 659.427L210.987 659.255L210.86 659.12L210.689 659.058L210.596 659.073L210.351 659.247L210.22 659.392L209.523 660.882L209.471 661.205L209.496 661.447L209.535 661.601L209.594 661.714L209.661 661.826L209.806 662.019L209.972 662.171L210.063 662.238L210.204 662.323L210.516 662.451L210.73 662.53L210.918 662.538L211.195 662.511L211.556 662.433L211.728 662.375L212.072 662.13L212.234 662.066L212.377 662.046L212.508 662.103L212.617 662.196L213.141 662.834L213.216 662.936L213.285 663.039L213.616 663.791L213.941 664.44L214.301 664.902L214.416 665.037L214.495 665.122L214.661 665.274L216.043 666.126L216.579 666.439L217.237 666.803L217.469 666.908L217.828 667.13L217.881 667.295L217.879 667.428L217.917 667.581L217.966 667.717L218.059 667.887L218.128 667.994L218.217 668.069L219.879 668.972L220.609 669.295L222.743 670.141L223.684 670.412L223.871 670.427L224.534 670.639L224.852 670.777L224.957 670.825L225.107 670.912L226.158 671.857L226.325 671.967L228.113 672.687L228.723 672.888L230.166 673.193L231.942 673.535L232.655 673.528L232.795 673.512L232.875 673.489L234.435 672.813L235.044 672.494L235.258 672.418L235.668 672.316L235.779 672.296L236.203 672.299L236.357 672.385L236.163 674.382L235.881 675.528L235.807 675.748L235.742 675.877L235.578 675.952L235.431 675.923L235.366 675.8L234.778 675.81L234.086 676.34L233.381 676.441L233.302 676.345L233.186 676.253L233.105 676.223L232.885 676.2L232.141 676.331L232.074 676.359L231.777 676.511L231.728 676.764L231.583 677.056L231.447 677.276L230.895 677.724L230.776 677.793L230.374 677.959L229.867 678.031L229.34 678.143L229.259 678.163L229.113 678.246L229.064 678.316L228.832 679.115L228.751 679.135L228.109 679.21L227.908 679.213L227.533 679.171L227.382 679.143L227.203 679.047L227.108 678.978L227.024 678.89L226.89 678.776L226.74 678.689L226.581 678.612L226.196 678.471L226.012 678.447L224.664 678.402L224.591 678.405L223.668 678.522L221.405 678.829L220.655 679.078L220.526 679.138L220.321 679.216L220.172 679.261L219.94 679.311L219.17 679.386L217.971 679.487L217.77 679.49L217.527 679.45L217.479 679.43ZM240.104 674.527L240.053 674.073L239.768 673.88L239.599 673.888L239.44 673.908L239.376 673.788L239.403 673.478L239.637 673.059L239.796 672.996L239.941 673.03L240.143 673.139L240.256 673.173L240.331 673.162L240.831 672.843L241.641 672.21L241.854 671.913L243.016 671.806L243.949 671.446L244.581 671.067L244.659 671.039L245.246 670.975L245.328 671.056L245.124 671.782L244.633 672.242L244.425 672.033L244.156 671.953L243.999 672.132L243.449 672.622L242.703 673.076L242.596 672.943L242.553 672.69L242.096 672.59L241.987 672.792L241.606 673.333L241.429 673.467L241.359 673.5L241.214 673.524L240.662 673.914L240.345 674.404L240.104 674.527ZM213.581 679.881L213.711 679.98L213.806 680.081L214.078 680.44L214.138 680.476L214.226 680.504L214.298 680.557L214.304 680.629L214.251 680.681L214.181 680.714L214.094 680.786L214.027 680.826L213.932 680.85L213.856 680.857L213.772 680.85L213.803 680.8L213.581 679.881Z" fill="#9BBECF"/>
<path d="M175.85 431.957L175.718 432.081L175.579 432.152L175.424 432.155L175.286 432.121L175.055 432.015L174.801 431.86L174.659 431.843L174.305 432.242L174.124 432.47L173.836 432.936L173.752 433.168L173.713 433.429L173.607 433.659L172.931 433.182L172.788 433.026L172.602 432.726L172.525 432.55L172.452 432.349L172.322 432.122L171.834 431.953L171.617 432.155L171.423 432.167L170.568 431.24L170.159 430.446L169.765 429.58L169.351 429.321L168.901 429.138L168.622 429.167L168.281 429.113L168.39 428.297L168.826 427.137L168.91 426.937L169.19 426.409L169.336 426.189L169.452 425.862L169.499 425.663L169.515 425.431L169.321 424.145L169.242 423.974L169.136 423.877L167.953 423.319L167.673 423.253L167.511 423.245L167.174 423.278L166.829 423.324L166.65 423.261L166.347 422.133L166.368 421.893L166.482 421.127L166.443 420.759L167.158 420.784L167.543 420.776L169.317 420.621L169.401 420.408L169.287 419.517L169.196 419.213L169.165 418.981L169.25 418.817L169.993 418.831L170.744 418.819L170.884 418.756L171.019 418.611L171.19 418.405L171.312 418.295L171.489 418.291L171.678 418.499L171.904 418.897L173.415 419.15L174.061 419.192L174.224 419.191L174.417 419.088L174.559 418.941L174.665 418.739L174.8 418.594L174.94 418.503L175.187 418.434L175.408 418.442L175.628 418.432L176.933 418.091L176.98 418.059L177.12 418.47L177.166 418.654L177.18 418.862L177.162 419.205L177.135 419.546L177.139 419.74L177.223 419.987L177.451 420.531L177.64 421.006L177.704 421.217L177.778 421.514L177.666 421.589L177.203 421.669L177.16 422.643L176.926 422.718L176.889 423.791L176.76 424.544L176.717 425.861L176.669 426.295L176.52 427.038L176.377 427.105L176.217 427.209L175.73 428.238L175.691 428.439L175.9 429.486L175.991 429.735L176.127 429.92L176.328 430.177L176.659 430.7L176.424 431.635L176.288 431.776L175.85 431.957Z" fill="#9BBECF"/>
</svg>
